<?xml version="1.0" standalone="no"?>
<!DOCTYPE svg PUBLIC "-//W3C//DTD SVG 1.1//EN" "http://www.w3.org/Graphics/SVG/1.1/DTD/svg11.dtd" >
<svg xmlns="http://www.w3.org/2000/svg" xmlns:xlink="http://www.w3.org/1999/xlink" version="1.1">
<metadata>
Created by FontForge 20170731 at Fri May 20 11:38:02 2022
 By Aleksey,,,
Copyright (c) 2014 ParaType, Inc., ParaType Ltd. All rights reserved.
</metadata>
<defs>
<font id="Stem-Bold" horiz-adv-x="1273" >
  <font-face 
    font-family="Stem-Bold"
    font-weight="400"
    font-stretch="normal"
    units-per-em="2048"
    panose-1="2 11 7 3 2 2 3 2 2 4"
    ascent="1595"
    descent="-453"
    x-height="1065"
    cap-height="1434"
    bbox="-1102 -606 2740 2036"
    underline-thickness="102"
    underline-position="-204"
    unicode-range="U+0020-FEFF"
  />
<missing-glyph horiz-adv-x="483" 
 />
    <glyph glyph-name="uniF350.var.accented" unicode="&#xf350;`" 
d="M-10 0l534 1145h226l534 -1145h-321l-86 174h-482l-88 -174h-317zM635 684l-135 -254h264zM926 1579l-271 -336l-204 143l251 361z" />
    <glyph glyph-name="uniF355.var.accented" unicode="&#xf355;`" horiz-adv-x="1134" 
d="M109 0v1147h927v-287h-620v-141h577v-277h-577v-155h635v-287h-942zM874 1579l-270 -336l-205 143l252 361z" />
    <glyph glyph-name="uniF358.var.accented" unicode="&#xf358;`" horiz-adv-x="1318" 
d="M358 0h-249v1147h307v-637l540 637h254v-1147h-307v637zM936 1579l-270 -336l-205 143l252 361z" />
    <glyph glyph-name="uniF35E.var.accented" unicode="&#xf35e;`" horiz-adv-x="1359" 
d="M49 573q0 249 183 421q184 173 448 173q263 0 447 -170t184 -424q0 -250 -184 -422q-183 -171 -447 -171q-265 0 -448 171t-183 422zM367 573q0 -135 92 -216q91 -81 221 -81q132 0 223 80q90 80 90 217q0 136 -94 217q-93 80 -219 80q-131 0 -221 -80q-92 -81 -92 -217z
M997 1579l-270 -336l-205 143l252 361z" />
    <glyph glyph-name="uniF363.var.accented" unicode="&#xf363;`" horiz-adv-x="1290" 
d="M317 49l132 246q11 -14 43 -14q59 0 81 67l-573 799h383l340 -485l246 485h323l-438 -875q-68 -137 -151 -205q-82 -67 -205 -67q-104 0 -181 49zM936 1579l-270 -336l-205 143l252 361z" />
    <glyph glyph-name="uniF36B.var.accented" unicode="&#xf36b;`" horiz-adv-x="1591" 
d="M1174 0v1147h309v-1147h-309zM563 502h-147v-215h143q117 0 163 20q48 21 48 88q0 107 -207 107zM416 1147v-356h202q240 0 355 -106q114 -105 114 -290q0 -192 -135 -294q-134 -101 -366 -101h-477v1147h307zM997 1579l-270 -336l-205 143l252 361z" />
    <glyph glyph-name="uniF36D.var.accented" unicode="&#xf36d;`" horiz-adv-x="1236" 
d="M426 442v287h440q-34 69 -113 110q-81 42 -198 42q-220 0 -342 -140l-201 199q89 113 236 170t317 57q288 0 455 -160q168 -161 168 -429q0 -263 -170 -431q-168 -167 -467 -167q-370 0 -559 266l203 174q115 -154 362 -154q123 0 208 48q84 47 105 128h-444zM854 1579
l-270 -336l-205 143l252 361z" />
    <glyph glyph-name="uniF36E.var.accented" unicode="&#xf36e;`" horiz-adv-x="1798" 
d="M109 0v1147h307v-434h116q44 199 208 326q166 128 395 128q277 0 446 -167q168 -166 168 -427q0 -253 -176 -423t-438 -170q-244 0 -407 123q-165 124 -198 350h-114v-453h-307zM829 573q0 -139 87 -223t219 -84q135 0 216 83t81 224t-82 224q-82 84 -215 84
q-132 0 -219 -84t-87 -224zM1284 1579l-270 -336l-205 143l252 361z" />
    <glyph glyph-name="uniF36F.var.accented" unicode="&#xf36f;`" horiz-adv-x="1230" 
d="M815 0v356h-166l-293 -356h-360l346 414q-258 92 -258 338q0 173 135 284t385 111h518v-1147h-307zM586 643h229v217h-225q-102 0 -145 -24q-44 -24 -44 -82q0 -49 53 -82t132 -29zM915 1579l-270 -336l-205 143l252 361z" />
    <glyph glyph-name="uniF371.var.accented" unicode="&#xf371;`" horiz-adv-x="1155" 
d="M113 1434q0 61 47 102t112 41q62 0 112 -41t50 -102q0 -67 -49 -107q-50 -41 -113 -41q-66 0 -112 40q-47 41 -47 108zM735 1434q0 62 49 102q50 41 117 41q65 0 114 -41q48 -40 48 -102q0 -67 -47 -108q-46 -40 -115 -40q-71 0 -118 40q-48 40 -48 108zM791 1640
l-197 -356l-143 45l75 377zM109 0v1147h948v-287h-641v-141h598v-277h-598v-155h655v-287h-962z" />
    <glyph glyph-name="afii10017.var.accented" unicode="&#x410;`" horiz-adv-x="1476" 
d="M-8 0l629 1434h235l629 -1434h-332l-117 266h-600l-117 -266h-327zM735 963l-188 -428h373zM1141 1733l-492 -232l-117 203l467 291z" />
    <glyph glyph-name="afii10022.var.accented" unicode="&#x415;`" horiz-adv-x="1329" 
d="M133 0v1434h1096v-297h-778v-267h727v-286h-727v-287h796v-297h-1114zM1100 1733l-492 -232l-116 203l466 291z" />
    <glyph glyph-name="afii10026.var.accented" unicode="&#x418;`" horiz-adv-x="1542" 
d="M393 0h-260v1434h318v-879l694 879h264v-1434h-317v874zM1182 1733l-492 -232l-117 203l467 291z" />
    <glyph glyph-name="afii10032.var.accented" unicode="&#x41e;`" horiz-adv-x="1599" 
d="M61 717q0 312 214 526q215 215 526 215q308 0 523 -212q214 -211 214 -529q0 -316 -214 -529t-523 -213q-310 0 -525 212t-215 530zM391 717q0 -193 120 -314q119 -120 290 -120q175 0 291 119t116 315q0 191 -122 313q-121 121 -285 121q-170 0 -290 -121
q-120 -122 -120 -313zM1171 1733l-491 -232l-117 203l467 291z" />
    <glyph glyph-name="afii10037.var.accented" unicode="&#x423;`" horiz-adv-x="1490" 
d="M1159 1434h332l-520 -1098q-82 -171 -174 -254q-91 -82 -236 -82q-178 0 -289 164l205 186q35 -53 88 -53q62 0 103 86l-668 1051h393l436 -713zM1182 1733l-492 -232l-117 203l467 291z" />
    <glyph glyph-name="afii10045.var.accented" unicode="&#x42b;`" horiz-adv-x="1843" 
d="M1393 0v1434h317v-1434h-317zM657 662h-206v-365h202q147 0 215 41t68 145q0 179 -279 179zM451 1434v-476h213q294 0 448 -128t154 -347q0 -237 -163 -360t-458 -123h-512v1434h318zM1305 1733l-492 -232l-117 203l467 291z" />
    <glyph glyph-name="afii10047.var.accented" unicode="&#x42d;`" horiz-adv-x="1447" 
d="M424 584v297h631q-34 126 -143 199q-110 73 -269 73q-111 0 -224 -43q-115 -44 -192 -139l-209 205q101 135 273 205q170 69 364 69q338 0 535 -197q196 -196 196 -530q0 -329 -199 -534t-548 -205q-426 0 -639 307l211 180q136 -190 436 -190q169 0 278 81
q112 83 134 222h-635zM1038 1733l-491 -232l-117 203l467 291z" />
    <glyph glyph-name="afii10048.var.accented" unicode="&#x42e;`" horiz-adv-x="2076" 
d="M133 0v1434h318v-570h145q45 258 239 422t465 164q325 0 520 -205q195 -206 195 -528q0 -315 -204 -524t-511 -209q-287 0 -478 161q-190 161 -228 449h-143v-594h-318zM907 717q0 -196 112 -317q110 -119 281 -119q177 0 281 117q105 118 105 319q0 198 -107 317
t-279 119q-171 0 -282 -120t-111 -316zM1591 1733l-491 -232l-117 203l467 291z" />
    <glyph glyph-name="afii10049.var.accented" unicode="&#x42f;`" horiz-adv-x="1435" 
d="M985 0v473h-244l-366 -473h-375l422 532q-154 46 -238 154q-82 106 -82 264q0 213 155 348q156 136 445 136h601v-1434h-318zM672 770h313v367h-301q-252 0 -252 -185q0 -77 67 -130q65 -52 173 -52zM1161 1733l-491 -232l-117 203l467 291z" />
    <glyph glyph-name="afii10023.var.accented" unicode="&#x401;`" horiz-adv-x="1329" 
d="M195 1702q0 68 50 112t124 44q63 0 117 -46q53 -45 53 -110q0 -68 -53 -113t-117 -45q-74 0 -124 44t-50 114zM848 1702q0 65 52 110q54 46 122 46q65 0 117 -44q51 -44 51 -112t-51 -113t-117 -45q-71 0 -123 44q-51 44 -51 114zM909 1915l-172 -320l-172 33l51 361z
M133 0v1434h1096v-297h-778v-267h727v-286h-727v-287h796v-297h-1114z" />
    <glyph glyph-name="afii10065.var.accented" unicode="&#x430;`" horiz-adv-x="1089" 
d="M240 709l-142 215q157 163 469 163q208 0 322 -115q115 -117 115 -327v-645h-297v96q-37 -43 -116 -76q-77 -32 -171 -32q-176 0 -283 95q-106 94 -106 253q0 174 138 262q137 88 345 88q120 0 193 -27q2 81 -41 116q-44 36 -131 36q-86 0 -149 -21q-61 -20 -146 -81z
M481 244q72 0 136 35q63 34 90 86v49q-69 26 -162 26q-207 0 -207 -104q0 -44 38 -68t105 -24zM895 1538l-270 -336l-205 144l252 360z" />
    <glyph glyph-name="afii10070.var.accented" unicode="&#x435;`" horiz-adv-x="1142" 
d="M897 377l178 -180q-169 -213 -459 -213q-260 0 -417 150q-158 150 -158 401q0 242 145 397t408 155q220 0 364 -135t144 -354q0 -62 -17 -172h-733q40 -166 269 -166q76 0 155 31q75 29 121 86zM584 821q-171 0 -226 -139h437q-37 139 -211 139zM934 1538l-270 -336
l-205 144l252 360z" />
    <glyph glyph-name="afii10074.var.accented" unicode="&#x438;`" horiz-adv-x="1210" 
d="M344 0h-252v1065h297v-580l477 580h252v-1065h-297v580zM967 1538l-271 -336l-204 144l251 360z" />
    <glyph glyph-name="afii10080.var.accented" unicode="&#x43e;`" horiz-adv-x="1236" 
d="M41 535q0 241 161 397q159 155 414 155t417 -155q163 -156 163 -397q0 -240 -163 -396q-162 -155 -417 -155q-249 0 -411 155q-164 156 -164 396zM348 535q0 -119 75 -197t193 -78q122 0 198 74q75 74 75 201q0 126 -78 201t-195 75q-115 0 -192 -74q-76 -73 -76 -202z
M967 1538l-271 -336l-204 144l251 360z" />
    <glyph glyph-name="afii10085.var.accented" unicode="&#x443;`" horiz-adv-x="1140" 
d="M1171 1065l-600 -1475h-321l219 500l-510 975h346l309 -619l240 619h317zM915 1538l-270 -336l-205 144l252 360z" />
    <glyph glyph-name="afii10093.var.accented" unicode="&#x44b;`" horiz-adv-x="1439" 
d="M92 0v1065h297v-283h135q248 0 358 -108q109 -108 109 -281q0 -167 -117 -280q-118 -113 -364 -113h-418zM508 506h-119v-230h117q95 0 137 28q41 27 41 87q0 61 -41 88t-135 27zM1051 0v1065h297v-1065h-297zM1018 1538l-270 -336l-205 144l252 360z" />
    <glyph glyph-name="afii10095.var.accented" unicode="&#x44d;`" horiz-adv-x="1130" 
d="M375 416v256h399q-27 79 -92 108q-68 31 -174 31q-74 0 -152 -33t-129 -106l-213 159q186 256 529 256q248 0 397 -149q150 -150 150 -403q0 -242 -152 -397q-151 -154 -418 -154q-164 0 -305 60q-142 61 -205 189l215 154q91 -127 264 -127q235 0 291 156h-405z
M846 1538l-271 -336l-204 144l252 360z" />
    <glyph glyph-name="afii10096.var.accented" unicode="&#x44e;`" horiz-adv-x="1644" 
d="M92 0v1065h297v-389h133q44 189 181 300q138 111 344 111q246 0 401 -155q156 -156 156 -397q0 -240 -156 -396q-155 -155 -401 -155q-212 0 -352 116t-179 314h-127v-414h-297zM813 535q0 -130 66 -202q67 -73 170 -73q112 0 180 73q67 71 67 202q0 129 -67 202
q-68 74 -180 74q-101 0 -168 -75q-68 -76 -68 -201zM1233 1538l-270 -336l-205 144l252 360z" />
    <glyph glyph-name="afii10097.var.accented" unicode="&#x44f;`" horiz-adv-x="1091" 
d="M549 1065h450v-1065h-297v322h-137l-219 -322h-342l272 373q-215 66 -215 329q0 160 118 262q117 101 370 101zM369 690q0 -92 151 -92h182v190h-172q-161 0 -161 -98zM934 1538l-270 -336l-205 144l252 360z" />
    <glyph glyph-name="afii10071.var.accented" unicode="&#x451;`" horiz-adv-x="1142" 
d="M123 1352q0 61 47 102t113 41q61 0 111 -41t50 -102q0 -67 -49 -107q-50 -41 -112 -41q-67 0 -113 40q-47 41 -47 108zM745 1352q0 61 50 102t116 41q65 0 114 -41q48 -40 48 -102q0 -67 -47 -108q-46 -40 -115 -40q-70 0 -117 40q-49 41 -49 108zM801 1559l-197 -357
l-143 45l76 377zM877 377l178 -180q-169 -213 -439 -213q-260 0 -417 150q-158 150 -158 401q0 242 145 397t408 155q220 0 364 -135t144 -354q0 -62 -17 -172h-733q40 -166 269 -166q161 0 256 117zM584 821q-171 0 -226 -139h437q-37 139 -211 139z" />
    <glyph glyph-name="fi" unicode="fi" horiz-adv-x="1200" 
d="M10 788v277h148v20q0 217 108 322q107 104 279 104q100 0 168 -34l-99 -263q-22 21 -51 21q-110 0 -110 -150v-20h227v-277h-225v-788h-297v788h-148zM793 0v1065h297v-1065h-297zM774 1348q0 63 47 105t121 42q72 0 119 -42t47 -105q0 -65 -47 -109q-46 -43 -119 -43
q-78 0 -123 42t-45 110z" />
    <glyph glyph-name="fl" unicode="fl" horiz-adv-x="1056" 
d="M668 0v1196q-39 39 -105 39q-110 0 -110 -150v-20h125v-277h-123v-788h-297v788h-148v277h148v20q0 217 108 322q107 104 279 104q132 0 225 -65l195 65v-1511h-297z" />
    <glyph glyph-name=".notdef" horiz-adv-x="483" 
 />
    <glyph glyph-name=".notdef" horiz-adv-x="483" 
 />
    <glyph glyph-name=".null" horiz-adv-x="0" 
 />
    <glyph glyph-name="nonmarkingreturn" horiz-adv-x="681" 
 />
    <glyph glyph-name="space" unicode=" " horiz-adv-x="483" 
 />
    <glyph glyph-name="exclam" unicode="!" horiz-adv-x="632" 
d="M164 403v1031h309v-1031h-309zM143 154q0 58 51 106q50 47 125 47q71 0 120 -48q50 -48 50 -105q0 -65 -49 -111q-50 -47 -121 -47q-76 0 -126 47t-50 111z" />
    <glyph glyph-name="quotedbl" unicode="&#x22;" horiz-adv-x="942" 
d="M514 885v549h305v-549h-305zM123 885v549h305v-549h-305z" />
    <glyph glyph-name="numbersign" unicode="#" horiz-adv-x="1468" 
d="M561 43l123 330h-160l-153 -416l-273 86l123 330h-139v258h235l66 172h-301v258h395l156 416l270 -86l-123 -330h160l152 416l272 -84l-125 -332h147v-258h-241q-2 -6 -10 -26.5t-24 -62.5t-32 -83h307v-258h-401l-151 -416zM684 803l-66 -172h162l62 172h-158z" />
    <glyph glyph-name="dollar" unicode="$" horiz-adv-x="1239" 
d="M874 397q0 58 -59 98q-60 40 -147 61q-81 19 -193 56q-100 33 -192 78q-88 43 -148 130q-59 86 -59 210q0 149 110 266q111 118 297 156v143h305v-143q253 -51 404 -250l-213 -205q-156 172 -361 172q-215 0 -215 -135q0 -52 60 -86q61 -35 147 -54q87 -19 193 -54
q100 -33 192 -78q89 -44 148 -131t59 -209q0 -165 -116 -287q-114 -120 -298 -155v-160h-305v164q-175 30 -300 120q-124 89 -187 213l231 193q72 -114 183 -180t241 -66q112 0 168 38q55 37 55 95z" />
    <glyph glyph-name="percent" unicode="%" horiz-adv-x="1918" 
d="M322 86l1048 1419l227 -166l-1036 -1392zM61 1059q0 167 119 274t295 107q177 0 296 -107q118 -106 118 -274q0 -167 -118 -273t-296 -106t-295 107q-119 108 -119 272zM360 1059q0 -58 34 -92q35 -35 81 -35q49 0 82 35t33 92q0 58 -34 92q-35 35 -81 35t-81 -35
q-34 -34 -34 -92zM1030 373q0 168 118 273q120 106 296 106t296 -106q118 -105 118 -273q0 -166 -119 -274q-117 -107 -295 -107q-179 0 -296 107q-118 108 -118 274zM1329 373q0 -58 34 -92q35 -35 81 -35t81 35q34 34 34 92t-34 92q-35 35 -81 35t-81 -35q-34 -34 -34 -92
z" />
    <glyph glyph-name="ampersand" unicode="&#x26;" horiz-adv-x="1603" 
d="M1626 0h-395q-61 44 -160 135q-68 -50 -108 -73q-45 -26 -139 -54q-88 -26 -197 -26q-266 0 -418 112q-154 113 -154 295q0 87 30 159t90 132q52 52 121 102q63 46 150 95q-120 151 -120 288q0 119 96 203t280 84q388 0 388 -283q0 -89 -64 -185t-168 -163
q56 -90 211 -256q141 168 141 459h306q0 -184 -63 -384t-175 -321q162 -178 348 -319zM639 268q67 0 128 25q58 24 87 59q-49 60 -128 148q-86 95 -116 135q-131 -78 -175 -122q-42 -42 -42 -91q0 -57 61 -106q60 -48 185 -48zM653 1124q0 -42 52 -94q57 38 57 94
q0 62 -53 62q-32 0 -44 -15t-12 -47z" />
    <glyph glyph-name="quotesingle" unicode="'" horiz-adv-x="550" 
d="M123 885v549h305v-549h-305z" />
    <glyph glyph-name="parenleft" unicode="(" horiz-adv-x="759" 
d="M739 -231l-219 -179q-246 213 -352 463q-107 252 -107 494q0 547 451 956l223 -178q-370 -346 -370 -778q0 -213 99 -414q98 -199 275 -364z" />
    <glyph glyph-name="parenright" unicode=")" horiz-adv-x="755" 
d="M244 -408l-224 179q182 160 276 369q95 213 95 407q0 432 -368 778l221 178q450 -409 450 -956q0 -245 -103 -494q-103 -248 -347 -461z" />
    <glyph glyph-name="asterisk" unicode="*" horiz-adv-x="1021" 
d="M664 1434l-9 -224l222 80l84 -276l-224 -62l146 -182l-248 -178l-123 178l-123 -182l-250 178l146 186l-224 64l84 276l228 -80l-6 222h297z" />
    <glyph glyph-name="plus" unicode="+" horiz-adv-x="1239" 
d="M123 602v266h356v355h277v-355h360v-266h-360v-358h-277v358h-356z" />
    <glyph glyph-name="comma" unicode="," horiz-adv-x="540" 
d="M197 -10q-53 18 -89 66t-36 108q0 82 51 126q52 44 145 44q91 0 141 -59t50 -154q0 -170 -102 -286q-103 -116 -234 -140l-82 178q138 29 156 117z" />
    <glyph glyph-name="hyphen" unicode="-" horiz-adv-x="868" 
d="M123 444v267h622v-267h-622z" />
    <glyph glyph-name="period" unicode="." horiz-adv-x="585" 
d="M102 166q0 68 55 121t138 53q77 0 133 -54q55 -54 55 -120q0 -70 -55 -124q-56 -54 -133 -54q-83 0 -138 53t-55 125z" />
    <glyph glyph-name="slash" unicode="/" horiz-adv-x="772" 
d="M-82 -307l664 1784l272 -86l-668 -1801z" />
    <glyph glyph-name="zero" unicode="0" horiz-adv-x="1390" 
d="M61 717q0 328 165 529q166 202 468 202q301 0 468 -203t167 -528q0 -329 -165 -530t-466 -201q-308 0 -472 200q-165 201 -165 531zM389 717q0 -207 83 -316q82 -108 226 -108q303 0 303 424t-307 424q-142 0 -224 -109q-81 -108 -81 -315z" />
    <glyph glyph-name="one" unicode="1" horiz-adv-x="815" 
d="M0 1198l471 236h201v-1434h-307v1057l-256 -117z" />
    <glyph glyph-name="two" unicode="2" horiz-adv-x="1216" 
d="M317 911l-276 105q51 207 217 319q167 113 373 113q254 0 389 -132t135 -343q0 -193 -111 -334q-113 -144 -327 -281l-96 -61h548v-297h-1108v231l170 119q307 213 385 277q210 176 211 317q0 95 -53 146t-156 51q-211 0 -301 -230z" />
    <glyph glyph-name="three" unicode="3" horiz-adv-x="1271" 
d="M311 967l-254 118q137 367 602 367q228 0 366 -102t138 -281q0 -205 -186 -293q233 -84 233 -332q0 -205 -147 -333q-146 -127 -399 -127q-239 0 -395 84q-157 85 -236 294l278 125q30 -91 115 -149q84 -57 205 -57q113 0 183 44q69 43 69 119q0 146 -232 146h-209v287
h168q104 0 165 41t61 102q0 135 -205 135q-235 0 -320 -188z" />
    <glyph glyph-name="four" unicode="4" horiz-adv-x="1316" 
d="M770 0v250h-760v205l813 979h254v-908h219v-276h-219v-250h-307zM420 526h350v400z" />
    <glyph glyph-name="five" unicode="5" horiz-adv-x="1288" 
d="M131 709l76 725h958v-297h-688l-26 -222q84 41 292 41q241 0 372 -130q132 -130 132 -349q0 -226 -155 -359q-157 -134 -424 -134q-222 0 -376 83q-152 82 -251 283l287 127q34 -83 127 -135q91 -51 204 -51q124 0 192 49q69 50 69 131q0 93 -68 146t-197 53
q-105 0 -169 -21t-140 -67z" />
    <glyph glyph-name="six" unicode="6" horiz-adv-x="1327" 
d="M61 678q0 374 186 574t488 200q173 0 285 -57t203 -154l-176 -225q-46 40 -85 68q-38 27 -98 49t-129 22q-167 0 -261 -96q-95 -97 -95 -254q129 180 414 180q227 0 360 -129t133 -340q0 -233 -160 -384q-159 -150 -399 -150q-301 0 -483 182q-183 183 -183 514zM428 512
q2 -90 81 -162q78 -71 191 -71q116 0 187 61t71 158q0 93 -65 146q-66 54 -174 54q-112 0 -190 -59t-101 -127z" />
    <glyph glyph-name="seven" unicode="7" horiz-adv-x="1167" 
d="M20 1137v297h1127v-199l-621 -1235h-329l573 1137h-750z" />
    <glyph glyph-name="eight" unicode="8" horiz-adv-x="1368" 
d="M657 868h58q96 0 158 40q63 41 63 112q0 143 -254 143q-250 0 -250 -141q0 -68 60 -111q59 -43 165 -43zM711 602h-47q-137 0 -205 -46q-70 -47 -70 -118q0 -81 76 -124q77 -44 219 -44q295 0 295 162q0 170 -268 170zM686 -16q-299 0 -461 113q-164 114 -164 317
q0 102 58 198t149 136q-71 34 -116 117q-48 88 -48 169q0 188 155 302t425 114q279 0 430 -112q150 -111 150 -304q0 -196 -162 -278q103 -38 153 -128q52 -93 52 -206q0 -208 -168 -323q-167 -115 -453 -115z" />
    <glyph glyph-name="nine" unicode="9" horiz-adv-x="1368" 
d="M1307 756q0 -375 -185 -575q-184 -199 -489 -199q-180 0 -323 61t-226 150l176 225q62 -55 168 -97q105 -42 205 -42q175 0 266 93t90 216q-117 -139 -366 -139q-274 0 -428 131t-154 352q0 227 169 374q168 146 433 146q304 0 483 -182q181 -184 181 -514zM952 881
q-5 115 -81 194q-77 80 -207 80q-133 0 -214 -60t-81 -159q0 -90 76 -145q77 -56 194 -56q120 0 207 43q88 43 106 103z" />
    <glyph glyph-name="colon" unicode=":" horiz-adv-x="591" 
d="M123 911q0 59 50 106q49 46 126 46q70 0 120 -47t50 -105q0 -64 -49 -110q-50 -47 -121 -47q-78 0 -127 46t-49 111zM123 154q0 59 50 106t126 47q71 0 120 -48q50 -48 50 -105q0 -65 -49 -111q-50 -47 -121 -47q-77 0 -127 47q-49 46 -49 111z" />
    <glyph glyph-name="semicolon" unicode=";" horiz-adv-x="589" 
d="M115 911q0 59 50 106q49 46 126 46q70 0 120 -47t50 -105q0 -64 -49 -110q-50 -47 -121 -47q-78 0 -127 46t-49 111zM231 -10q-43 16 -78 61q-34 44 -34 94q0 74 46 114t130 40q82 0 127 -52q45 -53 45 -138q0 -156 -93 -263q-94 -107 -222 -131l-70 174q49 6 96 31
q45 24 53 70z" />
    <glyph glyph-name="less" unicode="&#x3c;" horiz-adv-x="1105" 
d="M983 72l-963 606v125l963 598v-320l-551 -344l551 -344v-321z" />
    <glyph glyph-name="equal" unicode="=" horiz-adv-x="1177" 
d="M123 801v258h932v-258h-932zM123 410v258h932v-258h-932z" />
    <glyph glyph-name="greater" unicode="&#x3e;" horiz-adv-x="1105" 
d="M1085 678l-962 -606v321l555 344l-555 344v320l962 -598v-125z" />
    <glyph glyph-name="question" unicode="?" horiz-adv-x="1280" 
d="M891 1004q0 57 -62 98t-161 41q-126 0 -202 -47q-75 -46 -116 -144l-289 101q40 130 145 224q103 93 224 133q120 40 250 40q250 0 395 -113q144 -113 144 -282q0 -109 -36 -189t-90 -122q-52 -40 -117 -76q-72 -40 -117 -57q-55 -21 -90 -55q-36 -34 -36 -81
q0 -23 4 -43t4 -29l-288 -4q-19 54 -19 107q0 92 47 159q46 65 115 102q65 34 134 66q71 32 114 71q47 42 47 100zM414 154q0 59 50 106t126 47q70 0 120 -48t50 -105q0 -65 -49 -111q-50 -47 -121 -47q-77 0 -127 47q-49 46 -49 111z" />
    <glyph glyph-name="at" unicode="@" horiz-adv-x="1941" 
d="M1135 0v49q-84 -65 -217 -65q-201 0 -333 138t-132 359q0 224 157 372t396 148q252 0 426 -135v-587q71 27 106 96q35 70 35 213q0 248 -161 379t-425 131q-265 0 -441 -169q-177 -169 -177 -435q0 -263 172 -435t446 -172q160 0 295 47l21 -268q-141 -45 -316 -45
q-416 0 -660 247q-245 248 -245 626q0 386 254 628t651 242q404 0 638 -210q235 -211 235 -562q0 -233 -138 -413q-137 -179 -379 -179h-208zM973 250q47 0 92 30q47 32 70 74v346q-46 35 -131 35q-107 0 -176 -73q-68 -72 -68 -191q0 -102 58 -161q58 -60 155 -60z" />
    <glyph glyph-name="A" unicode="A" horiz-adv-x="1476" 
d="M-8 0l629 1434h235l629 -1434h-332l-117 266h-600l-117 -266h-327zM735 963l-188 -428h373z" />
    <glyph glyph-name="B" unicode="B" horiz-adv-x="1388" 
d="M133 0v1434h641q496 0 496 -367q0 -185 -140 -307q187 -89 187 -334q0 -217 -152 -322q-150 -104 -407 -104h-625zM741 588h-290v-291h274q142 0 201 34t59 113q0 76 -55 110t-189 34zM721 1137h-270v-263h297q93 0 143 32q49 31 49 89q0 73 -47 108q-46 34 -172 34z" />
    <glyph glyph-name="C" unicode="C" horiz-adv-x="1425" 
d="M1217 473l188 -203q-96 -141 -257 -218q-162 -77 -353 -77q-335 0 -534 204q-200 205 -200 538q0 313 207 527t535 214q193 0 347 -75q155 -75 232 -197l-215 -197q-62 79 -155 120q-94 42 -187 42q-195 0 -314 -118q-120 -119 -120 -316q0 -192 122 -314
q120 -120 308 -120q245 0 396 190z" />
    <glyph glyph-name="D" unicode="D" horiz-adv-x="1474" 
d="M133 0v1434h455q222 0 387 -56t257 -154q94 -100 137 -220q44 -123 44 -269q0 -327 -213 -531t-643 -204h-424zM584 1137h-133v-840h133q501 0 501 438q0 402 -501 402z" />
    <glyph glyph-name="E" unicode="E" horiz-adv-x="1329" 
d="M133 0v1434h1096v-297h-778v-267h727v-286h-727v-287h796v-297h-1114z" />
    <glyph glyph-name="F" unicode="F" horiz-adv-x="1269" 
d="M133 0v1434h1086v-297h-768v-314h716v-297h-716v-526h-318z" />
    <glyph glyph-name="G" unicode="G" horiz-adv-x="1497" 
d="M748 516v287h667v-580q-105 -115 -257 -182q-150 -66 -320 -66q-341 0 -558 205q-219 207 -219 537q0 313 208 527t534 214q186 0 344 -70t235 -188l-219 -196q-131 147 -348 147q-196 0 -310 -116q-114 -115 -114 -318q0 -206 124 -320q125 -114 325 -114q158 0 270 82
v151h-362z" />
    <glyph glyph-name="H" unicode="H" horiz-adv-x="1538" 
d="M1087 0v573h-636v-573h-318v1434h318v-564h636v564h318v-1434h-318z" />
    <glyph glyph-name="I" unicode="I" horiz-adv-x="604" 
d="M143 0v1434h318v-1434h-318z" />
    <glyph glyph-name="J" unicode="J" horiz-adv-x="995" 
d="M872 1434v-985q0 -229 -116 -351q-117 -123 -318 -123q-324 0 -458 275l231 178q77 -156 199 -156q76 0 111 59q34 58 34 179v924h317z" />
    <glyph glyph-name="K" unicode="K" horiz-adv-x="1435" 
d="M133 0v1434h318v-560l550 560h414l-622 -635l663 -799h-418l-485 586l-102 -105v-481h-318z" />
    <glyph glyph-name="L" unicode="L" horiz-adv-x="1245" 
d="M133 0v1434h318v-1137h774v-297h-1092z" />
    <glyph glyph-name="M" unicode="M" horiz-adv-x="1742" 
d="M133 0v1434h295l459 -686l436 686h287v-1434h-318v860l-372 -571h-84l-385 577v-866h-318z" />
    <glyph glyph-name="N" unicode="N" horiz-adv-x="1515" 
d="M1382 0h-245l-695 850v-850h-309v1434h244l696 -852v852h309v-1434z" />
    <glyph glyph-name="O" unicode="O" horiz-adv-x="1599" 
d="M61 717q0 312 214 526q215 215 526 215q308 0 523 -212q214 -211 214 -529q0 -316 -214 -529t-523 -213q-310 0 -525 212t-215 530zM391 717q0 -193 120 -314q119 -120 290 -120q175 0 291 119t116 315q0 191 -122 313q-121 121 -285 121q-170 0 -290 -121
q-120 -122 -120 -313z" />
    <glyph glyph-name="P" unicode="P" horiz-adv-x="1386" 
d="M451 0h-318v1434h594q176 0 299 -43q124 -43 189 -117q67 -76 93 -156q27 -82 27 -178q0 -205 -147 -347q-146 -142 -461 -142h-276v-451zM735 1137h-284v-389h272q283 0 283 194q0 195 -271 195z" />
    <glyph glyph-name="Q" unicode="Q" horiz-adv-x="1599" 
d="M61 717q0 313 211 527t529 214q325 0 531 -210q206 -211 206 -531q0 -296 -188 -496l123 -151l-222 -179l-131 160q-161 -76 -319 -76q-329 0 -535 204q-205 204 -205 538zM391 717q0 -196 115 -316q114 -118 295 -118q78 0 143 26l-115 131l201 170l115 -139
q63 90 63 246q0 197 -114 315q-114 119 -293 119q-181 0 -295 -119q-115 -120 -115 -315z" />
    <glyph glyph-name="R" unicode="R" horiz-adv-x="1411" 
d="M451 0h-318v1434h580q163 0 281 -39t181 -108q64 -70 90 -146q27 -78 27 -174q0 -142 -75 -254q-78 -116 -205 -166l399 -547h-383l-350 489h-227v-489zM707 1137h-256v-351h268q115 0 180 48q64 47 64 133q0 83 -57 127q-56 43 -199 43z" />
    <glyph glyph-name="S" unicode="S" horiz-adv-x="1267" 
d="M879 397q0 57 -60 98q-60 40 -147 61q-81 19 -193 56q-100 33 -192 78q-88 43 -148 130q-59 86 -59 210q0 178 154 307q155 129 401 129q363 0 561 -264l-213 -205q-156 172 -360 172q-215 0 -215 -135q0 -52 59 -86q61 -35 147 -54q87 -19 193 -54q100 -33 192 -78
q89 -44 148 -131t59 -209q0 -195 -155 -325t-387 -130q-244 0 -414 99q-172 100 -250 251l231 193q72 -114 183 -180t241 -66q112 0 168 38t56 95z" />
    <glyph glyph-name="T" unicode="T" horiz-adv-x="1236" 
d="M0 1137v297h1237v-297h-461v-1137h-317v1137h-459z" />
    <glyph glyph-name="U" unicode="U" horiz-adv-x="1474" 
d="M1362 1434v-820q0 -129 -35 -237q-34 -105 -92 -178q-57 -72 -136 -121q-81 -50 -165 -71q-86 -21 -180 -21q-272 0 -457 168q-184 168 -184 473v807h317v-770q0 -174 84 -278q84 -103 240 -103q290 0 290 372v779h318z" />
    <glyph glyph-name="V" unicode="V" horiz-adv-x="1495" 
d="M1516 1434l-642 -1434h-221l-673 1434h350l436 -951l408 951h342z" />
    <glyph glyph-name="W" unicode="W" horiz-adv-x="1988" 
d="M1989 1434l-424 -1434h-258l-306 868l-296 -868h-259l-446 1434h328l262 -865l287 865h253l293 -859l250 859h316z" />
    <glyph glyph-name="X" unicode="X" horiz-adv-x="1447" 
d="M1432 1434l-519 -707l535 -727h-387l-336 469l-338 -469h-387l537 727l-514 707h383l321 -445l320 445h385z" />
    <glyph glyph-name="Y" unicode="Y" horiz-adv-x="1433" 
d="M1454 1434l-582 -920v-514h-317v514l-575 920h378l361 -574l368 574h367z" />
    <glyph glyph-name="Z" unicode="Z" horiz-adv-x="1300" 
d="M55 1137v297h1186v-211l-764 -926h783v-297h-1240v211l760 926h-725z" />
    <glyph glyph-name="bracketleft" unicode="[" horiz-adv-x="765" 
d="M123 -358v1810h622v-297h-305v-1216h305v-297h-622z" />
    <glyph glyph-name="backslash" unicode="\" horiz-adv-x="772" 
d="M188 1477l666 -1784l-270 -103l-666 1801z" />
    <glyph glyph-name="bracketright" unicode="]" horiz-adv-x="765" 
d="M643 1452v-1810h-623v297h306v1216h-306v297h623z" />
    <glyph glyph-name="asciicircum" unicode="^" horiz-adv-x="1091" 
d="M20 807l435 641h184l432 -641h-346l-178 274l-182 -274h-345z" />
    <glyph glyph-name="underscore" unicode="_" horiz-adv-x="727" 
d="M0 -358v266h727v-266h-727z" />
    <glyph glyph-name="grave" unicode="`" horiz-adv-x="745" 
d="M569 1202l-301 328l234 176l243 -363z" />
    <glyph glyph-name="a" unicode="a" horiz-adv-x="1089" 
d="M240 709l-142 215q157 163 469 163q208 0 322 -115q115 -117 115 -327v-645h-297v96q-37 -43 -116 -76q-77 -32 -171 -32q-176 0 -283 95q-106 94 -106 253q0 174 138 262q137 88 345 88q120 0 193 -27q2 81 -41 116q-44 36 -131 36q-86 0 -149 -21q-61 -20 -146 -81z
M481 244q72 0 136 35q63 34 90 86v49q-69 26 -162 26q-207 0 -207 -104q0 -44 38 -68t105 -24z" />
    <glyph glyph-name="b" unicode="b" horiz-adv-x="1214" 
d="M92 0v1495h297v-502q35 46 118 70t173 24q226 0 359 -143q135 -146 135 -395q0 -259 -145 -413q-143 -152 -382 -152q-155 0 -258 59v-43h-297zM618 811q-177 0 -229 -139v-281q77 -131 229 -131q116 0 182 71t66 208q0 135 -65 203q-66 69 -183 69z" />
    <glyph glyph-name="c" unicode="c" horiz-adv-x="1105" 
d="M883 399l217 -129q-72 -139 -200 -213q-127 -73 -282 -73q-259 0 -418 150t-159 401q0 240 158 396q157 156 405 156q182 0 308 -72q128 -73 180 -194l-222 -143q-99 133 -247 133q-123 0 -199 -76t-76 -200q0 -115 84 -195q85 -80 219 -80q148 0 232 139z" />
    <glyph glyph-name="d" unicode="d" horiz-adv-x="1200" 
d="M811 0v84q-36 -40 -104 -70q-69 -30 -164 -30q-227 0 -364 143q-138 144 -138 403q0 242 152 400q151 157 368 157q171 0 250 -51v459h297v-1495h-297zM606 260q60 0 121 35q60 35 84 90v344q-66 82 -186 82q-117 0 -198 -73q-79 -72 -79 -203q0 -127 72 -201t186 -74z
" />
    <glyph glyph-name="e" unicode="e" horiz-adv-x="1142" 
d="M897 377l178 -180q-169 -213 -459 -213q-260 0 -417 150q-158 150 -158 401q0 242 145 397t408 155q220 0 364 -135t144 -354q0 -62 -17 -172h-733q40 -166 269 -166q76 0 155 31q75 29 121 86zM584 821q-171 0 -226 -139h437q-37 139 -211 139z" />
    <glyph glyph-name="f" unicode="f" horiz-adv-x="712" 
d="M10 788v277h148v20q0 217 108 322q107 104 279 104q194 0 289 -125l-164 -192q-38 41 -107 41q-110 0 -110 -150v-20h268v-277h-266v-788h-297v788h-148z" />
    <glyph glyph-name="g" unicode="g" horiz-adv-x="1185" 
d="M1094 1065v-973q0 -260 -132 -390q-131 -130 -374 -130q-187 0 -315 77q-129 77 -181 216l260 108q66 -125 207 -125q238 0 238 185v47q-66 -96 -240 -96q-232 0 -374 143t-142 408q0 247 154 396q152 148 362 148q157 0 240 -57v43h297zM608 260q69 0 118 34
q50 35 71 85v354q-58 70 -191 70q-112 0 -185 -71t-73 -202t69 -200q70 -70 191 -70z" />
    <glyph glyph-name="h" unicode="h" horiz-adv-x="1175" 
d="M92 0v1495h297v-498q98 88 283 88q216 0 318 -117q104 -119 104 -372v-596h-297v582q0 124 -47 176q-46 51 -156 51q-129 0 -205 -127v-682h-297z" />
    <glyph glyph-name="i" unicode="i" horiz-adv-x="518" 
d="M111 0v1065h297v-1065h-297zM92 1348q0 63 47 105q46 42 121 42q72 0 119 -42t47 -105q0 -65 -47 -109q-46 -43 -119 -43q-78 0 -123 42t-45 110z" />
    <glyph glyph-name="j" unicode="j" horiz-adv-x="516" 
d="M410 1065v-1061q0 -205 -94 -319q-93 -113 -281 -113q-282 0 -383 246l260 100q35 -70 96 -70q105 0 105 162v1055h297zM92 1350q0 63 46 105q47 42 124 42q70 0 116 -42t46 -105q0 -68 -44 -110t-118 -42q-78 0 -124 42t-46 110z" />
    <glyph glyph-name="k" unicode="k" horiz-adv-x="1089" 
d="M92 0v1495h297v-790l336 360h381l-457 -465l471 -600h-377l-317 401l-37 -24v-377h-297z" />
    <glyph glyph-name="l" unicode="l" horiz-adv-x="481" 
d="M92 0v1495h297v-1495h-297z" />
    <glyph glyph-name="m" unicode="m" horiz-adv-x="1691" 
d="M1610 709v-709h-297v625q0 184 -137 184q-120 0 -177 -129v-680h-297v674q0 62 -32 98q-33 37 -92 37q-138 0 -189 -131v-678h-297v1065h297v-72q84 92 256 92q167 0 275 -114q60 61 122 88q61 26 156 26q198 0 305 -96t107 -280z" />
    <glyph glyph-name="n" unicode="n" horiz-adv-x="1181" 
d="M92 0v1065h297v-76q79 96 291 96q210 0 314 -117q106 -120 106 -370v-598h-297v580q0 124 -50 177q-49 52 -159 52q-148 0 -205 -141v-668h-297z" />
    <glyph glyph-name="o" unicode="o" horiz-adv-x="1236" 
d="M41 535q0 241 161 397q159 155 414 155t417 -155q163 -156 163 -397q0 -240 -163 -396q-162 -155 -417 -155q-249 0 -411 155q-164 156 -164 396zM348 535q0 -119 75 -197t193 -78q122 0 198 74q75 74 75 201q0 126 -78 201t-195 75q-115 0 -192 -74q-76 -73 -76 -202z
" />
    <glyph glyph-name="p" unicode="p" horiz-adv-x="1191" 
d="M92 -410v1475h297v-55q83 77 238 77q240 0 382 -149t142 -389q0 -248 -146 -406q-147 -159 -387 -159q-182 0 -229 53v-447h-297zM594 811q-139 0 -205 -121v-340q26 -38 77 -64q50 -26 112 -26q122 0 194 72t72 194q0 140 -66 212q-67 73 -184 73z" />
    <glyph glyph-name="q" unicode="q" horiz-adv-x="1185" 
d="M797 -410v461q-76 -67 -238 -67q-230 0 -374 150t-144 401q0 244 162 394t399 150q127 0 195 -41v27h297v-1475h-297zM608 260q56 0 110 27q56 28 79 71v379q-63 66 -189 66q-109 0 -185 -74q-75 -73 -75 -199t74 -198t186 -72z" />
    <glyph glyph-name="r" unicode="r" horiz-adv-x="741" 
d="M92 0v1065h297v-43q18 24 67 44q47 19 97 19q80 0 125 -21q44 -21 84 -71l-152 -237q-22 43 -96 43q-95 0 -125 -111v-688h-297z" />
    <glyph glyph-name="s" unicode="s" horiz-adv-x="1015" 
d="M678 317q0 27 -63 50q-74 26 -150 47q-92 25 -177 61q-89 38 -152 110q-62 71 -62 173q0 152 122 241q121 88 336 88q149 0 268 -56q123 -58 175 -136l-203 -195q-106 111 -299 111q-92 0 -92 -51q0 -25 62 -44q53 -17 151 -43q92 -25 177 -61q92 -39 152 -112
q62 -75 62 -181q0 -164 -128 -250q-127 -85 -322 -85q-185 0 -317 72q-130 71 -193 186l235 159q44 -59 129 -100t178 -41q111 0 111 57z" />
    <glyph glyph-name="t" unicode="t" horiz-adv-x="913" 
d="M10 788v277h203v248h297v-248h326v-277h-326v-346q0 -95 25 -137q24 -41 83 -41q93 0 183 70l123 -211q-129 -135 -334 -135q-173 0 -275 93t-102 273v434h-203z" />
    <glyph glyph-name="u" unicode="u" horiz-adv-x="1167" 
d="M1075 1071v-1071h-297v70q-112 -86 -250 -86q-225 0 -335 116q-111 117 -111 363v608h297v-586q0 -225 180 -225q141 0 219 131v680h297z" />
    <glyph glyph-name="v" unicode="v" horiz-adv-x="1079" 
d="M1130 1065l-466 -1065h-226l-489 1065h334l272 -614l260 614h315z" />
    <glyph glyph-name="w" unicode="w" horiz-adv-x="1529" 
d="M1561 1065l-342 -1065h-236l-213 578l-215 -578h-233l-353 1065h307l181 -559l205 559h221l207 -559l170 559h301z" />
    <glyph glyph-name="x" unicode="x" horiz-adv-x="1179" 
d="M1182 1065l-408 -516l426 -549h-369l-243 326l-252 -326h-356l426 547l-406 518h367l227 -289l229 289h359z" />
    <glyph glyph-name="y" unicode="y" horiz-adv-x="1140" 
d="M1171 1065l-600 -1475h-321l219 500l-510 975h346l309 -619l240 619h317z" />
    <glyph glyph-name="z" unicode="z" horiz-adv-x="1052" 
d="M72 788v277h940v-191l-531 -598h520v-276h-960v193l528 595h-497z" />
    <glyph glyph-name="braceleft" unicode="{" horiz-adv-x="741" 
d="M182 -43v295q0 98 -39 130q-40 32 -123 32v262q97 0 130 24q32 23 32 107v309q0 186 83 261t278 75h178v-262h-119q-69 0 -93 -30t-24 -111v-297q0 -146 -102 -199q102 -45 102 -209v-313q0 -72 23 -100q22 -27 90 -27h123v-262h-215q-164 0 -243 75q-81 77 -81 240z" />
    <glyph glyph-name="bar" unicode="|" horiz-adv-x="645" 
d="M164 0v1434h317v-1434h-317z" />
    <glyph glyph-name="braceright" unicode="}" horiz-adv-x="741" 
d="M559 252v-295q0 -163 -81 -240q-79 -75 -242 -75h-216v262h123q67 0 90 27q23 28 23 100v313q0 164 102 209q-102 53 -102 199v297q0 81 -24 111t-93 30h-119v262h179q195 0 277 -75q83 -75 83 -261v-309q0 -83 33 -107t129 -24v-262q-83 0 -123 -32q-39 -32 -39 -130z
" />
    <glyph glyph-name="asciitilde" unicode="~" horiz-adv-x="1148" 
d="M174 528l-154 205q117 113 183 152q84 45 178 45q90 0 216 -66q124 -65 181 -65q127 0 219 131l131 -209q-66 -81 -157 -131q-89 -49 -172 -49q-112 0 -235 65q-125 66 -181 66q-103 0 -209 -144z" />
    <glyph glyph-name="uni00A0" unicode="&#xa0;" horiz-adv-x="483" 
 />
    <glyph glyph-name="exclamdown" unicode="&#xa1;" horiz-adv-x="632" 
d="M164 -373v1030h309v-1030h-309zM143 907q0 64 50 111t126 47q71 0 121 -47q49 -46 49 -111q0 -57 -50 -105q-49 -48 -120 -48q-75 0 -125 47q-51 48 -51 106z" />
    <glyph glyph-name="cent" unicode="&#xa2;" horiz-adv-x="1116" 
d="M893 399l217 -129q-106 -208 -332 -268v-412h-317v412q-191 45 -300 185q-110 142 -110 348q0 197 112 344q110 145 298 190v365h317v-365q240 -57 324 -248l-221 -143q-64 87 -144 117v-525q93 24 156 129zM358 535q0 -74 38 -138q37 -61 106 -100v485
q-144 -66 -144 -247z" />
    <glyph glyph-name="sterling" unicode="&#xa3;" horiz-adv-x="1224" 
d="M113 508v254h96q-55 126 -55 248q0 178 132 308q131 130 347 130q285 0 465 -201l-168 -237q-144 141 -301 141q-68 0 -113 -42t-45 -122q0 -27 7 -55q8 -31 15 -50q1 -4 5 -14.5t8.5 -22t9.5 -23.5q5 -11 13.5 -31.5t11.5 -28.5h340v-254h-289v-25q0 -90 -47 -151
q44 -1 152 -37q107 -35 157 -35q59 0 101 25q41 24 92 92l157 -201q-135 -176 -344 -176q-93 0 -234 43t-218 43q-134 0 -246 -109l-142 220q106 105 218 135q45 61 45 145v31h-170z" />
    <glyph glyph-name="currency" unicode="&#xa4;" horiz-adv-x="1331" 
d="M158 711q0 139 63 252l-170 172l193 192l178 -174q117 55 244 55q139 0 243 -55l187 182l194 -192l-182 -182q68 -130 68 -250q0 -124 -68 -246l174 -176l-192 -195l-179 178q-105 -57 -245 -57q-141 0 -248 57l-187 -186l-190 193l182 186q-65 117 -65 246zM455 711
q0 -93 61 -155t150 -62q90 0 151 61q62 62 62 156q0 97 -63 159q-64 62 -150 62q-91 0 -151 -63t-60 -158z" />
    <glyph glyph-name="yen" unicode="&#xa5;" horiz-adv-x="1433" 
d="M250 616v258h123l-393 560h393l346 -506l350 506h385l-399 -560h127v-258h-310v-133h310v-258h-310v-225h-317v225h-305v258h305v133h-305z" />
    <glyph glyph-name="brokenbar" unicode="&#xa6;" horiz-adv-x="645" 
d="M481 788h-317v646h317v-646zM164 645h317v-645h-317v645z" />
    <glyph glyph-name="section" unicode="&#xa7;" horiz-adv-x="1019" 
d="M61 537q0 232 181 335q-90 96 -90 224q0 149 110 243q112 95 270 95q203 0 359 -201l-191 -176q-63 80 -147 80q-34 0 -59 -22t-25 -54q0 -47 21 -70q20 -21 71 -43q179 -18 288 -132q109 -113 109 -279q0 -221 -180 -340q86 -97 86 -217q0 -150 -109 -244t-270 -94
q-203 0 -358 200l178 209q72 -112 180 -112q36 0 57 22q21 23 21 59q0 32 -29 60q-29 27 -77 43q-179 18 -287 132q-109 115 -109 282zM365 537q0 -69 43 -113q44 -45 102 -45q61 0 103 45t42 113q0 65 -42 111t-103 46q-59 0 -102 -46t-43 -111z" />
    <glyph glyph-name="dieresis" unicode="&#xa8;" horiz-adv-x="980" 
d="M236 1352q0 61 47 102t112 41q62 0 112 -41t50 -102q0 -67 -49 -107q-50 -41 -113 -41q-66 0 -112 40q-47 41 -47 108zM653 1352q0 62 49 102q50 41 117 41q65 0 114 -41q48 -40 48 -102q0 -67 -47 -108q-46 -40 -115 -40q-71 0 -118 40q-48 40 -48 108z" />
    <glyph glyph-name="copyright" unicode="&#xa9;" horiz-adv-x="1927" 
d="M82 485q0 364 253 614q254 251 628 251q380 0 632 -241q250 -240 250 -624q0 -375 -252 -619q-253 -245 -630 -245q-385 0 -633 236t-248 628zM354 485q0 -270 174 -438t435 -168q268 0 439 168t171 438q0 279 -167 443t-443 164q-258 0 -433 -172q-176 -173 -176 -435z
M1237 379l164 -180q-63 -93 -180 -154q-118 -61 -234 -61q-252 0 -393 138t-141 372q0 215 146 361t364 146q287 0 417 -204l-192 -168q-84 100 -199 100q-100 0 -168 -62q-69 -63 -69 -173q0 -113 71 -175q72 -63 178 -63q140 0 236 123z" />
    <glyph glyph-name="ordfeminine" unicode="&#xaa;" horiz-adv-x="950" 
d="M223 1083l-90 185q137 85 365 86q155 1 242 -78q87 -80 87 -223v-441h-266v56q-58 -64 -184 -64q-131 0 -208 65t-77 173q0 116 103 171q102 54 262 54q62 0 104 -14q0 37 -22 56t-88 19q-107 0 -228 -45zM453 819q65 0 108 33v33q-55 18 -106 18q-86 0 -86 -43
q0 -26 17 -33q19 -8 67 -8z" />
    <glyph glyph-name="guillemotleft" unicode="&#xab;" horiz-adv-x="1183" 
d="M444 78l-383 454v15l383 438l205 -182l-229 -266l231 -271zM915 78l-383 454v15l383 438l205 -182l-229 -266l231 -271z" />
    <glyph glyph-name="logicalnot" unicode="&#xac;" horiz-adv-x="1073" 
d="M41 606v258h991v-493h-250v235h-741z" />
    <glyph glyph-name="uni00AD" unicode="&#xad;" horiz-adv-x="868" 
d="M123 444v267h622v-267h-622z" />
    <glyph glyph-name="registered" unicode="&#xae;" horiz-adv-x="1179" 
d="M61 981q0 210 155 359t376 149q217 0 372 -149q154 -148 154 -359q0 -215 -154 -365q-153 -149 -372 -149q-223 0 -376 149q-155 150 -155 365zM154 979q0 -180 127 -300q128 -120 309 -120q176 0 306 129t130 291q0 175 -132 296q-133 122 -304 122q-181 0 -309 -125
q-127 -124 -127 -293zM537 680h-218v604h254q157 0 224 -58t67 -153q0 -125 -90 -176l113 -217h-242l-59 133h-49v-133zM629 1051q0 32 -43 32h-49v-65h49q43 0 43 33z" />
    <glyph glyph-name="macron" unicode="&#xaf;" horiz-adv-x="929" 
d="M328 1249v246h602v-246h-602z" />
    <glyph glyph-name="degree" unicode="&#xb0;" horiz-adv-x="854" 
d="M61 1110q0 147 107 248q106 100 258 100q154 0 260 -99q107 -99 107 -247q0 -145 -108 -247q-107 -101 -259 -101t-258 100q-107 101 -107 246zM348 1110q0 -34 23 -52q22 -18 55 -18q32 0 56 18t24 52q0 35 -24 53q-25 19 -56 19q-32 0 -55 -18t-23 -54z" />
    <glyph glyph-name="plusminus" unicode="&#xb1;" horiz-adv-x="1095" 
d="M82 748v256h336v358h256v-358h340v-256h-340v-193h-256v193h-336zM82 250v256h932v-256h-932z" />
    <glyph glyph-name="twosuperior" unicode="&#xb2;" horiz-adv-x="870" 
d="M256 1124l-195 125q105 234 398 234q147 0 237 -73q88 -72 88 -185q0 -197 -184 -314l-80 -51h289v-246h-719v207l160 92q258 147 258 244q0 80 -78 80q-124 0 -174 -113z" />
    <glyph glyph-name="threesuperior" unicode="&#xb3;" horiz-adv-x="884" 
d="M233 1141l-178 143q118 201 379 201q161 0 256 -59q94 -58 94 -156q0 -71 -28 -114q-30 -45 -90 -79q137 -51 137 -196q0 -123 -105 -200q-106 -77 -272 -77q-272 0 -385 230l203 116q30 -100 182 -100q57 0 78 10q22 10 22 37q0 45 -110 45h-80v205h67q105 0 105 49
q0 43 -78 43q-72 0 -115 -24q-44 -24 -82 -74z" />
    <glyph glyph-name="acute" unicode="&#xb4;" horiz-adv-x="929" 
d="M895 1538l-270 -336l-205 144l252 360z" />
    <glyph glyph-name="mu" unicode="&#xb5;" horiz-adv-x="1181" 
d="M1090 1065v-1065h-297v55q-95 -71 -250 -71q-91 0 -154 39v-431h-297v1473h297v-580q0 -120 44 -173q43 -52 142 -52q136 0 218 82v723h297z" />
    <glyph glyph-name="mu" unicode="&#x3bc;" horiz-adv-x="1181" 
d="M1090 1065v-1065h-297v55q-95 -71 -250 -71q-91 0 -154 39v-431h-297v1473h297v-580q0 -120 44 -173q43 -52 142 -52q136 0 218 82v723h297z" />
    <glyph glyph-name="paragraph" unicode="&#xb6;" horiz-adv-x="923" 
d="M45 952q0 224 129 353t350 129h359v-263h-168v-1136q0 -199 -85 -303q-86 -105 -282 -105q-83 0 -168 35q-83 34 -139 98l133 230q84 -66 166 -66q72 0 72 113v444q-166 30 -267 155q-100 124 -100 316z" />
    <glyph glyph-name="periodcentered" unicode="&#xb7;" horiz-adv-x="483" 
d="M37 621q0 58 50 105q49 46 126 46q70 0 120 -47t50 -104q0 -65 -49 -111q-50 -47 -121 -47q-78 0 -127 46t-49 112z" />
    <glyph glyph-name="cedilla" unicode="&#xb8;" horiz-adv-x="958" 
d="M377 -330l90 142q58 -58 166 -58q59 0 59 27q0 35 -92 35h-12v184h153v-53q217 -18 217 -185q0 -88 -78 -140q-79 -52 -231 -52q-162 0 -272 100z" />
    <glyph glyph-name="onesuperior" unicode="&#xb9;" horiz-adv-x="675" 
d="M20 1337l330 138h203v-861h-277v553l-157 -63z" />
    <glyph glyph-name="ordmasculine" unicode="&#xba;" horiz-adv-x="948" 
d="M82 979q0 171 107 272q109 103 284 103q177 0 286 -103q107 -101 107 -272q0 -168 -107 -271q-109 -104 -286 -104q-175 0 -284 104q-107 103 -107 271zM358 979q0 -55 33 -87q34 -32 82 -32q117 0 117 119q0 55 -33 87q-34 32 -84 32q-54 0 -84 -32q-31 -33 -31 -87z
" />
    <glyph glyph-name="guillemotright" unicode="&#xbb;" horiz-adv-x="1183" 
d="M1122 532l-383 -454l-207 188l232 271l-229 266l204 182l383 -438v-15zM651 532l-383 -454l-207 188l232 271l-230 266l205 182l383 -438v-15z" />
    <glyph glyph-name="onequarter" unicode="&#xbc;" horiz-adv-x="1841" 
d="M246 121l1128 1374l219 -176l-1124 -1382zM41 1337l330 138h202v-861h-276v553l-158 -63zM1405 0v131h-463v193l500 536h219v-493h139v-236h-139v-131h-256zM1245 367h160v165z" />
    <glyph glyph-name="onehalf" unicode="&#xbd;" horiz-adv-x="1976" 
d="M246 121l1128 1374l219 -176l-1124 -1382zM41 1337l330 138h202v-861h-276v553l-158 -63zM1341 510l-194 125q105 233 397 233q150 0 238 -72t88 -186q0 -196 -184 -313l-80 -51h288v-246h-718v207l159 92q258 147 258 244q0 80 -77 80q-125 0 -175 -113z" />
    <glyph glyph-name="threequarters" unicode="&#xbe;" horiz-adv-x="1923" 
d="M328 121l1128 1374l219 -176l-1124 -1382zM1487 0v131h-463v193l500 536h219v-493h139v-236h-139v-131h-256zM1327 367h160v165zM233 1141l-178 143q118 201 379 201q161 0 256 -59q94 -58 94 -156q0 -71 -28 -114q-30 -45 -90 -79q137 -51 137 -196q0 -123 -105 -200
q-106 -77 -272 -77q-272 0 -385 230l203 116q30 -100 182 -100q57 0 78 10q22 10 22 37q0 45 -110 45h-80v205h67q105 0 105 49q0 43 -78 43q-72 0 -115 -24q-44 -24 -82 -74z" />
    <glyph glyph-name="questiondown" unicode="&#xbf;" horiz-adv-x="1280" 
d="M389 57q0 -57 62 -98t161 -41q126 0 202 47q75 46 116 144l289 -101q-40 -130 -145 -224q-103 -93 -224 -133q-120 -40 -250 -40q-250 0 -395 113q-144 112 -144 282q0 110 36 189t90 121q56 44 117 77q72 40 117 57q55 21 90 55q36 35 36 81q0 23 -4 43t-4 28l288 5
q19 -54 19 -107q0 -92 -47 -159q-46 -65 -114 -102q-64 -35 -134 -66q-72 -32 -115 -71q-47 -42 -47 -100zM866 907q0 -59 -50 -106t-126 -47q-70 0 -120 48t-50 105q0 65 49 111q50 47 121 47q77 0 127 -47q49 -46 49 -111z" />
    <glyph glyph-name="Agrave" unicode="&#xc0;" horiz-adv-x="1476" 
d="M-8 0l629 1434h235l629 -1434h-332l-117 266h-600l-117 -266h-327zM735 963l-188 -428h373zM840 1501l-492 232l141 262l467 -291z" />
    <glyph glyph-name="Aacute" unicode="&#xc1;" horiz-adv-x="1476" 
d="M-8 0l629 1434h235l629 -1434h-332l-117 266h-600l-117 -266h-327zM735 963l-188 -428h373zM1182 1733l-492 -232l-117 203l467 291z" />
    <glyph glyph-name="Acircumflex" unicode="&#xc2;" horiz-adv-x="1476" 
d="M-8 0l629 1434h235l629 -1434h-332l-117 266h-600l-117 -266h-327zM735 963l-188 -428h373zM735 1935l377 -239l-119 -174l-262 135l-262 -135l-107 170l365 243h8z" />
    <glyph glyph-name="Atilde" unicode="&#xc3;" horiz-adv-x="1476" 
d="M-8 0l629 1434h235l629 -1434h-332l-117 266h-600l-117 -266h-327zM735 963l-188 -428h373zM446 1569l-94 192q46 56 118 93q70 36 138 36q64 0 144 -30q82 -31 133 -31q102 0 159 61l78 -192q-84 -135 -258 -135q-49 0 -136 30q-90 31 -146 31q-69 0 -136 -55z" />
    <glyph glyph-name="Adieresis" unicode="&#xc4;" horiz-adv-x="1476" 
d="M-8 0l629 1434h235l629 -1434h-332l-117 266h-600l-117 -266h-327zM735 963l-188 -428h373zM311 1702q0 68 50 112t124 44q64 0 118 -46q52 -45 52 -110q0 -68 -52 -113q-53 -45 -118 -45q-74 0 -124 44t-50 114zM821 1702q0 65 52 110q54 46 122 46q65 0 117 -44
q51 -44 51 -112t-51 -113t-117 -45q-71 0 -123 44q-51 44 -51 114z" />
    <glyph glyph-name="Aring" unicode="&#xc5;" horiz-adv-x="1476" 
d="M-8 0l629 1434h235l629 -1434h-332l-117 266h-600l-117 -266h-327zM735 963l-188 -428h373zM416 1739q0 121 89 181t228 60q145 0 237 -60q91 -60 91 -181q0 -119 -92 -184q-91 -64 -236 -64q-138 0 -227 64q-90 65 -90 184zM641 1739q0 -84 96 -84q99 0 99 84
q0 78 -99 78q-96 0 -96 -78z" />
    <glyph glyph-name="AE" unicode="&#xc6;" horiz-adv-x="2363" 
d="M1167 0v266h-612l-209 -266h-346l1079 1434h1184v-297h-778v-267h727v-286h-727v-287h796v-297h-1114zM748 535h419v555z" />
    <glyph glyph-name="Ccedilla" unicode="&#xc7;" horiz-adv-x="1425" 
d="M477 -322l111 134q58 -58 166 -58q59 0 59 27q0 35 -92 35h-12v172q-299 27 -473 222q-175 196 -175 507q0 313 207 523t535 210q194 0 348 -71q153 -71 231 -193l-215 -197q-61 76 -154 115t-188 39q-193 0 -314 -115q-120 -114 -120 -311q0 -190 121 -308t309 -118
q251 0 396 182l188 -203q-88 -127 -229 -199q-142 -73 -314 -83v-41q238 -15 238 -185q0 -192 -285 -192q-225 0 -338 108z" />
    <glyph glyph-name="Egrave" unicode="&#xc8;" horiz-adv-x="1329" 
d="M133 0v1434h1096v-297h-778v-267h727v-286h-727v-287h796v-297h-1114zM819 1501l-491 232l141 262l467 -291z" />
    <glyph glyph-name="Eacute" unicode="&#xc9;" horiz-adv-x="1329" 
d="M133 0v1434h1096v-297h-778v-267h727v-286h-727v-287h796v-297h-1114zM1100 1733l-492 -232l-116 203l466 291z" />
    <glyph glyph-name="Ecircumflex" unicode="&#xca;" horiz-adv-x="1329" 
d="M133 0v1434h1096v-297h-778v-267h727v-286h-727v-287h796v-297h-1114zM692 1935l377 -239l-119 -174l-262 135l-262 -135l-107 170l365 243h8z" />
    <glyph glyph-name="Edieresis" unicode="&#xcb;" horiz-adv-x="1329" 
d="M133 0v1434h1096v-297h-778v-267h727v-286h-727v-287h796v-297h-1114zM260 1702q0 68 50 112t124 44q64 0 118 -46q52 -45 52 -110q0 -68 -52 -113t-118 -45q-74 0 -124 44t-50 114zM770 1702q0 65 52 110q54 46 122 46q65 0 117 -44q51 -44 51 -112t-51 -113t-117 -45
q-71 0 -123 44q-51 44 -51 114z" />
    <glyph glyph-name="Igrave" unicode="&#xcc;" horiz-adv-x="604" 
d="M143 0v1434h318v-1434h-318zM389 1501l-491 232l141 262l467 -291z" />
    <glyph glyph-name="Iacute" unicode="&#xcd;" horiz-adv-x="604" 
d="M143 0v1434h318v-1434h-318zM731 1733l-491 -232l-117 203l467 291z" />
    <glyph glyph-name="Icircumflex" unicode="&#xce;" horiz-adv-x="604" 
d="M143 0v1434h318v-1434h-318zM301 1935l377 -239l-119 -174l-262 135l-262 -135l-107 170l365 243h8z" />
    <glyph glyph-name="Idieresis" unicode="&#xcf;" horiz-adv-x="604" 
d="M143 0v1434h318v-1434h-318zM-123 1702q0 68 50 112t124 44q64 0 118 -46q52 -45 52 -110q0 -68 -52 -113t-118 -45q-74 0 -124 44t-50 114zM387 1702q0 65 52 110q54 46 122 46q65 0 117 -44q51 -44 51 -112t-51 -113t-117 -45q-71 0 -123 44q-51 44 -51 114z" />
    <glyph glyph-name="Eth" unicode="&#xd0;" horiz-adv-x="1609" 
d="M41 584v264h227v586h455q222 0 387 -56t257 -154q94 -100 137 -220q44 -123 44 -269q0 -327 -213 -531t-643 -204h-424v584h-227zM719 1137h-133v-289h323v-264h-323v-287h133q500 0 500 438q0 192 -117 297t-383 105z" />
    <glyph glyph-name="Ntilde" unicode="&#xd1;" horiz-adv-x="1515" 
d="M1382 0h-245l-695 850v-850h-309v1434h244l696 -852v852h309v-1434zM467 1569l-94 192q47 57 117 93t139 36q63 0 143 -30q82 -31 133 -31q103 0 160 61l78 -192q-84 -135 -258 -135q-49 0 -136 30q-90 31 -147 31q-68 0 -135 -55z" />
    <glyph glyph-name="Ograve" unicode="&#xd2;" horiz-adv-x="1599" 
d="M61 717q0 312 214 526q215 215 526 215q308 0 523 -212q214 -211 214 -529q0 -316 -214 -529t-523 -213q-310 0 -525 212t-215 530zM391 717q0 -193 120 -314q119 -120 290 -120q175 0 291 119t116 315q0 191 -122 313q-121 121 -285 121q-170 0 -290 -121
q-120 -122 -120 -313zM911 1501l-491 232l141 262l467 -291z" />
    <glyph glyph-name="Oacute" unicode="&#xd3;" horiz-adv-x="1599" 
d="M61 717q0 312 214 526q215 215 526 215q308 0 523 -212q214 -211 214 -529q0 -316 -214 -529t-523 -213q-310 0 -525 212t-215 530zM391 717q0 -193 120 -314q119 -120 290 -120q175 0 291 119t116 315q0 191 -122 313q-121 121 -285 121q-170 0 -290 -121
q-120 -122 -120 -313zM1233 1733l-492 -232l-116 203l467 291z" />
    <glyph glyph-name="Ocircumflex" unicode="&#xd4;" horiz-adv-x="1599" 
d="M61 717q0 312 214 526q215 215 526 215q308 0 523 -212q214 -211 214 -529q0 -316 -214 -529t-523 -213q-310 0 -525 212t-215 530zM391 717q0 -193 120 -314q119 -120 290 -120q175 0 291 119t116 315q0 191 -122 313q-121 121 -285 121q-170 0 -290 -121
q-120 -122 -120 -313zM797 1935l377 -239l-119 -174l-262 135l-263 -135l-106 170l364 243h9z" />
    <glyph glyph-name="Otilde" unicode="&#xd5;" horiz-adv-x="1599" 
d="M61 717q0 312 214 526q215 215 526 215q308 0 523 -212q214 -211 214 -529q0 -316 -214 -529t-523 -213q-310 0 -525 212t-215 530zM391 717q0 -193 120 -314q119 -120 290 -120q175 0 291 119t116 315q0 191 -122 313q-121 121 -285 121q-170 0 -290 -121
q-120 -122 -120 -313zM508 1569l-94 192q46 57 117 93q70 36 139 36q64 0 143 -30q82 -31 133 -31q103 0 160 61l78 -192q-84 -135 -258 -135q-49 0 -136 30q-90 31 -147 31q-68 0 -135 -55z" />
    <glyph glyph-name="Odieresis" unicode="&#xd6;" horiz-adv-x="1599" 
d="M61 717q0 312 214 526q215 215 526 215q308 0 523 -212q214 -211 214 -529q0 -316 -214 -529t-523 -213q-310 0 -525 212t-215 530zM391 717q0 -193 120 -314q119 -120 290 -120q175 0 291 119t116 315q0 191 -122 313q-121 121 -285 121q-170 0 -290 -121
q-120 -122 -120 -313zM373 1702q0 68 50 112t124 44q64 0 118 -46q52 -45 52 -110q0 -68 -52 -113q-53 -45 -118 -45q-74 0 -124 44t-50 114zM883 1702q0 65 52 110q54 46 122 46q65 0 117 -44q51 -44 51 -112t-51 -113t-117 -45q-71 0 -123 44q-51 44 -51 114z" />
    <glyph glyph-name="multiply" unicode="&#xd7;" horiz-adv-x="1239" 
d="M164 987l188 189l252 -254l254 254l189 -189l-254 -254l254 -252l-189 -188l-254 254l-252 -254l-188 188l254 252z" />
    <glyph glyph-name="Oslash" unicode="&#xd8;" horiz-adv-x="1599" 
d="M121 119l104 127q-164 202 -164 471q0 310 214 521q215 212 526 212q188 0 346 -82l102 125l219 -176l-100 -123q170 -199 170 -477q0 -313 -214 -523t-523 -210q-192 0 -350 82l-107 -132zM1208 717q0 116 -53 217l-502 -619q72 -24 148 -24q173 0 291 116
q116 115 116 310zM391 717q0 -120 47 -211l502 612q-70 25 -139 25q-170 0 -290 -117t-120 -309z" />
    <glyph glyph-name="Ugrave" unicode="&#xd9;" horiz-adv-x="1474" 
d="M1362 1434v-820q0 -129 -35 -237q-34 -105 -92 -178q-57 -72 -136 -121q-81 -50 -165 -71q-86 -21 -180 -21q-272 0 -457 168q-184 168 -184 473v807h317v-770q0 -174 84 -278q84 -103 240 -103q290 0 290 372v779h318zM850 1501l-492 232l142 262l467 -291z" />
    <glyph glyph-name="Uacute" unicode="&#xda;" horiz-adv-x="1474" 
d="M1362 1434v-820q0 -129 -35 -237q-34 -105 -92 -178q-57 -72 -136 -121q-81 -50 -165 -71q-86 -21 -180 -21q-272 0 -457 168q-184 168 -184 473v807h317v-770q0 -174 84 -278q84 -103 240 -103q290 0 290 372v779h318zM1171 1733l-491 -232l-117 203l467 291z" />
    <glyph glyph-name="Ucircumflex" unicode="&#xdb;" horiz-adv-x="1474" 
d="M1362 1434v-820q0 -129 -35 -237q-34 -105 -92 -178q-57 -72 -136 -121q-81 -50 -165 -71q-86 -21 -180 -21q-272 0 -457 168q-184 168 -184 473v807h317v-770q0 -174 84 -278q84 -103 240 -103q290 0 290 372v779h318zM735 1935l377 -239l-119 -174l-262 135l-262 -135
l-107 170l365 243h8z" />
    <glyph glyph-name="Udieresis" unicode="&#xdc;" horiz-adv-x="1474" 
d="M1362 1434v-820q0 -129 -35 -237q-34 -105 -92 -178q-57 -72 -136 -121q-81 -50 -165 -71q-86 -21 -180 -21q-272 0 -457 168q-184 168 -184 473v807h317v-770q0 -174 84 -278q84 -103 240 -103q290 0 290 372v779h318zM311 1702q0 68 50 112t124 44q64 0 118 -46
q52 -45 52 -110q0 -68 -52 -113q-53 -45 -118 -45q-74 0 -124 44t-50 114zM821 1702q0 65 52 110q54 46 122 46q65 0 117 -44q51 -44 51 -112t-51 -113t-117 -45q-71 0 -123 44q-51 44 -51 114z" />
    <glyph glyph-name="Yacute" unicode="&#xdd;" horiz-adv-x="1433" 
d="M1454 1434l-582 -920v-514h-317v514l-575 920h378l361 -574l368 574h367zM1161 1733l-491 -232l-117 203l467 291z" />
    <glyph glyph-name="Thorn" unicode="&#xde;" horiz-adv-x="1355" 
d="M451 0h-318v1434h318v-205h235q176 0 299 -43q126 -44 190 -117q65 -74 92 -156q27 -83 27 -178q0 -205 -147 -347q-146 -142 -461 -142h-235v-246zM694 932h-243v-389h231q283 0 283 194q0 195 -271 195z" />
    <glyph glyph-name="germandbls" unicode="&#xdf;" horiz-adv-x="1161" 
d="M596 1511q218 0 332 -114t114 -316q0 -209 -153 -286q121 -40 171 -125t50 -228q0 -209 -112 -338q-111 -127 -330 -127q-124 0 -209 41l67 269q68 -33 123 -33q76 0 120 50t44 132q0 88 -53 132t-146 44h-100v277h29q202 0 202 164q0 86 -51 134t-127 48q-87 0 -133 -73
q-45 -72 -45 -267v-895h-297v893q0 618 504 618z" />
    <glyph glyph-name="agrave" unicode="&#xe0;" horiz-adv-x="1089" 
d="M240 709l-142 215q157 163 469 163q208 0 322 -115q115 -117 115 -327v-645h-297v96q-37 -43 -116 -76q-77 -32 -171 -32q-176 0 -283 95q-106 94 -106 253q0 174 138 262q137 88 345 88q120 0 193 -27q2 81 -41 116q-44 36 -131 36q-86 0 -149 -21q-61 -20 -146 -81z
M481 244q72 0 136 35q63 34 90 86v49q-69 26 -162 26q-207 0 -207 -104q0 -44 38 -68t105 -24zM549 1202l-301 328l233 176l244 -363z" />
    <glyph glyph-name="aacute" unicode="&#xe1;" horiz-adv-x="1089" 
d="M240 709l-142 215q157 163 469 163q208 0 322 -115q115 -117 115 -327v-645h-297v96q-37 -43 -116 -76q-77 -32 -171 -32q-176 0 -283 95q-106 94 -106 253q0 174 138 262q137 88 345 88q120 0 193 -27q2 81 -41 116q-44 36 -131 36q-86 0 -149 -21q-61 -20 -146 -81z
M481 244q72 0 136 35q63 34 90 86v49q-69 26 -162 26q-207 0 -207 -104q0 -44 38 -68t105 -24zM848 1538l-270 -336l-205 144l252 360z" />
    <glyph glyph-name="acircumflex" unicode="&#xe2;" horiz-adv-x="1089" 
d="M240 709l-142 215q157 163 469 163q208 0 322 -115q115 -117 115 -327v-645h-297v96q-37 -43 -116 -76q-77 -32 -171 -32q-176 0 -283 95q-106 94 -106 253q0 174 138 262q137 88 345 88q120 0 193 -27q2 81 -41 116q-44 36 -131 36q-86 0 -149 -21q-61 -20 -146 -81z
M481 244q72 0 136 35q63 34 90 86v49q-69 26 -162 26q-207 0 -207 -104q0 -44 38 -68t105 -24zM553 1630l338 -278l-143 -181l-201 166l-205 -161l-137 178l340 276h8z" />
    <glyph glyph-name="atilde" unicode="&#xe3;" horiz-adv-x="1089" 
d="M240 709l-142 215q157 163 469 163q208 0 322 -115q115 -117 115 -327v-645h-297v96q-37 -43 -116 -76q-77 -32 -171 -32q-176 0 -283 95q-106 94 -106 253q0 174 138 262q137 88 345 88q120 0 193 -27q2 81 -41 116q-44 36 -131 36q-86 0 -149 -21q-61 -20 -146 -81z
M481 244q72 0 136 35q63 34 90 86v49q-69 26 -162 26q-207 0 -207 -104q0 -44 38 -68t105 -24zM297 1227l-123 137q113 160 270 160q49 0 125 -40t117 -40q74 0 135 55l101 -153q-124 -148 -260 -148q-45 0 -121 40t-123 40q-58 0 -121 -51z" />
    <glyph glyph-name="adieresis" unicode="&#xe4;" horiz-adv-x="1089" 
d="M240 709l-142 215q157 163 469 163q208 0 322 -115q115 -117 115 -327v-645h-297v96q-37 -43 -116 -76q-77 -32 -171 -32q-176 0 -283 95q-106 94 -106 253q0 174 138 262q137 88 345 88q120 0 193 -27q2 81 -41 116q-44 36 -131 36q-86 0 -149 -21q-61 -20 -146 -81z
M481 244q72 0 136 35q63 34 90 86v49q-69 26 -162 26q-207 0 -207 -104q0 -44 38 -68t105 -24zM176 1352q0 61 47 102t113 41q61 0 111 -41q51 -42 51 -102q0 -67 -49 -107q-50 -41 -113 -41q-67 0 -113 40q-47 41 -47 108zM594 1352q0 62 49 102q50 41 117 41q64 0 113 -41
t49 -102q0 -66 -48 -108q-46 -40 -114 -40q-71 0 -118 40q-48 40 -48 108z" />
    <glyph glyph-name="aring" unicode="&#xe5;" horiz-adv-x="1089" 
d="M240 709l-142 215q157 163 469 163q208 0 322 -115q115 -117 115 -327v-645h-297v96q-37 -43 -116 -76q-77 -32 -171 -32q-176 0 -283 95q-106 94 -106 253q0 174 138 262q137 88 345 88q120 0 193 -27q2 81 -41 116q-44 36 -131 36q-86 0 -149 -21q-61 -20 -146 -81z
M481 244q72 0 136 35q63 34 90 86v49q-69 26 -162 26q-207 0 -207 -104q0 -44 38 -68t105 -24zM266 1436q0 110 80 187t201 77q122 0 204 -77q80 -76 80 -187q0 -109 -80 -185q-79 -75 -204 -75q-123 0 -201 75q-80 77 -80 185zM461 1440q0 -42 24 -66t66 -24q38 0 62 24
t24 66q0 38 -24 62t-62 24q-42 0 -66 -24t-24 -62z" />
    <glyph glyph-name="ae" unicode="&#xe6;" horiz-adv-x="1798" 
d="M1532 377l178 -180q-170 -213 -438 -213q-272 0 -428 159q-149 -155 -385 -155q-204 0 -316 94t-112 254q0 174 138 262q137 88 345 88q120 0 193 -27q2 81 -41 116q-44 36 -131 36q-86 0 -149 -21q-61 -20 -146 -81l-142 215q157 163 469 163q201 0 320 -114
q144 114 362 114q221 0 365 -135q143 -134 143 -354q0 -69 -16 -172h-733q40 -166 268 -166q162 0 256 117zM481 244q72 0 136 35q63 34 90 86v49q-69 26 -162 26q-207 0 -207 -104q0 -44 38 -68t105 -24zM1239 821q-170 0 -225 -139h436q-37 139 -211 139z" />
    <glyph glyph-name="ccedilla" unicode="&#xe7;" horiz-adv-x="1105" 
d="M299 -330l90 142q58 -58 166 -58q59 0 59 27q0 35 -92 35h-12v176q-214 28 -342 174q-127 145 -127 369q0 240 158 396q157 156 405 156q182 0 308 -72q128 -73 180 -194l-222 -143q-99 133 -247 133q-123 0 -199 -76t-76 -200q0 -115 84 -195q85 -80 219 -80
q148 0 232 139l217 -129q-65 -126 -181 -200q-115 -74 -255 -84v-39q217 -18 217 -185q0 -88 -79 -140t-231 -52q-162 0 -272 100z" />
    <glyph glyph-name="egrave" unicode="&#xe8;" horiz-adv-x="1142" 
d="M897 377l178 -180q-169 -213 -459 -213q-260 0 -417 150q-158 150 -158 401q0 242 145 397t408 155q220 0 364 -135t144 -354q0 -62 -17 -172h-733q40 -166 269 -166q76 0 155 31q75 29 121 86zM584 821q-171 0 -226 -139h437q-37 139 -211 139zM592 1202l-301 328
l233 176l244 -363z" />
    <glyph glyph-name="eacute" unicode="&#xe9;" horiz-adv-x="1142" 
d="M897 377l178 -180q-169 -213 -459 -213q-260 0 -417 150q-158 150 -158 401q0 242 145 397t408 155q220 0 364 -135t144 -354q0 -62 -17 -172h-733q40 -166 269 -166q76 0 155 31q75 29 121 86zM584 821q-171 0 -226 -139h437q-37 139 -211 139zM870 1538l-270 -336
l-205 144l252 360z" />
    <glyph glyph-name="ecircumflex" unicode="&#xea;" horiz-adv-x="1142" 
d="M897 377l178 -180q-169 -213 -459 -213q-260 0 -417 150q-158 150 -158 401q0 242 145 397t408 155q220 0 364 -135t144 -354q0 -62 -17 -172h-733q40 -166 269 -166q76 0 155 31q75 29 121 86zM584 821q-171 0 -226 -139h437q-37 139 -211 139zM598 1630l338 -278
l-143 -181l-201 166l-205 -161l-137 178l340 276h8z" />
    <glyph glyph-name="edieresis" unicode="&#xeb;" horiz-adv-x="1142" 
d="M897 377l178 -180q-169 -213 -459 -213q-260 0 -417 150q-158 150 -158 401q0 242 145 397t408 155q220 0 364 -135t144 -354q0 -62 -17 -172h-733q40 -166 269 -166q76 0 155 31q75 29 121 86zM584 821q-171 0 -226 -139h437q-37 139 -211 139zM199 1352q0 61 47 102
t112 41q62 0 112 -41t50 -102q0 -67 -49 -107q-50 -41 -113 -41q-66 0 -112 40q-47 41 -47 108zM616 1352q0 61 50 102t116 41q65 0 114 -41q48 -40 48 -102q0 -67 -47 -108q-46 -40 -115 -40q-70 0 -117 40q-49 41 -49 108z" />
    <glyph glyph-name="igrave" unicode="&#xec;" horiz-adv-x="538" 
d="M121 0v1065h297v-1065h-297zM291 1202l-301 328l233 176l244 -363z" />
    <glyph glyph-name="iacute" unicode="&#xed;" horiz-adv-x="538" 
d="M121 0v1065h297v-1065h-297zM549 1538l-270 -336l-205 144l252 360z" />
    <glyph glyph-name="icircumflex" unicode="&#xee;" horiz-adv-x="538" 
d="M121 0v1065h297v-1065h-297zM274 1630l338 -278l-143 -181l-201 166l-205 -161l-137 178l340 276h8z" />
    <glyph glyph-name="idieresis" unicode="&#xef;" horiz-adv-x="538" 
d="M121 0v1065h297v-1065h-297zM-102 1352q0 61 47 102t112 41q62 0 112 -41t50 -102q0 -67 -49 -107q-50 -41 -113 -41q-66 0 -112 40q-47 41 -47 108zM315 1352q0 61 50 102t116 41q65 0 114 -41q48 -40 48 -102q0 -67 -47 -108q-46 -40 -115 -40q-70 0 -117 40
q-49 41 -49 108z" />
    <glyph glyph-name="eth" unicode="&#xf0;" horiz-adv-x="1257" 
d="M561 1597l205 -79l-41 -91q233 -112 356 -311q125 -202 125 -477q0 -312 -158 -483q-159 -172 -421 -172q-250 0 -412 155q-164 156 -164 396q0 238 160 386q158 146 416 146q103 0 186 -45q-62 101 -195 174l-43 -94l-202 80l39 88q-57 10 -125 16l71 246
q78 -11 158 -31zM358 535q0 -119 75 -197t194 -78q125 0 198 79q74 80 74 230q0 113 -20 160q-76 82 -205 82q-147 0 -232 -73q-84 -72 -84 -203z" />
    <glyph glyph-name="ntilde" unicode="&#xf1;" horiz-adv-x="1181" 
d="M92 0v1065h297v-76q79 96 291 96q210 0 314 -117q106 -120 106 -370v-598h-297v580q0 124 -50 177q-49 52 -159 52q-148 0 -205 -141v-668h-297zM344 1227l-123 137q113 160 271 160q48 0 124 -40t117 -40q74 0 135 55l101 -153q-124 -148 -260 -148q-45 0 -121 40
t-123 40q-58 0 -121 -51z" />
    <glyph glyph-name="ograve" unicode="&#xf2;" horiz-adv-x="1236" 
d="M41 535q0 241 161 397q159 155 414 155t417 -155q163 -156 163 -397q0 -240 -163 -396q-162 -155 -417 -155q-249 0 -411 155q-164 156 -164 396zM348 535q0 -119 75 -197t193 -78q122 0 198 74q75 74 75 201q0 126 -78 201t-195 75q-115 0 -192 -74q-76 -73 -76 -202z
M598 1202l-301 328l233 176l244 -363z" />
    <glyph glyph-name="oacute" unicode="&#xf3;" horiz-adv-x="1236" 
d="M41 535q0 241 161 397q159 155 414 155t417 -155q163 -156 163 -397q0 -240 -163 -396q-162 -155 -417 -155q-249 0 -411 155q-164 156 -164 396zM348 535q0 -119 75 -197t193 -78q122 0 198 74q75 74 75 201q0 126 -78 201t-195 75q-115 0 -192 -74q-76 -73 -76 -202z
M918 1538l-271 -336l-205 144l252 360z" />
    <glyph glyph-name="ocircumflex" unicode="&#xf4;" horiz-adv-x="1236" 
d="M41 535q0 241 161 397q159 155 414 155t417 -155q163 -156 163 -397q0 -240 -163 -396q-162 -155 -417 -155q-249 0 -411 155q-164 156 -164 396zM348 535q0 -119 75 -197t193 -78q122 0 198 74q75 74 75 201q0 126 -78 201t-195 75q-115 0 -192 -74q-76 -73 -76 -202z
M623 1630l338 -278l-144 -181l-201 166l-204 -161l-138 178l340 276h9z" />
    <glyph glyph-name="otilde" unicode="&#xf5;" horiz-adv-x="1236" 
d="M41 535q0 241 161 397q159 155 414 155t417 -155q163 -156 163 -397q0 -240 -163 -396q-162 -155 -417 -155q-249 0 -411 155q-164 156 -164 396zM348 535q0 -119 75 -197t193 -78q122 0 198 74q75 74 75 201q0 126 -78 201t-195 75q-115 0 -192 -74q-76 -73 -76 -202z
M367 1227l-123 137q113 160 270 160q49 0 125 -40t117 -40q74 0 135 55l100 -153q-124 -148 -260 -148q-45 0 -121 40t-123 40q-57 0 -120 -51z" />
    <glyph glyph-name="odieresis" unicode="&#xf6;" horiz-adv-x="1236" 
d="M41 535q0 241 161 397q159 155 414 155t417 -155q163 -156 163 -397q0 -240 -163 -396q-162 -155 -417 -155q-249 0 -411 155q-164 156 -164 396zM348 535q0 -119 75 -197t193 -78q122 0 198 74q75 74 75 201q0 126 -78 201t-195 75q-115 0 -192 -74q-76 -73 -76 -202z
M246 1352q0 61 47 102t113 41q61 0 111 -41t50 -102q0 -67 -49 -107q-50 -41 -112 -41q-67 0 -113 40q-47 41 -47 108zM664 1352q0 62 49 102q50 41 116 41q65 0 114 -41q48 -40 48 -102q0 -67 -47 -108q-46 -40 -115 -40q-70 0 -117 40q-48 40 -48 108z" />
    <glyph glyph-name="divide" unicode="&#xf7;" horiz-adv-x="1136" 
d="M401 1112q0 53 48 101q47 47 120 47q69 0 118 -47q48 -47 48 -101q0 -59 -47 -104q-46 -45 -119 -45q-75 0 -122 44q-46 43 -46 105zM401 358q0 61 46 104q47 44 122 44q73 0 119 -45q47 -45 47 -103q0 -61 -47 -106q-46 -45 -119 -45q-75 0 -122 44q-46 43 -46 107z
M61 606v258h1014v-258h-1014z" />
    <glyph glyph-name="oslash" unicode="&#xf8;" horiz-adv-x="1236" 
d="M41 535q0 241 161 397q159 155 414 155q130 0 242 -45l92 111l219 -176l-84 -103q111 -145 111 -339q0 -240 -163 -396q-162 -155 -417 -155q-121 0 -229 41l-104 -127l-224 184l95 113q-113 146 -113 340zM348 535q0 -52 12 -91l304 363q-29 4 -48 4q-115 0 -192 -74
q-76 -73 -76 -202zM889 535q0 47 -12 86l-295 -359q16 -2 34 -2q122 0 198 74q75 74 75 201z" />
    <glyph glyph-name="ugrave" unicode="&#xf9;" horiz-adv-x="1167" 
d="M1075 1071v-1071h-297v70q-112 -86 -250 -86q-225 0 -335 116q-111 117 -111 363v608h297v-586q0 -225 180 -225q141 0 219 131v680h297zM600 1202l-301 328l233 176l244 -363z" />
    <glyph glyph-name="uacute" unicode="&#xfa;" horiz-adv-x="1167" 
d="M1075 1071v-1071h-297v70q-112 -86 -250 -86q-225 0 -335 116q-111 117 -111 363v608h297v-586q0 -225 180 -225q141 0 219 131v680h297zM858 1538l-270 -336l-205 144l252 360z" />
    <glyph glyph-name="ucircumflex" unicode="&#xfb;" horiz-adv-x="1167" 
d="M1075 1071v-1071h-297v70q-112 -86 -250 -86q-225 0 -335 116q-111 117 -111 363v608h297v-586q0 -225 180 -225q141 0 219 131v680h297zM584 1630l338 -278l-144 -181l-200 166l-205 -161l-137 178l339 276h9z" />
    <glyph glyph-name="udieresis" unicode="&#xfc;" horiz-adv-x="1167" 
d="M1075 1071v-1071h-297v70q-112 -86 -250 -86q-225 0 -335 116q-111 117 -111 363v608h297v-586q0 -225 180 -225q141 0 219 131v680h297zM207 1352q0 61 47 102t113 41q61 0 111 -41t50 -102q0 -67 -49 -107q-50 -41 -112 -41q-67 0 -113 40q-47 41 -47 108zM625 1352
q0 62 49 102q50 41 117 41q64 0 113 -41q48 -40 48 -102q0 -67 -47 -108q-46 -40 -114 -40q-71 0 -118 40q-48 40 -48 108z" />
    <glyph glyph-name="yacute" unicode="&#xfd;" horiz-adv-x="1140" 
d="M1171 1065l-600 -1475h-321l219 500l-510 975h346l309 -619l240 619h317zM870 1538l-270 -336l-205 144l252 360z" />
    <glyph glyph-name="thorn" unicode="&#xfe;" horiz-adv-x="1202" 
d="M92 -410v1905h297v-485q83 77 238 77q240 0 382 -149t142 -389q0 -248 -146 -406q-147 -159 -387 -159q-182 0 -229 53v-447h-297zM594 811q-139 0 -205 -121v-340q26 -38 77 -64q50 -26 112 -26q122 0 194 72t72 194q0 140 -66 212q-67 73 -184 73z" />
    <glyph glyph-name="ydieresis" unicode="&#xff;" horiz-adv-x="1140" 
d="M1171 1065l-600 -1475h-321l219 500l-510 975h346l309 -619l240 619h317zM199 1352q0 61 47 102t112 41q62 0 112 -41t50 -102q0 -67 -49 -107q-50 -41 -113 -41q-66 0 -112 40q-47 41 -47 108zM616 1352q0 61 50 102t116 41q65 0 114 -41q48 -40 48 -102q0 -67 -47 -108
q-46 -40 -115 -40q-70 0 -117 40q-49 41 -49 108z" />
    <glyph glyph-name="Amacron" unicode="&#x100;" horiz-adv-x="1476" 
d="M-8 0l629 1434h235l629 -1434h-332l-117 266h-600l-117 -266h-327zM735 963l-188 -428h373zM416 1577v246h643v-246h-643z" />
    <glyph glyph-name="amacron" unicode="&#x101;" horiz-adv-x="1089" 
d="M240 709l-142 215q157 163 469 163q208 0 322 -115q115 -117 115 -327v-645h-297v96q-37 -43 -116 -76q-77 -32 -171 -32q-176 0 -283 95q-106 94 -106 253q0 174 138 262q137 88 345 88q120 0 193 -27q2 81 -41 116q-44 36 -131 36q-86 0 -149 -21q-61 -20 -146 -81z
M481 244q72 0 136 35q63 34 90 86v49q-69 26 -162 26q-207 0 -207 -104q0 -44 38 -68t105 -24zM248 1249v246h602v-246h-602z" />
    <glyph glyph-name="Abreve" unicode="&#x102;" horiz-adv-x="1476" 
d="M-8 0l629 1434h235l629 -1434h-332l-117 266h-600l-117 -266h-327zM735 963l-188 -428h373zM326 1767l131 158q118 -123 293 -123t286 123l113 -160q-57 -96 -167 -162q-111 -67 -232 -67q-134 0 -251 70q-116 69 -173 161z" />
    <glyph glyph-name="abreve" unicode="&#x103;" horiz-adv-x="1089" 
d="M240 709l-142 215q157 163 469 163q208 0 322 -115q115 -117 115 -327v-645h-297v96q-37 -43 -116 -76q-77 -32 -171 -32q-176 0 -283 95q-106 94 -106 253q0 174 138 262q137 88 345 88q120 0 193 -27q2 81 -41 116q-44 36 -131 36q-86 0 -149 -21q-61 -20 -146 -81z
M481 244q72 0 136 35q63 34 90 86v49q-69 26 -162 26q-207 0 -207 -104q0 -44 38 -68t105 -24zM188 1448l136 154q96 -107 215 -107q139 0 225 102l104 -147q-134 -201 -342 -201q-124 0 -211 64t-127 135z" />
    <glyph glyph-name="Aogonek" unicode="&#x104;" horiz-adv-x="1476" 
d="M1393 -143l92 -185q-27 -33 -96 -57q-72 -25 -150 -25q-128 0 -213 50q-84 50 -84 145q0 149 209 217l-115 264h-600l-117 -266h-327l629 1434h235l629 -1434h-51q-79 -5 -131 -39q-54 -35 -54 -72q0 -53 62 -53q39 0 82 21zM735 963l-188 -428h373z" />
    <glyph glyph-name="aogonek" unicode="&#x105;" horiz-adv-x="1095" 
d="M940 -143l92 -185q-27 -33 -96 -57q-72 -25 -150 -25q-128 0 -213 50q-84 50 -84 145q0 153 218 221v90q-37 -43 -116 -76q-77 -32 -171 -32q-176 0 -283 95q-106 94 -106 253q0 174 138 262q137 88 345 88q120 0 193 -27q2 81 -41 116q-44 36 -131 36q-86 0 -149 -21
q-61 -20 -146 -81l-142 215q157 163 469 163q208 0 322 -115q115 -117 115 -327v-645h-23q-79 -5 -131 -39q-53 -35 -53 -72q0 -53 61 -53q38 0 82 21zM481 244q72 0 136 35q63 34 90 86v49q-69 26 -162 26q-207 0 -207 -104q0 -44 38 -68t105 -24z" />
    <glyph glyph-name="Cacute" unicode="&#x106;" horiz-adv-x="1425" 
d="M1217 473l188 -203q-96 -141 -257 -218q-162 -77 -353 -77q-335 0 -534 204q-200 205 -200 538q0 313 207 527t535 214q193 0 347 -75q155 -75 232 -197l-215 -197q-62 79 -155 120q-94 42 -187 42q-195 0 -314 -118q-120 -119 -120 -316q0 -192 122 -314
q120 -120 308 -120q245 0 396 190zM1202 1733l-491 -232l-117 203l467 291z" />
    <glyph glyph-name="cacute" unicode="&#x107;" horiz-adv-x="1105" 
d="M883 399l217 -129q-72 -139 -200 -213q-127 -73 -282 -73q-259 0 -418 150t-159 401q0 240 158 396q157 156 405 156q182 0 308 -72q128 -73 180 -194l-222 -143q-99 133 -247 133q-123 0 -199 -76t-76 -200q0 -115 84 -195q85 -80 219 -80q148 0 232 139zM930 1538
l-271 -336l-204 144l252 360z" />
    <glyph glyph-name="Ccircumflex" unicode="&#x108;" horiz-adv-x="1425" 
d="M1217 473l188 -203q-96 -141 -257 -218q-162 -77 -353 -77q-335 0 -534 204q-200 205 -200 538q0 313 207 527t535 214q193 0 347 -75q155 -75 232 -197l-215 -197q-62 79 -155 120q-94 42 -187 42q-195 0 -314 -118q-120 -119 -120 -316q0 -192 122 -314
q120 -120 308 -120q245 0 396 190zM768 1935l377 -239l-119 -174l-262 135l-262 -135l-107 170l365 243h8z" />
    <glyph glyph-name="ccircumflex" unicode="&#x109;" horiz-adv-x="1105" 
d="M883 399l217 -129q-72 -139 -200 -213q-127 -73 -282 -73q-259 0 -418 150t-159 401q0 240 158 396q157 156 405 156q182 0 308 -72q128 -73 180 -194l-222 -143q-99 133 -247 133q-123 0 -199 -76t-76 -200q0 -115 84 -195q85 -80 219 -80q148 0 232 139zM614 1630
l338 -278l-143 -181l-201 166l-205 -161l-137 178l340 276h8z" />
    <glyph glyph-name="Cdotaccent" unicode="&#x10a;" horiz-adv-x="1425" 
d="M1217 473l188 -203q-96 -141 -257 -218q-162 -77 -353 -77q-335 0 -534 204q-200 205 -200 538q0 313 207 527t535 214q193 0 347 -75q155 -75 232 -197l-215 -197q-62 79 -155 120q-94 42 -187 42q-195 0 -314 -118q-120 -119 -120 -316q0 -192 122 -314
q120 -120 308 -120q245 0 396 190zM614 1696q0 62 48 105q46 42 120 42q72 0 119 -42t47 -105q0 -65 -47 -109q-46 -43 -119 -43q-78 0 -123 42t-45 110z" />
    <glyph glyph-name="cdotaccent" unicode="&#x10b;" horiz-adv-x="1105" 
d="M883 399l217 -129q-72 -139 -200 -213q-127 -73 -282 -73q-259 0 -418 150t-159 401q0 240 158 396q157 156 405 156q182 0 308 -72q128 -73 180 -194l-222 -143q-99 133 -247 133q-123 0 -199 -76t-76 -200q0 -115 84 -195q85 -80 219 -80q148 0 232 139zM442 1348
q0 63 47 105t121 42q72 0 119 -42t47 -105q0 -65 -47 -109q-46 -43 -119 -43q-78 0 -123 42t-45 110z" />
    <glyph glyph-name="Ccaron" unicode="&#x10c;" horiz-adv-x="1425" 
d="M1217 473l188 -203q-96 -141 -257 -218q-162 -77 -353 -77q-335 0 -534 204q-200 205 -200 538q0 313 207 527t535 214q193 0 347 -75q155 -75 232 -197l-215 -197q-62 79 -155 120q-94 42 -187 42q-195 0 -314 -118q-120 -119 -120 -316q0 -192 122 -314
q120 -120 308 -120q245 0 396 190zM768 1522l-377 239l119 174l262 -155l262 155l107 -170l-365 -243h-8z" />
    <glyph glyph-name="ccaron" unicode="&#x10d;" horiz-adv-x="1105" 
d="M883 399l217 -129q-72 -139 -200 -213q-127 -73 -282 -73q-259 0 -418 150t-159 401q0 240 158 396q157 156 405 156q182 0 308 -72q128 -73 180 -194l-222 -143q-99 133 -247 133q-123 0 -199 -76t-76 -200q0 -115 84 -195q85 -80 219 -80q148 0 232 139zM604 1225
l-338 278l144 180l200 -165l205 161l137 -178l-340 -276h-8z" />
    <glyph glyph-name="Dcaron" unicode="&#x10e;" horiz-adv-x="1474" 
d="M133 0v1434h455q222 0 387 -56t257 -154q94 -100 137 -220q44 -123 44 -269q0 -327 -213 -531t-643 -204h-424zM584 1137h-133v-840h133q501 0 501 438q0 402 -501 402zM625 1522l-377 239l119 174l262 -155l262 155l106 -170l-364 -243h-8z" />
    <glyph glyph-name="dcaron" unicode="&#x10f;" horiz-adv-x="1200" 
d="M811 0v84q-36 -40 -104 -70q-69 -30 -164 -30q-227 0 -364 143q-138 144 -138 403q0 242 152 400q151 157 368 157q171 0 250 -51v459h297v-1495h-297zM606 260q60 0 121 35q60 35 84 90v344q-66 82 -186 82q-117 0 -198 -73q-79 -72 -79 -203q0 -127 72 -201t186 -74z
M1214 1497h316q29 -46 29 -143q0 -116 -74 -216q-75 -101 -178 -163l-129 112q90 90 90 218q0 118 -54 192z" />
    <glyph glyph-name="Dcroat" unicode="&#x110;" horiz-adv-x="1609" 
d="M41 584v264h227v586h455q222 0 387 -56t257 -154q94 -100 137 -220q44 -123 44 -269q0 -327 -213 -531t-643 -204h-424v584h-227zM719 1137h-133v-289h323v-264h-323v-287h133q500 0 500 438q0 192 -117 297t-383 105z" />
    <glyph glyph-name="dcroat" unicode="&#x111;" horiz-adv-x="1200" 
d="M578 1126v267h233v102h297v-102h92v-267h-92v-1126h-297v84q-36 -40 -104 -70q-69 -30 -164 -30q-227 0 -364 143q-138 144 -138 403q0 242 152 400q151 157 368 157q171 0 250 -51v90h-233zM606 260q60 0 121 35q60 35 84 90v344q-66 82 -186 82q-117 0 -198 -73
q-79 -72 -79 -203q0 -127 72 -201t186 -74z" />
    <glyph glyph-name="Emacron" unicode="&#x112;" horiz-adv-x="1329" 
d="M133 0v1434h1096v-297h-778v-267h727v-286h-727v-287h796v-297h-1114zM348 1577v246h643v-246h-643z" />
    <glyph glyph-name="emacron" unicode="&#x113;" horiz-adv-x="1142" 
d="M897 377l178 -180q-169 -213 -459 -213q-260 0 -417 150q-158 150 -158 401q0 242 145 397t408 155q220 0 364 -135t144 -354q0 -62 -17 -172h-733q40 -166 269 -166q76 0 155 31q75 29 121 86zM584 821q-171 0 -226 -139h437q-37 139 -211 139zM270 1249v246h602v-246
h-602z" />
    <glyph glyph-name="Edotaccent" unicode="&#x116;" horiz-adv-x="1329" 
d="M133 0v1434h1096v-297h-778v-267h727v-286h-727v-287h796v-297h-1114zM512 1696q0 63 47 105t121 42q72 0 119 -42t47 -105q0 -65 -47 -109q-46 -43 -119 -43q-78 0 -123 42t-45 110z" />
    <glyph glyph-name="edotaccent" unicode="&#x117;" horiz-adv-x="1142" 
d="M897 377l178 -180q-169 -213 -459 -213q-260 0 -417 150q-158 150 -158 401q0 242 145 397t408 155q220 0 364 -135t144 -354q0 -62 -17 -172h-733q40 -166 269 -166q76 0 155 31q75 29 121 86zM584 821q-171 0 -226 -139h437q-37 139 -211 139zM424 1348q0 63 47 105
t121 42q72 0 119 -42t47 -105q0 -65 -47 -109q-46 -43 -119 -43q-78 0 -123 42t-45 110z" />
    <glyph glyph-name="Eogonek" unicode="&#x118;" horiz-adv-x="1329" 
d="M133 0v1434h1096v-297h-778v-267h727v-286h-727v-287h796v-297h-26q-79 -5 -131 -39q-54 -35 -54 -72q0 -53 62 -53q38 0 82 21l92 -185q-27 -33 -96 -57q-72 -25 -150 -25q-128 0 -213 50q-84 50 -84 145q0 143 199 215h-795z" />
    <glyph glyph-name="eogonek" unicode="&#x119;" horiz-adv-x="1142" 
d="M877 377l178 -180q-74 -92 -164 -144q-127 -117 -127 -164q0 -53 61 -53q39 0 82 21l92 -185q-27 -33 -96 -57q-72 -25 -149 -25q-128 0 -213 50q-84 50 -84 145q0 63 44 110q41 44 130 89h-15q-260 0 -417 150q-158 150 -158 401q0 242 145 397t408 155q220 0 364 -135
t144 -354q0 -62 -17 -172h-733q40 -166 269 -166q161 0 256 117zM584 821q-171 0 -226 -139h437q-37 139 -211 139z" />
    <glyph glyph-name="Ecaron" unicode="&#x11a;" horiz-adv-x="1329" 
d="M133 0v1434h1096v-297h-778v-267h727v-286h-727v-287h796v-297h-1114zM686 1522l-377 239l119 174l262 -155l262 155l107 -170l-365 -243h-8z" />
    <glyph glyph-name="ecaron" unicode="&#x11b;" horiz-adv-x="1142" 
d="M897 377l178 -180q-169 -213 -459 -213q-260 0 -417 150q-158 150 -158 401q0 242 145 397t408 155q220 0 364 -135t144 -354q0 -62 -17 -172h-733q40 -166 269 -166q76 0 155 31q75 29 121 86zM584 821q-171 0 -226 -139h437q-37 139 -211 139zM567 1225l-338 278
l144 180l200 -165l205 161l137 -178l-340 -276h-8z" />
    <glyph glyph-name="Gcircumflex" unicode="&#x11c;" horiz-adv-x="1497" 
d="M748 516v287h667v-580q-105 -115 -257 -182q-150 -66 -320 -66q-341 0 -558 205q-219 207 -219 537q0 313 208 527t534 214q186 0 344 -70t235 -188l-219 -196q-131 147 -348 147q-196 0 -310 -116q-114 -115 -114 -318q0 -206 124 -320q125 -114 325 -114q158 0 270 82
v151h-362zM768 1935l377 -239l-119 -174l-262 135l-262 -135l-107 170l365 243h8z" />
    <glyph glyph-name="gcircumflex" unicode="&#x11d;" horiz-adv-x="1185" 
d="M1094 1065v-973q0 -260 -132 -390q-131 -130 -374 -130q-187 0 -315 77q-129 77 -181 216l260 108q66 -125 207 -125q238 0 238 185v47q-66 -96 -240 -96q-232 0 -374 143t-142 408q0 247 154 396q152 148 362 148q157 0 240 -57v43h297zM608 260q69 0 118 34
q50 35 71 85v354q-58 70 -191 70q-112 0 -185 -71t-73 -202t69 -200q70 -70 191 -70zM614 1630l338 -278l-143 -181l-201 166l-205 -161l-137 178l340 276h8z" />
    <glyph glyph-name="Gbreve" unicode="&#x11e;" horiz-adv-x="1497" 
d="M748 516v287h667v-580q-105 -115 -257 -182q-150 -66 -320 -66q-341 0 -558 205q-219 207 -219 537q0 313 208 527t534 214q186 0 344 -70t235 -188l-219 -196q-131 147 -348 147q-196 0 -310 -116q-114 -115 -114 -318q0 -206 124 -320q125 -114 325 -114q158 0 270 82
v151h-362zM395 1767l131 158q118 -123 293 -123q176 0 287 123l113 -160q-57 -96 -167 -162q-111 -67 -233 -67q-134 0 -251 70q-116 69 -173 161z" />
    <glyph glyph-name="gbreve" unicode="&#x11f;" horiz-adv-x="1185" 
d="M1094 1065v-973q0 -260 -132 -390q-131 -130 -374 -130q-187 0 -315 77q-129 77 -181 216l260 108q66 -125 207 -125q238 0 238 185v47q-66 -96 -240 -96q-232 0 -374 143t-142 408q0 247 154 396q152 148 362 148q157 0 240 -57v43h297zM608 260q69 0 118 34
q50 35 71 85v354q-58 70 -191 70q-112 0 -185 -71t-73 -202t69 -200q70 -70 191 -70zM248 1448l135 154q96 -107 215 -107q140 0 225 102l105 -147q-134 -201 -342 -201q-124 0 -211 64t-127 135z" />
    <glyph glyph-name="Gdotaccent" unicode="&#x120;" horiz-adv-x="1497" 
d="M748 516v287h667v-580q-105 -115 -257 -182q-150 -66 -320 -66q-341 0 -558 205q-219 207 -219 537q0 313 208 527t534 214q186 0 344 -70t235 -188l-219 -196q-131 147 -348 147q-196 0 -310 -116q-114 -115 -114 -318q0 -206 124 -320q125 -114 325 -114q158 0 270 82
v151h-362zM614 1696q0 62 48 105q46 42 120 42q72 0 119 -42t47 -105q0 -65 -47 -109q-46 -43 -119 -43q-78 0 -123 42t-45 110z" />
    <glyph glyph-name="gdotaccent" unicode="&#x121;" horiz-adv-x="1185" 
d="M1094 1065v-973q0 -260 -132 -390q-131 -130 -374 -130q-187 0 -315 77q-129 77 -181 216l260 108q66 -125 207 -125q238 0 238 185v47q-66 -96 -240 -96q-232 0 -374 143t-142 408q0 247 154 396q152 148 362 148q157 0 240 -57v43h297zM608 260q69 0 118 34
q50 35 71 85v354q-58 70 -191 70q-112 0 -185 -71t-73 -202t69 -200q70 -70 191 -70zM440 1348q0 63 47 105t121 42q72 0 119 -42t47 -105q0 -65 -47 -109q-46 -43 -119 -43q-78 0 -123 42t-45 110z" />
    <glyph glyph-name="Gcommaaccent" unicode="&#x122;" horiz-adv-x="1497" 
d="M748 516v287h667v-580q-105 -115 -257 -182q-150 -66 -320 -66q-341 0 -558 205q-219 207 -219 537q0 313 208 527t534 214q186 0 344 -70t235 -188l-219 -196q-131 147 -348 147q-196 0 -310 -116q-114 -115 -114 -318q0 -206 124 -320q125 -114 325 -114q158 0 270 82
v151h-362zM649 -223l248 160q107 -78 107 -193q0 -120 -64 -210q-63 -89 -149 -140l-142 102q66 69 66 154q0 54 -66 127z" />
    <glyph glyph-name="gcommaaccent" unicode="&#x123;" horiz-adv-x="1185" 
d="M809 1294l-248 -159q-106 78 -106 192q0 121 63 210q63 88 150 140l141 -102q-66 -69 -66 -154q0 -53 66 -127zM1094 1065v-973q0 -260 -132 -390q-131 -130 -374 -130q-187 0 -315 77q-129 77 -181 216l260 108q66 -125 207 -125q238 0 238 185v47q-66 -96 -240 -96
q-232 0 -374 143t-142 408q0 247 154 396q152 148 362 148q157 0 240 -57v43h297zM608 260q69 0 118 34q50 35 71 85v354q-58 70 -191 70q-112 0 -185 -71t-73 -202t69 -200q70 -70 191 -70z" />
    <glyph glyph-name="Hcircumflex" unicode="&#x124;" horiz-adv-x="1538" 
d="M1087 0v573h-636v-573h-318v1434h318v-564h636v564h318v-1434h-318zM766 1935l377 -239l-119 -174l-262 135l-262 -135l-107 170l365 243h8z" />
    <glyph glyph-name="hcircumflex" unicode="&#x125;" horiz-adv-x="1175" 
d="M92 0v1495h297v-498q98 88 283 88q216 0 318 -117q104 -119 104 -372v-596h-297v582q0 124 -47 176q-46 51 -156 51q-129 0 -205 -127v-682h-297zM256 1935l377 -239l-119 -174l-262 135l-262 -135l-107 170l365 243h8z" />
    <glyph glyph-name="Hbar" unicode="&#x126;" horiz-adv-x="1538" 
d="M0 1028v246h133v160h318v-160h636v160h318v-160h133v-246h-133v-1028h-318v573h-636v-573h-318v1028h-133zM451 870h636v158h-636v-158z" />
    <glyph glyph-name="hbar" unicode="&#x127;" horiz-adv-x="1175" 
d="M0 1126v267h92v102h297v-102h234v-267h-234v-129q98 88 248 88q457 0 457 -489v-596h-297v582q0 124 -47 176q-46 51 -156 51q-129 0 -205 -127v-682h-297v1126h-92z" />
    <glyph glyph-name="Imacron" unicode="&#x12a;" horiz-adv-x="604" 
d="M143 0v1434h318v-1434h-318zM-18 1577v246h643v-246h-643z" />
    <glyph glyph-name="imacron" unicode="&#x12b;" horiz-adv-x="538" 
d="M121 0v1065h297v-1065h-297zM-31 1249v246h602v-246h-602z" />
    <glyph glyph-name="Iogonek" unicode="&#x12e;" horiz-adv-x="604" 
d="M143 0v1434h318v-1434h-4q-84 0 -144 -36q-59 -35 -59 -75q0 -53 61 -53q39 0 82 21l92 -185q-27 -33 -96 -57q-72 -25 -149 -25q-128 0 -213 50q-84 50 -84 145q0 143 198 215h-2z" />
    <glyph glyph-name="iogonek" unicode="&#x12f;" horiz-adv-x="538" 
d="M352 -143l92 -185q-27 -33 -96 -57q-72 -25 -149 -25q-128 0 -213 50q-84 50 -84 145q0 152 219 221v1059h297v-1065h-6q-84 0 -144 -36q-59 -35 -59 -75q0 -53 61 -53q38 0 82 21zM102 1348q0 62 48 105q46 42 120 42q73 0 119 -42q47 -42 47 -105q0 -65 -47 -109
q-46 -43 -119 -43q-78 0 -123 42t-45 110z" />
    <glyph glyph-name="Idotaccent" unicode="&#x130;" horiz-adv-x="604" 
d="M143 0v1434h318v-1434h-318zM137 1696q0 63 47 105t121 42q73 0 119 -42q47 -42 47 -105q0 -65 -47 -109q-46 -43 -119 -43q-78 0 -123 42t-45 110z" />
    <glyph glyph-name="dotlessi" unicode="&#x131;" horiz-adv-x="538" 
d="M121 0v1065h297v-1065h-297z" />
    <glyph glyph-name="Jcircumflex" unicode="&#x134;" horiz-adv-x="995" 
d="M872 1434v-985q0 -229 -116 -351q-117 -123 -318 -123q-324 0 -458 275l231 178q77 -156 199 -156q76 0 111 59q34 58 34 179v924h317zM692 1935l377 -239l-119 -174l-262 135l-262 -135l-107 170l365 243h8z" />
    <glyph glyph-name="jcircumflex" unicode="&#x135;" horiz-adv-x="538" 
d="M422 1065v-1061q0 -206 -93 -319t-282 -113q-282 0 -383 246l260 100q35 -70 96 -70q105 0 105 162v1055h297zM274 1630l338 -278l-143 -181l-201 166l-205 -161l-137 178l340 276h8z" />
    <glyph glyph-name="Kcommaaccent" unicode="&#x136;" horiz-adv-x="1435" 
d="M133 0v1434h318v-560l550 560h414l-622 -635l663 -799h-418l-485 586l-102 -105v-481h-318zM485 -223l248 160q107 -78 107 -193q0 -120 -64 -210q-63 -89 -149 -140l-142 102q66 69 66 154q0 54 -66 127z" />
    <glyph glyph-name="kcommaaccent" unicode="&#x137;" horiz-adv-x="1089" 
d="M92 0v1495h297v-790l336 360h381l-457 -465l471 -600h-377l-317 401l-37 -24v-377h-297zM328 -223l247 160q107 -78 107 -193q0 -120 -64 -210q-63 -89 -149 -140l-141 102q65 68 65 154q0 55 -65 127z" />
    <glyph glyph-name="Lacute" unicode="&#x139;" horiz-adv-x="1245" 
d="M133 0v1434h318v-1137h774v-297h-1092zM1038 1733l-491 -232l-117 203l467 291z" />
    <glyph glyph-name="lacute" unicode="&#x13a;" horiz-adv-x="481" 
d="M92 0v1495h297v-1495h-297zM700 1774l-491 -232l-117 203l467 291z" />
    <glyph glyph-name="Lcommaaccent" unicode="&#x13b;" horiz-adv-x="1245" 
d="M133 0v1434h318v-1137h774v-297h-1092zM506 -223l248 160q106 -78 106 -193q0 -122 -63 -210t-150 -140l-141 102q65 68 65 154q0 55 -65 127z" />
    <glyph glyph-name="lcommaaccent" unicode="&#x13c;" horiz-adv-x="481" 
d="M92 0v1495h297v-1495h-297zM63 -223l248 160q107 -78 107 -193q0 -120 -64 -210q-63 -89 -149 -140l-142 102q66 69 66 154q0 54 -66 127z" />
    <glyph glyph-name="Lcaron" unicode="&#x13d;" horiz-adv-x="1245" 
d="M133 0v1434h318v-1137h774v-297h-1092zM754 1436h315q29 -46 29 -144q0 -116 -74 -216q-75 -101 -178 -163l-129 113q90 90 90 217q0 120 -53 193z" />
    <glyph glyph-name="lcaron" unicode="&#x13e;" horiz-adv-x="577" 
d="M92 0v1495h297v-1495h-297zM477 1497h316q28 -44 28 -143q0 -118 -73 -216q-74 -100 -179 -163l-129 112q90 90 90 218q0 119 -53 192z" />
    <glyph glyph-name="Ldot" unicode="&#x13f;" horiz-adv-x="1245" 
d="M133 0v1434h318v-1137h774v-297h-1092zM717 815q0 59 50 106q49 46 126 46q70 0 120 -47t50 -105q0 -64 -49 -110q-51 -48 -121 -48q-78 0 -127 46t-49 112z" />
    <glyph glyph-name="ldot" unicode="&#x140;" horiz-adv-x="720" 
d="M92 0v1495h297v-1495h-297zM430 707q0 58 50 105q49 46 126 46q70 0 120 -47t50 -104q0 -65 -49 -111q-50 -47 -121 -47q-78 0 -127 46t-49 112z" />
    <glyph glyph-name="Lslash" unicode="&#x141;" 
d="M0 223v320l162 116v775h317v-545l373 268v-319l-373 -269v-272h774v-297h-1091v340z" />
    <glyph glyph-name="lslash" unicode="&#x142;" horiz-adv-x="688" 
d="M0 291v319l190 138v747h297v-532l201 145v-320l-201 -145v-643h-297v428z" />
    <glyph glyph-name="Nacute" unicode="&#x143;" horiz-adv-x="1515" 
d="M1382 0h-245l-695 850v-850h-309v1434h244l696 -852v852h309v-1434zM1182 1733l-492 -232l-117 203l467 291z" />
    <glyph glyph-name="nacute" unicode="&#x144;" horiz-adv-x="1181" 
d="M92 0v1065h297v-76q79 96 291 96q210 0 314 -117q106 -120 106 -370v-598h-297v580q0 124 -50 177q-49 52 -159 52q-148 0 -205 -141v-668h-297zM874 1538l-270 -336l-205 144l252 360z" />
    <glyph glyph-name="Ncommaaccent" unicode="&#x145;" horiz-adv-x="1515" 
d="M1382 0h-245l-695 850v-850h-309v1434h244l696 -852v852h309v-1434zM608 -223l248 160q107 -78 107 -193q0 -120 -64 -210q-63 -89 -149 -140l-142 102q66 69 66 154q0 54 -66 127z" />
    <glyph glyph-name="ncommaaccent" unicode="&#x146;" horiz-adv-x="1181" 
d="M92 0v1065h297v-76q79 96 291 96q210 0 314 -117q106 -120 106 -370v-598h-297v580q0 124 -50 177q-49 52 -159 52q-148 0 -205 -141v-668h-297zM399 -223l248 160q107 -78 107 -193q0 -120 -64 -210q-63 -89 -149 -140l-142 102q66 69 66 154q0 54 -66 127z" />
    <glyph glyph-name="Ncaron" unicode="&#x147;" horiz-adv-x="1515" 
d="M1382 0h-245l-695 850v-850h-309v1434h244l696 -852v852h309v-1434zM760 1522l-377 239l119 174l262 -155l262 155l107 -170l-365 -243h-8z" />
    <glyph glyph-name="ncaron" unicode="&#x148;" horiz-adv-x="1181" 
d="M92 0v1065h297v-76q79 96 291 96q210 0 314 -117q106 -120 106 -370v-598h-297v580q0 124 -50 177q-49 52 -159 52q-148 0 -205 -141v-668h-297zM592 1225l-338 278l143 180l201 -165l205 161l137 -178l-340 -276h-8z" />
    <glyph glyph-name="Omacron" unicode="&#x14c;" horiz-adv-x="1599" 
d="M61 717q0 312 214 526q215 215 526 215q308 0 523 -212q214 -211 214 -529q0 -316 -214 -529t-523 -213q-310 0 -525 212t-215 530zM391 717q0 -193 120 -314q119 -120 290 -120q175 0 291 119t116 315q0 191 -122 313q-121 121 -285 121q-170 0 -290 -121
q-120 -122 -120 -313zM477 1577v246h643v-246h-643z" />
    <glyph glyph-name="omacron" unicode="&#x14d;" horiz-adv-x="1236" 
d="M41 535q0 241 161 397q159 155 414 155t417 -155q163 -156 163 -397q0 -240 -163 -396q-162 -155 -417 -155q-249 0 -411 155q-164 156 -164 396zM348 535q0 -119 75 -197t193 -78q122 0 198 74q75 74 75 201q0 126 -78 201t-195 75q-115 0 -192 -74q-76 -73 -76 -202z
M317 1249v246h603v-246h-603z" />
    <glyph glyph-name="Ohungarumlaut" unicode="&#x150;" horiz-adv-x="1599" 
d="M61 717q0 312 214 526q215 215 526 215q308 0 523 -212q214 -211 214 -529q0 -316 -214 -529t-523 -213q-310 0 -525 212t-215 530zM391 717q0 -193 120 -314q119 -120 290 -120q175 0 291 119t116 315q0 191 -122 313q-121 121 -285 121q-170 0 -290 -121
q-120 -122 -120 -313zM1393 1722l-418 -231l-125 129l326 295zM942 1782l-342 -291l-131 119l207 305z" />
    <glyph glyph-name="ohungarumlaut" unicode="&#x151;" horiz-adv-x="1236" 
d="M41 535q0 241 161 397q159 155 414 155t417 -155q163 -156 163 -397q0 -240 -163 -396q-162 -155 -417 -155q-249 0 -411 155q-164 156 -164 396zM348 535q0 -119 75 -197t193 -78q122 0 198 74q75 74 75 201q0 126 -78 201t-195 75q-115 0 -192 -74q-76 -73 -76 -202z
M1108 1518l-291 -316l-155 117l256 346zM748 1550l-256 -348l-158 119l223 365z" />
    <glyph glyph-name="OE" unicode="&#x152;" horiz-adv-x="2314" 
d="M1118 0v68q-150 -84 -317 -84q-311 0 -526 209q-214 208 -214 524q0 310 214 521q215 212 526 212q175 0 317 -80v64h1096v-297h-778v-267h727v-286h-727v-287h796v-297h-1114zM801 291q199 0 317 143v557q-122 152 -317 152q-170 0 -290 -117t-120 -309t120 -309
t290 -117z" />
    <glyph glyph-name="oe" unicode="&#x153;" horiz-adv-x="1908" 
d="M1642 377l179 -180q-169 -213 -439 -213q-237 0 -387 122q-155 -122 -379 -122q-249 0 -411 155q-164 156 -164 396q0 241 161 397q159 155 414 155q223 0 375 -118q146 118 369 118q220 0 364 -135t144 -354q0 -62 -17 -172h-733q40 -166 268 -166q162 0 256 117z
M639 260q120 0 199 74q-31 91 -31 201q0 107 27 192q-76 84 -218 84q-115 0 -192 -74q-76 -73 -76 -202q0 -119 79 -197t212 -78zM1350 821q-171 0 -226 -139h437q-37 139 -211 139z" />
    <glyph glyph-name="Racute" unicode="&#x154;" horiz-adv-x="1411" 
d="M451 0h-318v1434h580q163 0 281 -39t181 -108q64 -70 90 -146q27 -78 27 -174q0 -142 -75 -254q-78 -116 -205 -166l399 -547h-383l-350 489h-227v-489zM707 1137h-256v-351h268q115 0 180 48q64 47 64 133q0 83 -57 127q-56 43 -199 43zM1059 1733l-492 -232l-116 203
l467 291z" />
    <glyph glyph-name="racute" unicode="&#x155;" horiz-adv-x="741" 
d="M92 0v1065h297v-43q18 24 67 44q47 19 97 19q80 0 125 -21q44 -21 84 -71l-152 -237q-22 43 -96 43q-95 0 -125 -111v-688h-297zM659 1538l-270 -336l-205 144l252 360z" />
    <glyph glyph-name="Rcommaaccent" unicode="&#x156;" horiz-adv-x="1411" 
d="M451 0h-318v1434h580q163 0 281 -39t181 -108q64 -70 90 -146q27 -78 27 -174q0 -142 -75 -254q-78 -116 -205 -166l399 -547h-383l-350 489h-227v-489zM707 1137h-256v-351h268q115 0 180 48q64 47 64 133q0 83 -57 127q-56 43 -199 43zM506 -223l248 160
q106 -78 106 -193q0 -122 -63 -210t-150 -140l-141 102q65 68 65 154q0 55 -65 127z" />
    <glyph glyph-name="rcommaaccent" unicode="&#x157;" horiz-adv-x="741" 
d="M92 0v1065h297v-43q18 24 67 44q47 19 97 19q80 0 125 -21q44 -21 84 -71l-152 -237q-22 43 -96 43q-95 0 -125 -111v-688h-297zM123 -223l248 160q106 -78 106 -193q0 -122 -63 -210t-150 -140l-141 102q65 68 65 154q0 55 -65 127z" />
    <glyph glyph-name="Rcaron" unicode="&#x158;" horiz-adv-x="1411" 
d="M451 0h-318v1434h580q163 0 281 -39t181 -108q64 -70 90 -146q27 -78 27 -174q0 -142 -75 -254q-78 -116 -205 -166l399 -547h-383l-350 489h-227v-489zM707 1137h-256v-351h268q115 0 180 48q64 47 64 133q0 83 -57 127q-56 43 -199 43zM645 1522l-377 239l119 174
l262 -155l262 155l107 -170l-365 -243h-8z" />
    <glyph glyph-name="rcaron" unicode="&#x159;" horiz-adv-x="741" 
d="M92 0v1065h297v-43q18 24 67 44q47 19 97 19q80 0 125 -21q44 -21 84 -71l-152 -237q-22 43 -96 43q-95 0 -125 -111v-688h-297zM377 1225l-338 278l143 180l201 -165l205 161l137 -178l-340 -276h-8z" />
    <glyph glyph-name="Sacute" unicode="&#x15a;" horiz-adv-x="1267" 
d="M879 397q0 57 -60 98q-60 40 -147 61q-81 19 -193 56q-100 33 -192 78q-88 43 -148 130q-59 86 -59 210q0 178 154 307q155 129 401 129q363 0 561 -264l-213 -205q-156 172 -360 172q-215 0 -215 -135q0 -52 59 -86q61 -35 147 -54q87 -19 193 -54q100 -33 192 -78
q89 -44 148 -131t59 -209q0 -195 -155 -325t-387 -130q-244 0 -414 99q-172 100 -250 251l231 193q72 -114 183 -180t241 -66q112 0 168 38t56 95zM1112 1733l-491 -232l-117 203l467 291z" />
    <glyph glyph-name="sacute" unicode="&#x15b;" horiz-adv-x="1015" 
d="M678 317q0 27 -63 50q-74 26 -150 47q-92 25 -177 61q-89 38 -152 110q-62 71 -62 173q0 152 122 241q121 88 336 88q149 0 268 -56q123 -58 175 -136l-203 -195q-106 111 -299 111q-92 0 -92 -51q0 -25 62 -44q53 -17 151 -43q92 -25 177 -61q92 -39 152 -112
q62 -75 62 -181q0 -164 -128 -250q-127 -85 -322 -85q-185 0 -317 72q-130 71 -193 186l235 159q44 -59 129 -100t178 -41q111 0 111 57zM807 1538l-270 -336l-205 144l252 360z" />
    <glyph glyph-name="Scircumflex" unicode="&#x15c;" horiz-adv-x="1267" 
d="M879 397q0 57 -60 98q-60 40 -147 61q-81 19 -193 56q-100 33 -192 78q-88 43 -148 130q-59 86 -59 210q0 178 154 307q155 129 401 129q363 0 561 -264l-213 -205q-156 172 -360 172q-215 0 -215 -135q0 -52 59 -86q61 -35 147 -54q87 -19 193 -54q100 -33 192 -78
q89 -44 148 -131t59 -209q0 -195 -155 -325t-387 -130q-244 0 -414 99q-172 100 -250 251l231 193q72 -114 183 -180t241 -66q112 0 168 38t56 95zM682 1935l377 -239l-119 -174l-262 135l-262 -135l-107 170l365 243h8z" />
    <glyph glyph-name="scircumflex" unicode="&#x15d;" horiz-adv-x="1015" 
d="M678 317q0 27 -63 50q-74 26 -150 47q-92 25 -177 61q-89 38 -152 110q-62 71 -62 173q0 152 122 241q121 88 336 88q149 0 268 -56q123 -58 175 -136l-203 -195q-106 111 -299 111q-92 0 -92 -51q0 -25 62 -44q53 -17 151 -43q92 -25 177 -61q92 -39 152 -112
q62 -75 62 -181q0 -164 -128 -250q-127 -85 -322 -85q-185 0 -317 72q-130 71 -193 186l235 159q44 -59 129 -100t178 -41q111 0 111 57zM535 1630l337 -278l-143 -181l-201 166l-204 -161l-138 178l340 276h9z" />
    <glyph glyph-name="Scedilla" unicode="&#x15e;" horiz-adv-x="1226" 
d="M287 -322l110 134q58 -58 166 -58q60 0 60 27q0 35 -93 35h-12v176q-165 21 -309 103q-145 82 -209 186l190 229q91 -110 210 -169q120 -60 251 -60q91 0 139 30t48 86t-60 95q-58 38 -147 59q-96 23 -193 56t-192 80q-88 43 -148 132q-59 87 -59 211q0 176 154 298
t401 122q375 0 561 -248l-213 -205q-141 156 -360 156q-90 0 -154 -31q-61 -30 -61 -88q0 -51 59 -88q60 -37 147 -58q77 -18 193 -58q103 -35 192 -79q88 -43 148 -129q59 -84 59 -200q0 -182 -139 -303t-354 -133v-39q237 -15 237 -185q0 -192 -284 -192q-225 0 -338 108z
" />
    <glyph glyph-name="scedilla" unicode="&#x15f;" horiz-adv-x="1015" 
d="M238 -330l90 142q58 -58 166 -58q59 0 59 27q0 35 -92 35h-12v172q-152 17 -261 86q-107 69 -163 168l235 159q44 -59 129 -100t178 -41q111 0 111 57q0 27 -63 50q-74 26 -150 47q-92 25 -177 61q-89 38 -152 110q-62 71 -62 173q0 152 122 241q121 88 336 88
q149 0 268 -56q123 -58 175 -136l-203 -195q-106 111 -299 111q-92 0 -92 -51q0 -25 62 -44q53 -17 151 -43q92 -25 177 -61q92 -39 152 -112q62 -75 62 -181q0 -151 -106 -235t-277 -96v-41q217 -18 217 -185q0 -88 -79 -140t-230 -52q-162 0 -272 100z" />
    <glyph glyph-name="Scaron" unicode="&#x160;" horiz-adv-x="1267" 
d="M879 397q0 57 -60 98q-60 40 -147 61q-81 19 -193 56q-100 33 -192 78q-88 43 -148 130q-59 86 -59 210q0 178 154 307q155 129 401 129q363 0 561 -264l-213 -205q-156 172 -360 172q-215 0 -215 -135q0 -52 59 -86q61 -35 147 -54q87 -19 193 -54q100 -33 192 -78
q89 -44 148 -131t59 -209q0 -195 -155 -325t-387 -130q-244 0 -414 99q-172 100 -250 251l231 193q72 -114 183 -180t241 -66q112 0 168 38t56 95zM666 1522l-377 239l119 174l262 -155l262 155l106 -170l-364 -243h-8z" />
    <glyph glyph-name="scaron" unicode="&#x161;" horiz-adv-x="1015" 
d="M678 317q0 27 -63 50q-74 26 -150 47q-92 25 -177 61q-89 38 -152 110q-62 71 -62 173q0 152 122 241q121 88 336 88q149 0 268 -56q123 -58 175 -136l-203 -195q-106 111 -299 111q-92 0 -92 -51q0 -25 62 -44q53 -17 151 -43q92 -25 177 -61q92 -39 152 -112
q62 -75 62 -181q0 -164 -128 -250q-127 -85 -322 -85q-185 0 -317 72q-130 71 -193 186l235 159q44 -59 129 -100t178 -41q111 0 111 57zM504 1225l-338 278l143 180l201 -165l205 161l137 -178l-340 -276h-8z" />
    <glyph glyph-name="Tcedilla" unicode="&#x162;" horiz-adv-x="1236" 
d="M0 1137v297h1237v-297h-461v-1137h-82v-53q238 -15 238 -185q0 -192 -285 -192q-225 0 -338 108l111 134q58 -58 166 -58q59 0 59 27q0 35 -92 35h-12v184h-82v1137h-459z" />
    <glyph glyph-name="tcedilla" unicode="&#x163;" horiz-adv-x="872" 
d="M227 -330l90 142q58 -58 166 -58q60 0 60 27q0 35 -92 35h-13v180q-120 24 -193 116q-73 93 -73 242v434h-162v277h162v207h297v-207h326v-277h-326v-346q0 -96 23 -137t71 -41q61 0 133 90l181 -164q-90 -167 -285 -196v-47q217 -18 217 -185q0 -88 -79 -140t-230 -52
q-163 0 -273 100z" />
    <glyph glyph-name="Tcaron" unicode="&#x164;" horiz-adv-x="1236" 
d="M0 1137v297h1237v-297h-461v-1137h-317v1137h-459zM621 1522l-377 239l118 174l263 -155l262 155l106 -170l-364 -243h-8z" />
    <glyph glyph-name="tcaron" unicode="&#x165;" horiz-adv-x="872" 
d="M10 788v277h166v207h293v-830q0 -96 23 -137t71 -41q61 0 133 90l181 -164q-45 -87 -143 -146q-93 -56 -212 -56q-155 0 -250 94q-96 94 -96 272v434h-166zM590 1436h315q29 -46 29 -144q0 -116 -74 -216q-75 -101 -178 -163l-129 113q90 90 90 217q0 120 -53 193z" />
    <glyph glyph-name="Umacron" unicode="&#x16a;" horiz-adv-x="1474" 
d="M1362 1434v-820q0 -129 -35 -237q-34 -105 -92 -178q-57 -72 -136 -121q-81 -50 -165 -71q-86 -21 -180 -21q-272 0 -457 168q-184 168 -184 473v807h317v-770q0 -174 84 -278q84 -103 240 -103q290 0 290 372v779h318zM416 1577v246h643v-246h-643z" />
    <glyph glyph-name="umacron" unicode="&#x16b;" horiz-adv-x="1167" 
d="M1075 1071v-1071h-297v70q-112 -86 -250 -86q-225 0 -335 116q-111 117 -111 363v608h297v-586q0 -225 180 -225q141 0 219 131v680h297zM279 1249v246h602v-246h-602z" />
    <glyph glyph-name="Ubreve" unicode="&#x16c;" horiz-adv-x="1474" 
d="M1362 1434v-820q0 -129 -35 -237q-34 -105 -92 -178q-57 -72 -136 -121q-81 -50 -165 -71q-86 -21 -180 -21q-272 0 -457 168q-184 168 -184 473v807h317v-770q0 -174 84 -278q84 -103 240 -103q290 0 290 372v779h318zM326 1767l131 158q118 -123 293 -123t286 123
l113 -160q-57 -96 -167 -162q-111 -67 -232 -67q-134 0 -251 70q-116 69 -173 161z" />
    <glyph glyph-name="ubreve" unicode="&#x16d;" horiz-adv-x="1167" 
d="M1075 1071v-1071h-297v70q-112 -86 -250 -86q-225 0 -335 116q-111 117 -111 363v608h297v-586q0 -225 180 -225q141 0 219 131v680h297zM240 1448l135 154q96 -107 215 -107q140 0 225 102l105 -147q-134 -201 -342 -201q-124 0 -211 64t-127 135z" />
    <glyph glyph-name="Uring" unicode="&#x16e;" horiz-adv-x="1474" 
d="M1362 1434v-820q0 -129 -35 -237q-34 -105 -92 -178q-57 -72 -136 -121q-81 -50 -165 -71q-86 -21 -180 -21q-272 0 -457 168q-184 168 -184 473v807h317v-770q0 -174 84 -278q84 -103 240 -103q290 0 290 372v779h318zM416 1739q0 121 89 181t228 60q145 0 237 -60
q91 -60 91 -181q0 -119 -92 -184q-91 -64 -236 -64q-138 0 -227 64q-90 65 -90 184zM641 1739q0 -84 96 -84q99 0 99 84q0 78 -99 78q-96 0 -96 -78z" />
    <glyph glyph-name="uring" unicode="&#x16f;" horiz-adv-x="1167" 
d="M1075 1071v-1071h-297v70q-112 -86 -250 -86q-225 0 -335 116q-111 117 -111 363v608h297v-586q0 -225 180 -225q141 0 219 131v680h297zM297 1436q0 110 80 187t201 77t203 -77q81 -77 81 -187q0 -108 -81 -185q-79 -75 -203 -75q-123 0 -201 75q-80 77 -80 185z
M492 1440q0 -42 24 -66t66 -24q38 0 62 24t24 66q0 37 -23 62q-23 24 -63 24q-42 0 -66 -24t-24 -62z" />
    <glyph glyph-name="Uhungarumlaut" unicode="&#x170;" horiz-adv-x="1474" 
d="M1362 1434v-820q0 -129 -35 -237q-34 -105 -92 -178q-57 -72 -136 -121q-81 -50 -165 -71q-86 -21 -180 -21q-272 0 -457 168q-184 168 -184 473v807h317v-770q0 -174 84 -278q84 -103 240 -103q290 0 290 372v779h318zM1311 1722l-418 -231l-125 129l326 295zM860 1782
l-342 -291l-131 119l207 305z" />
    <glyph glyph-name="uhungarumlaut" unicode="&#x171;" horiz-adv-x="1167" 
d="M1075 1071v-1071h-297v70q-112 -86 -250 -86q-225 0 -335 116q-111 117 -111 363v608h297v-586q0 -225 180 -225q141 0 219 131v680h297zM1049 1518l-291 -316l-156 117l256 346zM688 1550l-256 -348l-158 119l224 365z" />
    <glyph glyph-name="Uogonek" unicode="&#x172;" horiz-adv-x="1474" 
d="M1362 1434v-820q0 -246 -115 -399q-114 -152 -299 -203q-37 -43 -37 -94q0 -82 62 -82q39 0 82 21l92 -185q-27 -33 -96 -57q-72 -25 -150 -25q-128 0 -213 50q-84 50 -84 145q0 109 148 201q-272 1 -456 169q-183 166 -183 472v807h317v-770q0 -163 85 -272t239 -109
q148 0 219 104t71 268v779h318z" />
    <glyph glyph-name="uogonek" unicode="&#x173;" horiz-adv-x="1167" 
d="M1012 -143l92 -185q-27 -33 -96 -57q-72 -25 -150 -25q-128 0 -213 50q-84 50 -84 145q0 154 217 221v64q-112 -86 -250 -86q-225 0 -335 116q-111 117 -111 363v608h297v-586q0 -225 180 -225q141 0 219 131v680h297v-1071h-22q-79 -5 -131 -39q-54 -35 -54 -72
q0 -53 62 -53q38 0 82 21z" />
    <glyph glyph-name="Ydieresis" unicode="&#x178;" horiz-adv-x="1433" 
d="M1454 1434l-582 -920v-514h-317v514l-575 920h378l361 -574l368 574h367zM291 1702q0 68 50 112t124 44q64 0 118 -46q52 -45 52 -110q0 -68 -52 -113t-118 -45q-74 0 -124 44t-50 114zM801 1702q0 65 52 110q54 46 122 46q65 0 117 -44q51 -44 51 -112t-51 -113
t-117 -45q-71 0 -123 44q-51 44 -51 114z" />
    <glyph glyph-name="Zacute" unicode="&#x179;" horiz-adv-x="1300" 
d="M55 1137v297h1186v-211l-764 -926h783v-297h-1240v211l760 926h-725zM1038 1733l-491 -232l-117 203l467 291z" />
    <glyph glyph-name="zacute" unicode="&#x17a;" horiz-adv-x="1052" 
d="M72 788v277h940v-191l-531 -598h520v-276h-960v193l528 595h-497zM825 1538l-270 -336l-205 144l252 360z" />
    <glyph glyph-name="Zdotaccent" unicode="&#x17b;" horiz-adv-x="1300" 
d="M55 1137v297h1186v-211l-764 -926h783v-297h-1240v211l760 926h-725zM483 1696q0 63 47 105q46 42 121 42q73 0 119 -42q47 -42 47 -105q0 -65 -47 -109q-46 -43 -119 -43q-78 0 -123 42t-45 110z" />
    <glyph glyph-name="zdotaccent" unicode="&#x17c;" horiz-adv-x="1052" 
d="M72 788v277h940v-191l-531 -598h520v-276h-960v193l528 595h-497zM358 1348q0 62 48 105q46 42 120 42q73 0 119 -42q47 -42 47 -105q0 -65 -47 -109q-46 -43 -119 -43q-78 0 -123 42t-45 110z" />
    <glyph glyph-name="Zcaron" unicode="&#x17d;" horiz-adv-x="1300" 
d="M55 1137v297h1186v-211l-764 -926h783v-297h-1240v211l760 926h-725zM651 1522l-377 239l119 174l262 -155l263 155l106 -170l-365 -243h-8z" />
    <glyph glyph-name="zcaron" unicode="&#x17e;" horiz-adv-x="1052" 
d="M72 788v277h940v-191l-531 -598h520v-276h-960v193l528 595h-497zM522 1225l-338 278l144 180l200 -165l205 161l137 -178l-340 -276h-8z" />
    <glyph glyph-name="uni018F" unicode="&#x18f;" horiz-adv-x="1568" 
d="M51 627q0 131 47 254h1078q-34 126 -143 199q-110 73 -269 73q-111 0 -224 -43q-115 -44 -192 -139l-209 205q101 135 273 205q169 69 364 69q338 0 535 -197q196 -196 196 -530q0 -329 -199 -534t-548 -205q-178 0 -316 58q-140 58 -222 153q-85 97 -127 205
q-44 112 -44 227zM1180 584h-805q21 -143 119 -223t274 -80q169 0 278 81q112 83 134 222z" />
    <glyph glyph-name="florin" unicode="&#x192;" horiz-adv-x="1103" 
d="M666 952l-2 -2v-6h270v-276h-320l-116 -654q-34 -201 -124 -322q-88 -118 -270 -118q-168 0 -276 119l102 229q69 -72 154 -72q86 0 113 140l125 678h-252v276h301l8 53q69 455 452 455q171 0 273 -84l-109 -238q-74 46 -147 46q-77 0 -117 -51q-37 -48 -65 -173z" />
    <glyph glyph-name="uni01DD" unicode="&#x1dd;" horiz-adv-x="1142" 
d="M266 694l-178 180q170 213 485 213q228 0 378 -151q151 -153 151 -399q0 -241 -146 -398q-145 -155 -407 -155q-221 0 -365 135q-143 134 -143 354q0 69 16 172h734q-21 83 -86 124q-66 42 -140 42q-205 0 -299 -117zM559 250q170 0 225 139h-436q37 -139 211 -139z" />
    <glyph glyph-name="Scommaaccent" unicode="&#x218;" horiz-adv-x="1267" 
d="M879 397q0 57 -60 98q-60 40 -147 61q-81 19 -193 56q-100 33 -192 78q-88 43 -148 130q-59 86 -59 210q0 178 154 307q155 129 401 129q363 0 561 -264l-213 -205q-156 172 -360 172q-215 0 -215 -135q0 -52 59 -86q61 -35 147 -54q87 -19 193 -54q100 -33 192 -78
q89 -44 148 -131t59 -209q0 -195 -155 -325t-387 -130q-244 0 -414 99q-172 100 -250 251l231 193q72 -114 183 -180t241 -66q112 0 168 38t56 95zM487 -223l248 160q107 -78 107 -193q0 -120 -64 -210q-63 -89 -149 -140l-142 102q66 69 66 154q0 54 -66 127z" />
    <glyph glyph-name="scommaaccent" unicode="&#x219;" horiz-adv-x="1015" 
d="M678 317q0 27 -63 50q-74 26 -150 47q-92 25 -177 61q-89 38 -152 110q-62 71 -62 173q0 152 122 241q121 88 336 88q149 0 268 -56q123 -58 175 -136l-203 -195q-106 111 -299 111q-92 0 -92 -51q0 -25 62 -44q53 -17 151 -43q92 -25 177 -61q92 -39 152 -112
q62 -75 62 -181q0 -164 -128 -250q-127 -85 -322 -85q-185 0 -317 72q-130 71 -193 186l235 159q44 -59 129 -100t178 -41q111 0 111 57zM332 -223l248 160q106 -78 106 -193q0 -122 -63 -210t-150 -140l-141 102q65 68 65 154q0 55 -65 127z" />
    <glyph glyph-name="Tcommaaccent" unicode="&#x21a;" horiz-adv-x="1236" 
d="M0 1137v297h1237v-297h-461v-1137h-317v1137h-459zM442 -223l248 160q107 -78 107 -193q0 -120 -64 -210q-63 -89 -149 -140l-142 102q66 69 66 154q0 54 -66 127z" />
    <glyph glyph-name="tcommaaccent" unicode="&#x21b;" horiz-adv-x="913" 
d="M10 788v277h203v248h297v-248h326v-277h-326v-346q0 -95 25 -137q24 -41 83 -41q93 0 183 70l123 -211q-129 -135 -334 -135q-173 0 -275 93t-102 273v434h-203zM342 -223l248 160q106 -78 106 -193q0 -122 -63 -210t-150 -140l-141 102q66 69 66 154q0 54 -66 127z" />
    <glyph glyph-name="uni0237" unicode="&#x237;" horiz-adv-x="538" 
d="M422 1065v-1061q0 -206 -93 -319t-282 -113q-282 0 -383 246l260 100q35 -70 96 -70q105 0 105 162v1055h297z" />
    <glyph glyph-name="uni0259" unicode="&#x259;" horiz-adv-x="1142" 
d="M266 694l-178 180q170 213 485 213q228 0 378 -151q151 -153 151 -399q0 -241 -146 -398q-145 -155 -407 -155q-221 0 -365 135q-143 134 -143 354q0 69 16 172h734q-21 83 -86 124q-66 42 -140 42q-205 0 -299 -117zM559 250q170 0 225 139h-436q37 -139 211 -139z" />
    <glyph glyph-name="afii57929" unicode="&#x2bc;" horiz-adv-x="442" 
d="M86 1362l250 156q106 -85 106 -226q0 -118 -73 -216q-74 -100 -179 -163l-129 113q91 85 91 176q0 72 -66 160z" />
    <glyph glyph-name="circumflex" unicode="&#x2c6;" horiz-adv-x="956" 
d="M618 1630l338 -278l-143 -181l-201 166l-204 -161l-138 178l340 276h8z" />
    <glyph glyph-name="caron" unicode="&#x2c7;" horiz-adv-x="950" 
d="M602 1225l-338 278l144 180l200 -165l205 161l137 -178l-340 -276h-8z" />
    <glyph glyph-name="breve" unicode="&#x2d8;" horiz-adv-x="964" 
d="M285 1448l135 154q96 -107 215 -107q139 0 225 102l105 -147q-133 -201 -342 -201q-124 0 -211 64t-127 135z" />
    <glyph glyph-name="dotaccent" unicode="&#x2d9;" horiz-adv-x="512" 
d="M102 1348q0 62 48 105q46 42 120 42q73 0 119 -42q47 -42 47 -105q0 -65 -47 -109q-46 -43 -119 -43q-78 0 -123 42t-45 110z" />
    <glyph glyph-name="ring" unicode="&#x2da;" horiz-adv-x="907" 
d="M342 1436q0 110 80 187t201 77t203 -77q81 -77 81 -187q0 -108 -81 -185q-79 -75 -203 -75q-123 0 -201 75q-80 77 -80 185zM537 1440q0 -42 24 -66t66 -24q38 0 62 24t24 66q0 37 -23 62q-22 24 -63 24q-42 0 -66 -24t-24 -62z" />
    <glyph glyph-name="ogonek" unicode="&#x2db;" horiz-adv-x="808" 
d="M717 -143l92 -185q-27 -33 -96 -57q-72 -25 -150 -25q-128 0 -213 50q-84 50 -84 145q0 90 82 153t194 87q109 24 234 22v-47q-83 0 -143 -36t-60 -75q0 -53 62 -53q39 0 82 21z" />
    <glyph glyph-name="tilde" unicode="&#x2dc;" horiz-adv-x="962" 
d="M338 1227l-123 137q113 160 270 160q49 0 125 -40t117 -40q74 0 135 55l101 -153q-124 -148 -261 -148q-44 0 -120 40t-123 40q-58 0 -121 -51z" />
    <glyph glyph-name="hungarumlaut" unicode="&#x2dd;" horiz-adv-x="1114" 
d="M1114 1518l-291 -316l-155 117l256 346zM754 1550l-256 -348l-158 119l223 365z" />
    <glyph glyph-name="gravecomb" unicode="&#x300;" horiz-adv-x="0" 
d="M-551 1202l-301 328l234 176l243 -363z" />
    <glyph glyph-name="acutecomb" unicode="&#x301;" horiz-adv-x="0" 
d="M-274 1538l-271 -336l-205 144l252 360z" />
    <glyph glyph-name="uni0394" unicode="&#x394;" horiz-adv-x="1501" 
d="M20 0l621 1448h207l633 -1448h-1461zM745 932l-284 -666h575z" />
    <glyph glyph-name="uni0394" unicode="&#x2206;" horiz-adv-x="1501" 
d="M20 0l621 1448h207l633 -1448h-1461zM745 932l-284 -666h575z" />
    <glyph glyph-name="uni03A9" unicode="&#x3a9;" horiz-adv-x="1697" 
d="M82 0v307h246q-61 27 -130 170q-69 144 -69 322q0 304 202 482q201 177 519 177q323 0 522 -176t199 -483q0 -191 -72 -321q-72 -131 -143 -171h260v-307h-698v307q138 46 232 179q93 132 93 282q0 146 -105 265q-105 118 -288 118q-194 0 -294 -112q-99 -111 -99 -277
q0 -152 93 -283q94 -132 230 -172v-307h-698z" />
    <glyph glyph-name="uni03A9" unicode="&#x2126;" horiz-adv-x="1697" 
d="M82 0v307h246q-61 27 -130 170q-69 144 -69 322q0 304 202 482q201 177 519 177q323 0 522 -176t199 -483q0 -191 -72 -321q-72 -131 -143 -171h260v-307h-698v307q138 46 232 179q93 132 93 282q0 146 -105 265q-105 118 -288 118q-194 0 -294 -112q-99 -111 -99 -277
q0 -152 93 -283q94 -132 230 -172v-307h-698z" />
    <glyph glyph-name="pi" unicode="&#x3c0;" horiz-adv-x="1320" 
d="M78 788v277h1153v-277h-154v-452q0 -88 60 -88q31 0 92 39l71 -215q-122 -101 -280 -101q-120 0 -180 81t-60 255v481h-229v-122q0 -280 -48 -430t-149 -207q-102 -58 -286 -58l-27 285q54 2 85 12q33 11 62 46q30 36 45 110q16 76 17 194l2 170h-174z" />
    <glyph glyph-name="afii10023" unicode="&#x401;" horiz-adv-x="1329" 
d="M133 0v1434h1096v-297h-778v-267h727v-286h-727v-287h796v-297h-1114zM233 1702q0 67 51 112q50 44 124 44q63 0 117 -46q53 -45 53 -110q0 -68 -53 -113t-117 -45q-74 0 -124 44q-51 45 -51 114zM743 1702q0 65 53 110q54 46 122 46q64 0 116 -44q51 -44 51 -112
t-51 -113t-116 -45q-71 0 -123 44t-52 114z" />
    <glyph glyph-name="afii10051" unicode="&#x402;" horiz-adv-x="1570" 
d="M1190 416q0 112 -56 168q-57 57 -145 57q-151 0 -223 -113v-528h-317v1137h-449v297h1227v-297h-461v-275q101 76 281 76q87 0 168 -26q82 -26 147 -77q66 -51 107 -147q40 -93 40 -221q0 -240 -127 -363q-126 -122 -295 -122q-185 0 -274 129l170 213q17 -17 27 -25
q7 -5 28 -13q20 -7 49 -7q48 0 75 37q28 39 28 100z" />
    <glyph glyph-name="afii10052" unicode="&#x403;" horiz-adv-x="1208" 
d="M133 0v1434h1075v-297h-757v-1137h-318zM1059 1733l-492 -232l-116 203l467 291z" />
    <glyph glyph-name="afii10053" unicode="&#x404;" horiz-adv-x="1413" 
d="M997 879v-297h-612q30 -154 145 -228q113 -73 269 -73q217 0 346 196l248 -125q-66 -176 -235 -272q-170 -96 -329 -96q-347 0 -557 200q-211 201 -211 533q0 322 208 527q209 206 546 206q151 0 310 -69t235 -199l-232 -170q-108 141 -333 141q-145 0 -254 -71
q-110 -72 -150 -203h606z" />
    <glyph glyph-name="afii10054" unicode="&#x405;" horiz-adv-x="1267" 
d="M879 397q0 57 -60 98q-60 40 -147 61q-81 19 -193 56q-100 33 -192 78q-88 43 -148 130q-59 86 -59 210q0 178 154 307q155 129 401 129q363 0 561 -264l-213 -205q-156 172 -360 172q-215 0 -215 -135q0 -52 59 -86q61 -35 147 -54q87 -19 193 -54q100 -33 192 -78
q89 -44 148 -131t59 -209q0 -195 -155 -325t-387 -130q-244 0 -414 99q-172 100 -250 251l231 193q72 -114 183 -180t241 -66q112 0 168 38t56 95z" />
    <glyph glyph-name="afii10055" unicode="&#x406;" horiz-adv-x="604" 
d="M143 0v1434h318v-1434h-318z" />
    <glyph glyph-name="afii10056" unicode="&#x407;" horiz-adv-x="604" 
d="M-51 1651q0 63 47 104t119 41q65 0 114 -42q50 -42 50 -103q0 -64 -50 -106t-114 -42q-72 0 -119 41t-47 107zM326 1651q0 61 49 103q50 42 119 42q65 0 113 -42t48 -103q0 -64 -48 -106t-113 -42q-69 0 -119 41q-49 40 -49 107zM143 0v1434h318v-1434h-318z" />
    <glyph glyph-name="afii10057" unicode="&#x408;" horiz-adv-x="995" 
d="M872 1434v-985q0 -229 -116 -351q-117 -123 -318 -123q-324 0 -458 275l231 178q77 -156 199 -156q76 0 111 59q34 58 34 179v924h317z" />
    <glyph glyph-name="afii10058" unicode="&#x409;" horiz-adv-x="2134" 
d="M1530 647h-203v-350h195q134 0 198 41t64 145q0 89 -62 127q-61 37 -192 37zM1327 1434v-490h207q580 0 580 -461q0 -234 -161 -359q-160 -124 -442 -124h-501v1126h-420l-8 -165q-12 -259 -44 -443q-32 -180 -72 -282q-41 -103 -108 -157q-69 -55 -131 -70
q-63 -15 -161 -15q-43 0 -82 6v295q118 -15 174 42q55 57 85 267q30 211 36 668l2 162h1046z" />
    <glyph glyph-name="afii10059" unicode="&#x40a;" horiz-adv-x="2125" 
d="M1333 909h207q565 0 565 -444q0 -237 -152 -350q-154 -115 -433 -115h-504v612h-565v-612h-318v1434h318v-525h565v525h317v-525zM1538 612h-205v-315h197q130 0 188 35t58 127q0 85 -55 120q-52 33 -183 33z" />
    <glyph glyph-name="afii10060" unicode="&#x40b;" horiz-adv-x="1513" 
d="M0 1137v297h1227v-297h-461v-267q115 68 233 68q453 0 453 -492v-446h-317v406q0 98 -43 166q-44 69 -138 69q-114 0 -188 -92v-549h-317v1137h-449z" />
    <glyph glyph-name="afii10061" unicode="&#x40c;" horiz-adv-x="1435" 
d="M133 0v1434h318v-560l550 560h414l-622 -635l663 -799h-418l-485 586l-102 -105v-481h-318zM1053 1733l-492 -232l-117 203l467 291z" />
    <glyph glyph-name="afii10062" unicode="&#x40e;" horiz-adv-x="1490" 
d="M1159 1434h332l-520 -1098q-82 -171 -174 -254q-91 -82 -236 -82q-178 0 -289 164l205 186q35 -53 88 -53q62 0 103 86l-668 1051h393l436 -713zM385 1829h266q24 -105 123 -105q47 0 83 27q37 27 44 78h266q-8 -137 -127 -237q-118 -99 -254 -99q-178 0 -278 91
t-123 245z" />
    <glyph glyph-name="afii10145" unicode="&#x40f;" horiz-adv-x="1525" 
d="M133 0v1434h318v-1137h624v1137h318v-1434h-478v-281h-307v281h-475z" />
    <glyph glyph-name="afii10017" unicode="&#x410;" horiz-adv-x="1476" 
d="M-8 0l629 1434h235l629 -1434h-332l-117 266h-600l-117 -266h-327zM735 963l-188 -428h373z" />
    <glyph glyph-name="afii10018" unicode="&#x411;" horiz-adv-x="1361" 
d="M1212 1434v-297h-761v-234h360q249 0 375 -115q125 -114 125 -327q0 -461 -596 -461h-582v1434h1079zM739 606h-288v-309h276q133 0 194 38q60 37 60 124q0 79 -55 113t-187 34z" />
    <glyph glyph-name="afii10019" unicode="&#x412;" horiz-adv-x="1388" 
d="M133 0v1434h641q496 0 496 -367q0 -185 -140 -307q187 -89 187 -334q0 -217 -152 -322q-150 -104 -407 -104h-625zM741 588h-290v-291h274q142 0 201 34t59 113q0 76 -55 110t-189 34zM721 1137h-270v-263h297q93 0 143 32q49 31 49 89q0 73 -47 108q-46 34 -172 34z" />
    <glyph glyph-name="afii10020" unicode="&#x413;" horiz-adv-x="1208" 
d="M133 0v1434h1075v-297h-757v-1137h-318z" />
    <glyph glyph-name="afii10021" unicode="&#x414;" horiz-adv-x="1538" 
d="M4 -240v537h156q149 313 149 965v172h1043v-1137h166v-537h-297v240h-920v-240h-297zM612 1137l-2 -80q-12 -502 -123 -760h547v840h-422z" />
    <glyph glyph-name="afii10022" unicode="&#x415;" horiz-adv-x="1329" 
d="M133 0v1434h1096v-297h-778v-267h727v-286h-727v-287h796v-297h-1114z" />
    <glyph glyph-name="afii10024" unicode="&#x416;" horiz-adv-x="2027" 
d="M565 737l-573 697h389l475 -568v568h318v-572l468 572h394l-574 -666l570 -768h-377l-441 586l-40 -62v-524h-318l2 522l-39 56l-461 -578h-360z" />
    <glyph glyph-name="afii10025" unicode="&#x417;" horiz-adv-x="1341" 
d="M692 -25q-474 0 -692 322l252 170q146 -195 432 -195q277 0 277 156q0 154 -299 154h-226v297h213q128 0 195 35q69 36 69 98q0 80 -75 114q-78 35 -176 35q-226 0 -365 -157l-246 165q211 289 629 289q270 0 411 -110q142 -111 142 -308q0 -186 -148 -272
q195 -78 195 -322q0 -219 -162 -345t-426 -126z" />
    <glyph glyph-name="afii10026" unicode="&#x418;" horiz-adv-x="1542" 
d="M393 0h-260v1434h318v-879l694 879h264v-1434h-317v874z" />
    <glyph glyph-name="afii10027" unicode="&#x419;" horiz-adv-x="1542" 
d="M393 0h-260v1434h318v-879l694 879h264v-1434h-317v874zM395 1829h267q24 -105 122 -105q47 0 83 27q37 27 44 78h267q-8 -137 -127 -237q-119 -99 -254 -99q-179 0 -279 91t-123 245z" />
    <glyph glyph-name="afii10028" unicode="&#x41a;" horiz-adv-x="1435" 
d="M133 0v1434h318v-560l550 560h414l-622 -635l663 -799h-418l-485 586l-102 -105v-481h-318z" />
    <glyph glyph-name="afii10029" unicode="&#x41b;" horiz-adv-x="1488" 
d="M1038 0v1126h-448l-8 -165q-12 -259 -44 -443q-32 -180 -72 -282q-41 -103 -108 -157q-69 -55 -131 -70q-63 -15 -161 -15q-43 0 -82 6v295q118 -15 174 42q55 57 85 267q30 211 36 668l2 162h1075v-1434h-318z" />
    <glyph glyph-name="afii10030" unicode="&#x41c;" horiz-adv-x="1742" 
d="M133 0v1434h295l459 -686l436 686h287v-1434h-318v860l-372 -571h-84l-385 577v-866h-318z" />
    <glyph glyph-name="afii10031" unicode="&#x41d;" horiz-adv-x="1538" 
d="M1087 0v573h-636v-573h-318v1434h318v-564h636v564h318v-1434h-318z" />
    <glyph glyph-name="afii10032" unicode="&#x41e;" horiz-adv-x="1599" 
d="M61 717q0 312 214 526q215 215 526 215q308 0 523 -212q214 -211 214 -529q0 -316 -214 -529t-523 -213q-310 0 -525 212t-215 530zM391 717q0 -193 120 -314q119 -120 290 -120q175 0 291 119t116 315q0 191 -122 313q-121 121 -285 121q-170 0 -290 -121
q-120 -122 -120 -313z" />
    <glyph glyph-name="afii10033" unicode="&#x41f;" horiz-adv-x="1536" 
d="M1085 0v1137h-634v-1137h-318v1434h1270v-1434h-318z" />
    <glyph glyph-name="afii10034" unicode="&#x420;" horiz-adv-x="1386" 
d="M451 0h-318v1434h594q176 0 299 -43q124 -43 189 -117q67 -76 93 -156q27 -82 27 -178q0 -205 -147 -347q-146 -142 -461 -142h-276v-451zM735 1137h-284v-389h272q283 0 283 194q0 195 -271 195z" />
    <glyph glyph-name="afii10035" unicode="&#x421;" horiz-adv-x="1425" 
d="M1217 473l188 -203q-96 -141 -257 -218q-162 -77 -353 -77q-335 0 -534 204q-200 205 -200 538q0 313 207 527t535 214q193 0 347 -75q155 -75 232 -197l-215 -197q-62 79 -155 120q-94 42 -187 42q-195 0 -314 -118q-120 -119 -120 -316q0 -192 122 -314
q120 -120 308 -120q245 0 396 190z" />
    <glyph glyph-name="afii10036" unicode="&#x422;" horiz-adv-x="1236" 
d="M0 1137v297h1237v-297h-461v-1137h-317v1137h-459z" />
    <glyph glyph-name="afii10037" unicode="&#x423;" horiz-adv-x="1490" 
d="M1159 1434h332l-520 -1098q-82 -171 -174 -254q-91 -82 -236 -82q-178 0 -289 164l205 186q35 -53 88 -53q62 0 103 86l-668 1051h393l436 -713z" />
    <glyph glyph-name="afii10038" unicode="&#x424;" horiz-adv-x="1841" 
d="M762 -31v166h-8q-319 0 -511 165t-192 437q0 290 188 446q187 156 523 156v125h317v-125q321 0 515 -154q196 -155 196 -448q0 -272 -189 -437t-509 -165h-13v-166h-317zM1083 1042h-4v-610h13q370 0 370 305q0 154 -88 230q-87 75 -291 75zM379 737q0 -128 95 -217
q94 -88 282 -88h6v610q-206 0 -294 -72q-89 -72 -89 -233z" />
    <glyph glyph-name="afii10039" unicode="&#x425;" horiz-adv-x="1447" 
d="M1432 1434l-519 -707l535 -727h-387l-336 469l-338 -469h-387l537 727l-514 707h383l321 -445l320 445h385z" />
    <glyph glyph-name="afii10040" unicode="&#x426;" horiz-adv-x="1533" 
d="M133 0v1434h318v-1137h579v1137h318v-1137h165v-537h-294v240h-1086z" />
    <glyph glyph-name="afii10041" unicode="&#x427;" horiz-adv-x="1452" 
d="M1319 1434v-1434h-318v539q-152 -80 -350 -80q-256 0 -412 120q-157 121 -157 371v484h319v-283q0 -217 69 -306t224 -89q173 0 307 86v592h318z" />
    <glyph glyph-name="afii10042" unicode="&#x428;" horiz-adv-x="1943" 
d="M133 0v1434h318v-1137h362v1137h317v-1137h363v1137h317v-1434h-1677z" />
    <glyph glyph-name="afii10043" unicode="&#x429;" horiz-adv-x="2000" 
d="M133 0v1434h318v-1137h364v1137h318v-1137h364v1137h318v-1137h165v-537h-297v240h-1550z" />
    <glyph glyph-name="afii10044" unicode="&#x42a;" horiz-adv-x="1517" 
d="M0 1137v297h631v-476h264q602 0 602 -475q0 -245 -161 -364t-459 -119h-564v1137h-313zM891 662h-260v-365h254q147 0 215 41q67 40 67 145q0 179 -276 179z" />
    <glyph glyph-name="afii10045" unicode="&#x42b;" horiz-adv-x="1843" 
d="M1393 0v1434h317v-1434h-317zM657 662h-206v-365h202q147 0 215 41t68 145q0 179 -279 179zM451 1434v-476h213q294 0 448 -128t154 -347q0 -237 -163 -360t-458 -123h-512v1434h318z" />
    <glyph glyph-name="afii10046" unicode="&#x42c;" horiz-adv-x="1345" 
d="M719 662h-266v-365h260q282 0 282 186q0 179 -276 179zM453 1434v-476h270q602 0 602 -475q0 -235 -162 -359q-161 -124 -456 -124h-574v1434h320z" />
    <glyph glyph-name="afii10047" unicode="&#x42d;" horiz-adv-x="1447" 
d="M424 584v297h631q-34 126 -143 199q-110 73 -269 73q-111 0 -224 -43q-115 -44 -192 -139l-209 205q101 135 273 205q170 69 364 69q338 0 535 -197q196 -196 196 -530q0 -329 -199 -534t-548 -205q-426 0 -639 307l211 180q136 -190 436 -190q169 0 278 81
q112 83 134 222h-635z" />
    <glyph glyph-name="afii10048" unicode="&#x42e;" horiz-adv-x="2076" 
d="M133 0v1434h318v-570h145q45 258 239 422t465 164q325 0 520 -205q195 -206 195 -528q0 -315 -204 -524t-511 -209q-287 0 -478 161q-190 161 -228 449h-143v-594h-318zM907 717q0 -196 112 -317q110 -119 281 -119q177 0 281 117q105 118 105 319q0 198 -107 317
t-279 119q-171 0 -282 -120t-111 -316z" />
    <glyph glyph-name="afii10049" unicode="&#x42f;" horiz-adv-x="1435" 
d="M985 0v473h-244l-366 -473h-375l422 532q-154 46 -238 154q-82 106 -82 264q0 213 155 348q156 136 445 136h601v-1434h-318zM672 770h313v367h-301q-252 0 -252 -185q0 -77 67 -130q65 -52 173 -52z" />
    <glyph glyph-name="afii10065" unicode="&#x430;" horiz-adv-x="1089" 
d="M240 709l-142 215q157 163 469 163q208 0 322 -115q115 -117 115 -327v-645h-297v96q-37 -43 -116 -76q-77 -32 -171 -32q-176 0 -283 95q-106 94 -106 253q0 174 138 262q137 88 345 88q120 0 193 -27q2 81 -41 116q-44 36 -131 36q-86 0 -149 -21q-61 -20 -146 -81z
M481 244q72 0 136 35q63 34 90 86v49q-69 26 -162 26q-207 0 -207 -104q0 -44 38 -68t105 -24z" />
    <glyph glyph-name="afii10066" unicode="&#x431;" horiz-adv-x="1214" 
d="M1036 1522l51 -269q-100 -47 -285 -69q-190 -23 -257 -49q-208 -80 -230 -285q57 73 158 114q99 40 217 40q205 0 344 -124q140 -125 140 -356q0 -242 -147 -393t-394 -151q-264 0 -423 166t-159 472q0 296 85 473q86 179 274 273q115 58 330 86q217 29 296 72zM358 569
v-32q0 -109 77 -195t196 -86q118 0 177 68q58 67 58 182q0 102 -58 161q-58 60 -171 60q-189 0 -279 -158z" />
    <glyph glyph-name="afii10067" unicode="&#x432;" horiz-adv-x="1087" 
d="M92 0v1065h465q232 0 348 -70q115 -70 115 -225q0 -105 -98 -203q125 -62 125 -237q0 -159 -112 -245q-110 -85 -306 -85h-537zM588 412h-199v-146h211q139 0 139 70q0 40 -36 58t-115 18zM551 799h-162v-131h223q101 0 101 65q0 41 -35 53q-37 13 -127 13z" />
    <glyph glyph-name="afii10068" unicode="&#x433;" horiz-adv-x="933" 
d="M92 0v1065h832v-277h-535v-788h-297z" />
    <glyph glyph-name="afii10069" unicode="&#x434;" horiz-adv-x="1234" 
d="M10 -229v505h121q107 225 107 660v129h843v-789h144v-505h-277v229h-661v-229h-277zM510 788v-65q0 -86 -22 -238q-21 -146 -54 -209h350v512h-274z" />
    <glyph glyph-name="afii10070" unicode="&#x435;" horiz-adv-x="1142" 
d="M897 377l178 -180q-169 -213 -459 -213q-260 0 -417 150q-158 150 -158 401q0 242 145 397t408 155q220 0 364 -135t144 -354q0 -62 -17 -172h-733q40 -166 269 -166q76 0 155 31q75 29 121 86zM584 821q-171 0 -226 -139h437q-37 139 -211 139z" />
    <glyph glyph-name="afii10072" unicode="&#x436;" horiz-adv-x="1566" 
d="M383 586l-403 479h372l283 -363v363h297v-365l297 365h358l-405 -479l405 -586h-362l-252 406l-41 -50v-356h-297v354l-41 49l-256 -403h-352z" />
    <glyph glyph-name="afii10073" unicode="&#x437;" horiz-adv-x="1038" 
d="M510 -25q-189 0 -308 68q-118 67 -198 203l223 153q94 -157 287 -157q176 0 176 104q0 68 -123 68h-221v256h211q98 0 98 67q0 47 -42 70q-41 22 -99 22q-109 0 -167 -32q-60 -33 -116 -101l-208 140q63 112 186 186q124 74 313 74q214 0 327 -88q114 -88 114 -232
q0 -116 -80 -196q114 -88 114 -234q0 -170 -136 -270q-137 -101 -351 -101z" />
    <glyph glyph-name="afii10074" unicode="&#x438;" horiz-adv-x="1210" 
d="M344 0h-252v1065h297v-580l477 580h252v-1065h-297v580z" />
    <glyph glyph-name="afii10075" unicode="&#x439;" horiz-adv-x="1210" 
d="M344 0h-252v1065h297v-580l477 580h252v-1065h-297v580zM252 1511h272q4 -108 107 -108q100 0 100 108h270q-1 -163 -109 -248q-107 -85 -261 -85q-161 0 -270 83q-108 82 -109 250z" />
    <glyph glyph-name="afii10076" unicode="&#x43a;" horiz-adv-x="1140" 
d="M92 0v1065h297v-381l377 381h385l-483 -473l493 -592h-377l-329 403l-66 -67v-336h-297z" />
    <glyph glyph-name="afii10077" unicode="&#x43b;" horiz-adv-x="1189" 
d="M801 0v788h-289v-28q0 -437 -121 -624t-387 -136v266q81 -10 127 25t73 164t27 379v231h867v-1065h-297z" />
    <glyph glyph-name="afii10078" unicode="&#x43c;" horiz-adv-x="1357" 
d="M92 0v1065h262l332 -426l336 426h244v-1065h-297v545l-281 -352l-299 358v-551h-297z" />
    <glyph glyph-name="afii10079" unicode="&#x43d;" horiz-adv-x="1185" 
d="M797 0v399h-408v-399h-297v1065h297v-389h408v389h297v-1065h-297z" />
    <glyph glyph-name="afii10080" unicode="&#x43e;" horiz-adv-x="1236" 
d="M41 535q0 241 161 397q159 155 414 155t417 -155q163 -156 163 -397q0 -240 -163 -396q-162 -155 -417 -155q-249 0 -411 155q-164 156 -164 396zM348 535q0 -119 75 -197t193 -78q122 0 198 74q75 74 75 201q0 126 -78 201t-195 75q-115 0 -192 -74q-76 -73 -76 -202z
" />
    <glyph glyph-name="afii10081" unicode="&#x43f;" horiz-adv-x="1173" 
d="M784 0v788h-395v-788h-297v1065h989v-1065h-297z" />
    <glyph glyph-name="afii10082" unicode="&#x440;" horiz-adv-x="1191" 
d="M92 -410v1475h297v-55q83 77 238 77q240 0 382 -149t142 -389q0 -248 -146 -406q-147 -159 -387 -159q-182 0 -229 53v-447h-297zM594 811q-139 0 -205 -121v-340q26 -38 77 -64q50 -26 112 -26q122 0 194 72t72 194q0 140 -66 212q-67 73 -184 73z" />
    <glyph glyph-name="afii10083" unicode="&#x441;" horiz-adv-x="1105" 
d="M883 399l217 -129q-72 -139 -200 -213q-127 -73 -282 -73q-259 0 -418 150t-159 401q0 240 158 396q157 156 405 156q182 0 308 -72q128 -73 180 -194l-222 -143q-99 133 -247 133q-123 0 -199 -76t-76 -200q0 -115 84 -195q85 -80 219 -80q148 0 232 139z" />
    <glyph glyph-name="afii10084" unicode="&#x442;" horiz-adv-x="1042" 
d="M8 788v277h1026v-277h-366v-788h-297v788h-363z" />
    <glyph glyph-name="afii10085" unicode="&#x443;" horiz-adv-x="1140" 
d="M1171 1065l-600 -1475h-321l219 500l-510 975h346l309 -619l240 619h317z" />
    <glyph glyph-name="afii10086" unicode="&#x444;" horiz-adv-x="1533" 
d="M618 -410v390h-12q-266 0 -418 153q-151 152 -151 397q0 230 153 392q152 161 414 161h14v412h297v-412h17q256 0 410 -155q155 -157 155 -398q0 -245 -151 -397q-152 -153 -418 -153h-13v-390h-297zM344 530q0 -134 68 -204t194 -70h12v551h-14q-260 0 -260 -277z
M928 807h-13v-551h13q140 0 201 67t61 207q0 137 -61 207t-201 70z" />
    <glyph glyph-name="afii10087" unicode="&#x445;" horiz-adv-x="1179" 
d="M1182 1065l-408 -516l426 -549h-369l-243 326l-252 -326h-356l426 547l-406 518h367l227 -289l229 289h359z" />
    <glyph glyph-name="afii10088" unicode="&#x446;" horiz-adv-x="1218" 
d="M92 0v1065h297v-789h389v789h297v-789h133v-505h-276v229h-840z" />
    <glyph glyph-name="afii10089" unicode="&#x447;" horiz-adv-x="1126" 
d="M1034 1065v-1065h-297v379q-95 -72 -245 -72q-441 0 -441 424v334h297v-219q0 -148 47 -206q46 -56 166 -56q108 0 176 86v395h297z" />
    <glyph glyph-name="afii10090" unicode="&#x448;" horiz-adv-x="1533" 
d="M92 0v1065h297v-789h229v789h297v-789h230v789h297v-1065h-1350z" />
    <glyph glyph-name="afii10091" unicode="&#x449;" horiz-adv-x="1585" 
d="M92 0v1065h297v-789h229v789h297v-789h230v789h297v-789h133v-505h-277v229h-1206z" />
    <glyph glyph-name="afii10092" unicode="&#x44a;" horiz-adv-x="1218" 
d="M10 788v277h541v-279h172q248 0 356 -109q109 -111 109 -284q0 -167 -115 -280t-362 -113h-457v788h-244zM705 510h-154v-234h154q93 0 135 28q41 27 41 87q0 61 -41 90t-135 29z" />
    <glyph glyph-name="afii10093" unicode="&#x44b;" horiz-adv-x="1439" 
d="M92 0v1065h297v-283h135q248 0 358 -108q109 -108 109 -281q0 -167 -117 -280q-118 -113 -364 -113h-418zM508 506h-119v-230h117q95 0 137 28q41 27 41 87q0 61 -41 88t-135 27zM1051 0v1065h297v-1065h-297z" />
    <glyph glyph-name="afii10094" unicode="&#x44c;" horiz-adv-x="1058" 
d="M92 0v1065h297v-283h174q247 0 356 -108t109 -281q0 -167 -116 -280t-363 -113h-457zM543 506h-154v-230h154q95 0 137 28q41 27 41 87q0 61 -41 88t-137 27z" />
    <glyph glyph-name="afii10095" unicode="&#x44d;" horiz-adv-x="1130" 
d="M375 416v256h399q-27 79 -92 108q-68 31 -174 31q-74 0 -152 -33t-129 -106l-213 159q186 256 529 256q248 0 397 -149q150 -150 150 -403q0 -242 -152 -397q-151 -154 -418 -154q-164 0 -305 60q-142 61 -205 189l215 154q91 -127 264 -127q235 0 291 156h-405z" />
    <glyph glyph-name="afii10096" unicode="&#x44e;" horiz-adv-x="1644" 
d="M92 0v1065h297v-389h133q44 189 181 300q138 111 344 111q246 0 401 -155q156 -156 156 -397q0 -240 -156 -396q-155 -155 -401 -155q-212 0 -352 116t-179 314h-127v-414h-297zM813 535q0 -130 66 -202q67 -73 170 -73q112 0 180 73q67 71 67 202q0 129 -67 202
q-68 74 -180 74q-101 0 -168 -75q-68 -76 -68 -201z" />
    <glyph glyph-name="afii10097" unicode="&#x44f;" horiz-adv-x="1091" 
d="M549 1065h450v-1065h-297v322h-137l-219 -322h-342l272 373q-215 66 -215 329q0 160 118 262q117 101 370 101zM369 690q0 -92 151 -92h182v190h-172q-161 0 -161 -98z" />
    <glyph glyph-name="afii10071" unicode="&#x451;" horiz-adv-x="1142" 
d="M897 377l178 -180q-169 -213 -459 -213q-260 0 -417 150q-158 150 -158 401q0 242 145 397t408 155q220 0 364 -135t144 -354q0 -62 -17 -172h-733q40 -166 269 -166q76 0 155 31q75 29 121 86zM584 821q-171 0 -226 -139h437q-37 139 -211 139zM225 1352q0 61 47 102
t113 41q62 0 112 -41t50 -102q0 -67 -49 -107q-50 -41 -113 -41q-67 0 -113 40q-47 41 -47 108zM643 1352q0 62 49 102q50 41 117 41q65 0 114 -41q48 -40 48 -102q0 -67 -47 -108q-46 -40 -115 -40q-71 0 -118 40q-48 40 -48 108z" />
    <glyph glyph-name="afii10099" unicode="&#x452;" horiz-adv-x="1329" 
d="M0 1065v266h246v164h297v-164h403v-266h-403v-262q106 80 262 80q215 0 339 -129q124 -128 124 -379q0 -246 -115 -458q-114 -210 -350 -345l-176 201q195 129 264 261q70 134 70 314q0 258 -209 258q-63 0 -119 -37q-57 -38 -90 -100v-469h-297v1065h-246z" />
    <glyph glyph-name="afii10100" unicode="&#x453;" horiz-adv-x="933" 
d="M92 0v1065h832v-277h-535v-788h-297zM831 1538l-270 -336l-205 144l252 360z" />
    <glyph glyph-name="afii10101" unicode="&#x454;" horiz-adv-x="1107" 
d="M764 672v-256h-404q50 -156 271 -156q154 0 243 119l222 -119q-62 -138 -196 -208q-130 -68 -286 -68q-248 0 -405 153q-158 153 -158 398q0 253 159 403q158 149 419 149q330 0 465 -231l-228 -147q-50 61 -104 81q-56 21 -135 21q-201 0 -262 -139h399z" />
    <glyph glyph-name="afii10102" unicode="&#x455;" horiz-adv-x="1015" 
d="M678 317q0 27 -63 50q-74 26 -150 47q-92 25 -177 61q-89 38 -152 110q-62 71 -62 173q0 152 122 241q121 88 336 88q149 0 268 -56q123 -58 175 -136l-203 -195q-106 111 -299 111q-92 0 -92 -51q0 -25 62 -44q53 -17 151 -43q92 -25 177 -61q92 -39 152 -112
q62 -75 62 -181q0 -164 -128 -250q-127 -85 -322 -85q-185 0 -317 72q-130 71 -193 186l235 159q44 -59 129 -100t178 -41q111 0 111 57z" />
    <glyph glyph-name="afii10103" unicode="&#x456;" horiz-adv-x="518" 
d="M111 0v1065h297v-1065h-297zM92 1348q0 63 47 105q46 42 121 42q72 0 119 -42t47 -105q0 -65 -47 -109q-46 -43 -119 -43q-78 0 -123 42t-45 110z" />
    <glyph glyph-name="afii10104" unicode="&#x457;" horiz-adv-x="481" 
d="M92 0v1065h297v-1065h-297zM-82 1346q0 62 45 105q46 44 111 44q56 0 102 -45q47 -45 47 -104q0 -64 -47 -109q-46 -45 -102 -45q-68 0 -112 44t-44 110zM258 1346q0 59 47 104t109 45q60 0 106 -45q47 -45 47 -104q0 -64 -46 -109t-107 -45q-62 0 -109 45t-47 109z" />
    <glyph glyph-name="afii10105" unicode="&#x458;" horiz-adv-x="516" 
d="M410 1065v-1061q0 -205 -94 -319q-93 -113 -281 -113q-282 0 -383 246l260 100q35 -70 96 -70q105 0 105 162v1055h297zM92 1350q0 63 46 105q47 42 124 42q70 0 116 -42t46 -105q0 -68 -44 -110t-118 -42q-78 0 -124 42t-46 110z" />
    <glyph glyph-name="afii10106" unicode="&#x459;" horiz-adv-x="1685" 
d="M795 788h-283v-28q0 -437 -121 -624t-387 -136v266q81 -10 127 25t73 164t27 379v231h861v-303h98q465 0 465 -379q0 -165 -115 -274t-362 -109h-383v788zM1174 485h-82v-209h106q88 0 119 26t31 79q0 60 -39 82q-38 22 -135 22z" />
    <glyph glyph-name="afii10107" unicode="&#x45a;" horiz-adv-x="1681" 
d="M92 0v1065h297v-346h404v346h297v-346h96q252 0 358 -93q107 -93 107 -264q0 -168 -114 -265q-113 -97 -363 -97h-381v442h-404v-442h-297zM1171 442h-81v-166h79q97 0 137 19q37 18 37 65q0 46 -38 64q-39 18 -134 18z" />
    <glyph glyph-name="afii10108" unicode="&#x45b;" horiz-adv-x="1323" 
d="M0 1065v266h246v164h297v-164h403v-266h-403v-289q101 86 272 86q436 0 436 -489v-373h-297v356q0 112 -45 171t-157 59q-63 0 -122 -35q-58 -35 -87 -96v-455h-297v1065h-246z" />
    <glyph glyph-name="afii10109" unicode="&#x45c;" horiz-adv-x="1140" 
d="M92 0v1065h297v-381l377 381h385l-483 -473l493 -592h-377l-329 403l-66 -67v-336h-297zM866 1538l-270 -336l-205 144l252 360z" />
    <glyph glyph-name="afii10110" unicode="&#x45e;" horiz-adv-x="1140" 
d="M1171 1067l-600 -1475h-321l219 500l-510 975h346l309 -618l240 618h317zM211 1511h272q5 -108 107 -108q100 0 100 108h271q-1 -162 -110 -248q-107 -85 -261 -85q-160 0 -269 83t-110 250z" />
    <glyph glyph-name="afii10193" unicode="&#x45f;" horiz-adv-x="1193" 
d="M92 0v1065h297v-789h416v789h297v-1065h-367v-266h-276v266h-367z" />
    <glyph glyph-name="afii10146" unicode="&#x462;" horiz-adv-x="1447" 
d="M0 993v297h236v144h317v-144h440v-297h-440v-116h272q307 0 455 -103q147 -102 147 -332q0 -233 -158 -337q-159 -105 -460 -105h-573v993h-236zM821 580h-268v-283h262q152 0 218 29q65 29 65 116q0 86 -63 112q-64 26 -214 26z" />
    <glyph glyph-name="afii10194" unicode="&#x463;" horiz-adv-x="1202" 
d="M854 799h-322v-99h175q246 0 355 -97t109 -251t-115 -253q-116 -99 -364 -99h-456v799h-226v266h226v430h296v-430h322v-266zM686 424h-154v-148h154q97 0 139 16q39 15 39 58q0 45 -38 60q-35 14 -140 14z" />
    <glyph glyph-name="afii10147" unicode="&#x472;" horiz-adv-x="1599" 
d="M61 717q0 310 214 521q215 212 526 212q310 0 524 -209q213 -208 213 -524q0 -313 -214 -523t-523 -210q-311 0 -526 209q-214 208 -214 524zM801 291q137 0 242 75q106 76 145 205h-776q44 -131 149 -205q107 -75 240 -75zM801 1143q-131 0 -238 -74q-105 -73 -149 -201
h770q-44 128 -150 201q-107 74 -233 74z" />
    <glyph glyph-name="afii10195" unicode="&#x473;" horiz-adv-x="1236" 
d="M41 535q0 241 161 397q159 155 414 155t417 -155q163 -156 163 -397q0 -240 -163 -396q-162 -155 -417 -155q-249 0 -411 155q-164 156 -164 396zM616 260q183 0 246 146h-485q68 -146 239 -146zM616 811q-170 0 -239 -139h481q-69 139 -242 139z" />
    <glyph glyph-name="afii10148" unicode="&#x474;" horiz-adv-x="1574" 
d="M1329 1014l-455 -1014h-221l-673 1434h344l442 -971l289 682q62 148 165 228q101 79 214 79q107 0 202 -68l-118 -264q-25 19 -58 19q-79 -5 -131 -125z" />
    <glyph glyph-name="afii10196" unicode="&#x475;" horiz-adv-x="1167" 
d="M938 627l-274 -627h-226l-489 1065h334l272 -614l168 397q101 237 307 233q131 -5 219 -88l-125 -225q-20 20 -53 20q-61 0 -133 -161z" />
    <glyph glyph-name="afii10050" unicode="&#x490;" horiz-adv-x="1208" 
d="M133 0v1434h778v235h297v-532h-757v-1137h-318z" />
    <glyph glyph-name="afii10098" unicode="&#x491;" horiz-adv-x="933" 
d="M92 0v1065h555v192h277v-469h-535v-788h-297z" />
    <glyph glyph-name="uni1E9E" unicode="&#x1e9e;" horiz-adv-x="1345" 
d="M729 1450q207 0 335 -95q127 -94 165 -231l-246 -299q157 -27 228 -131q73 -106 73 -252q0 -204 -139 -334q-140 -131 -365 -131q-121 0 -250 62l97 274q83 -39 135 -39q82 0 143 43q62 44 62 119q0 156 -219 156h-101v239l230 263q-55 59 -177 59q-260 0 -260 -301v-852
h-317v893q0 557 606 557z" />
    <glyph glyph-name="uni2010" unicode="&#x2010;" horiz-adv-x="868" 
d="M123 444v267h622v-267h-622z" />
    <glyph glyph-name="uni2011" unicode="&#x2011;" horiz-adv-x="868" 
d="M123 444v267h622v-267h-622z" />
    <glyph glyph-name="figuredash" unicode="&#x2012;" horiz-adv-x="1261" 
d="M164 616v258h934v-258h-934z" />
    <glyph glyph-name="endash" unicode="&#x2013;" horiz-adv-x="1261" 
d="M164 444v258h934v-258h-934z" />
    <glyph glyph-name="emdash" unicode="&#x2014;" horiz-adv-x="1630" 
d="M164 444v258h1302v-258h-1302z" />
    <glyph glyph-name="quoteleft" unicode="&#x2018;" horiz-adv-x="514" 
d="M428 1063l-250 -156q-117 133 -117 232q0 213 263 372l129 -112q-91 -85 -91 -185q0 -62 66 -151z" />
    <glyph glyph-name="quoteright" unicode="&#x2019;" horiz-adv-x="514" 
d="M86 1356l250 155q117 -133 117 -231q0 -214 -263 -373l-129 113q91 85 91 184q0 64 -66 152z" />
    <glyph glyph-name="quotesinglbase" unicode="&#x201a;" horiz-adv-x="514" 
d="M86 180l250 156q117 -133 117 -232q0 -213 -263 -372l-129 112q91 85 91 185q0 63 -66 151z" />
    <glyph glyph-name="quotedblleft" unicode="&#x201c;" horiz-adv-x="923" 
d="M428 1063l-250 -156q-117 133 -117 232q0 213 263 372l129 -112q-91 -85 -91 -185q0 -62 66 -151zM838 1063l-250 -156q-117 133 -117 232q0 213 262 372l129 -112q-90 -84 -90 -185q0 -62 66 -151z" />
    <glyph glyph-name="quotedblright" unicode="&#x201d;" horiz-adv-x="923" 
d="M496 1356l249 155q117 -133 117 -231q0 -214 -262 -373l-129 113q90 84 90 184q0 65 -65 152zM86 1356l250 155q117 -133 117 -231q0 -214 -263 -373l-129 113q91 85 91 184q0 64 -66 152z" />
    <glyph glyph-name="quotedblbase" unicode="&#x201e;" horiz-adv-x="923" 
d="M496 180l249 156q117 -133 117 -232q0 -213 -262 -372l-129 112q90 84 90 185q0 64 -65 151zM86 180l250 156q117 -133 117 -232q0 -213 -263 -372l-129 112q91 85 91 185q0 63 -66 151z" />
    <glyph glyph-name="dagger" unicode="&#x2020;" horiz-adv-x="944" 
d="M41 768v297h272v369h318v-369h272v-297h-272v-948h-318v948h-272z" />
    <glyph glyph-name="daggerdbl" unicode="&#x2021;" horiz-adv-x="966" 
d="M61 770v297h273v367h299v-367h272v-297h-272v-233h272v-297h-272v-420h-299v420h-273v297h273v233h-273z" />
    <glyph glyph-name="bullet" unicode="&#x2022;" horiz-adv-x="663" 
d="M123 737q0 80 62 135q64 56 149 56q83 0 145 -56t62 -135q0 -76 -62 -133q-61 -57 -145 -57q-87 0 -149 56t-62 134z" />
    <glyph glyph-name="ellipsis" unicode="&#x2026;" horiz-adv-x="1585" 
d="M1157 154q0 59 50 106t126 47q71 0 120 -48q50 -48 50 -105q0 -65 -49 -111q-50 -47 -121 -47q-77 0 -127 47q-49 46 -49 111zM621 154q0 60 49 106q50 47 125 47q71 0 120 -48q50 -48 50 -105q0 -64 -50 -111t-120 -47q-75 0 -125 47q-49 46 -49 111zM82 154
q0 59 50 106t126 47q70 0 120 -48t50 -105q0 -65 -49 -111q-50 -47 -121 -47q-77 0 -127 47q-49 46 -49 111z" />
    <glyph glyph-name="perthousand" unicode="&#x2030;" horiz-adv-x="2801" 
d="M61 1059q0 167 119 274t295 107q177 0 296 -107q118 -106 118 -274q0 -167 -118 -273t-296 -106t-295 107q-119 108 -119 272zM360 1059q0 -58 34 -92q35 -35 81 -35q49 0 82 35t33 92q0 58 -34 92q-35 35 -81 35t-81 -35q-34 -34 -34 -92zM330 92l1048 1403l219 -156
l-1048 -1400zM1030 373q0 168 118 273q120 106 296 106t296 -106q118 -105 118 -273q0 -166 -119 -274q-117 -107 -295 -107q-179 0 -296 107q-118 108 -118 274zM1329 373q0 -58 34 -92q35 -35 81 -35t81 35q34 34 34 92t-34 92q-35 35 -81 35t-81 -35q-34 -34 -34 -92z
M1913 373q0 168 118 273q120 106 296 106q175 0 295 -106q118 -105 118 -273q0 -166 -118 -274q-117 -107 -295 -107t-295 107q-119 108 -119 274zM2212 373q0 -58 34 -92q35 -35 81 -35q48 0 81 35q33 34 33 92t-34 92q-35 35 -80 35q-46 0 -81 -35q-34 -34 -34 -92z" />
    <glyph glyph-name="guilsinglleft" unicode="&#x2039;" horiz-adv-x="712" 
d="M444 78l-383 454v15l383 438l205 -182l-229 -266l231 -271z" />
    <glyph glyph-name="guilsinglright" unicode="&#x203a;" horiz-adv-x="712" 
d="M651 532l-383 -454l-207 188l232 271l-230 266l205 182l383 -438v-15z" />
    <glyph glyph-name="fraction" unicode="&#x2044;" horiz-adv-x="733" 
d="M-307 121l1128 1374l219 -176l-1124 -1382z" />
    <glyph glyph-name="uni2070" unicode="&#x2070;" horiz-adv-x="993" 
d="M82 1044q0 195 113 317t301 122q190 0 303 -122q112 -121 112 -317t-110 -316q-111 -122 -301 -122t-304 123t-114 315zM358 1044q0 -86 39 -134t103 -48q61 0 98 46t37 136q0 183 -139 183q-138 0 -138 -183z" />
    <glyph glyph-name="uni2074" unicode="&#x2074;" horiz-adv-x="919" 
d="M483 614v131h-463v193l500 537h219v-494h140v-236h-140v-131h-256zM324 981h159v166z" />
    <glyph glyph-name="uni2075" unicode="&#x2075;" horiz-adv-x="856" 
d="M117 934l35 541h579v-246h-366l-7 -47q35 6 103 6q148 0 230 -79q83 -80 83 -208q0 -133 -103 -215t-268 -82q-248 0 -362 172l195 154q62 -80 163 -80q99 0 99 55q0 68 -131 68q-105 0 -250 -39z" />
    <glyph glyph-name="uni2076" unicode="&#x2076;" horiz-adv-x="972" 
d="M82 1022q0 223 123 343t319 120q204 0 338 -86l-108 -193q-101 43 -230 43q-89 0 -132 -37q-44 -38 -44 -84q84 78 217 78q160 0 253 -78t93 -204q0 -140 -111 -230t-282 -90q-190 0 -313 111t-123 307zM383 934q1 -37 39 -61q36 -23 96 -23q117 0 117 72q0 29 -36 44
t-85 15q-90 0 -131 -47z" />
    <glyph glyph-name="uni2077" unicode="&#x2077;" horiz-adv-x="813" 
d="M41 1219v256h731v-197l-356 -664h-310l340 605h-405z" />
    <glyph glyph-name="uni2078" unicode="&#x2078;" horiz-adv-x="1019" 
d="M492 1157h38q80 0 80 49q0 25 -22 34t-80 9q-98 0 -98 -43q0 -28 18 -39q17 -10 64 -10zM528 952h-32q-117 0 -117 -55q0 -57 131 -57t131 55q0 57 -113 57zM510 604q-178 0 -293 71t-115 187q0 131 113 199q-82 49 -82 174q0 110 106 180q107 70 271 70q167 0 272 -69
t105 -181q0 -110 -84 -170q115 -56 115 -197q0 -122 -114 -193q-115 -71 -294 -71z" />
    <glyph glyph-name="uni2079" unicode="&#x2079;" horiz-adv-x="972" 
d="M891 1067q0 -223 -123 -343t-319 -120q-204 0 -338 86l108 193q101 -43 230 -43q89 0 132 37q44 38 44 84q-84 -78 -217 -78q-160 0 -253 78q-94 79 -94 204q0 140 113 230t281 90q190 0 313 -111t123 -307zM590 1155q-1 36 -39 60t-96 24q-117 0 -117 -72q0 -29 36 -44
t85 -15q90 0 131 47z" />
    <glyph glyph-name="uni207A" unicode="&#x207a;" horiz-adv-x="899" 
d="M102 932v246h213v211h267v-211h215v-246h-215v-213h-267v213h-213z" />
    <glyph glyph-name="uni207B" unicode="&#x207b;" horiz-adv-x="872" 
d="M102 932v246h668v-246h-668z" />
    <glyph glyph-name="uni207C" unicode="&#x207c;" horiz-adv-x="835" 
d="M102 1096v225h631v-225h-631zM102 791v225h631v-225h-631z" />
    <glyph glyph-name="uni207D" unicode="&#x207d;" horiz-adv-x="604" 
d="M584 543l-170 -154q-172 128 -253 280q-79 149 -79 294q0 316 332 573l155 -160q-96 -71 -154 -187q-57 -114 -57 -226t65 -227q64 -112 161 -193z" />
    <glyph glyph-name="uni207E" unicode="&#x207e;" horiz-adv-x="598" 
d="M188 391l-159 160q211 172 211 412q0 113 -50 213q-49 97 -170 202l166 158q181 -140 255 -275q75 -137 75 -298q0 -144 -78 -294q-79 -151 -250 -278z" />
    <glyph glyph-name="uni2080" unicode="&#x2080;" horiz-adv-x="993" 
d="M82 225q0 195 113 317t301 122q190 0 303 -122q112 -121 112 -317t-110 -316q-111 -122 -301 -122t-304 123t-114 315zM358 225q0 -86 39 -134t103 -48q61 0 98 46t37 136q0 183 -139 183q-138 0 -138 -183z" />
    <glyph glyph-name="uni2081" unicode="&#x2081;" horiz-adv-x="675" 
d="M20 518l330 137h203v-860h-277v553l-157 -63z" />
    <glyph glyph-name="uni2082" unicode="&#x2082;" horiz-adv-x="870" 
d="M256 305l-195 125q105 234 398 234q147 0 237 -73q88 -72 88 -185q0 -197 -184 -314l-80 -51h289v-246h-719v207l160 92q258 147 258 244q0 80 -78 80q-124 0 -174 -113z" />
    <glyph glyph-name="uni2083" unicode="&#x2083;" horiz-adv-x="884" 
d="M233 322l-178 143q119 201 379 201q161 0 256 -59q94 -58 94 -156q0 -71 -28 -114q-30 -45 -90 -79q137 -51 137 -197q0 -122 -105 -199q-106 -77 -272 -77q-273 0 -385 229l203 117q30 -100 182 -100q57 0 78 10q22 10 22 37q0 45 -110 45h-80v205h67q105 0 105 49
q0 43 -78 43q-72 0 -115 -24q-44 -24 -82 -74z" />
    <glyph glyph-name="uni2084" unicode="&#x2084;" horiz-adv-x="919" 
d="M483 -205v131h-463v193l500 536h219v-493h140v-236h-140v-131h-256zM324 162h159v166z" />
    <glyph glyph-name="uni2085" unicode="&#x2085;" horiz-adv-x="856" 
d="M117 115l35 540h579v-245h-366l-7 -48q39 7 103 7q148 0 230 -79q83 -80 83 -208q0 -133 -103 -215t-268 -82q-248 0 -362 172l195 154q62 -80 163 -80q99 0 99 55q0 68 -131 68q-105 0 -250 -39z" />
    <glyph glyph-name="uni2086" unicode="&#x2086;" horiz-adv-x="972" 
d="M82 203q0 223 123 343t319 120q204 0 338 -86l-108 -193q-101 43 -230 43q-89 0 -132 -37q-44 -38 -44 -84q84 78 217 78q160 0 253 -78t93 -205q0 -139 -111 -229t-282 -90q-190 0 -313 111t-123 307zM383 115q1 -37 39 -61q36 -23 96 -23q117 0 117 71q0 29 -36 44
q-38 16 -85 16q-90 0 -131 -47z" />
    <glyph glyph-name="uni2087" unicode="&#x2087;" horiz-adv-x="813" 
d="M41 399v256h731v-196l-356 -664h-310l340 604h-405z" />
    <glyph glyph-name="uni2088" unicode="&#x2088;" horiz-adv-x="1019" 
d="M492 338h38q80 0 80 49q0 25 -22 34t-80 9q-98 0 -98 -43q0 -29 18 -39q17 -10 64 -10zM528 133h-32q-117 0 -117 -55q0 -58 131 -58t131 56q0 57 -113 57zM510 -215q-178 0 -293 71t-115 187q0 131 113 199q-82 49 -82 174q0 110 106 180q107 70 271 70q167 0 272 -69
t105 -181q0 -110 -84 -170q115 -56 115 -197q0 -123 -114 -193q-115 -71 -294 -71z" />
    <glyph glyph-name="uni2089" unicode="&#x2089;" horiz-adv-x="972" 
d="M891 248q0 -223 -123 -343t-319 -120q-204 0 -338 86l108 192q101 -43 230 -43q89 0 132 37q44 38 44 84q-84 -78 -217 -78q-160 0 -253 78q-94 79 -94 205q0 139 113 229q114 91 281 91q190 0 313 -111t123 -307zM590 336q-1 36 -39 60q-37 24 -96 24q-117 0 -117 -72
q0 -29 36 -44t85 -15q90 0 131 47z" />
    <glyph glyph-name="uni208A" unicode="&#x208a;" horiz-adv-x="899" 
d="M102 113v245h213v211h267v-211h215v-245h-215v-213h-267v213h-213z" />
    <glyph glyph-name="uni208B" unicode="&#x208b;" horiz-adv-x="872" 
d="M102 113v245h668v-245h-668z" />
    <glyph glyph-name="uni208C" unicode="&#x208c;" horiz-adv-x="835" 
d="M102 276v226h631v-226h-631zM102 -29v226h631v-226h-631z" />
    <glyph glyph-name="uni208D" unicode="&#x208d;" horiz-adv-x="604" 
d="M584 -276l-170 -154q-173 128 -253 279q-79 149 -79 294q0 317 332 574l155 -160q-96 -71 -154 -187q-57 -114 -57 -227q0 -111 65 -226q64 -112 161 -193z" />
    <glyph glyph-name="uni208E" unicode="&#x208e;" horiz-adv-x="598" 
d="M188 -428l-159 160q211 172 211 411q0 113 -50 213q-49 99 -170 203l166 158q180 -139 255 -276q75 -136 75 -298q0 -144 -78 -294t-250 -277z" />
    <glyph glyph-name="Euro" unicode="&#x20ac;" horiz-adv-x="1425" 
d="M41 760l102 254h133q78 199 252 317q175 119 410 119q265 0 405 -113l-110 -231q-121 76 -295 76q-211 0 -322 -168h596l-94 -254h-581v-86h550l-79 -252h-410q46 -79 143 -125q100 -47 217 -47q57 0 136 20q82 21 131 58l84 -238q-49 -43 -152 -75q-100 -31 -205 -31
q-521 0 -688 438h-217l96 252h80q-2 14 -2 35q0 29 2 51h-182z" />
    <glyph glyph-name="uni20B4" unicode="&#x20b4;" horiz-adv-x="1271" 
d="M82 793v245h688q12 16 12 47q0 70 -153 70q-201 0 -314 -76l-127 248q175 125 463 125q174 0 311 -88q138 -88 138 -215q0 -70 -25 -111h115v-245h-283q-44 -34 -213 -111h496v-246h-694q-21 -38 -21 -59q0 -98 199 -98q210 0 350 106l135 -209q-57 -88 -209 -141
q-153 -53 -291 -53q-228 0 -364 91q-137 92 -137 267q0 40 18 96h-94v246h260q113 50 153 66q73 29 103 45h-516z" />
    <glyph glyph-name="uni20BD" unicode="&#x20bd;" horiz-adv-x="1288" 
d="M61 588v276h201v570q176 0 256 2q49 0 85 1t69 1q281 0 418 -114t137 -302q0 -194 -138 -314t-417 -120h-103v-86h328v-277h-328v-225h-307v225h-201v277h201v86h-201zM682 1161h-113v-297h99q124 0 183 35q58 34 58 117q0 79 -55 112q-56 33 -172 33z" />
    <glyph glyph-name="afii61352" unicode="&#x2116;" horiz-adv-x="2316" 
d="M1331 0h-241l-664 868v-868h-303v1434h242l661 -873v873h305v-1434zM1409 979q0 169 108 274t283 105q178 0 286 -105q107 -104 107 -274q0 -167 -108 -274q-109 -107 -285 -107q-174 0 -283 107q-108 107 -108 274zM1686 979q0 -58 32 -91q33 -34 82 -34q56 0 86 33
q31 34 31 92q0 55 -33 89t-84 34q-54 0 -84 -33t-30 -90zM1448 248v266h706v-266h-706z" />
    <glyph glyph-name="trademark" unicode="&#x2122;" horiz-adv-x="1701" 
d="M743 690v744h238l205 -236l194 236h240v-744h-299v262l-137 -164h-6l-136 166v-264h-299zM20 1174v260h695v-260h-158v-484h-299v484h-238z" />
    <glyph glyph-name="partialdiff" unicode="&#x2202;" horiz-adv-x="1230" 
d="M41 487q0 265 141 421q142 157 385 157q221 0 310 -125q-11 137 -154 200q-142 62 -320 44l46 274q344 0 533 -160q187 -159 187 -477q0 -240 -65 -425q-66 -188 -206 -304q-141 -117 -339 -117q-236 0 -377 149q-141 148 -141 363zM358 498q0 -124 63 -185
q62 -61 148 -61q102 0 174 93t84 241q-27 103 -93 152q-67 50 -134 50q-101 0 -171 -77q-71 -79 -71 -213z" />
    <glyph glyph-name="product" unicode="&#x220f;" horiz-adv-x="1812" 
d="M1300 -410v1536h-788v-1536h-328v1844h1444v-1844h-328z" />
    <glyph glyph-name="summation" unicode="&#x2211;" horiz-adv-x="1331" 
d="M629 512l-547 692v230h1167v-308h-710l467 -614l-488 -614h731v-308h-1167v230z" />
    <glyph glyph-name="minus" unicode="&#x2212;" horiz-adv-x="1136" 
d="M61 606v258h1014v-258h-1014z" />
    <glyph glyph-name="uni2215" unicode="&#x2215;" horiz-adv-x="733" 
d="M-307 121l1128 1374l219 -176l-1124 -1382z" />
    <glyph glyph-name="radical" unicode="&#x221a;" horiz-adv-x="1259" 
d="M0 719v266h397l224 -477l192 926h631v-246h-408l-278 -1198h-189l-372 729h-197z" />
    <glyph glyph-name="infinity" unicode="&#x221e;" horiz-adv-x="1398" 
d="M1012 350q-174 0 -310 131q-125 -131 -299 -131q-149 0 -256 99q-106 99 -106 251q0 147 101 249q102 104 266 104q152 0 286 -129q129 129 316 129q154 0 251 -99q97 -98 97 -260q0 -136 -90 -240t-256 -104zM995 795q-59 0 -125 -86q83 -101 136 -101q30 0 48 27
q17 25 17 59q0 44 -19 72q-20 29 -57 29zM410 608q47 0 116 88q-78 99 -114 99t-61 -28q-23 -26 -23 -67t26 -66q28 -26 56 -26z" />
    <glyph glyph-name="integral" unicode="&#x222b;" horiz-adv-x="712" 
d="M158 1085q0 217 108 322q107 104 279 104q194 0 289 -125l-164 -192q-38 41 -107 41q-108 0 -108 -150v-1087q0 -216 -109 -322q-107 -104 -278 -104q-194 0 -289 125l164 192q38 -41 106 -41q109 0 109 150v1087z" />
    <glyph glyph-name="approxequal" unicode="&#x2248;" horiz-adv-x="1167" 
d="M176 733l-115 201q63 74 144 112q78 37 145 37q85 0 216 -52t204 -52q115 0 223 102l113 -190q-152 -150 -315 -150q-101 0 -231 49q-128 48 -175 48q-85 0 -209 -105zM176 344l-115 201q62 72 144 111q81 38 145 38q85 0 216 -52t204 -52q115 0 223 102l113 -190
q-152 -150 -315 -150q-103 0 -231 48q-130 49 -175 49q-85 0 -209 -105z" />
    <glyph glyph-name="notequal" unicode="&#x2260;" horiz-adv-x="1136" 
d="M82 801v258h448l156 418l270 -86l-122 -332h221v-258h-320l-49 -133h369v-258h-461l-174 -461l-266 100l139 361h-211v258h301l49 133h-350z" />
    <glyph glyph-name="lessequal" unicode="&#x2264;" horiz-adv-x="927" 
d="M61 481v307l805 -499v-314zM866 385l-805 508v125l805 498v-320l-393 -242l393 -247v-322z" />
    <glyph glyph-name="greaterequal" unicode="&#x2265;" horiz-adv-x="927" 
d="M866 788v-307l-805 -506v314zM866 893l-805 -508v322l394 247l-394 242v320l805 -498v-125z" />
    <glyph glyph-name="lozenge" unicode="&#x25ca;" horiz-adv-x="1019" 
d="M383 0l-342 520l344 545h252l342 -522l-344 -543h-252zM350 522l160 -246l160 267l-160 227z" />
    <glyph glyph-name="uniF350" unicode="&#xf350;" 
d="M-10 0l534 1145h226l534 -1145h-321l-86 174h-482l-88 -174h-317zM635 684l-135 -254h264z" />
    <glyph glyph-name="uniF351" unicode="&#xf351;" horiz-adv-x="1163" 
d="M1042 1147v-287h-626v-115h286q212 0 317 -96t105 -270q0 -379 -514 -379h-501v1147h933zM631 459h-215v-172h205q101 0 142 20q44 21 44 70q0 46 -39 64t-137 18z" />
    <glyph glyph-name="uniF352" unicode="&#xf352;" horiz-adv-x="1204" 
d="M109 0v1147h583q418 0 418 -297q0 -128 -100 -238q139 -84 139 -264q0 -176 -129 -262q-130 -86 -344 -86h-567zM651 446h-235v-159h223q109 0 147 17q41 18 41 61q0 46 -37 64q-35 17 -139 17zM635 860h-219v-137h241q134 0 134 55q0 44 -33 63q-32 19 -123 19z" />
    <glyph glyph-name="uniF353" unicode="&#xf353;" horiz-adv-x="1038" 
d="M109 0v1147h929v-287h-622v-860h-307z" />
    <glyph glyph-name="uniF354" unicode="&#xf354;" horiz-adv-x="1349" 
d="M0 -205v492h133q123 189 123 751v109h920v-860h157v-492h-286v205h-760v-205h-287zM545 860v-31q0 -393 -94 -542h417v573h-323z" />
    <glyph glyph-name="uniF355" unicode="&#xf355;" horiz-adv-x="1134" 
d="M109 0v1147h927v-287h-620v-141h577v-277h-577v-155h635v-287h-942z" />
    <glyph glyph-name="uniF356" unicode="&#xf356;" horiz-adv-x="1708" 
d="M438 625l-454 522h376l340 -391v391h308v-395l335 395h381l-458 -520l450 -627h-364l-308 442l-36 -34v-408h-308l2 403l-36 41l-324 -444h-348z" />
    <glyph glyph-name="uniF357" unicode="&#xf357;" horiz-adv-x="1144" 
d="M594 -27q-208 0 -353 61q-142 60 -249 214l246 162q118 -150 348 -150q64 0 105 10q46 11 64 28q19 18 27 33q9 18 9 31q0 45 -51 62q-48 16 -185 16h-141v287h184q154 0 154 84q0 76 -189 76q-177 0 -284 -113l-240 160q180 240 557 240q224 0 345 -94q120 -93 120 -253
q0 -152 -111 -221q150 -74 150 -239q0 -183 -134 -288q-135 -106 -372 -106z" />
    <glyph glyph-name="uniF358" unicode="&#xf358;" horiz-adv-x="1318" 
d="M358 0h-249v1147h307v-637l540 637h254v-1147h-307v637z" />
    <glyph glyph-name="uniF359" unicode="&#xf359;" horiz-adv-x="1318" 
d="M358 0h-249v1147h307v-637l540 637h254v-1147h-307v637zM289 1573h272q5 -109 107 -109q100 0 100 109h270q-2 -164 -109 -249t-261 -85q-161 0 -270 83q-107 82 -109 251z" />
    <glyph glyph-name="uniF35A" unicode="&#xf35a;" horiz-adv-x="1245" 
d="M109 0v1147h307v-412l420 412h399l-514 -502l545 -645h-404l-375 438l-71 -67v-371h-307z" />
    <glyph glyph-name="uniF35B" unicode="&#xf35b;" horiz-adv-x="1296" 
d="M881 0v860h-324v-47q0 -430 -135 -634q-134 -203 -356 -191q-13 0 -32 4q-20 4 -34 6v295q127 -21 190 107q64 130 64 468v279h934v-1147h-307z" />
    <glyph glyph-name="uniF35C" unicode="&#xf35c;" horiz-adv-x="1490" 
d="M109 0v1147h260l385 -436l370 436h258v-1147h-307v627l-282 -338h-82l-295 346v-635h-307z" />
    <glyph glyph-name="uniF35D" unicode="&#xf35d;" horiz-adv-x="1310" 
d="M895 0v432h-479v-432h-307v1147h307v-428h479v428h307v-1147h-307z" />
    <glyph glyph-name="uniF35E" unicode="&#xf35e;" horiz-adv-x="1359" 
d="M49 573q0 249 183 421q184 173 448 173q263 0 447 -170t184 -424q0 -250 -184 -422q-183 -171 -447 -171q-265 0 -448 171t-183 422zM367 573q0 -135 92 -216q91 -81 221 -81q132 0 223 80q90 80 90 217q0 136 -94 217q-93 80 -219 80q-131 0 -221 -80q-92 -81 -92 -217z
" />
    <glyph glyph-name="uniF35F" unicode="&#xf35f;" horiz-adv-x="1310" 
d="M895 0v860h-479v-860h-307v1147h1093v-1147h-307z" />
    <glyph glyph-name="uniF360" unicode="&#xf360;" horiz-adv-x="1200" 
d="M416 0h-307v1147h518q149 0 257 -36q109 -36 163 -98q55 -62 79 -130q25 -70 25 -148q0 -170 -127 -288q-126 -117 -395 -117h-213v-330zM635 860h-219v-244h209q209 0 209 121q0 123 -199 123z" />
    <glyph glyph-name="uniF361" unicode="&#xf361;" horiz-adv-x="1216" 
d="M1022 428l182 -197q-84 -123 -224 -187t-308 -64q-284 0 -453 163q-170 164 -170 430q0 250 178 422t457 172q169 0 301 -61q133 -61 201 -170l-211 -188q-44 59 -123 91q-77 31 -143 31q-153 0 -247 -79q-95 -80 -95 -218q0 -131 95 -214t236 -83q202 0 324 152z" />
    <glyph glyph-name="uniF362" unicode="&#xf362;" horiz-adv-x="1083" 
d="M8 850v297h1067v-297h-381v-850h-307v850h-379z" />
    <glyph glyph-name="uniF363" unicode="&#xf363;" horiz-adv-x="1290" 
d="M317 49l132 246q11 -14 43 -14q59 0 81 67l-573 799h383l340 -485l246 485h323l-438 -875q-68 -137 -151 -205q-82 -67 -205 -67q-104 0 -181 49z" />
    <glyph glyph-name="uniF364" unicode="&#xf364;" horiz-adv-x="1638" 
d="M664 -25v129h-7q-289 0 -452 127q-164 128 -164 359q0 238 168 359t455 126v96h311v-96q282 0 452 -119t170 -366q0 -232 -163 -359t-451 -127h-8v-129h-311zM977 786h-2v-393h8q149 0 223 47t74 150q0 102 -66 149q-67 47 -237 47zM358 590q0 -197 301 -197h5v393
q-306 0 -306 -196z" />
    <glyph glyph-name="uniF365" unicode="&#xf365;" horiz-adv-x="1257" 
d="M1251 1147l-440 -565l455 -582h-377l-260 330l-262 -330h-375l457 582l-439 565h373l248 -311l248 311h372z" />
    <glyph glyph-name="uniF366" unicode="&#xf366;" horiz-adv-x="1327" 
d="M109 0v1147h307v-860h430v860h307v-860h158v-492h-287v205h-915z" />
    <glyph glyph-name="uniF367" unicode="&#xf367;" horiz-adv-x="1249" 
d="M1141 1147v-1147h-307v401q-123 -53 -275 -53q-224 0 -358 97q-135 97 -135 303v399h307v-193q0 -180 51 -249q52 -70 174 -70q141 0 236 61v451h307z" />
    <glyph glyph-name="uniF368" unicode="&#xf368;" horiz-adv-x="1626" 
d="M109 0v1147h307v-860h243v860h308v-860h243v860h308v-1147h-1409z" />
    <glyph glyph-name="uniF369" unicode="&#xf369;" horiz-adv-x="1671" 
d="M109 0v1147h307v-860h243v860h308v-860h243v860h308v-860h137v-492h-287v205h-1259z" />
    <glyph glyph-name="uniF36A" unicode="&#xf36a;" horiz-adv-x="1308" 
d="M0 860v287h567v-356h193q518 0 518 -396q0 -395 -535 -395h-483v860h-260zM756 502h-189v-215h185q117 0 161 20q48 22 48 88q0 107 -205 107z" />
    <glyph glyph-name="uniF36B" unicode="&#xf36b;" horiz-adv-x="1591" 
d="M1174 0v1147h309v-1147h-309zM563 502h-147v-215h143q117 0 163 20q48 21 48 88q0 107 -207 107zM416 1147v-356h202q240 0 355 -106q114 -105 114 -290q0 -192 -135 -294q-134 -101 -366 -101h-477v1147h307z" />
    <glyph glyph-name="uniF36C" unicode="&#xf36c;" horiz-adv-x="1167" 
d="M614 502h-198v-215h194q209 0 209 108q0 107 -205 107zM416 1147v-356h202q519 0 519 -396q0 -194 -140 -295q-139 -100 -393 -100h-495v1147h307z" />
    <glyph glyph-name="uniF36D" unicode="&#xf36d;" horiz-adv-x="1236" 
d="M426 442v287h440q-34 69 -113 110q-81 42 -198 42q-220 0 -342 -140l-201 199q89 113 236 170t317 57q288 0 455 -160q168 -161 168 -429q0 -263 -170 -431q-168 -167 -467 -167q-370 0 -559 266l203 174q115 -154 362 -154q123 0 208 48q84 47 105 128h-444z" />
    <glyph glyph-name="uniF36E" unicode="&#xf36e;" horiz-adv-x="1798" 
d="M109 0v1147h307v-434h116q44 199 208 326q166 128 395 128q277 0 446 -167q168 -166 168 -427q0 -253 -176 -423t-438 -170q-244 0 -407 123q-165 124 -198 350h-114v-453h-307zM829 573q0 -139 87 -223t219 -84q135 0 216 83t81 224t-82 224q-82 84 -215 84
q-132 0 -219 -84t-87 -224z" />
    <glyph glyph-name="uniF36F" unicode="&#xf36f;" horiz-adv-x="1230" 
d="M815 0v356h-166l-293 -356h-360l346 414q-258 92 -258 338q0 173 135 284t385 111h518v-1147h-307zM586 643h229v217h-225q-102 0 -145 -24q-44 -24 -44 -82q0 -49 53 -82t132 -29z" />
    <glyph glyph-name="uniF371" unicode="&#xf371;" horiz-adv-x="1134" 
d="M176 1356q0 63 47 105t119 42q63 0 112 -43q50 -44 50 -104q0 -66 -49 -108q-50 -42 -113 -42q-72 0 -119 41t-47 109zM616 1356q0 59 51 104q49 43 115 43q64 0 112 -42t48 -105q0 -66 -48 -108t-112 -42q-66 0 -116 42t-50 108zM109 0v1147h927v-287h-620v-141h577
v-277h-577v-155h635v-287h-942z" />
    <glyph glyph-name="uniF372" unicode="&#xf372;" horiz-adv-x="1349" 
d="M991 356q0 62 -45 94q-44 31 -104 31q-116 0 -168 -71v-410h-307v860h-369v287h1057v-287h-381v-133q77 41 223 41q106 0 192 -34t149 -123q62 -87 62 -224q0 -201 -109 -301t-263 -100q-66 0 -122 25t-85 63l143 227q23 -29 58 -29q69 0 69 84z" />
    <glyph glyph-name="uniF373" unicode="&#xf373;" horiz-adv-x="1038" 
d="M109 0v1147h929v-287h-622v-860h-307zM874 1579l-270 -336l-205 143l252 361z" />
    <glyph glyph-name="uniF374" unicode="&#xf374;" horiz-adv-x="1206" 
d="M852 727v-287h-490q51 -166 310 -166q75 0 136 29t86 54q22 22 58 71l242 -119q-37 -103 -126 -180q-88 -76 -183 -109q-92 -32 -180 -32q-296 0 -476 159t-180 426q0 256 177 421t466 165q130 0 269 -57q138 -56 202 -166l-225 -164q-90 100 -264 100q-236 0 -305 -145
h483z" />
    <glyph glyph-name="uniF375" unicode="&#xf375;" horiz-adv-x="1099" 
d="M758 348q0 49 -72 73t-174 39q-104 15 -205 42q-104 27 -174 102q-72 76 -72 201q0 158 141 260t359 102q160 0 298 -50q135 -49 202 -140l-178 -201q-95 57 -173 81q-76 24 -186 24q-63 0 -105 -22q-40 -21 -40 -58q0 -38 51 -59q49 -20 129 -28q74 -7 168 -29
q83 -19 168 -52q77 -29 129 -105q51 -74 51 -180q0 -162 -135 -265q-134 -103 -354 -103q-166 0 -324 57q-159 58 -242 145l162 230q184 -146 453 -146q123 0 123 82z" />
    <glyph glyph-name="uniF376" unicode="&#xf376;" horiz-adv-x="536" 
d="M115 0v1147h307v-1147h-307z" />
    <glyph glyph-name="uniF377" unicode="&#xf377;" horiz-adv-x="536" 
d="M-57 1323q0 57 46 97t113 40q63 0 109 -40q47 -41 47 -97q0 -61 -47 -100q-46 -39 -109 -39q-69 0 -114 39t-45 100zM279 1323q0 56 47 97q46 40 112 40q64 0 110 -40t46 -97q0 -61 -46 -100t-110 -39q-67 0 -113 39t-46 100zM115 0v1147h307v-1147h-307z" />
    <glyph glyph-name="uniF378" unicode="&#xf378;" horiz-adv-x="845" 
d="M750 1147v-780q0 -185 -100 -287q-99 -100 -271 -100q-287 0 -399 225l223 172q21 -43 62 -77t85 -34q51 0 72 34q20 33 20 128v719h308z" />
    <glyph glyph-name="uniF379" unicode="&#xf379;" horiz-adv-x="1802" 
d="M805 0v860h-246l-10 -96q-21 -202 -60 -348q-40 -147 -82 -228q-42 -80 -106 -128q-58 -44 -116 -57q-52 -12 -126 -7l-59 4l2 291q26 -2 49 7q25 9 58 44q32 33 59 94q27 60 51 171q25 114 35 261l20 279h838v-375h158q502 0 502 -377q0 -192 -140 -294
q-138 -101 -381 -101h-446zM1266 485h-154v-198h150q104 0 148 21t44 87q0 55 -43 73q-41 17 -145 17z" />
    <glyph glyph-name="uniF37A" unicode="&#xf37a;" horiz-adv-x="1824" 
d="M1149 748h158q487 0 487 -367q0 -192 -131 -287q-130 -94 -373 -94h-448v459h-426v-459h-307v1147h307v-399h426v399h307v-399zM1305 459h-156v-172h151q105 0 141 15t36 79q0 50 -35 64q-36 14 -137 14z" />
    <glyph glyph-name="uniF37B" unicode="&#xf37b;" horiz-adv-x="1290" 
d="M-2 860v287h1057v-287h-381v-125q94 33 174 33q393 0 393 -401v-367h-307v330q0 53 -31 103q-30 48 -96 48q-82 0 -133 -51v-430h-307v860h-369z" />
    <glyph glyph-name="uniF37C" unicode="&#xf37c;" horiz-adv-x="1245" 
d="M109 0v1147h307v-412l420 412h399l-514 -502l545 -645h-404l-375 438l-71 -67v-371h-307zM868 1579l-270 -336l-205 143l252 361z" />
    <glyph glyph-name="uniF37E" unicode="&#xf37e;" horiz-adv-x="1290" 
d="M317 49l132 246q11 -14 43 -14q59 0 81 67l-573 799h383l340 -485l246 485h323l-438 -875q-68 -137 -151 -205q-82 -67 -205 -67q-104 0 -181 49zM309 1573h273q5 -109 106 -109q100 0 100 109h271q-1 -163 -110 -249q-107 -85 -261 -85q-160 0 -269 83q-108 83 -110 251
z" />
    <glyph glyph-name="uniF37F" unicode="&#xf37f;" horiz-adv-x="1310" 
d="M109 0v1147h307v-860h479v860h307v-1147h-397v-215h-299v215h-397z" />
    <glyph glyph-name="uniF381" unicode="&#xf381;" horiz-adv-x="1247" 
d="M0 768v287h188v92h308v-92h362v-287h-362v-66h202q272 0 394 -78q125 -80 125 -272q0 -187 -136 -270q-134 -82 -397 -82h-496v768h-188zM694 416h-198v-129h194h31q65 0 81 1q27 2 51 7q29 6 37 19q9 13 9 38q0 45 -31 56q-27 10 -123 8h-51z" />
    <glyph glyph-name="uniF389" unicode="&#xf389;" horiz-adv-x="1359" 
d="M49 573q0 248 182 417t449 169q264 0 448 -167q183 -166 183 -419q0 -251 -184 -418t-447 -167q-264 0 -448 167q-183 166 -183 418zM680 285q202 0 281 147h-560q39 -71 114 -109q76 -38 165 -38zM680 862q-89 0 -163 -37q-75 -38 -114 -106h551q-41 68 -115 105
q-76 38 -159 38z" />
    <glyph glyph-name="uniF38A" unicode="&#xf38a;" horiz-adv-x="1339" 
d="M1135 780l-375 -780h-211l-569 1147h333l342 -696l211 452q57 124 150 193q91 67 192 67q102 0 187 -61l-113 -258q-21 12 -47 12q-63 -4 -100 -76z" />
    <glyph glyph-name="uniF393" unicode="&#xf393;" horiz-adv-x="1036" 
d="M109 0v1147h643v180h286v-467h-622v-860h-307z" />
    <glyph glyph-name="uniF3CF" unicode="&#xf3cf;" horiz-adv-x="1955" 
d="M1126 0h-233l-512 600v-600h-295v1147h233l512 -602v602h295v-1147zM1176 774q0 141 93 228q94 88 247 88q154 0 248 -88t94 -228t-94 -229q-92 -88 -248 -88q-155 0 -247 88q-93 88 -93 229zM1442 774q0 -34 20 -51q21 -18 54 -18q75 0 75 69q0 30 -21 48t-54 18
q-74 0 -74 -66zM1204 147v256h627v-256h-627z" />
    <glyph glyph-name="uniF3D0" unicode="&#xf3d0;" horiz-adv-x="1062" 
d="M313 1573h273q5 -109 106 -109t101 109h270q-1 -163 -110 -249q-107 -85 -261 -85q-160 0 -269 83q-108 83 -110 251z" />
    <glyph glyph-name="uniF3E4" unicode="&#xf3e4;" horiz-adv-x="0" 
d="M-356 1579l-271 -336l-204 143l251 361z" />
    <glyph glyph-name="uniF400" unicode="&#xf400;" horiz-adv-x="0" 
d="M-274 1538l-271 -336l-205 144l252 360z" />
    <glyph glyph-name="uniF401" unicode="&#xf401;" horiz-adv-x="0" 
d="M-350 1733l-492 -232l-116 203l466 291z" />
    <glyph glyph-name="uniF406" unicode="&#xf406;" horiz-adv-x="1177" 
d="M354 1767l131 158q119 -123 293 -123q176 0 287 123l113 -160q-57 -96 -167 -162q-111 -67 -233 -67q-134 0 -251 70q-116 69 -173 161z" />
    <glyph glyph-name="uniF407" unicode="&#xf407;" horiz-adv-x="1079" 
d="M459 -322l110 134q58 -58 166 -58q60 0 60 27q0 35 -93 35h-12v184h154v-53q237 -15 237 -185q0 -192 -284 -192q-225 0 -338 108z" />
    <glyph glyph-name="uniF408" unicode="&#xf408;" horiz-adv-x="1165" 
d="M788 1935l377 -239l-118 -174l-263 135l-262 -135l-106 170l364 243h8z" />
    <glyph glyph-name="uniF409" unicode="&#xf409;" horiz-adv-x="942" 
d="M588 -223l248 160q106 -78 106 -193q0 -122 -63 -210t-150 -140l-141 102q65 68 65 154q0 55 -65 127z" />
    <glyph glyph-name="uniF40A" unicode="&#xf40a;" horiz-adv-x="442" 
d="M86 1362l250 156q106 -85 106 -226q0 -118 -73 -216q-74 -100 -179 -163l-129 113q91 85 91 176q0 72 -66 160z" />
    <glyph glyph-name="uniF40B" unicode="&#xf40b;" horiz-adv-x="968" 
d="M635 1696q0 63 47 105q46 42 121 42q73 0 119 -42q47 -42 47 -105q0 -65 -47 -109q-46 -43 -119 -43q-78 0 -123 42t-45 110z" />
    <glyph glyph-name="uniF40C" unicode="&#xf40c;" horiz-adv-x="1118" 
d="M473 1739q0 121 89 181q88 60 229 60q145 0 236 -60t91 -181q0 -119 -92 -184q-91 -64 -235 -64q-139 0 -228 64q-90 65 -90 184zM698 1739q0 -84 97 -84q98 0 98 84q0 78 -98 78q-97 0 -97 -78z" />
    <glyph glyph-name="uniF40D" unicode="&#xf40d;" horiz-adv-x="1138" 
d="M463 1569l-94 192q47 57 117 93t139 36q64 0 143 -30q82 -31 133 -31q103 0 160 61l78 -192q-84 -135 -258 -135q-50 0 -137 30q-90 31 -146 31q-68 0 -135 -55z" />
    <glyph glyph-name="uniF40E" unicode="&#xf40e;" horiz-adv-x="960" 
d="M901 -143l92 -185q-27 -33 -96 -57q-72 -25 -149 -25q-128 0 -213 50q-84 50 -84 145q0 91 81 153q82 63 194 87q109 24 235 22v-47q-84 0 -144 -36q-59 -35 -59 -75q0 -53 61 -53q39 0 82 21z" />
    <glyph glyph-name="uniF410" unicode="&#xf410;" horiz-adv-x="0" 
d="M-610 1501l-492 232l141 262l467 -291z" />
    <glyph glyph-name="uniF416" unicode="&#xf416;" horiz-adv-x="839" 
d="M485 -223l248 160q107 -78 107 -193q0 -120 -64 -210q-63 -89 -149 -140l-142 102q66 69 66 154q0 54 -66 127z" />
    <glyph glyph-name="uniF418" unicode="&#xf418;" horiz-adv-x="442" 
d="M86 1034l250 156q106 -85 106 -225q0 -118 -73 -216q-74 -100 -179 -163l-129 112q91 85 91 176q0 72 -66 160z" />
    <glyph glyph-name="uniF447" unicode="&#xf447;" horiz-adv-x="1083" 
d="M254 -330l90 142q58 -58 166 -58q59 0 59 27q0 35 -92 35h-12v184h-78v860h-379v287h1067v-287h-381v-860h-76v-53q218 -18 218 -185q0 -88 -79 -140t-231 -52q-162 0 -272 100z" />
    <glyph glyph-name="uniF44E" unicode="&#xf44e;" horiz-adv-x="1339" 
d="M41 492q0 141 47 237h881q-67 143 -314 143q-226 0 -340 -131l-202 199q175 219 553 219q287 0 456 -157q168 -156 168 -424q0 -262 -171 -426q-172 -164 -472 -164q-291 0 -448 151q-158 152 -158 353zM973 442h-615q51 -168 295 -168q129 0 213 45q85 45 107 123z" />
    <glyph glyph-name="uniF452" unicode="&#xf452;" horiz-adv-x="1603" 
d="M109 0v1147h938v-287h-631v-180h590v-287h-590v-393h-307zM1180 0v1147h307v-1147h-307z" />
    <glyph glyph-name="uniF453" unicode="&#xf453;" horiz-adv-x="2146" 
d="M109 0v1147h938v-287h-631v-180h590v-287h-590v-393h-307zM1184 0v1147h307v-860h637v-287h-944z" />
    <glyph glyph-name="zero.tab" unicode="&#xf4e0;" horiz-adv-x="1269" 
d="M61 717q0 327 149 529t423 202q270 0 422 -203q151 -202 151 -528q0 -330 -149 -530q-150 -201 -420 -201q-277 0 -426 200q-150 201 -150 531zM389 717q0 -207 68 -316q67 -108 180 -108q242 0 242 424t-246 424q-112 0 -178 -110q-66 -109 -66 -314z" />
    <glyph glyph-name="one.tab" unicode="&#xf4e1;" horiz-adv-x="1269" 
d="M125 0v297h424v760l-256 -117l-109 258l471 236h201v-1137h279v-297h-1010z" />
    <glyph glyph-name="two.tab" unicode="&#xf4e2;" horiz-adv-x="1269" 
d="M317 911l-276 105q51 207 217 319q167 113 373 113q254 0 389 -132t135 -343q0 -193 -111 -334q-113 -144 -327 -281l-96 -61h548v-297h-1108v231l170 119q307 213 385 277q210 176 211 317q0 95 -53 146t-156 51q-211 0 -301 -230z" />
    <glyph glyph-name="three.tab" unicode="&#xf4e3;" horiz-adv-x="1269" 
d="M332 967l-254 118q67 178 204 272q139 95 377 95q228 0 366 -102t138 -281q0 -205 -186 -293q233 -84 233 -332q0 -205 -147 -333q-146 -127 -399 -127q-236 0 -383 84q-150 86 -228 294l279 125q69 -206 299 -206q113 0 183 44q69 43 69 119q0 146 -232 146h-209v287
h168q104 0 165 41t61 102q0 135 -205 135q-124 0 -191 -49q-68 -50 -108 -139z" />
    <glyph glyph-name="four.tab" unicode="&#xf4e4;" horiz-adv-x="1269" 
d="M743 0v250h-688v205l742 979h254v-908h178v-276h-178v-250h-308zM455 526h288v400z" />
    <glyph glyph-name="five.tab" unicode="&#xf4e5;" horiz-adv-x="1269" 
d="M131 709l76 725h938v-297h-668l-26 -222q84 41 268 41q237 0 362 -129q125 -130 125 -350q0 -227 -148 -360t-415 -133q-422 0 -602 366l287 127q34 -81 122 -134q86 -52 185 -52q120 0 182 48t62 132q0 199 -248 199q-65 0 -122 -13q-54 -12 -78 -25q-33 -17 -85 -50z
" />
    <glyph glyph-name="six.tab" unicode="&#xf4e6;" horiz-adv-x="1269" 
d="M63 678q0 377 167 576q166 198 466 198q176 0 278 -49q104 -49 189 -141l-176 -226q-68 61 -131 90t-160 29q-162 0 -238 -93q-77 -94 -77 -257q60 84 142 132q83 48 231 48q224 0 349 -128q124 -127 124 -341q0 -234 -151 -385q-149 -149 -388 -149q-298 0 -461 180
q-164 181 -164 516zM430 512q1 -93 63 -164q60 -69 169 -69q111 0 174 60t63 159q0 95 -56 147q-58 53 -163 53q-190 0 -250 -186z" />
    <glyph glyph-name="seven.tab" unicode="&#xf4e7;" horiz-adv-x="1269" 
d="M72 1137v297h1126v-199l-620 -1235h-330l573 1137h-749z" />
    <glyph glyph-name="eight.tab" unicode="&#xf4e8;" horiz-adv-x="1269" 
d="M608 868h58q75 0 127 40q53 41 53 112q0 143 -213 143q-209 0 -209 -141q0 -67 51 -110q52 -44 133 -44zM662 602h-48q-107 0 -171 -47q-62 -46 -62 -117q0 -80 66 -124q67 -44 188 -44q119 0 186 42q68 42 68 120q0 80 -60 125t-167 45zM637 -16q-271 0 -427 114
q-157 115 -157 316q0 102 58 198t149 136q-72 34 -117 117q-47 86 -47 169q0 190 143 303t396 113q259 0 399 -113q139 -112 139 -303q0 -196 -161 -278q103 -38 153 -128q52 -93 52 -206q0 -207 -158 -323q-157 -115 -422 -115z" />
    <glyph glyph-name="nine.tab" unicode="&#xf4e9;" horiz-adv-x="1269" 
d="M1239 756q0 -373 -177 -574q-176 -200 -456 -200q-333 0 -528 211l176 225q158 -139 352 -139q158 0 238 92t78 217q-57 -67 -130 -104q-70 -35 -214 -35q-245 0 -394 133t-149 350q0 229 160 375q158 145 421 145q288 0 455 -182q168 -183 168 -514zM885 881
q-4 112 -72 193q-67 81 -176 81q-132 0 -203 -58t-71 -149q0 -100 68 -156q69 -57 181 -57q114 0 184 41q67 39 89 105z" />
    <glyph glyph-name="dollar.tab" unicode="&#xf4ec;" horiz-adv-x="1269" 
d="M899 397q0 58 -59 98t-148 61q-78 18 -192 56q-103 34 -193 78q-87 43 -147 130t-60 210q0 148 111 266t297 156v143h305v-143q253 -51 404 -250l-213 -205q-156 172 -361 172q-215 0 -215 -135q0 -52 59 -86q60 -35 148 -54q84 -18 192 -54q103 -34 193 -78
q87 -43 147 -131q60 -89 60 -209q0 -165 -116 -287q-114 -120 -298 -155v-160h-305v164q-176 30 -300 120q-125 91 -188 213l232 193q73 -115 182 -180q111 -66 242 -66q112 0 168 38q55 37 55 95z" />
    <glyph glyph-name="Euro.tab" unicode="&#xf4ed;" horiz-adv-x="1269" 
d="M2 760l102 254h134q78 200 242 318t399 118q245 0 385 -113l-111 -231q-121 76 -274 76q-190 0 -301 -168h555l-95 -254h-540v-86h510l-80 -252h-369q45 -79 134 -126q88 -46 206 -46q54 0 123 20q73 21 123 58l84 -238q-52 -46 -144 -76q-91 -30 -192 -30
q-501 0 -668 438h-217l96 252h80q-2 14 -2 35q0 29 2 51h-182z" />
    <glyph glyph-name="cent.tab" unicode="&#xf4ee;" horiz-adv-x="1269" 
d="M944 399l217 -129q-106 -208 -332 -268v-412h-317v412q-203 44 -316 183q-114 141 -114 350q0 199 117 344t313 190v365h317v-365q240 -57 324 -248l-221 -143q-64 87 -144 117v-525q93 24 156 129zM389 535q0 -77 46 -147t118 -91v485q-164 -57 -164 -247z" />
    <glyph glyph-name="sterling.tab" unicode="&#xf4ef;" horiz-adv-x="1269" 
d="M113 508v254h96q-55 126 -55 248q0 178 132 308q131 130 347 130q285 0 465 -201l-168 -237q-144 141 -301 141q-68 0 -113 -42t-45 -122q0 -27 7 -55q8 -31 15 -50q1 -4 5 -14.5t8.5 -22t9.5 -23.5q5 -11 13.5 -31.5t11.5 -28.5h340v-254h-289v-25q0 -90 -47 -151
q44 -1 152 -37q107 -35 157 -35q59 0 101 25q41 24 92 92l157 -201q-135 -176 -344 -176q-93 0 -234 43t-218 43q-134 0 -246 -109l-142 220q106 105 218 135q45 61 45 145v31h-170z" />
    <glyph glyph-name="yen.tab" unicode="&#xf4fa;" horiz-adv-x="1269" 
d="M168 616v258h143l-331 560h382l275 -506l278 506h375l-338 -560h148v-258h-309v-133h309v-258h-309v-225h-318v225h-305v258h305v133h-305z" />
    <glyph glyph-name="florin.tab" unicode="&#xf4fb;" horiz-adv-x="1269" 
d="M825 952l-2 -2v-6h271v-276h-320l-117 -654q-34 -203 -123 -322q-88 -118 -270 -118q-168 0 -276 119l102 229q69 -72 154 -72t112 140l125 678h-252v276h301l9 53q69 455 452 455q171 0 273 -84l-109 -238q-74 46 -147 46q-77 0 -117 -51q-39 -49 -66 -173z" />
    <glyph glyph-name="uni20B4.tab" unicode="&#xf4fc;" horiz-adv-x="1269" 
d="M82 793v245h688q12 16 12 47q0 70 -153 70q-201 0 -314 -76l-127 248q175 125 463 125q174 0 311 -88q138 -88 138 -215q0 -70 -25 -111h115v-245h-283q-44 -34 -213 -111h496v-246h-694q-21 -38 -21 -59q0 -98 199 -98q210 0 350 106l135 -209q-57 -88 -209 -141
q-153 -53 -291 -53q-228 0 -364 91q-137 92 -137 267q0 40 18 96h-94v246h260q113 50 153 66q73 29 103 45h-516z" />
    <glyph glyph-name="uni20BD.tab" unicode="&#xf4fd;" horiz-adv-x="1269" 
d="M61 588v276h201v570q176 0 256 2q49 0 85 1t69 1q281 0 418 -114t137 -302q0 -194 -138 -314t-417 -120h-103v-86h328v-277h-328v-225h-307v225h-201v277h201v86h-201zM682 1161h-113v-297h99q124 0 183 35q58 34 58 117q0 79 -55 112q-56 33 -172 33z" />
    <glyph glyph-name="zero.denominator" unicode="&#xf655;" horiz-adv-x="993" 
d="M82 430q0 194 113 316t301 122q190 0 303 -122q112 -121 112 -316q0 -196 -110 -316q-111 -122 -301 -122t-304 123t-114 315zM358 430q0 -86 39 -134t103 -48q61 0 98 46t37 136q0 182 -139 182q-138 0 -138 -182z" />
    <glyph glyph-name="one.denominator" unicode="&#xf656;" horiz-adv-x="675" 
d="M20 723l330 137h203v-860h-277v553l-157 -64z" />
    <glyph glyph-name="two.denominator" unicode="&#xf657;" horiz-adv-x="870" 
d="M256 510l-195 125q105 233 398 233q149 0 237 -72t88 -186q0 -196 -184 -313l-80 -51h289v-246h-719v207l160 92q258 147 258 244q0 80 -78 80q-124 0 -174 -113z" />
    <glyph glyph-name="three.denominator" unicode="&#xf658;" horiz-adv-x="884" 
d="M233 526l-178 144q118 200 379 200q162 0 256 -58t94 -157q0 -70 -28 -113q-30 -45 -90 -79q137 -51 137 -197q0 -122 -105 -199q-106 -77 -272 -77q-273 0 -385 229l203 117q30 -100 182 -100q57 0 78 10q22 10 22 37q0 45 -110 45h-80v204h67q105 0 105 50q0 43 -78 43
q-72 0 -115 -24t-82 -75z" />
    <glyph glyph-name="four.denominator" unicode="&#xf659;" horiz-adv-x="919" 
d="M483 0v131h-463v193l500 536h219v-493h140v-236h-140v-131h-256zM324 367h159v165z" />
    <glyph glyph-name="five.denominator" unicode="&#xf65a;" horiz-adv-x="856" 
d="M117 319l35 541h579v-246h-366l-7 -47q33 6 103 6q149 0 230 -78q83 -80 83 -208q0 -133 -103 -215t-268 -82q-248 0 -362 172l195 153q61 -79 163 -79q99 0 99 55q0 67 -131 67q-105 0 -250 -39z" />
    <glyph glyph-name="six.denominator" unicode="&#xf65b;" horiz-adv-x="972" 
d="M82 408q0 223 123 343q122 119 319 119q204 0 338 -86l-108 -192q-101 43 -230 43q-89 0 -132 -37q-44 -38 -44 -84q84 78 217 78q160 0 253 -78t93 -205q0 -139 -111 -229t-282 -90q-191 0 -313 110q-123 111 -123 308zM383 319q1 -36 39 -60q36 -23 96 -23
q117 0 117 71q0 29 -36 44q-38 16 -85 16q-89 0 -131 -48z" />
    <glyph glyph-name="seven.denominator" unicode="&#xf65c;" horiz-adv-x="813" 
d="M41 604v256h731v-196l-356 -664h-310l340 604h-405z" />
    <glyph glyph-name="eight.denominator" unicode="&#xf65d;" horiz-adv-x="1019" 
d="M492 543h38q80 0 80 49q0 25 -22 34t-80 9q-98 0 -98 -43q0 -28 18 -39q17 -10 64 -10zM528 338h-32q-117 0 -117 -55q0 -58 131 -58t131 56q0 57 -113 57zM510 -10q-180 0 -293 70q-115 71 -115 188q0 130 113 198q-82 49 -82 175q0 110 106 180q105 69 271 69
q169 0 272 -68q105 -69 105 -181q0 -110 -84 -170q115 -56 115 -197q0 -124 -114 -194q-113 -70 -294 -70z" />
    <glyph glyph-name="nine.denominator" unicode="&#xf65e;" horiz-adv-x="972" 
d="M891 453q0 -223 -123 -343t-319 -120q-204 0 -338 86l108 192q101 -43 230 -43q89 0 132 37q44 38 44 84q-84 -78 -217 -78q-160 0 -253 78q-94 79 -94 205q0 139 113 229t281 90q191 0 313 -110q123 -111 123 -307zM590 541q-1 36 -39 60q-37 24 -96 24q-117 0 -117 -72
q0 -29 36 -44t85 -15q90 0 131 47z" />
    <glyph glyph-name="zero.numerator" unicode="&#xf661;" horiz-adv-x="993" 
d="M82 1044q0 195 113 317t301 122q190 0 303 -122q112 -121 112 -317t-110 -316q-111 -122 -301 -122t-304 123t-114 315zM358 1044q0 -86 39 -134t103 -48q61 0 98 46t37 136q0 183 -139 183q-138 0 -138 -183z" />
    <glyph glyph-name="one.numerator" unicode="&#xf662;" horiz-adv-x="675" 
d="M20 1337l330 138h203v-861h-277v553l-157 -63z" />
    <glyph glyph-name="two.numerator" unicode="&#xf663;" horiz-adv-x="870" 
d="M256 1124l-195 125q105 234 398 234q147 0 237 -73q88 -72 88 -185q0 -197 -184 -314l-80 -51h289v-246h-719v207l160 92q258 147 258 244q0 80 -78 80q-124 0 -174 -113z" />
    <glyph glyph-name="three.numerator" unicode="&#xf664;" horiz-adv-x="884" 
d="M233 1141l-178 143q118 201 379 201q161 0 256 -59q94 -58 94 -156q0 -71 -28 -114q-30 -45 -90 -79q137 -51 137 -196q0 -123 -105 -200q-106 -77 -272 -77q-272 0 -385 230l203 116q30 -100 182 -100q57 0 78 10q22 10 22 37q0 45 -110 45h-80v205h67q105 0 105 49
q0 43 -78 43q-72 0 -115 -24q-44 -24 -82 -74z" />
    <glyph glyph-name="four.numerator" unicode="&#xf665;" horiz-adv-x="919" 
d="M483 614v131h-463v193l500 537h219v-494h140v-236h-140v-131h-256zM324 981h159v166z" />
    <glyph glyph-name="five.numerator" unicode="&#xf666;" horiz-adv-x="856" 
d="M117 934l35 541h579v-246h-366l-7 -47q35 6 103 6q148 0 230 -79q83 -80 83 -208q0 -133 -103 -215t-268 -82q-248 0 -362 172l195 154q62 -80 163 -80q99 0 99 55q0 68 -131 68q-105 0 -250 -39z" />
    <glyph glyph-name="six.numerator" unicode="&#xf667;" horiz-adv-x="972" 
d="M82 1022q0 223 123 343t319 120q204 0 338 -86l-108 -193q-101 43 -230 43q-89 0 -132 -37q-44 -38 -44 -84q84 78 217 78q160 0 253 -78t93 -204q0 -140 -111 -230t-282 -90q-190 0 -313 111t-123 307zM383 934q1 -37 39 -61q36 -23 96 -23q117 0 117 72q0 29 -36 44
t-85 15q-90 0 -131 -47z" />
    <glyph glyph-name="seven.numerator" unicode="&#xf668;" horiz-adv-x="813" 
d="M41 1219v256h731v-197l-356 -664h-310l340 605h-405z" />
    <glyph glyph-name="eight.numerator" unicode="&#xf669;" horiz-adv-x="1019" 
d="M492 1157h38q80 0 80 49q0 25 -22 34t-80 9q-98 0 -98 -43q0 -28 18 -39q17 -10 64 -10zM528 952h-32q-117 0 -117 -55q0 -57 131 -57t131 55q0 57 -113 57zM510 604q-178 0 -293 71t-115 187q0 131 113 199q-82 49 -82 174q0 110 106 180q107 70 271 70q167 0 272 -69
t105 -181q0 -110 -84 -170q115 -56 115 -197q0 -122 -114 -193q-115 -71 -294 -71z" />
    <glyph glyph-name="nine.numerator" unicode="&#xf66a;" horiz-adv-x="972" 
d="M891 1067q0 -223 -123 -343t-319 -120q-204 0 -338 86l108 193q101 -43 230 -43q89 0 132 37q44 38 44 84q-84 -78 -217 -78q-160 0 -253 78q-94 79 -94 204q0 140 113 230t281 90q190 0 313 -111t123 -307zM590 1155q-1 36 -39 60t-96 24q-117 0 -117 -72q0 -29 36 -44
t85 -15q90 0 131 47z" />
    <glyph glyph-name="uniF66D" unicode="&#xf66d;" 
d="M-10 0l534 1145h226l534 -1145h-321l-86 174h-482l-88 -174h-317zM635 684l-135 -254h264zM297 1448l135 154q96 -107 215 -107q139 0 225 102l105 -147q-133 -201 -342 -201q-124 0 -211 64t-127 135z" />
    <glyph glyph-name="uniF66E" unicode="&#xf66e;" 
d="M-10 0l534 1145h226l534 -1145h-321l-86 174h-482l-88 -174h-317zM635 684l-135 -254h264zM336 1290v246h602v-246h-602z" />
    <glyph glyph-name="uniF66F" unicode="&#xf66f;" 
d="M1221 -143l92 -185q-27 -33 -96 -57q-72 -25 -150 -25q-128 0 -213 50q-84 50 -84 145q0 145 191 217l-84 172h-482l-88 -174h-317l534 1145h226l534 -1145h-86q-51 0 -86 -32t-35 -70q0 -28 18 -45q19 -17 44 -17q39 0 82 21zM635 684l-135 -254h264z" />
    <glyph glyph-name="uniF671" unicode="&#xf671;" horiz-adv-x="1216" 
d="M1022 428l182 -197q-84 -123 -224 -187t-308 -64q-284 0 -453 163q-170 164 -170 430q0 250 178 422t457 172q169 0 301 -61q133 -61 201 -170l-211 -188q-44 59 -123 91q-77 31 -143 31q-153 0 -247 -79q-95 -80 -95 -218q0 -131 95 -214t236 -83q202 0 324 152z
M956 1579l-270 -336l-205 143l252 361z" />
    <glyph glyph-name="uniF672" unicode="&#xf672;" horiz-adv-x="1216" 
d="M1022 428l182 -197q-84 -123 -224 -187t-308 -64q-284 0 -453 163q-170 164 -170 430q0 250 178 422t457 172q169 0 301 -61q133 -61 201 -170l-211 -188q-44 59 -123 91q-77 31 -143 31q-153 0 -247 -79q-95 -80 -95 -218q0 -131 95 -214t236 -83q202 0 324 152z
M643 1225l-338 278l144 180l200 -165l205 161l137 -178l-340 -276h-8z" />
    <glyph glyph-name="uniF673" unicode="&#xf673;" horiz-adv-x="1216" 
d="M1022 428l182 -197q-84 -123 -224 -187t-308 -64q-284 0 -453 163q-170 164 -170 430q0 250 178 422t457 172q169 0 301 -61q133 -61 201 -170l-211 -188q-44 59 -123 91q-77 31 -143 31q-153 0 -247 -79q-95 -80 -95 -218q0 -131 95 -214t236 -83q202 0 324 152z
M639 1671l338 -278l-143 -181l-201 166l-205 -161l-137 178l340 276h8z" />
    <glyph glyph-name="uniF674" unicode="&#xf674;" horiz-adv-x="1216" 
d="M1022 428l182 -197q-84 -123 -224 -187t-308 -64q-284 0 -453 163q-170 164 -170 430q0 250 178 422t457 172q169 0 301 -61q133 -61 201 -170l-211 -188q-44 59 -123 91q-77 31 -143 31q-153 0 -247 -79q-95 -80 -95 -218q0 -131 95 -214t236 -83q202 0 324 152z
M492 1430q0 63 47 105t120 42t119 -42q47 -42 47 -105q0 -65 -47 -109q-46 -43 -119 -43q-77 0 -122 42t-45 110z" />
    <glyph glyph-name="uniF675" unicode="&#xf675;" horiz-adv-x="1259" 
d="M109 0v1147h389q191 0 335 -44q143 -43 222 -123q80 -80 117 -176q38 -99 38 -216q0 -262 -183 -425q-182 -163 -558 -163h-360zM496 860h-80v-573h82q395 0 395 301q0 135 -92 204q-90 68 -305 68zM541 1225l-338 278l143 180l201 -165l205 161l137 -178l-340 -276h-8z
" />
    <glyph glyph-name="uniF676" unicode="&#xf676;" horiz-adv-x="1378" 
d="M41 446v254h186v447h391q191 0 334 -44t222 -123q80 -80 117 -176q38 -99 38 -216q0 -262 -183 -425q-182 -163 -556 -163h-363v446h-186zM614 860h-79v-160h258v-254h-258v-159h81q396 0 396 301q0 135 -92 204q-90 68 -306 68z" />
    <glyph glyph-name="uniF678" unicode="&#xf678;" horiz-adv-x="1134" 
d="M109 0v1147h927v-287h-620v-141h577v-277h-577v-155h635v-287h-942zM582 1225l-338 278l143 180l201 -165l205 161l137 -178l-340 -276h-8z" />
    <glyph glyph-name="uniF679" unicode="&#xf679;" horiz-adv-x="1134" 
d="M109 0v1147h927v-287h-620v-141h577v-277h-577v-155h635v-287h-942zM430 1430q0 63 47 105q46 42 121 42q72 0 119 -42t47 -105q0 -65 -47 -109q-46 -43 -119 -43q-78 0 -123 42t-45 110z" />
    <glyph glyph-name="uniF67A" unicode="&#xf67a;" horiz-adv-x="1134" 
d="M109 0v1147h927v-287h-620v-141h577v-277h-577v-155h635v-287h-942zM291 1290v246h602v-246h-602z" />
    <glyph glyph-name="uniF67C" unicode="&#xf67c;" horiz-adv-x="1134" 
d="M109 0v1147h948v-287h-641v-141h598v-277h-598v-155h655v-287h-18q-47 -2 -79 -34t-32 -68q0 -29 17 -45q19 -17 45 -17q38 0 81 21l93 -185q-27 -33 -97 -57q-72 -25 -149 -25q-128 0 -213 50q-84 50 -84 145q0 146 184 215h-710z" />
    <glyph glyph-name="uniF67D" unicode="&#xf67d;" horiz-adv-x="1261" 
d="M618 393v277h594v-482q-196 -208 -497 -208q-294 0 -479 164q-187 166 -187 429q0 252 176 423t457 171q161 0 301 -61q142 -62 203 -160l-215 -188q-102 112 -279 112q-152 0 -238 -77q-87 -78 -87 -220q0 -143 96 -220q97 -77 254 -77q118 0 201 50v67h-300zM332 1448
l135 154q96 -107 215 -107q140 0 225 102l105 -147q-134 -201 -342 -201q-124 0 -211 64t-127 135z" />
    <glyph glyph-name="uniF67E" unicode="&#xf67e;" horiz-adv-x="1261" 
d="M618 393v277h594v-482q-196 -208 -497 -208q-294 0 -479 164q-187 166 -187 429q0 252 176 423t457 171q161 0 301 -61q142 -62 203 -160l-215 -188q-102 112 -279 112q-152 0 -238 -77q-87 -78 -87 -220q0 -143 96 -220q97 -77 254 -77q118 0 201 50v67h-300zM680 1671
l338 -278l-144 -181l-200 166l-205 -161l-137 178l340 276h8z" />
    <glyph glyph-name="uniF67F" unicode="&#xf67f;" horiz-adv-x="1261" 
d="M618 393v277h594v-482q-196 -208 -497 -208q-294 0 -479 164q-187 166 -187 429q0 252 176 423t457 171q161 0 301 -61q142 -62 203 -160l-215 -188q-102 112 -279 112q-152 0 -238 -77q-87 -78 -87 -220q0 -143 96 -220q97 -77 254 -77q118 0 201 50v67h-300zM506 -223
l248 160q106 -78 106 -193q0 -122 -63 -210t-150 -140l-141 102q65 68 65 154q0 55 -65 127z" />
    <glyph glyph-name="uniF680" unicode="&#xf680;" horiz-adv-x="1261" 
d="M618 393v277h594v-482q-196 -208 -497 -208q-294 0 -479 164q-187 166 -187 429q0 252 176 423t457 171q161 0 301 -61q142 -62 203 -160l-215 -188q-102 112 -279 112q-152 0 -238 -77q-87 -78 -87 -220q0 -143 96 -220q97 -77 254 -77q118 0 201 50v67h-300zM512 1430
q0 63 47 105t121 42q72 0 119 -42t47 -105q0 -65 -47 -109q-46 -43 -119 -43q-78 0 -123 42t-45 110z" />
    <glyph glyph-name="uniF681" unicode="&#xf681;" horiz-adv-x="1308" 
d="M0 811v236h109v100h307v-100h479v100h307v-100h107v-236h-107v-811h-307v432h-479v-432h-307v811h-109zM416 719h479v92h-479v-92z" />
    <glyph glyph-name="uniF682" unicode="&#xf682;" horiz-adv-x="1310" 
d="M895 0v432h-479v-432h-307v1147h307v-428h479v428h307v-1147h-307zM662 1671l337 -278l-143 -181l-201 166l-204 -161l-138 178l340 276h9z" />
    <glyph glyph-name="uniF685" unicode="&#xf685;" horiz-adv-x="536" 
d="M115 0v1147h307v-1147h-307zM-33 1290v246h602v-246h-602z" />
    <glyph glyph-name="uniF686" unicode="&#xf686;" horiz-adv-x="536" 
d="M115 0v1147h307v-1147h-4q-51 0 -86 -32t-35 -70q0 -29 17 -45q19 -17 44 -17q38 0 82 21l92 -185q-27 -33 -96 -57q-72 -25 -149 -25q-128 0 -213 50q-84 50 -84 145q0 146 184 215h-59z" />
    <glyph glyph-name="uniF688" unicode="&#xf688;" horiz-adv-x="845" 
d="M750 1147v-780q0 -185 -100 -287q-99 -100 -271 -100q-287 0 -399 225l223 172q21 -43 62 -77t85 -34q51 0 72 34q20 33 20 128v719h308zM578 1671l337 -278l-143 -181l-201 166l-204 -161l-138 178l340 276h9z" />
    <glyph glyph-name="uniF689" unicode="&#xf689;" horiz-adv-x="1245" 
d="M109 0v1147h307v-412l420 412h399l-514 -502l545 -645h-404l-375 438l-71 -67v-371h-307zM403 -223l248 160q107 -78 107 -193q0 -120 -64 -210q-63 -89 -149 -140l-142 102q66 69 66 154q0 54 -66 127z" />
    <glyph glyph-name="uniF68A" unicode="&#xf68a;" horiz-adv-x="1071" 
d="M109 0v1147h307v-860h637v-287h-944zM772 1579l-270 -336l-205 143l252 361z" />
    <glyph glyph-name="uniF68B" unicode="&#xf68b;" horiz-adv-x="1071" 
d="M109 0v1147h307v-860h637v-287h-944zM672 1147h315q29 -46 29 -143q0 -117 -74 -217t-178 -162l-129 112q90 90 90 217q0 120 -53 193z" />
    <glyph glyph-name="uniF68C" unicode="&#xf68c;" horiz-adv-x="1071" 
d="M109 0v1147h307v-860h637v-287h-944zM403 -223l248 160q107 -78 107 -193q0 -120 -64 -210q-63 -89 -149 -140l-142 102q66 69 66 154q0 54 -66 127z" />
    <glyph glyph-name="uniF68D" unicode="&#xf68d;" horiz-adv-x="1071" 
d="M109 0v1147h307v-860h637v-287h-944zM596 616q0 68 54 121q56 54 138 54q77 0 134 -55q55 -54 55 -120q0 -69 -55 -123q-57 -55 -134 -55q-82 0 -138 54q-54 53 -54 124z" />
    <glyph glyph-name="uniF68E" unicode="&#xf68e;" horiz-adv-x="1292" 
d="M1184 0h-238l-538 623v-623h-299v1147h235l541 -623v623h299v-1147zM915 1579l-270 -336l-205 143l252 361z" />
    <glyph glyph-name="uniF68F" unicode="&#xf68f;" horiz-adv-x="1292" 
d="M1184 0h-238l-538 623v-623h-299v1147h235l541 -623v623h299v-1147zM641 1225l-338 278l143 180l201 -165l205 161l137 -178l-340 -276h-8z" />
    <glyph glyph-name="uniF690" unicode="&#xf690;" horiz-adv-x="1292" 
d="M1184 0h-238l-538 623v-623h-299v1147h235l541 -623v623h299v-1147zM465 -223l248 160q106 -78 106 -193q0 -122 -63 -210t-150 -140l-141 102q65 68 65 154q0 55 -65 127z" />
    <glyph glyph-name="uniF692" unicode="&#xf692;" horiz-adv-x="1359" 
d="M49 573q0 249 183 421q184 173 448 173q263 0 447 -170t184 -424q0 -250 -184 -422q-183 -171 -447 -171q-265 0 -448 171t-183 422zM367 573q0 -135 92 -216q91 -81 221 -81q132 0 223 80q90 80 90 217q0 136 -94 217q-93 80 -219 80q-131 0 -221 -80q-92 -81 -92 -217z
M1135 1559l-291 -316l-156 117l256 346zM774 1591l-256 -348l-158 119l224 364z" />
    <glyph glyph-name="uniF693" unicode="&#xf693;" horiz-adv-x="1359" 
d="M49 573q0 249 183 421q184 173 448 173q263 0 447 -170t184 -424q0 -250 -184 -422q-183 -171 -447 -171q-265 0 -448 171t-183 422zM367 573q0 -135 92 -216q91 -81 221 -81q132 0 223 80q90 80 90 217q0 136 -94 217q-93 80 -219 80q-131 0 -221 -80q-92 -81 -92 -217z
M379 1290v246h602v-246h-602z" />
    <glyph glyph-name="uniF695" unicode="&#xf695;" horiz-adv-x="1206" 
d="M416 0h-307v1147h501q139 0 243 -32q101 -31 156 -89q52 -55 77 -123q24 -66 24 -145q0 -109 -59 -200q-61 -94 -160 -140l323 -418h-370l-277 362h-151v-362zM604 860h-188v-211h198q179 0 179 109q0 51 -41 77q-40 25 -148 25zM834 1579l-271 -336l-205 143l252 361z
" />
    <glyph glyph-name="uniF696" unicode="&#xf696;" horiz-adv-x="1206" 
d="M416 0h-307v1147h501q139 0 243 -32q101 -31 156 -89q52 -55 77 -123q24 -66 24 -145q0 -109 -59 -200q-61 -94 -160 -140l323 -418h-370l-277 362h-151v-362zM604 860h-188v-211h198q179 0 179 109q0 51 -41 77q-40 25 -148 25zM561 1225l-338 278l144 180l200 -165
l205 161l137 -178l-340 -276h-8z" />
    <glyph glyph-name="uniF697" unicode="&#xf697;" horiz-adv-x="1206" 
d="M416 0h-307v1147h501q139 0 243 -32q101 -31 156 -89q52 -55 77 -123q24 -66 24 -145q0 -109 -59 -200q-61 -94 -160 -140l323 -418h-370l-277 362h-151v-362zM604 860h-188v-211h198q179 0 179 109q0 51 -41 77q-40 25 -148 25zM403 -223l248 160q107 -78 107 -193
q0 -120 -64 -210q-63 -89 -149 -140l-142 102q66 69 66 154q0 54 -66 127z" />
    <glyph glyph-name="uniF698" unicode="&#xf698;" horiz-adv-x="1099" 
d="M758 348q0 49 -72 73t-174 39q-104 15 -205 42q-104 27 -174 102q-72 76 -72 201q0 158 141 260t359 102q160 0 298 -50q135 -49 202 -140l-178 -201q-95 57 -173 81q-76 24 -186 24q-63 0 -105 -22q-40 -21 -40 -58q0 -38 51 -59q49 -20 129 -28q74 -7 168 -29
q83 -19 168 -52q77 -29 129 -105q51 -74 51 -180q0 -162 -135 -265q-134 -103 -354 -103q-166 0 -324 57q-159 58 -242 145l162 230q184 -146 453 -146q123 0 123 82zM834 1579l-271 -336l-205 143l252 361z" />
    <glyph glyph-name="uniF699" unicode="&#xf699;" horiz-adv-x="1052" 
d="M248 -330l90 142q58 -58 166 -58q59 0 59 27q0 35 -92 35h-12v180q-139 21 -261 87q-123 67 -178 150l183 224q156 -183 399 -183q109 0 109 52q0 36 -68 63q-67 27 -164 51q-92 23 -192 62q-98 38 -164 116q-68 80 -68 195q0 143 133 245q132 101 347 101
q323 0 487 -213l-207 -198q-114 124 -317 124q-125 0 -125 -57q0 -33 67 -57q72 -25 164 -50q99 -26 193 -63q97 -38 164 -114t67 -183q0 -154 -110 -251q-110 -96 -306 -107v-43q217 -18 217 -185q0 -88 -78 -140q-79 -52 -231 -52q-162 0 -272 100z" />
    <glyph glyph-name="uniF69A" unicode="&#xf69a;" horiz-adv-x="1099" 
d="M758 348q0 49 -72 73t-174 39q-104 15 -205 42q-104 27 -174 102q-72 76 -72 201q0 158 141 260t359 102q160 0 298 -50q135 -49 202 -140l-178 -201q-95 57 -173 81q-76 24 -186 24q-63 0 -105 -22q-40 -21 -40 -58q0 -38 51 -59q49 -20 129 -28q74 -7 168 -29
q83 -19 168 -52q77 -29 129 -105q51 -74 51 -180q0 -162 -135 -265q-134 -103 -354 -103q-166 0 -324 57q-159 58 -242 145l162 230q184 -146 453 -146q123 0 123 82zM557 1671l338 -278l-143 -181l-201 166l-205 -161l-137 178l340 276h8z" />
    <glyph glyph-name="uniF69B" unicode="&#xf69b;" horiz-adv-x="1099" 
d="M758 348q0 49 -72 73t-174 39q-104 15 -205 42q-104 27 -174 102q-72 76 -72 201q0 158 141 260t359 102q160 0 298 -50q135 -49 202 -140l-178 -201q-95 57 -173 81q-76 24 -186 24q-63 0 -105 -22q-40 -21 -40 -58q0 -38 51 -59q49 -20 129 -28q74 -7 168 -29
q83 -19 168 -52q77 -29 129 -105q51 -74 51 -180q0 -162 -135 -265q-134 -103 -354 -103q-166 0 -324 57q-159 58 -242 145l162 230q184 -146 453 -146q123 0 123 82zM403 -223l248 160q107 -78 107 -193q0 -120 -64 -210q-63 -89 -149 -140l-142 102q66 69 66 154
q0 54 -66 127z" />
    <glyph glyph-name="uniF69D" unicode="&#xf69d;" horiz-adv-x="1083" 
d="M8 850v297h1067v-297h-381v-850h-307v850h-379zM537 1225l-338 278l143 180l201 -165l205 161l137 -178l-340 -276h-8z" />
    <glyph glyph-name="uniF69E" unicode="&#xf69e;" horiz-adv-x="1083" 
d="M8 850v297h1067v-297h-381v-850h-307v850h-379zM373 -223l248 160q106 -78 106 -193q0 -122 -63 -210t-150 -140l-141 102q65 68 65 154q0 55 -65 127z" />
    <glyph glyph-name="uniF69F" unicode="&#xf69f;" 
d="M1174 1147v-651q0 -128 -45 -232q-44 -102 -119 -159q-77 -59 -166 -87q-88 -28 -193 -28q-232 0 -392 134q-159 134 -159 380v643h308v-608q0 -104 61 -183q62 -80 182 -80q110 0 163 74q52 73 52 182v615h308zM297 1448l135 154q96 -107 215 -107q139 0 225 102
l105 -147q-133 -201 -342 -201q-124 0 -211 64t-127 135z" />
    <glyph glyph-name="uniF6A0" unicode="&#xf6a0;" 
d="M1174 1147v-651q0 -128 -45 -232q-44 -102 -119 -159q-77 -59 -166 -87q-88 -28 -193 -28q-232 0 -392 134q-159 134 -159 380v643h308v-608q0 -104 61 -183q62 -80 182 -80q110 0 163 74q52 73 52 182v615h308zM1094 1559l-291 -316l-156 117l256 346zM733 1591
l-256 -348l-158 119l224 364z" />
    <glyph glyph-name="uniF6A1" unicode="&#xf6a1;" 
d="M1174 1147v-651q0 -128 -45 -232q-44 -102 -119 -159q-77 -59 -166 -87q-88 -28 -193 -28q-232 0 -392 134q-159 134 -159 380v643h308v-608q0 -104 61 -183q62 -80 182 -80q110 0 163 74q52 73 52 182v615h308zM336 1290v246h602v-246h-602z" />
    <glyph glyph-name="uniF6A2" unicode="&#xf6a2;" 
d="M1174 1147v-651q0 -188 -88 -308q-87 -118 -228 -165q-100 -72 -100 -134q0 -53 61 -53q39 0 82 21l92 -185q-27 -33 -96 -57q-72 -25 -149 -25q-128 0 -213 50q-84 50 -84 145q0 119 163 207q-220 11 -366 143q-148 134 -148 369v643h308v-608q0 -104 61 -183
q62 -80 182 -80q110 0 163 74q52 73 52 182v615h308z" />
    <glyph glyph-name="uniF6A3" unicode="&#xf6a3;" 
d="M1174 1147v-651q0 -128 -45 -232q-44 -102 -119 -159q-77 -59 -166 -87q-88 -28 -193 -28q-232 0 -392 134q-159 134 -159 380v643h308v-608q0 -104 61 -183q62 -80 182 -80q110 0 163 74q52 73 52 182v615h308zM354 1497q0 110 80 187t201 77q122 0 204 -77
q81 -76 81 -187q0 -107 -81 -184q-80 -76 -204 -76q-122 0 -201 76q-80 77 -80 184zM549 1501q0 -41 24 -65q25 -25 66 -25q37 0 62 25q24 24 24 65q0 38 -23 63q-22 23 -63 23q-43 0 -66 -23q-24 -24 -24 -63z" />
    <glyph glyph-name="uniF6AB" unicode="&#xf6ab;" horiz-adv-x="1107" 
d="M45 860v287h1014v-203l-600 -657h614v-287h-1057v203l596 657h-567zM834 1579l-271 -336l-205 143l252 361z" />
    <glyph glyph-name="uniF6AC" unicode="&#xf6ac;" horiz-adv-x="1107" 
d="M45 860v287h1014v-203l-600 -657h614v-287h-1057v203l596 657h-567zM387 1430q0 63 47 105q46 42 121 42q73 0 119 -42q47 -42 47 -105q0 -65 -47 -109q-46 -43 -119 -43q-78 0 -123 42t-45 110z" />
    <glyph glyph-name="uniF6AD" unicode="&#xf6ad;" horiz-adv-x="536" 
d="M115 0v1147h307v-1147h-307zM102 1430q0 62 48 105q46 42 120 42q73 0 119 -42q47 -42 47 -105q0 -65 -47 -109q-46 -43 -119 -43q-78 0 -123 42t-45 110z" />
    <glyph glyph-name="uniF6BA" unicode="&#xf6ba;" horiz-adv-x="868" 
d="M123 612v267h622v-267h-622z" />
    <glyph glyph-name="uniF6BB" unicode="&#xf6bb;" horiz-adv-x="1261" 
d="M164 616v258h934v-258h-934z" />
    <glyph glyph-name="uniF6BC" unicode="&#xf6bc;" horiz-adv-x="1630" 
d="M164 616v258h1302v-258h-1302z" />
    <glyph glyph-name="uniF6C3" unicode="&#xf6c3;" horiz-adv-x="778" 
d="M424 -223l248 160q106 -78 106 -193q0 -122 -63 -210t-150 -140l-141 102q65 68 65 154q0 55 -65 127z" />
    <glyph glyph-name="uniF6C9" unicode="&#xf6c9;" horiz-adv-x="1222" 
d="M1223 1733l-492 -232l-117 203l467 291z" />
    <glyph glyph-name="uniF6CA" unicode="&#xf6ca;" horiz-adv-x="1161" 
d="M788 1522l-376 239l118 174l263 -155l262 155l106 -170l-364 -243h-9z" />
    <glyph glyph-name="uniF6CB" unicode="&#xf6cb;" horiz-adv-x="1087" 
d="M236 1702q0 68 50 112t124 44q63 0 117 -46q53 -45 53 -110q0 -68 -53 -113q-52 -45 -117 -45q-74 0 -124 44t-50 114zM745 1702q0 65 53 110q54 46 122 46q64 0 116 -44q51 -44 51 -112t-51 -113t-116 -45q-71 0 -123 44t-52 114z" />
    <glyph glyph-name="uniF6CE" unicode="&#xf6ce;" horiz-adv-x="1015" 
d="M901 1501l-491 232l141 262l467 -291z" />
    <glyph glyph-name="uniF6CF" unicode="&#xf6cf;" horiz-adv-x="1359" 
d="M1362 1722l-418 -231l-125 129l326 295zM911 1782l-342 -291l-131 119l207 305z" />
    <glyph glyph-name="uniF6D0" unicode="&#xf6d0;" horiz-adv-x="1093" 
d="M451 1577v246h643v-246h-643z" />
    <glyph glyph-name="uniF6D1" unicode="&#xf6d1;" horiz-adv-x="1212" 
d="M395 1829h267q24 -105 122 -105q47 0 83 27q37 27 44 78h267q-8 -137 -127 -237q-119 -99 -254 -99q-179 0 -279 91t-123 245z" />
    <glyph glyph-name="uniF6D4" unicode="&#xf6d4;" horiz-adv-x="1001" 
d="M252 1511h272q4 -108 107 -108q100 0 100 108h270q-1 -163 -109 -248q-107 -85 -261 -85q-161 0 -270 83q-108 82 -109 250z" />
    <glyph glyph-name="uniF6F4" unicode="&#xf6f4;" horiz-adv-x="1028" 
d="M346 1448l135 154q96 -107 215 -107q140 0 226 102l104 -147q-134 -201 -342 -201q-124 0 -211 64t-127 135z" />
    <glyph glyph-name="uniF6F5" unicode="&#xf6f5;" horiz-adv-x="1011" 
d="M664 1225l-338 278l143 180l201 -165l204 161l138 -178l-340 -276h-8z" />
    <glyph glyph-name="uniF6F6" unicode="&#xf6f6;" horiz-adv-x="1019" 
d="M680 1671l338 -278l-144 -181l-200 166l-205 -161l-137 178l340 276h8z" />
    <glyph glyph-name="uniF6F7" unicode="&#xf6f7;" horiz-adv-x="845" 
d="M512 1430q0 63 47 105t121 42q72 0 119 -42t47 -105q0 -65 -47 -109q-46 -43 -119 -43q-78 0 -123 42t-45 110z" />
    <glyph glyph-name="uniF6F8" unicode="&#xf6f8;" horiz-adv-x="1114" 
d="M1114 1559l-291 -316l-155 117l256 346zM754 1591l-256 -348l-158 119l223 364z" />
    <glyph glyph-name="uniF6F9" unicode="&#xf6f9;" horiz-adv-x="1095" 
d="M0 150v307l135 92v598h307v-387l306 209v-307l-306 -209v-166h637v-287h-944v242z" />
    <glyph glyph-name="uniF6FA" unicode="&#xf6fa;" horiz-adv-x="1937" 
d="M911 0v37q-110 -49 -231 -49q-264 0 -448 167q-183 166 -183 418q0 248 182 417t449 169q123 0 231 -47v35h949v-287h-641v-141h598v-277h-598v-155h655v-287h-963zM680 285q148 0 231 82v407q-91 88 -231 88q-129 0 -221 -77t-92 -212t92 -212q91 -76 221 -76z" />
    <glyph glyph-name="uniF6FB" unicode="&#xf6fb;" horiz-adv-x="808" 
d="M819 -143l92 -185q-27 -33 -96 -57q-72 -25 -149 -25q-128 0 -213 50q-84 50 -84 145q0 88 73 149q72 61 164 85q88 23 191 28v-47q-51 0 -86 -32t-35 -70q0 -29 17 -45q19 -17 44 -17q39 0 82 21z" />
    <glyph glyph-name="uniF6FC" unicode="&#xf6fc;" horiz-adv-x="989" 
d="M424 1497q0 110 80 187t201 77t203 -77q81 -76 81 -187q0 -107 -81 -184q-80 -76 -203 -76q-122 0 -201 76q-80 77 -80 184zM618 1501q0 -40 25 -65t66 -25q37 0 62 25q24 24 24 65q0 38 -23 63q-22 23 -63 23q-43 0 -66 -23q-25 -25 -25 -63z" />
    <glyph glyph-name="uniF6FD" unicode="&#xf6fd;" horiz-adv-x="1099" 
d="M758 348q0 49 -72 73t-174 39q-104 15 -205 42q-104 27 -174 102q-72 76 -72 201q0 158 141 260t359 102q160 0 298 -50q135 -49 202 -140l-178 -201q-95 57 -173 81q-76 24 -186 24q-63 0 -105 -22q-40 -21 -40 -58q0 -38 51 -59q49 -20 129 -28q74 -7 168 -29
q83 -19 168 -52q77 -29 129 -105q51 -74 51 -180q0 -162 -135 -265q-134 -103 -354 -103q-166 0 -324 57q-159 58 -242 145l162 230q184 -146 453 -146q123 0 123 82zM545 1225l-338 278l143 180l201 -165l205 161l137 -178l-340 -276h-8z" />
    <glyph glyph-name="uniF6FE" unicode="&#xf6fe;" horiz-adv-x="1064" 
d="M440 1288l-123 137q113 160 271 160q49 0 125 -40t116 -40q74 0 136 56l100 -154q-123 -147 -260 -147q-47 0 -121 39q-76 40 -123 40q-58 0 -121 -51z" />
    <glyph glyph-name="uniF6FF" unicode="&#xf6ff;" horiz-adv-x="1107" 
d="M45 860v287h1014v-203l-600 -657h614v-287h-1057v203l596 657h-567zM549 1225l-338 278l143 180l201 -165l205 161l137 -178l-340 -276h-8z" />
    <glyph glyph-name="uniF760" unicode="&#xf760;" horiz-adv-x="847" 
d="M672 1243l-301 328l233 176l244 -363z" />
    <glyph glyph-name="uniF761" unicode="&#xf761;" 
d="M-10 0l534 1145h226l534 -1145h-321l-86 174h-482l-88 -174h-317zM635 684l-135 -254h264z" />
    <glyph glyph-name="uniF762" unicode="&#xf762;" horiz-adv-x="1204" 
d="M109 0v1147h583q418 0 418 -297q0 -128 -100 -238q139 -84 139 -264q0 -176 -129 -262q-130 -86 -344 -86h-567zM651 446h-235v-159h223q109 0 147 17q41 18 41 61q0 46 -37 64q-35 17 -139 17zM635 860h-219v-137h241q134 0 134 55q0 44 -33 63q-32 19 -123 19z" />
    <glyph glyph-name="uniF763" unicode="&#xf763;" horiz-adv-x="1216" 
d="M1022 428l182 -197q-84 -123 -224 -187t-308 -64q-284 0 -453 163q-170 164 -170 430q0 250 178 422t457 172q169 0 301 -61q133 -61 201 -170l-211 -188q-44 59 -123 91q-77 31 -143 31q-153 0 -247 -79q-95 -80 -95 -218q0 -131 95 -214t236 -83q202 0 324 152z" />
    <glyph glyph-name="uniF764" unicode="&#xf764;" horiz-adv-x="1259" 
d="M109 0v1147h389q191 0 335 -44q143 -43 222 -123q80 -80 117 -176q38 -99 38 -216q0 -262 -183 -425q-182 -163 -558 -163h-360zM496 860h-80v-573h82q395 0 395 301q0 135 -92 204q-90 68 -305 68z" />
    <glyph glyph-name="uniF765" unicode="&#xf765;" horiz-adv-x="1134" 
d="M109 0v1147h927v-287h-620v-141h577v-277h-577v-155h635v-287h-942z" />
    <glyph glyph-name="uniF766" unicode="&#xf766;" horiz-adv-x="1085" 
d="M109 0v1147h938v-287h-631v-180h590v-287h-590v-393h-307z" />
    <glyph glyph-name="uniF767" unicode="&#xf767;" horiz-adv-x="1261" 
d="M618 393v277h594v-482q-196 -208 -497 -208q-294 0 -479 164q-187 166 -187 429q0 252 176 423t457 171q161 0 301 -61q142 -62 203 -160l-215 -188q-102 112 -279 112q-152 0 -238 -77q-87 -78 -87 -220q0 -143 96 -220q97 -77 254 -77q118 0 201 50v67h-300z" />
    <glyph glyph-name="uniF768" unicode="&#xf768;" horiz-adv-x="1310" 
d="M895 0v432h-479v-432h-307v1147h307v-428h479v428h307v-1147h-307z" />
    <glyph glyph-name="uniF769" unicode="&#xf769;" horiz-adv-x="536" 
d="M115 0v1147h307v-1147h-307z" />
    <glyph glyph-name="uniF76A" unicode="&#xf76a;" horiz-adv-x="845" 
d="M750 1147v-780q0 -185 -100 -287q-99 -100 -271 -100q-287 0 -399 225l223 172q21 -43 62 -77t85 -34q51 0 72 34q20 33 20 128v719h308z" />
    <glyph glyph-name="uniF76B" unicode="&#xf76b;" horiz-adv-x="1245" 
d="M109 0v1147h307v-412l420 412h399l-514 -502l545 -645h-404l-375 438l-71 -67v-371h-307z" />
    <glyph glyph-name="uniF76C" unicode="&#xf76c;" horiz-adv-x="1071" 
d="M109 0v1147h307v-860h637v-287h-944z" />
    <glyph glyph-name="uniF76D" unicode="&#xf76d;" horiz-adv-x="1490" 
d="M109 0v1147h260l385 -436l370 436h258v-1147h-307v627l-282 -338h-82l-295 346v-635h-307z" />
    <glyph glyph-name="uniF76E" unicode="&#xf76e;" horiz-adv-x="1292" 
d="M1184 0h-238l-538 623v-623h-299v1147h235l541 -623v623h299v-1147z" />
    <glyph glyph-name="uniF76F" unicode="&#xf76f;" horiz-adv-x="1359" 
d="M49 573q0 249 183 421q184 173 448 173q263 0 447 -170t184 -424q0 -250 -184 -422q-183 -171 -447 -171q-265 0 -448 171t-183 422zM367 573q0 -135 92 -216q91 -81 221 -81q132 0 223 80q90 80 90 217q0 136 -94 217q-93 80 -219 80q-131 0 -221 -80q-92 -81 -92 -217z
" />
    <glyph glyph-name="uniF770" unicode="&#xf770;" horiz-adv-x="1200" 
d="M416 0h-307v1147h518q149 0 257 -36q109 -36 163 -98q55 -62 79 -130q25 -70 25 -148q0 -170 -127 -288q-126 -117 -395 -117h-213v-330zM635 860h-219v-244h209q209 0 209 121q0 123 -199 123z" />
    <glyph glyph-name="uniF771" unicode="&#xf771;" horiz-adv-x="1359" 
d="M49 573q0 249 183 421q184 173 448 173q263 0 447 -170t184 -424q0 -228 -150 -378l99 -115l-216 -170l-106 119q-116 -49 -258 -49q-282 0 -456 167q-175 168 -175 426zM367 573q0 -139 87 -218q86 -79 226 -79q7 0 45 6q32 5 37 5l-86 90l192 164l95 -105q30 46 30 137
q0 139 -87 219q-85 78 -226 78t-226 -78q-87 -80 -87 -219z" />
    <glyph glyph-name="uniF772" unicode="&#xf772;" horiz-adv-x="1206" 
d="M416 0h-307v1147h501q139 0 243 -32q101 -31 156 -89q52 -55 77 -123q24 -66 24 -145q0 -109 -59 -200q-61 -94 -160 -140l323 -418h-370l-277 362h-151v-362zM604 860h-188v-211h198q179 0 179 109q0 51 -41 77q-40 25 -148 25z" />
    <glyph glyph-name="uniF773" unicode="&#xf773;" horiz-adv-x="1099" 
d="M758 348q0 49 -72 73t-174 39q-104 15 -205 42q-104 27 -174 102q-72 76 -72 201q0 158 141 260t359 102q160 0 298 -50q135 -49 202 -140l-178 -201q-95 57 -173 81q-76 24 -186 24q-63 0 -105 -22q-40 -21 -40 -58q0 -38 51 -59q49 -20 129 -28q74 -7 168 -29
q83 -19 168 -52q77 -29 129 -105q51 -74 51 -180q0 -162 -135 -265q-134 -103 -354 -103q-166 0 -324 57q-159 58 -242 145l162 230q184 -146 453 -146q123 0 123 82z" />
    <glyph glyph-name="uniF774" unicode="&#xf774;" horiz-adv-x="1083" 
d="M8 850v297h1067v-297h-381v-850h-307v850h-379z" />
    <glyph glyph-name="uniF775" unicode="&#xf775;" 
d="M1174 1147v-651q0 -128 -45 -232q-44 -102 -119 -159q-77 -59 -166 -87q-88 -28 -193 -28q-232 0 -392 134q-159 134 -159 380v643h308v-608q0 -104 61 -183q62 -80 182 -80q110 0 163 74q52 73 52 182v615h308z" />
    <glyph glyph-name="uniF776" unicode="&#xf776;" horiz-adv-x="1282" 
d="M1303 1147l-543 -1147h-211l-569 1147h333l342 -696l318 696h330z" />
    <glyph glyph-name="uniF777" unicode="&#xf777;" horiz-adv-x="1693" 
d="M1696 1147l-361 -1147h-248l-235 596l-227 -596h-248l-379 1147h315l201 -594l219 594h244l221 -588l193 588h305z" />
    <glyph glyph-name="uniF778" unicode="&#xf778;" horiz-adv-x="1257" 
d="M1251 1147l-440 -565l455 -582h-377l-260 330l-262 -330h-375l457 582l-439 565h373l248 -311l248 311h372z" />
    <glyph glyph-name="uniF779" unicode="&#xf779;" horiz-adv-x="1251" 
d="M1272 1147l-496 -739v-408h-307v408l-489 739h372l277 -416l276 416h367z" />
    <glyph glyph-name="uniF77A" unicode="&#xf77a;" horiz-adv-x="1107" 
d="M45 860v287h1014v-203l-600 -657h614v-287h-1057v203l596 657h-567z" />
    <glyph glyph-name="uniF7A1" unicode="&#xf7a1;" horiz-adv-x="538" 
d="M121 0v821h299v-821h-299zM104 1004q0 59 48 104q46 43 120 43q68 0 115 -44t47 -103q0 -54 -48 -99t-114 -45q-74 0 -120 45q-48 46 -48 99z" />
    <glyph glyph-name="uniF7A8" unicode="&#xf7a8;" horiz-adv-x="1040" 
d="M297 1434q0 61 47 102t113 41q61 0 111 -41t50 -102q0 -67 -49 -107q-50 -41 -112 -41q-67 0 -113 40q-47 41 -47 108zM715 1434q0 62 49 102q50 41 117 41q64 0 113 -41q48 -40 48 -102q0 -67 -47 -108q-46 -40 -114 -40q-71 0 -118 40q-48 40 -48 108z" />
    <glyph glyph-name="uniF7AF" unicode="&#xf7af;" horiz-adv-x="929" 
d="M328 1290v246h602v-246h-602z" />
    <glyph glyph-name="uniF7B4" unicode="&#xf7b4;" horiz-adv-x="997" 
d="M997 1579l-270 -336l-205 143l252 361z" />
    <glyph glyph-name="uniF7B8" unicode="&#xf7b8;" horiz-adv-x="976" 
d="M397 -330l90 142q58 -58 166 -58q60 0 60 27q0 35 -92 35h-13v184h154v-53q217 -18 217 -185q0 -88 -79 -140t-230 -52q-163 0 -273 100z" />
    </font>
</defs>
</svg>
