<?xml version="1.0" standalone="no"?>
<!DOCTYPE svg PUBLIC "-//W3C//DTD SVG 1.1//EN" "http://www.w3.org/Graphics/SVG/1.1/DTD/svg11.dtd" >
<svg xmlns="http://www.w3.org/2000/svg" xmlns:xlink="http://www.w3.org/1999/xlink" version="1.1">
<metadata>
Created by FontForge 20170731 at Fri May 20 11:38:02 2022
 By Aleksey,,,
Copyright (c) 2014 ParaType, Inc., ParaType Ltd. All rights reserved.
</metadata>
<defs>
<font id="Stem-BoldItalic" horiz-adv-x="1099" >
  <font-face 
    font-family="Stem-BoldItalic"
    font-weight="400"
    font-style="italic"
    font-stretch="normal"
    units-per-em="2048"
    panose-1="2 11 7 3 2 2 3 9 2 4"
    ascent="1595"
    descent="-453"
    x-height="1065"
    cap-height="1434"
    bbox="-836 -606 2834 2036"
    underline-thickness="102"
    underline-position="-204"
    slope="-11"
    unicode-range="U+0020-FEFF"
  />
<missing-glyph horiz-adv-x="483" 
 />
    <glyph glyph-name="uniF350.var.accented" unicode="&#xf350;`" horiz-adv-x="1273" 
d="M-61 0l757 1145h226l311 -1145h-305l-51 174h-474l-120 -174h-344zM735 680l-178 -250h256zM1192 1554l-303 -303l-187 168l287 328z" />
    <glyph glyph-name="uniF355.var.accented" unicode="&#xf355;`" horiz-adv-x="1134" 
d="M57 0l224 1147h927l-55 -287h-621l-28 -141h577l-53 -277h-577l-31 -155h635l-56 -287h-942zM1106 1554l-303 -303l-187 168l287 328z" />
    <glyph glyph-name="uniF358.var.accented" unicode="&#xf358;`" horiz-adv-x="1318" 
d="M307 0h-250l224 1147h307l-119 -608l659 608h254l-223 -1147h-307l117 602zM1243 1554l-303 -303l-186 168l286 328z" />
    <glyph glyph-name="uniF35E.var.accented" unicode="&#xf35e;`" horiz-adv-x="1359" 
d="M102 481q0 296 198 491t515 195q259 0 411 -140t152 -359q0 -294 -191 -491t-517 -197q-249 0 -409 137q-159 137 -159 364zM420 522q0 -106 73 -176t195 -70q175 0 275 103q98 101 98 244q0 102 -71 175q-70 72 -197 72q-170 0 -272 -103q-101 -102 -101 -245z
M1276 1554l-303 -303l-187 168l287 328z" />
    <glyph glyph-name="uniF363.var.accented" unicode="&#xf363;`" horiz-adv-x="1290" 
d="M270 70l166 227q27 -18 49 -18q55 0 95 88l-408 780h352l250 -488l338 488h352l-608 -875q-188 -272 -383 -272q-125 0 -203 70zM1214 1554l-303 -303l-186 168l287 328z" />
    <glyph glyph-name="uniF36B.var.accented" unicode="&#xf36b;`" horiz-adv-x="1591" 
d="M1122 0l224 1147h309l-223 -1147h-310zM614 502h-151l-43 -215h158q128 0 177 25q50 26 50 96q0 52 -46 73q-47 21 -145 21zM588 1147l-70 -356h203q197 0 300 -89q101 -88 101 -256q0 -236 -144 -341t-443 -105h-478l224 1147h307zM1376 1554l-303 -303l-186 168
l287 328z" />
    <glyph glyph-name="uniF36D.var.accented" unicode="&#xf36d;`" horiz-adv-x="1236" 
d="M461 442l55 287h422q-60 152 -281 152q-204 0 -352 -140l-170 215q207 211 553 211q279 0 426 -138q148 -139 148 -367q0 -304 -190 -494q-188 -188 -527 -188q-375 0 -543 253l215 185q68 -80 150 -116q83 -36 206 -36q125 0 211 50t125 126h-448zM1128 1554l-303 -303
l-186 168l287 328z" />
    <glyph glyph-name="uniF36E.var.accented" unicode="&#xf36e;`" horiz-adv-x="1798" 
d="M57 0l224 1147h307l-84 -434h100q28 88 79 164q53 79 133 144t201 106q119 40 261 40q261 0 403 -134t142 -353q0 -301 -188 -501q-187 -199 -527 -199q-223 0 -377 117q-156 119 -164 356h-114l-88 -453h-308zM883 516q0 -115 71 -182q73 -68 193 -68q151 0 256 105
q104 104 104 264q0 114 -68 179q-70 67 -184 67q-150 0 -262 -104q-110 -103 -110 -261zM1516 1554l-304 -303l-186 168l287 328z" />
    <glyph glyph-name="uniF36F.var.accented" unicode="&#xf36f;`" horiz-adv-x="1230" 
d="M764 0l70 356h-146l-362 -356h-396l426 414q-186 88 -186 309q0 206 157 315t421 109h546l-223 -1147h-307zM659 643h230l43 217h-258q-178 0 -178 -119q0 -105 163 -98zM1204 1554l-303 -303l-186 168l286 328z" />
    <glyph glyph-name="uniF371.var.accented" unicode="&#xf371;`" horiz-adv-x="1155" 
d="M338 1434q0 61 47 102t113 41q61 0 111 -41t50 -102q0 -67 -49 -107q-50 -41 -112 -41q-67 0 -113 40q-47 41 -47 108zM965 1434q0 62 49 102q50 41 116 41q65 0 114 -41q48 -40 48 -102q0 -67 -47 -108q-46 -40 -115 -40q-70 0 -117 40q-48 40 -48 108zM1036 1610
l-239 -330l-138 63l123 365zM57 0l224 1147h927l-55 -287h-621l-28 -141h577l-53 -277h-577l-31 -155h635l-56 -287h-942z" />
    <glyph glyph-name="afii10017.var.accented" unicode="&#x410;`" horiz-adv-x="1476" 
d="M-59 0l907 1434h235l351 -1434h-318l-65 266h-590l-168 -266h-352zM887 952l-262 -417h362zM1397 1716l-502 -209l-88 219l479 269z" />
    <glyph glyph-name="afii10022.var.accented" unicode="&#x415;`" horiz-adv-x="1329" 
d="M82 0l278 1434h1096l-57 -297h-778l-52 -267h727l-57 -286h-727l-55 -287h796l-57 -297h-1114zM1356 1716l-502 -209l-88 219l479 269z" />
    <glyph glyph-name="afii10026.var.accented" unicode="&#x418;`" horiz-adv-x="1542" 
d="M342 0h-260l278 1434h318l-164 -842l858 842h264l-278 -1434h-318l164 838zM1438 1716l-502 -209l-88 219l479 269z" />
    <glyph glyph-name="afii10032.var.accented" unicode="&#x41e;`" horiz-adv-x="1599" 
d="M135 610q0 109 35 228q35 118 106 228q74 113 171 199q99 87 241 140t303 53q298 0 473 -175q176 -176 176 -458q0 -371 -245 -610q-246 -240 -607 -240q-291 0 -473 180q-180 179 -180 455zM465 637q0 -162 100 -258q101 -96 258 -96q206 0 347 151q141 152 141 361
q0 150 -96 254q-94 102 -259 102q-206 0 -349 -151q-142 -149 -142 -363zM1427 1716l-501 -209l-88 219l479 269z" />
    <glyph glyph-name="afii10037.var.accented" unicode="&#x423;`" horiz-adv-x="1490" 
d="M1354 1434h364l-739 -1098q-107 -161 -208 -247q-104 -89 -249 -89q-190 0 -270 162l197 182q23 -47 81 -47q86 0 146 117l-449 1020h361l297 -713zM1438 1716l-502 -209l-88 219l479 269z" />
    <glyph glyph-name="afii10045.var.accented" unicode="&#x42b;`" horiz-adv-x="1843" 
d="M1341 0l279 1434h317l-278 -1434h-318zM735 662h-207l-71 -365h202q330 0 330 207q0 158 -254 158zM678 1434l-92 -476h213q259 0 389 -106q131 -107 131 -299q0 -553 -725 -553h-512l278 1434h318zM1561 1716l-502 -209l-88 219l479 269z" />
    <glyph glyph-name="afii10047.var.accented" unicode="&#x42d;`" horiz-adv-x="1447" 
d="M487 584l58 297h620q-22 119 -114 196q-91 76 -256 76q-249 0 -445 -178l-170 205q253 270 635 270q335 0 508 -173q172 -172 172 -443q0 -376 -231 -613t-613 -237q-466 0 -635 319l236 172q127 -194 395 -194q381 0 483 303h-643zM1294 1716l-501 -209l-88 219l479 269
z" />
    <glyph glyph-name="afii10048.var.accented" unicode="&#x42e;`" horiz-adv-x="2076" 
d="M82 0l278 1434h318l-111 -570h127q92 283 300 434q209 152 495 152q206 0 353 -93q145 -92 212 -232q66 -138 66 -302q0 -159 -57 -309q-57 -151 -158 -268q-102 -118 -264 -191q-158 -71 -351 -71q-284 0 -459 173q-174 173 -174 437h-143l-115 -594h-317zM985 629
q0 -159 94 -253q95 -95 238 -95q213 0 342 153t129 363q0 158 -93 257t-249 99q-183 0 -322 -149t-139 -375zM1847 1716l-501 -209l-89 219l480 269z" />
    <glyph glyph-name="afii10049.var.accented" unicode="&#x42f;`" horiz-adv-x="1435" 
d="M934 0l92 473h-233l-461 -473h-383l522 537q-246 111 -246 370q0 252 187 389q188 138 479 138h639l-279 -1434h-317zM770 770h313l72 367h-301q-299 0 -299 -191q0 -86 57 -131t158 -45zM1417 1716l-502 -209l-88 219l480 269z" />
    <glyph glyph-name="afii10023.var.accented" unicode="&#x401;`" horiz-adv-x="1329" 
d="M82 0l278 1434h1096l-57 -297h-778l-52 -267h727l-57 -286h-727l-55 -287h796l-57 -297h-1114zM1124 1698q0 68 48 114q50 48 118 48q69 0 120 -48q50 -47 50 -114q0 -66 -50 -111t-120 -45t-118 45t-48 111zM471 1698q0 67 47 114q48 48 117 48q71 0 122 -48
q50 -47 50 -114q0 -66 -50 -111q-49 -45 -122 -45q-71 0 -117 45q-47 45 -47 111zM1188 1878l-217 -291l-148 53l103 349z" />
    <glyph glyph-name="afii10065.var.accented" unicode="&#x430;`" horiz-adv-x="1179" 
d="M766 0l20 96q-85 -106 -286 -106q-186 0 -297 121t-111 313q0 312 163 487q164 176 421 176q194 0 266 -86l14 64h273l-199 -1065h-264zM592 256q68 0 131 36q64 36 98 93l66 330q-60 106 -199 106q-131 0 -215 -95q-84 -94 -84 -253q0 -103 57 -160t146 -57zM1186 1520
l-305 -306l-193 162l289 332z" />
    <glyph glyph-name="afii10070.var.accented" unicode="&#x435;`" 
d="M905 362l162 -172q-98 -116 -222 -162q-123 -46 -282 -46q-206 0 -339 128q-132 127 -132 332q0 284 182 466q184 184 457 184q191 0 297 -80q105 -79 105 -238q0 -182 -167 -286q-166 -103 -411 -103q-78 0 -158 12q39 -149 219 -149q168 0 289 114zM719 825
q-96 0 -176 -50t-119 -136q38 -2 84 -2q150 0 238 30q90 31 90 76q0 82 -117 82zM1178 1520l-306 -306l-192 162l289 332z" />
    <glyph glyph-name="afii10074.var.accented" unicode="&#x438;`" horiz-adv-x="1126" 
d="M1176 1065l-199 -1065h-283l21 90q-94 -106 -262 -106q-172 0 -263 82q-92 83 -92 225q0 72 19 172l123 602h282l-119 -580q-8 -42 -8 -82q1 -73 33 -114q30 -39 104 -39q156 0 234 141l127 674h283zM1139 1520l-305 -306l-193 162l289 332z" />
    <glyph glyph-name="afii10080.var.accented" unicode="&#x43e;`" horiz-adv-x="1202" 
d="M92 432q0 280 186 468q186 187 453 187q222 0 350 -125q129 -126 129 -321q0 -286 -177 -472q-176 -185 -458 -185q-229 0 -356 126t-127 322zM389 485q0 -113 58 -174t171 -61q112 0 203 100q92 101 92 256q0 93 -55 154t-158 61q-118 0 -215 -95q-96 -94 -96 -241z
M1204 1520l-305 -306l-192 162l288 332z" />
    <glyph glyph-name="afii10085.var.accented" unicode="&#x443;`" horiz-adv-x="1077" 
d="M8 -379l152 244q22 -17 41 -17q29 0 67 37q39 38 74 101l61 114l-303 965h308l182 -653l352 653h309l-579 -1016q-152 -264 -260 -371q-107 -106 -236 -106q-109 0 -168 49zM1116 1520l-305 -306l-193 162l289 332z" />
    <glyph glyph-name="afii10093.var.accented" unicode="&#x44b;`" horiz-adv-x="1400" 
d="M49 0l197 1065h282l-57 -293h129q201 0 293 -74t92 -233q0 -213 -141 -339t-398 -126h-397zM537 506h-113l-45 -240h113q92 0 144 39t52 107q0 48 -33 71q-34 23 -118 23zM973 0l196 1065h281l-197 -1065h-280zM1305 1520l-306 -306l-192 162l289 332z" />
    <glyph glyph-name="afii10095.var.accented" unicode="&#x44d;`" horiz-adv-x="1110" 
d="M369 424l47 240h415q-7 77 -76 117q-68 40 -171 40q-70 0 -150 -33t-141 -106l-178 166q208 239 516 239q238 0 362 -125q125 -127 125 -323q0 -302 -182 -478q-183 -177 -479 -177q-146 0 -269 61q-126 62 -182 188l217 140q78 -123 271 -123q106 0 189 48
q84 49 108 126h-422zM1098 1520l-305 -306l-193 162l289 332z" />
    <glyph glyph-name="afii10096.var.accented" unicode="&#x44e;`" horiz-adv-x="1589" 
d="M49 0l197 1065h282l-71 -389h118q67 189 223 301q153 110 341 110q225 0 342 -118q116 -117 116 -310q0 -327 -177 -501t-427 -174q-216 0 -339 116q-124 117 -126 314h-120l-76 -414h-283zM819 457q0 -91 54 -149t151 -58q113 0 195 98q81 97 81 254q0 219 -192 219
q-113 0 -201 -103t-88 -261zM1546 1520l-305 -306l-192 162l288 332z" />
    <glyph glyph-name="afii10097.var.accented" unicode="&#x44f;`" horiz-adv-x="1056" 
d="M678 1065h428l-197 -1065h-280l61 332h-110l-279 -332h-334l326 373q-77 35 -114 106q-38 73 -38 156q0 187 129 309q128 121 408 121zM440 678q0 -90 121 -90h174l41 211h-164q-82 0 -127 -33t-45 -88zM1182 1520l-305 -306l-193 162l289 332z" />
    <glyph glyph-name="afii10071.var.accented" unicode="&#x451;`" 
d="M905 362l162 -172q-98 -116 -222 -162q-123 -46 -282 -46q-206 0 -339 128q-132 127 -132 332q0 284 182 466q184 184 457 184q191 0 297 -80q105 -79 105 -238q0 -142 -108 -240q-109 -98 -274 -131q-167 -33 -354 -6q39 -149 219 -149q168 0 289 114zM1081 1526
l-245 -324l-123 62l129 362zM385 1350q0 61 44 105t110 44q64 0 111 -44q46 -43 46 -105t-46 -104t-111 -42q-66 0 -110 41t-44 105zM1018 1350q0 61 44 105t109 44t112 -44q46 -43 46 -105t-46 -104q-47 -42 -112 -42t-109 41t-44 105zM719 825q-96 0 -176 -50t-119 -136
q183 -10 298 20q114 30 114 84q0 82 -117 82z" />
    <glyph glyph-name="fi" unicode="fi" horiz-adv-x="1085" 
d="M84 788l51 277h141l5 20q39 217 160 322q120 104 284 104q83 0 115 -22l-105 -266q-18 12 -43 12q-107 0 -131 -150l-4 -20h215l-53 -277h-213l-144 -788h-282l143 788h-139zM643 0l197 1065h282l-196 -1065h-283zM870 1350q0 61 44 105t110 44q65 0 112 -44
q46 -43 46 -105t-46 -104t-112 -42t-110 41t-44 105z" />
    <glyph glyph-name="fl" unicode="fl" horiz-adv-x="1056" 
d="M678 0l223 1196q-43 49 -98 49q-58 0 -100 -44q-41 -42 -56 -116l-4 -20h141l-53 -270h-139l-137 -795h-283l139 795h-147l53 270h148l2 20q18 187 141 307q122 119 317 119q145 0 226 -65l188 65l-283 -1511h-278z" />
    <glyph glyph-name=".notdef" horiz-adv-x="483" 
 />
    <glyph glyph-name=".null" horiz-adv-x="0" 
 />
    <glyph glyph-name="nonmarkingreturn" horiz-adv-x="681" 
 />
    <glyph glyph-name="space" unicode=" " horiz-adv-x="483" 
 />
    <glyph glyph-name="exclam" unicode="!" horiz-adv-x="632" 
d="M190 403l201 1031h309l-200 -1031h-310zM113 154q0 59 50 106t126 47q71 0 120 -48q50 -48 50 -105q0 -65 -49 -111q-50 -47 -121 -47q-77 0 -127 47q-49 46 -49 111z" />
    <glyph glyph-name="quotedbl" unicode="&#x22;" horiz-adv-x="942" 
d="M635 885l106 549h306l-107 -549h-305zM244 885l106 549h305l-106 -549h-305z" />
    <glyph glyph-name="numbersign" unicode="#" horiz-adv-x="1468" 
d="M666 43l122 330h-159l-154 -416l-272 86l123 330h-140v258h236l65 172h-301v258h396l155 416l271 -86l-123 -330h159l152 416l272 -84l-125 -332h148v-258h-242q-3 -8 -65 -172h307v-258h-401l-152 -416zM788 803l-65 -172h162l61 172h-158z" />
    <glyph glyph-name="dollar" unicode="$" horiz-adv-x="1239" 
d="M1047 1595l-29 -151q203 -50 332 -221l-209 -199q-161 145 -342 145q-234 0 -234 -129q0 -47 49 -84q48 -37 123 -58q77 -22 160 -57q92 -39 160 -79q73 -44 123 -126q49 -82 49 -194q0 -196 -142 -321q-143 -126 -356 -150l-29 -151h-305l31 174q-271 77 -377 317
l234 183q60 -104 155 -167q96 -63 215 -63q126 0 185 43t59 107q0 66 -69 109q-74 47 -165 76q-87 28 -195 73q-96 40 -166 125q-68 83 -68 207q0 189 134 311q133 121 345 145l26 135h306z" />
    <glyph glyph-name="percent" unicode="%" horiz-adv-x="1918" 
d="M352 86l1049 1419l227 -166l-1036 -1392zM92 1059q0 167 119 274t295 107q177 0 296 -107q118 -106 118 -274q0 -167 -118 -273t-296 -106t-295 107q-119 108 -119 272zM391 1059q0 -58 34 -92q35 -35 81 -35q49 0 82 35t33 92q0 58 -34 92q-35 35 -81 35t-81 -35
q-34 -34 -34 -92zM1061 373q0 168 118 273q120 106 296 106q175 0 295 -106q118 -105 118 -273q0 -166 -119 -274q-117 -107 -294 -107q-179 0 -296 107q-118 108 -118 274zM1360 373q0 -58 34 -92q35 -35 81 -35q45 0 80 35q34 34 34 92t-34 92q-35 35 -80 35
q-46 0 -81 -35q-34 -34 -34 -92z" />
    <glyph glyph-name="ampersand" unicode="&#x26;" horiz-adv-x="1583" 
d="M1554 0h-368q-71 67 -127 133q-82 -63 -213 -108q-126 -43 -248 -43q-250 0 -388 99t-138 300q0 90 36 165q36 76 109 135q75 61 145 102q80 47 183 94q-72 107 -72 235q0 137 116 239q114 101 322 101q174 0 257 -71t83 -195q0 -222 -303 -389q72 -117 162 -240
q165 156 227 467h291q-72 -468 -356 -719q119 -146 282 -305zM618 268q153 0 265 92q-120 160 -207 302q-157 -84 -197 -119q-57 -53 -57 -123q0 -84 61 -118t135 -34zM791 1112q0 -48 28 -88q90 50 90 117q0 45 -43 45q-75 0 -75 -74z" />
    <glyph glyph-name="quotesingle" unicode="'" horiz-adv-x="550" 
d="M244 885l106 549h305l-106 -549h-305z" />
    <glyph glyph-name="parenleft" unicode="(" horiz-adv-x="759" 
d="M616 -250l-227 -160q-136 140 -215 347q-80 208 -80 423q0 640 660 1143l188 -178q-539 -428 -539 -915q0 -367 213 -660z" />
    <glyph glyph-name="parenright" unicode=")" horiz-adv-x="755" 
d="M250 1343l227 160q136 -141 215 -346q80 -208 80 -424q0 -641 -659 -1143l-189 181q258 225 399 444q140 217 140 469q0 366 -213 659z" />
    <glyph glyph-name="asterisk" unicode="*" horiz-adv-x="1021" 
d="M811 1434l-8 -224l221 80l84 -276l-223 -62l145 -182l-248 -178l-123 178l-122 -182l-250 178l145 186l-223 64l84 276l227 -80l-6 222h297z" />
    <glyph glyph-name="plus" unicode="+" horiz-adv-x="1239" 
d="M195 602v266h356v355h276v-355h361v-266h-361v-358h-276v358h-356z" />
    <glyph glyph-name="comma" unicode="," horiz-adv-x="540" 
d="M143 -10q-41 17 -67 56q-27 40 -27 91q0 89 59 143q58 54 146 54q182 0 182 -209q0 -162 -123 -285q-123 -122 -301 -145l-47 178q143 28 178 117z" />
    <glyph glyph-name="hyphen" unicode="-" horiz-adv-x="868" 
d="M160 444v267h622v-267h-622z" />
    <glyph glyph-name="period" unicode="." horiz-adv-x="585" 
d="M86 166q0 68 54 121q55 53 139 53q77 0 133 -54q55 -54 55 -120q0 -70 -55 -124q-56 -54 -133 -54q-84 0 -139 53q-54 53 -54 125z" />
    <glyph glyph-name="slash" unicode="/" horiz-adv-x="772" 
d="M-14 -307l663 1784l273 -86l-668 -1801z" />
    <glyph glyph-name="zero" unicode="0" horiz-adv-x="1390" 
d="M129 547q0 186 49 346q49 162 143 287q93 124 241 196t337 72q266 0 403 -155q136 -154 136 -410q0 -173 -46 -327q-46 -155 -136 -286q-89 -129 -238 -207q-148 -77 -340 -77q-273 0 -411 154t-138 407zM457 598q0 -135 62 -219q63 -86 200 -86q194 0 293 153
q98 151 98 400q0 295 -260 295q-171 0 -282 -150t-111 -393z" />
    <glyph glyph-name="one" unicode="1" horiz-adv-x="815" 
d="M182 1198l516 236h201l-278 -1434h-308l203 1034l-270 -112z" />
    <glyph glyph-name="two" unicode="2" horiz-adv-x="1216" 
d="M442 911l-256 105q73 196 231 315q156 117 396 117q247 0 370 -115q122 -114 122 -315q0 -196 -139 -356t-392 -304l-108 -61h510l-58 -297h-1108l45 231l193 119q16 10 64.5 39.5t80.5 49.5q34 21 81 49.5t60 36.5q24 15 120 77q74 48 112 77q45 34 86 73q52 49 70 76
q23 35 39 76t16 83q0 74 -58 114t-143 40q-117 0 -195 -58q-77 -58 -139 -172z" />
    <glyph glyph-name="three" unicode="3" horiz-adv-x="1271" 
d="M446 967l-241 123q180 362 626 362q241 0 369 -89q127 -88 127 -259q0 -112 -65 -202q-66 -91 -191 -138q182 -63 182 -285q0 -223 -178 -359t-448 -136q-216 0 -372 87q-157 88 -196 294l287 118q12 -89 88 -146q75 -56 199 -56q293 0 293 186q0 123 -211 123h-209
l55 287h168q126 0 198 42t72 115q0 121 -196 121q-251 0 -357 -188z" />
    <glyph glyph-name="four" unicode="4" horiz-adv-x="1316" 
d="M719 0l49 250h-760l39 205l1004 979h254l-177 -908h220l-54 -276h-219l-49 -250h-307zM494 526h327l74 373z" />
    <glyph glyph-name="five" unicode="5" horiz-adv-x="1288" 
d="M217 709l217 725h959l-58 -297h-688l-69 -222q40 18 114 29q78 12 127 12q239 0 360 -109t121 -312q0 -255 -187 -403t-466 -148q-217 0 -375 100q-159 100 -186 281l283 112q21 -85 104 -135q84 -51 211 -51q137 0 213 58t76 157q0 164 -240 164q-104 0 -173 -21
t-152 -67z" />
    <glyph glyph-name="six" unicode="6" horiz-adv-x="1327" 
d="M123 528q0 421 226 672q227 252 583 252q318 0 477 -221l-207 -209q-124 133 -293 133q-165 0 -283 -96q-119 -96 -149 -254q67 75 180 128q110 52 240 52q217 0 333 -114t116 -298q0 -254 -180 -423q-178 -168 -476 -168q-255 0 -411 144t-156 402zM471 512
q-15 -98 56 -166q70 -67 204 -67q117 0 202 67t85 178q0 174 -215 174q-112 0 -205 -59q-94 -60 -127 -127z" />
    <glyph glyph-name="seven" unicode="7" horiz-adv-x="1167" 
d="M190 1137l58 297h1126l-39 -199l-860 -1235h-358l794 1137h-721z" />
    <glyph glyph-name="eight" unicode="8" horiz-adv-x="1368" 
d="M774 868h57q106 0 185 44q78 44 78 118q0 133 -238 133q-281 0 -281 -162q0 -58 53 -96q52 -37 146 -37zM776 602h-47q-148 0 -228 -53q-79 -52 -79 -133q0 -146 276 -146q147 0 241 51q91 49 91 138q0 67 -66 105q-67 38 -188 38zM672 -16q-266 0 -422 98
q-158 99 -158 299q0 129 75 226q76 98 195 147q-114 92 -114 235q0 221 180 341t453 120q540 0 540 -379q0 -105 -59 -189q-60 -85 -168 -130q164 -90 164 -279q0 -162 -98 -275q-100 -115 -250 -164q-153 -50 -338 -50z" />
    <glyph glyph-name="nine" unicode="9" horiz-adv-x="1368" 
d="M1421 907q0 -418 -214 -671q-215 -254 -601 -254q-174 0 -311 62q-140 63 -209 165l203 207q152 -137 332 -137q184 0 297 92q112 91 135 217q-143 -139 -375 -139q-241 0 -378 115q-138 116 -138 323q0 233 193 399t497 166q270 0 420 -141q149 -140 149 -404zM1071 881
q21 114 -45 194t-209 80q-142 0 -234 -65q-94 -67 -94 -181q0 -84 68 -129q67 -45 174 -45q121 0 214 43q97 45 126 103z" />
    <glyph glyph-name="colon" unicode=":" horiz-adv-x="591" 
d="M246 911q0 59 50 106q49 46 126 46q70 0 120 -47t50 -105q0 -64 -49 -110q-50 -47 -121 -47q-78 0 -127 46t-49 111zM96 154q0 59 50 106t126 47q70 0 120 -48t50 -105q0 -65 -49 -111q-50 -47 -121 -47q-77 0 -127 47q-49 46 -49 111z" />
    <glyph glyph-name="semicolon" unicode=";" horiz-adv-x="589" 
d="M180 -10q-37 16 -61 54q-25 39 -25 81q0 78 52 126q53 48 128 48q82 0 125 -49t43 -131q0 -164 -111 -274q-110 -109 -286 -130l-35 174q51 6 103 31q48 23 67 70zM238 911q0 59 50 106q49 46 126 46q70 0 120 -47t50 -105q0 -64 -49 -110q-50 -47 -121 -47
q-78 0 -127 46t-49 111z" />
    <glyph glyph-name="less" unicode="&#x3c;" horiz-adv-x="1105" 
d="M1085 72l-962 606v125l962 598v-320l-550 -344l550 -344v-321z" />
    <glyph glyph-name="equal" unicode="=" horiz-adv-x="1177" 
d="M211 801v258h932v-258h-932zM211 410v258h932v-258h-932z" />
    <glyph glyph-name="greater" unicode="&#x3e;" horiz-adv-x="1105" 
d="M1171 678l-962 -606v321l555 344l-555 344v320l962 -598v-125z" />
    <glyph glyph-name="question" unicode="?" horiz-adv-x="1280" 
d="M1036 1018q0 53 -55 89t-160 36q-236 0 -338 -191l-268 101q76 184 241 290q166 107 400 107q241 0 382 -99q140 -98 140 -276q0 -113 -43 -196q-44 -84 -107 -127q-56 -38 -142 -80q-78 -38 -143 -59q-68 -22 -115 -57q-48 -36 -54 -81q-1 -15 -3 -38t-3 -34l-289 -4
q-2 16 -2 54q0 112 58 193q56 78 140 119q83 41 165 72q81 31 139 75q57 44 57 106zM397 154q0 59 50 106t126 47q71 0 120 -48q50 -48 50 -105q0 -65 -49 -111q-50 -47 -121 -47q-77 0 -127 47q-49 46 -49 111z" />
    <glyph glyph-name="at" unicode="@" horiz-adv-x="1941" 
d="M1083 0l9 49q-98 -65 -230 -65q-170 0 -275 111q-106 112 -106 292q0 248 183 431t462 183q266 0 422 -135l-114 -587q107 21 159 131q54 114 54 274q0 199 -135 307q-134 107 -363 107q-303 0 -526 -204q-224 -204 -224 -507q0 -249 138 -375q137 -125 376 -125
q161 0 304 47l-31 -268q-152 -45 -301 -45q-377 0 -578 204t-201 542q0 196 79 378q79 183 217 319q136 134 338 218q198 82 429 82q365 0 568 -174q202 -174 202 -490q0 -308 -164 -503q-165 -197 -458 -197h-234zM944 250q131 0 207 104l68 346q-40 35 -125 35
q-121 0 -210 -89t-89 -218q0 -82 42 -130t107 -48z" />
    <glyph glyph-name="A" unicode="A" horiz-adv-x="1476" 
d="M-59 0l907 1434h235l351 -1434h-318l-65 266h-590l-168 -266h-352zM887 952l-262 -417h362z" />
    <glyph glyph-name="B" unicode="B" horiz-adv-x="1388" 
d="M82 0l278 1434h641q231 0 333 -87t102 -268q0 -106 -60 -190q-61 -85 -149 -129q133 -76 133 -271q0 -489 -653 -489h-625zM805 588h-291l-57 -291h274q154 0 226 42q73 43 73 134q0 66 -57 90q-59 25 -168 25zM911 1137h-290l-52 -263h318q107 0 163 40t56 114
q0 55 -44 82t-151 27z" />
    <glyph glyph-name="C" unicode="C" horiz-adv-x="1445" 
d="M1272 463l188 -199q-94 -136 -252 -213q-156 -76 -364 -76q-108 0 -212 23q-100 22 -193 74q-90 50 -158 127t-108 187t-40 249q0 349 242 586q241 237 622 237q384 0 551 -278l-229 -183q-124 154 -342 154q-228 0 -371 -142t-143 -350q0 -166 108 -271t287 -105
q261 0 414 180z" />
    <glyph glyph-name="D" unicode="D" horiz-adv-x="1474" 
d="M82 0l278 1434h455q368 0 538 -158q169 -157 169 -424q0 -422 -270 -637q-271 -215 -746 -215h-424zM754 1137h-133l-164 -840h133q295 0 449 133q155 134 155 391q0 171 -111 243q-113 73 -329 73z" />
    <glyph glyph-name="E" unicode="E" horiz-adv-x="1329" 
d="M82 0l278 1434h1096l-57 -297h-778l-52 -267h727l-57 -286h-727l-55 -287h796l-57 -297h-1114z" />
    <glyph glyph-name="F" unicode="F" horiz-adv-x="1269" 
d="M82 0l278 1434h1086l-57 -297h-768l-62 -314h717l-57 -297h-717l-103 -526h-317z" />
    <glyph glyph-name="G" unicode="G" horiz-adv-x="1497" 
d="M797 516l55 287h668l-111 -613q-123 -109 -277 -161q-160 -54 -311 -54q-321 0 -505 178q-183 177 -183 459q0 359 244 603q243 243 629 243q376 0 538 -274l-237 -180q-111 147 -320 147q-228 0 -376 -139t-148 -350q0 -166 105 -273q105 -106 276 -106q174 0 284 82
l31 151h-362z" />
    <glyph glyph-name="H" unicode="H" horiz-adv-x="1538" 
d="M1036 0l111 573h-637l-111 -573h-317l278 1434h318l-109 -564h637l109 564h317l-278 -1434h-318z" />
    <glyph glyph-name="I" unicode="I" horiz-adv-x="604" 
d="M92 0l279 1434h317l-278 -1434h-318z" />
    <glyph glyph-name="J" unicode="J" horiz-adv-x="995" 
d="M1100 1434l-191 -985q-95 -474 -510 -474q-319 0 -415 279l239 160q40 -76 84 -109q43 -33 105 -33q78 0 123 59t69 179l180 924h316z" />
    <glyph glyph-name="K" unicode="K" horiz-adv-x="1435" 
d="M82 0l278 1434h318l-111 -568l633 568h442l-729 -662l492 -772h-379l-371 580l-168 -138l-88 -442h-317z" />
    <glyph glyph-name="L" unicode="L" horiz-adv-x="1265" 
d="M82 0l278 1434h318l-221 -1137h774l-57 -297h-1092z" />
    <glyph glyph-name="M" unicode="M" horiz-adv-x="1742" 
d="M82 0l278 1434h271l325 -680l562 680h319l-278 -1434h-318l168 860l-485 -571h-84l-273 577l-168 -866h-317z" />
    <glyph glyph-name="N" unicode="N" horiz-adv-x="1515" 
d="M1331 0h-246l-522 881l-172 -881h-309l278 1434h244l526 -881l170 881h310z" />
    <glyph glyph-name="O" unicode="O" horiz-adv-x="1599" 
d="M135 610q0 109 35 228q35 118 106 228q74 113 171 199q99 87 241 140t303 53q298 0 473 -175q176 -176 176 -458q0 -371 -245 -610q-246 -240 -607 -240q-291 0 -473 180q-180 179 -180 455zM465 637q0 -162 100 -258q101 -96 258 -96q206 0 347 151q141 152 141 361
q0 150 -96 254q-94 102 -259 102q-206 0 -349 -151q-142 -149 -142 -363z" />
    <glyph glyph-name="P" unicode="P" horiz-adv-x="1386" 
d="M399 0h-317l278 1434h594q525 0 525 -433q0 -268 -200 -409q-199 -141 -515 -141h-277zM905 1137h-284l-76 -389h272q168 0 250 61t82 170q0 158 -244 158z" />
    <glyph glyph-name="Q" unicode="Q" horiz-adv-x="1599" 
d="M133 604q0 219 105 414q104 194 304 317t449 123q165 0 294 -53q128 -53 205 -143q78 -91 115 -199q37 -107 37 -229q0 -381 -278 -623l94 -152l-256 -178l-100 162q-157 -68 -322 -68q-122 0 -233 40q-114 41 -207 115q-94 74 -151 198q-56 121 -56 276zM469 631
q0 -159 92 -254q91 -94 244 -94q106 0 156 20l-89 131l234 170l90 -139q111 133 111 338q0 142 -82 245t-252 103q-125 0 -224 -48t-159 -126t-90 -167q-31 -91 -31 -179z" />
    <glyph glyph-name="R" unicode="R" horiz-adv-x="1411" 
d="M399 0h-317l278 1434h580q500 0 500 -402q0 -178 -105 -302q-103 -123 -268 -183l293 -547h-369l-256 489h-241zM877 1137h-256l-68 -351h268q130 0 210 56q79 55 79 147q0 78 -53 113t-180 35z" />
    <glyph glyph-name="S" unicode="S" horiz-adv-x="1267" 
d="M899 414q0 66 -69 109q-74 47 -165 76q-87 28 -195 73q-96 40 -166 125q-68 83 -68 207q0 213 166 337q167 125 415 125q347 0 533 -243l-209 -199q-161 145 -342 145q-234 0 -234 -129q0 -47 49 -84q48 -37 123 -58q77 -22 160 -57q92 -39 160 -79q73 -44 123 -126
q49 -82 49 -194q0 -217 -172 -346q-173 -129 -416 -129q-221 0 -373 96q-151 95 -217 248l234 183q60 -104 155 -167q96 -63 215 -63q126 0 185 43t59 107z" />
    <glyph glyph-name="T" unicode="T" horiz-adv-x="1236" 
d="M170 1137l57 297h1237l-57 -297h-461l-221 -1137h-317l221 1137h-459z" />
    <glyph glyph-name="U" unicode="U" horiz-adv-x="1474" 
d="M1589 1434l-159 -820q-60 -294 -237 -461q-178 -167 -464 -167q-252 0 -406 127q-155 128 -155 364q0 81 14 150l158 807h317l-149 -770q-12 -66 -12 -117q0 -264 262 -264q288 0 362 372l152 779h317z" />
    <glyph glyph-name="V" unicode="V" horiz-adv-x="1495" 
d="M1743 1434l-920 -1434h-221l-395 1434h332l252 -938l585 938h367z" />
    <glyph glyph-name="W" unicode="W" horiz-adv-x="1988" 
d="M2218 1434l-707 -1434h-256l-137 868l-477 -868h-246l-168 1434h314l96 -863l467 863h237l127 -859l416 859h334z" />
    <glyph glyph-name="X" unicode="X" horiz-adv-x="1447" 
d="M1663 1434l-668 -732l377 -702h-362l-236 453l-409 -453h-416l672 741l-371 693h362l230 -445l405 445h416z" />
    <glyph glyph-name="Y" unicode="Y" horiz-adv-x="1433" 
d="M1681 1434l-759 -920l-101 -514h-317l100 514l-397 920h356l246 -566l469 566h403z" />
    <glyph glyph-name="Z" unicode="Z" horiz-adv-x="1300" 
d="M225 1137l58 297h1185l-41 -211l-919 -926h758l-58 -297h-1239l41 211l910 926h-695z" />
    <glyph glyph-name="bracketleft" unicode="[" horiz-adv-x="765" 
d="M53 -358l353 1810h622l-57 -297h-305l-238 -1216h305l-57 -297h-623z" />
    <glyph glyph-name="backslash" unicode="\" horiz-adv-x="772" 
d="M295 1477l666 -1784l-271 -103l-665 1801z" />
    <glyph glyph-name="bracketright" unicode="]" horiz-adv-x="765" 
d="M926 1452l-353 -1810h-622l57 297h305l238 1216h-305l57 297h623z" />
    <glyph glyph-name="asciicircum" unicode="^" horiz-adv-x="1091" 
d="M184 807l434 641h185l432 -641h-346l-178 274l-183 -274h-344z" />
    <glyph glyph-name="underscore" unicode="_" horiz-adv-x="727" 
d="M-47 -358v266h727v-266h-727z" />
    <glyph glyph-name="grave" unicode="`" horiz-adv-x="745" 
d="M870 1202l-301 328l234 176l244 -363z" />
    <glyph glyph-name="a" unicode="a" horiz-adv-x="1179" 
d="M766 0l20 96q-85 -106 -286 -106q-186 0 -297 121t-111 313q0 312 163 487q164 176 421 176q194 0 266 -86l14 64h273l-199 -1065h-264zM592 256q68 0 131 36q64 36 98 93l66 330q-60 106 -199 106q-131 0 -215 -95q-84 -94 -84 -253q0 -103 57 -160t146 -57z" />
    <glyph glyph-name="b" unicode="b" horiz-adv-x="1191" 
d="M78 135l254 1360h282l-90 -491q117 83 287 83q174 0 281 -110q108 -111 108 -289q0 -183 -55 -321q-55 -139 -152 -222q-92 -79 -214 -121q-117 -40 -253 -40q-133 0 -254 40q-124 41 -194 111zM717 821q-154 0 -250 -127l-74 -387q61 -57 185 -57q130 0 228 99
q97 98 97 263q0 95 -51 152t-135 57z" />
    <glyph glyph-name="c" unicode="c" horiz-adv-x="1087" 
d="M895 385l188 -168q-95 -132 -217 -182q-123 -51 -297 -51q-208 0 -342 127q-135 127 -135 331q0 282 180 464q180 181 449 181q184 0 291 -79q108 -80 137 -197l-217 -133q-73 143 -223 143q-134 0 -227 -95q-93 -94 -93 -247q0 -109 69 -169t165 -60q182 0 272 135z" />
    <glyph glyph-name="d" unicode="d" horiz-adv-x="1185" 
d="M774 0l21 96q-85 -106 -283 -106q-192 0 -306 118t-114 308q0 205 93 361q94 158 236 234t302 76q161 0 227 -51l84 459h281l-277 -1495h-264zM610 256q140 0 219 129l68 363q-49 73 -174 73q-148 0 -241 -99t-93 -257q0 -209 221 -209z" />
    <glyph glyph-name="e" unicode="e" 
d="M905 362l162 -172q-98 -116 -222 -162q-123 -46 -282 -46q-206 0 -339 128q-132 127 -132 332q0 284 182 466q184 184 457 184q191 0 297 -80q105 -79 105 -238q0 -182 -167 -286q-166 -103 -411 -103q-78 0 -158 12q39 -149 219 -149q168 0 289 114zM719 825
q-96 0 -176 -50t-119 -136q38 -2 84 -2q150 0 238 30q90 31 90 76q0 82 -117 82z" />
    <glyph glyph-name="f" unicode="f" horiz-adv-x="671" 
d="M92 799l49 266h142l4 20q39 217 160 322q120 104 284 104q87 0 153 -30t95 -86l-168 -183q-23 33 -88 33q-59 0 -101 -43q-43 -45 -55 -117l-4 -20h254l-51 -266h-252l-135 -799h-283l135 799h-139z" />
    <glyph glyph-name="g" unicode="g" horiz-adv-x="1175" 
d="M1225 1065l-181 -973q-50 -261 -197 -390q-148 -130 -380 -130q-170 0 -273 76t-124 190l237 121q57 -121 187 -121q219 0 258 195l10 47q-80 -96 -258 -96q-190 0 -301 127t-111 321q0 294 175 472q176 179 413 179q110 0 163 -18q51 -17 89 -57l10 57h283zM604 250
q63 0 123 39q59 38 88 90l66 340q-39 98 -172 98q-137 0 -228 -99q-92 -100 -92 -241q0 -227 215 -227z" />
    <glyph glyph-name="h" unicode="h" horiz-adv-x="1136" 
d="M49 0l275 1495h282l-90 -498q107 88 260 88q361 0 361 -323q0 -81 -17 -166l-116 -596h-283l115 582q8 43 8 80q1 82 -37 119q-40 38 -123 38q-126 0 -227 -137l-127 -682h-281z" />
    <glyph glyph-name="i" unicode="i" horiz-adv-x="512" 
d="M70 0l196 1065h283l-197 -1065h-282zM297 1350q0 61 44 105t110 44q64 0 111 -44q46 -43 46 -105t-46 -104t-111 -42q-66 0 -110 41t-44 105z" />
    <glyph glyph-name="j" unicode="j" horiz-adv-x="512" 
d="M547 1065l-195 -1061q-82 -432 -434 -432q-270 0 -319 246l264 100q21 -70 80 -70q99 0 127 162l194 1055h283zM293 1350q0 61 44 105t109 44t112 -44q46 -43 46 -105t-46 -104t-112 -42q-65 0 -109 41t-44 105z" />
    <glyph glyph-name="k" unicode="k" horiz-adv-x="1044" 
d="M49 0l275 1495h282l-145 -790l385 360h385l-531 -483l324 -582h-344l-217 426l-64 -49l-69 -377h-281z" />
    <glyph glyph-name="l" unicode="l" horiz-adv-x="485" 
d="M57 0l277 1495h282l-276 -1495h-283z" />
    <glyph glyph-name="m" unicode="m" horiz-adv-x="1622" 
d="M1622 709l-139 -709h-283l123 625q8 53 8 69q5 125 -102 125q-115 0 -193 -129l-129 -690h-282l129 674q10 59 -15 103q-24 42 -80 42q-128 0 -202 -131l-125 -688h-283l197 1065h282l-14 -72q95 92 260 92q158 0 240 -114q74 65 140 89q68 25 177 25q139 0 218 -70
q79 -71 81 -204q0 -49 -8 -102z" />
    <glyph glyph-name="n" unicode="n" horiz-adv-x="1140" 
d="M49 0l199 1065h282l-10 -68q107 88 260 88q361 0 361 -323q0 -81 -17 -166l-118 -596h-283l117 582q8 43 8 80q1 82 -37 119q-40 38 -123 38q-57 0 -120 -33q-62 -32 -107 -94l-131 -692h-281z" />
    <glyph glyph-name="o" unicode="o" horiz-adv-x="1202" 
d="M92 432q0 280 186 468q186 187 453 187q222 0 350 -125q129 -126 129 -321q0 -286 -177 -472q-176 -185 -458 -185q-229 0 -356 126t-127 322zM389 485q0 -113 58 -174t171 -61q112 0 203 100q92 101 92 256q0 93 -55 154t-158 61q-118 0 -215 -95q-96 -94 -96 -241z" />
    <glyph glyph-name="p" unicode="p" horiz-adv-x="1173" 
d="M-29 -410l271 1475h278l-10 -55q93 77 240 77q217 0 324 -123q108 -124 108 -309q0 -300 -168 -486q-167 -185 -451 -185q-180 0 -233 53l-82 -447h-277zM680 821q-137 0 -221 -119l-76 -364q49 -88 203 -88q128 0 213 96q86 97 86 258q0 95 -54 157q-52 60 -151 60z" />
    <glyph glyph-name="q" unicode="q" horiz-adv-x="1167" 
d="M662 -410l86 461q-88 -67 -224 -67q-216 0 -323 117q-109 120 -109 298q0 317 189 499q188 181 436 181q156 0 207 -57l10 43h283l-273 -1475h-282zM604 250q50 0 109 31q56 30 90 77l71 379q-60 76 -167 76q-122 0 -219 -97t-97 -243q0 -223 213 -223z" />
    <glyph glyph-name="r" unicode="r" horiz-adv-x="714" 
d="M49 0l197 1065h282l-8 -43q22 25 70 44t98 19q77 0 115 -22q37 -21 65 -70l-190 -209q-27 35 -78 35q-86 0 -141 -121l-127 -698h-283z" />
    <glyph glyph-name="s" unicode="s" horiz-adv-x="899" 
d="M582 317q0 33 -44 60q-43 27 -107 51q-63 24 -125 58q-63 34 -106 100q-44 67 -44 157q0 161 117 254q119 95 282 95q300 0 414 -185l-178 -184q-86 113 -228 113q-110 0 -110 -78q0 -28 44 -52q50 -28 106 -49q57 -22 125 -59q64 -35 107 -102q44 -68 44 -160
q0 -185 -124 -273t-300 -88q-163 0 -287 78t-168 191l223 157q28 -67 94 -113q65 -46 154 -46q56 0 83 21q28 22 28 54z" />
    <glyph glyph-name="t" unicode="t" horiz-adv-x="790" 
d="M96 799l47 266h166l49 207h275l-45 -207h301l-49 -266h-310l-73 -357q-11 -58 -11 -98q-4 -90 76 -90q50 0 135 74l146 -172q-129 -168 -381 -168q-114 0 -194 63q-78 62 -78 176q0 61 12 127l90 445h-156z" />
    <glyph glyph-name="u" unicode="u" horiz-adv-x="1126" 
d="M1176 1065l-199 -1065h-283l21 90q-94 -106 -262 -106q-172 0 -263 82q-92 83 -92 225q0 72 19 172l123 602h282l-119 -580q-8 -42 -8 -82q1 -73 33 -114q30 -39 104 -39q156 0 234 141l127 674h283z" />
    <glyph glyph-name="v" unicode="v" horiz-adv-x="1038" 
d="M1210 1065l-641 -1065h-213l-270 1065h287l159 -635l367 635h311z" />
    <glyph glyph-name="w" unicode="w" horiz-adv-x="1454" 
d="M1624 1065l-520 -1065h-221l-97 586l-313 -586h-223l-137 1065h276l74 -580l301 580h211l98 -580l268 580h283z" />
    <glyph glyph-name="x" unicode="x" 
d="M1268 1065l-492 -520l301 -545h-313l-178 338l-305 -338h-349l508 561l-284 504h319l164 -307l276 307h353z" />
    <glyph glyph-name="y" unicode="y" horiz-adv-x="1077" 
d="M8 -379l152 244q22 -17 41 -17q29 0 67 37q39 38 74 101l61 114l-303 965h308l182 -653l352 653h309l-579 -1016q-152 -264 -260 -371q-107 -106 -236 -106q-109 0 -168 49z" />
    <glyph glyph-name="z" unicode="z" horiz-adv-x="983" 
d="M158 799l49 266h878v-164l-634 -635h495l-51 -266h-895v180l627 619h-469z" />
    <glyph glyph-name="braceleft" unicode="{" horiz-adv-x="741" 
d="M174 -43l57 295q18 99 -14 130q-34 32 -117 32l52 262q96 0 133 24q36 23 53 107l61 309q37 186 135 261q97 75 291 75h179l-52 -262h-118q-70 0 -100 -30t-46 -111l-65 -336q-30 -146 -142 -199q95 -45 62 -209l-51 -274q-15 -73 3 -100t85 -27h122l-51 -262h-215
q-163 0 -228 75q-67 77 -34 240z" />
    <glyph glyph-name="bar" unicode="|" horiz-adv-x="645" 
d="M303 0v1434h318v-1434h-318z" />
    <glyph glyph-name="braceright" unicode="}" horiz-adv-x="741" 
d="M780 1137l-57 -295q-18 -99 14 -130q34 -32 117 -32l-51 -262q-94 0 -133 -25q-38 -24 -54 -106l-61 -310q-38 -187 -134 -261t-292 -74h-178l51 262h119q70 0 99 29q30 29 46 112l64 328q30 145 141 198q-94 45 -61 209l53 283q15 72 -3 99q-19 28 -85 28h-123l51 262
h215q162 0 228 -76q67 -77 34 -239z" />
    <glyph glyph-name="asciitilde" unicode="~" horiz-adv-x="1148" 
d="M315 528l-153 205q119 115 182 152q84 45 178 45q90 0 216 -66q124 -65 182 -65q127 0 219 131l131 -209q-66 -80 -158 -131q-89 -49 -172 -49q-111 0 -234 65q-124 66 -182 66q-102 0 -209 -144z" />
    <glyph glyph-name="uni00A0" unicode="&#xa0;" horiz-adv-x="483" 
 />
    <glyph glyph-name="exclamdown" unicode="&#xa1;" horiz-adv-x="632" 
d="M623 659l-201 -1030h-309l200 1030h310zM700 909q0 -59 -50 -106t-126 -47q-71 0 -121 44q-49 43 -49 109q0 65 49 111q50 47 121 47q77 0 127 -47q49 -46 49 -111z" />
    <glyph glyph-name="cent" unicode="&#xa2;" horiz-adv-x="1116" 
d="M920 391l186 -164q-140 -198 -377 -227l-80 -410h-317l80 412q-152 45 -236 159t-84 288q0 250 148 422q147 170 378 208l72 355h318l-72 -361q103 -23 175 -92t95 -160l-219 -131q-52 96 -143 123l-105 -543q105 27 181 121zM389 492q0 -164 117 -216l102 529
q-92 -27 -155 -114q-64 -88 -64 -199z" />
    <glyph glyph-name="sterling" unicode="&#xa3;" horiz-adv-x="1224" 
d="M162 508l49 254h102q-26 103 -26 194q0 204 138 348t400 144q289 0 465 -201l-196 -217q-134 121 -285 121q-99 0 -150 -55q-51 -56 -51 -146t31 -188h340l-49 -254h-291l-4 -25q-15 -90 -76 -151q44 -1 146 -37q100 -35 149 -35q129 0 219 117l123 -213
q-152 -164 -358 -164q-112 0 -251 43t-212 43q-134 0 -269 -109l-102 230q110 95 248 133q59 62 74 137l6 31h-170z" />
    <glyph glyph-name="currency" unicode="&#xa4;" horiz-adv-x="1331" 
d="M256 711q0 139 63 252l-169 172l192 192l178 -174q117 55 244 55q140 0 244 -55l186 182l195 -192l-183 -182q68 -130 68 -250q0 -124 -68 -246l174 -176l-192 -195l-178 178q-105 -57 -246 -57q-142 0 -248 57l-186 -186l-191 193l183 186q-66 119 -66 246zM553 711
q0 -93 61 -155t150 -62q90 0 151 61q62 62 62 156q0 97 -63 159q-64 62 -150 62q-91 0 -151 -63t-60 -158z" />
    <glyph glyph-name="yen" unicode="&#xa5;" horiz-adv-x="1433" 
d="M317 616l52 258h123l-285 560h368l256 -496l435 496h415l-507 -560h126l-51 -258h-309l-25 -133h310l-51 -258h-310l-43 -225h-317l43 225h-305l51 258h305l25 133h-306z" />
    <glyph glyph-name="brokenbar" unicode="&#xa6;" horiz-adv-x="645" 
d="M621 788h-318v646h318v-646zM303 645h318v-645h-318v645z" />
    <glyph glyph-name="section" unicode="&#xa7;" horiz-adv-x="1019" 
d="M106 494q0 131 72 236q73 106 195 157q-66 73 -66 188q0 160 124 259q126 100 294 100q223 0 348 -203l-219 -174q-45 80 -131 80q-41 0 -72 -26q-30 -25 -30 -62q0 -68 73 -101q159 -17 242 -110q84 -95 84 -250q0 -135 -71 -242t-197 -162q63 -80 63 -174
q0 -152 -114 -260t-298 -108q-245 0 -358 200l219 209q23 -52 65 -82t93 -30q41 0 67 25q27 25 27 65q0 29 -23 55q-24 27 -63 39q-158 29 -241 116q-83 88 -83 255zM414 510q0 -56 36 -94q36 -37 95 -37q69 0 119 51q49 50 49 135q0 54 -35 92q-34 37 -94 37
q-78 0 -124 -56t-46 -128z" />
    <glyph glyph-name="dieresis" unicode="&#xa8;" horiz-adv-x="931" 
d="M745 1350q0 60 45 105q44 44 109 44t112 -44q46 -43 46 -105t-46 -104q-47 -42 -112 -42t-109 41q-45 42 -45 105zM344 1350q0 61 44 105t110 44q64 0 111 -44q46 -43 46 -105t-46 -104q-47 -42 -111 -42q-66 0 -110 41t-44 105z" />
    <glyph glyph-name="copyright" unicode="&#xa9;" horiz-adv-x="1927" 
d="M141 485q0 364 253 614q254 251 628 251q381 0 633 -241q250 -240 250 -624q0 -375 -252 -619q-253 -245 -631 -245q-385 0 -633 236t-248 628zM414 485q0 -270 174 -438t434 -168q268 0 439 168t171 438q0 279 -167 443t-443 164q-257 0 -432 -172q-176 -173 -176 -435z
M1296 379l164 -180q-63 -93 -180 -154q-118 -61 -233 -61q-253 0 -394 138t-141 372q0 215 146 361t364 146q288 0 418 -204l-193 -168q-84 100 -198 100q-100 0 -168 -62q-70 -64 -70 -173q0 -112 72 -175t178 -63q139 0 235 123z" />
    <glyph glyph-name="ordfeminine" unicode="&#xaa;" horiz-adv-x="950" 
d="M432 1083l-57 197q142 70 350 74q179 2 256 -77t49 -224l-86 -441h-264l10 56q-70 -64 -196 -64q-115 0 -180 53q-64 52 -64 146q0 132 103 198t251 66q98 0 160 -14q7 37 -10 56q-18 19 -84 19q-109 0 -238 -45zM610 819q78 0 115 33l6 33q-45 18 -102 18
q-103 0 -103 -45q0 -39 84 -39z" />
    <glyph glyph-name="guillemotleft" unicode="&#xab;" horiz-adv-x="1198" 
d="M940 78l-338 459l2 14l455 434l176 -188l-277 -260l201 -287zM440 78l-338 459l2 14l455 434l176 -188l-276 -260l200 -287z" />
    <glyph glyph-name="logicalnot" unicode="&#xac;" horiz-adv-x="1073" 
d="M131 606v258h991v-493h-250v235h-741z" />
    <glyph glyph-name="uni00AD" unicode="&#xad;" horiz-adv-x="868" 
d="M236 444v267h622v-267h-622z" />
    <glyph glyph-name="registered" unicode="&#xae;" horiz-adv-x="1179" 
d="M203 981q0 211 154 359q155 149 376 149q217 0 372 -149t155 -359q0 -215 -155 -365q-153 -149 -372 -149q-223 0 -376 149q-154 150 -154 365zM295 979q0 -180 127 -300q128 -120 309 -120q175 0 306 129q130 129 130 291q0 175 -132 296q-133 122 -304 122
q-181 0 -309 -125q-127 -124 -127 -293zM678 680h-217v604h254q156 0 223 -58q68 -59 68 -153q0 -124 -91 -176l113 -217h-242l-59 133h-49v-133zM770 1051q0 32 -43 32h-49v-65h49q43 0 43 33z" />
    <glyph glyph-name="macron" unicode="&#xaf;" horiz-adv-x="929" 
d="M592 1249v246h602v-246h-602z" />
    <glyph glyph-name="degree" unicode="&#xb0;" horiz-adv-x="854" 
d="M233 1110q0 147 107 248q106 100 258 100q154 0 260 -99q107 -99 107 -247q0 -145 -108 -247q-107 -101 -259 -101t-258 100q-107 101 -107 246zM520 1110q0 -34 23 -52t55 -18t56 18t24 52q0 35 -24 53q-25 19 -56 19q-32 0 -55 -18t-23 -54z" />
    <glyph glyph-name="plusminus" unicode="&#xb1;" horiz-adv-x="1095" 
d="M203 748v256h336v358h256v-358h340v-256h-340v-193h-256v193h-336zM203 250v256h932v-256h-932z" />
    <glyph glyph-name="twosuperior" unicode="&#xb2;" horiz-adv-x="870" 
d="M473 1124l-180 138q144 221 430 221q145 0 224 -66t79 -178q0 -189 -250 -328l-90 -51h289l-47 -246h-719l41 207l176 92q309 162 309 265q0 59 -76 59q-112 0 -186 -113z" />
    <glyph glyph-name="threesuperior" unicode="&#xb3;" horiz-adv-x="884" 
d="M455 1141l-168 153q62 88 164 139q104 52 243 52q156 0 248 -51t92 -158q0 -145 -160 -207q105 -43 105 -158q0 -137 -117 -222q-116 -85 -289 -85q-281 0 -370 230l209 110q40 -94 180 -94q108 0 108 53q0 39 -102 39h-74l35 205h68q114 0 114 55q0 37 -88 37
q-119 0 -198 -98z" />
    <glyph glyph-name="acute" unicode="&#xb4;" horiz-adv-x="929" 
d="M1176 1520l-306 -306l-192 162l289 332z" />
    <glyph glyph-name="mu" unicode="&#xb5;" horiz-adv-x="1181" 
d="M1296 1065l-206 -1065h-297l10 55q-109 -71 -246 -71q-107 0 -164 39l-84 -431h-297l287 1473h297l-113 -580q-24 -121 10 -173t132 -52q135 0 233 82l141 723h297z" />
    <glyph glyph-name="mu" unicode="&#x3bc;" horiz-adv-x="1181" 
d="M1296 1065l-206 -1065h-297l10 55q-109 -71 -246 -71q-107 0 -164 39l-84 -431h-297l287 1473h297l-113 -580q-24 -121 10 -173t132 -52q135 0 233 82l141 723h297z" />
    <glyph glyph-name="paragraph" unicode="&#xb6;" horiz-adv-x="923" 
d="M164 952q0 224 129 353t350 129h358v-263h-167v-1136q0 -199 -85 -303q-85 -105 -282 -105q-83 0 -168 35q-83 34 -139 98l133 230q84 -66 166 -66q71 0 71 113v444q-165 30 -266 155q-100 124 -100 316z" />
    <glyph glyph-name="periodcentered" unicode="&#xb7;" horiz-adv-x="483" 
d="M109 621q0 58 50 105q49 46 126 46q69 0 119 -47q51 -48 51 -104q0 -65 -49 -111q-50 -47 -121 -47q-78 0 -127 46t-49 112z" />
    <glyph glyph-name="cedilla" unicode="&#xb8;" horiz-adv-x="958" 
d="M313 -330l117 142q50 -58 156 -58q65 0 65 31t-86 31h-12l35 184h153l-6 -53q183 -17 183 -154q0 -109 -96 -167q-93 -56 -244 -56q-175 0 -265 100z" />
    <glyph glyph-name="onesuperior" unicode="&#xb9;" horiz-adv-x="675" 
d="M281 1337l356 138h203l-168 -861h-277l107 537l-164 -64z" />
    <glyph glyph-name="ordmasculine" unicode="&#xba;" horiz-adv-x="948" 
d="M264 940q0 171 122 293q121 121 319 121q183 0 272 -90q88 -89 88 -248q0 -161 -124 -286q-125 -126 -318 -126q-168 0 -263 88q-96 88 -96 248zM545 963q0 -49 28 -76q29 -27 76 -27q61 0 97 37t36 96q0 105 -100 105q-61 0 -99 -38t-38 -97z" />
    <glyph glyph-name="guillemotright" unicode="&#xbb;" horiz-adv-x="1183" 
d="M342 983l338 -459l-2 -14l-455 -434l-176 188l277 260l-201 287zM842 983l338 -459l-2 -14l-455 -434l-176 188l276 260l-200 287z" />
    <glyph glyph-name="onequarter" unicode="&#xbc;" horiz-adv-x="1841" 
d="M381 121l1128 1374l220 -176l-1125 -1382zM301 1337l356 138h203l-168 -861h-276l106 537l-164 -64zM1405 0l25 131h-463l37 193l604 536h219l-96 -493h139l-45 -236h-139l-25 -131h-256zM1331 367h144l28 149z" />
    <glyph glyph-name="onehalf" unicode="&#xbd;" horiz-adv-x="1976" 
d="M381 121l1128 1374l220 -176l-1125 -1382zM301 1337l356 138h203l-168 -861h-276l106 537l-164 -64zM1440 510l-180 137q144 221 430 221q146 0 224 -65q79 -66 79 -178q0 -189 -250 -328l-90 -51h289l-48 -246h-718l41 207l176 92q309 162 309 264q0 60 -76 60
q-112 0 -186 -113z" />
    <glyph glyph-name="threequarters" unicode="&#xbe;" horiz-adv-x="1923" 
d="M463 121l1128 1374l219 -176l-1124 -1382zM1487 0l24 131h-462l36 193l605 536h219l-97 -493h140l-45 -236h-140l-24 -131h-256zM1413 367h143l29 149zM455 1141l-168 153q62 88 164 139q104 52 243 52q156 0 248 -51t92 -158q0 -145 -160 -207q105 -43 105 -158
q0 -137 -117 -222q-116 -85 -289 -85q-281 0 -370 230l209 110q40 -94 180 -94q108 0 108 53q0 39 -102 39h-74l35 205h68q114 0 114 55q0 37 -88 37q-119 0 -198 -98z" />
    <glyph glyph-name="questiondown" unicode="&#xbf;" horiz-adv-x="1280" 
d="M451 43q0 -53 55 -89q56 -36 160 -36q236 0 338 191l268 -101q-77 -185 -241 -291t-400 -106q-241 0 -382 99q-140 98 -140 276q0 113 43 196q44 84 107 127q59 40 141 80q71 35 144 58q64 20 114 58q49 37 55 81q1 15 3 38q2 21 3 33l289 5q2 -16 2 -54q0 -112 -58 -193
q-56 -78 -140 -119q-82 -40 -165 -72q-79 -30 -139 -76q-57 -44 -57 -105zM1090 907q0 -58 -51 -106q-50 -47 -126 -47q-69 0 -119 48q-51 49 -51 105q0 64 50 111t120 47q77 0 127 -47t50 -111z" />
    <glyph glyph-name="Agrave" unicode="&#xc0;" horiz-adv-x="1476" 
d="M-59 0l907 1434h235l351 -1434h-318l-65 266h-590l-168 -266h-352zM887 952l-262 -417h362zM1067 1487l-481 250l151 258l455 -312z" />
    <glyph glyph-name="Aacute" unicode="&#xc1;" horiz-adv-x="1476" 
d="M-59 0l907 1434h235l351 -1434h-318l-65 266h-590l-168 -266h-352zM887 952l-262 -417h362zM1397 1716l-502 -209l-88 219l479 269z" />
    <glyph glyph-name="Acircumflex" unicode="&#xc2;" horiz-adv-x="1476" 
d="M-59 0l907 1434h235l351 -1434h-318l-65 266h-590l-168 -266h-352zM887 952l-262 -417h362zM1024 1935l344 -252l-139 -161l-232 155l-292 -155l-82 182l393 231h8z" />
    <glyph glyph-name="Atilde" unicode="&#xc3;" horiz-adv-x="1476" 
d="M-59 0l907 1434h235l351 -1434h-318l-65 266h-590l-168 -266h-352zM887 952l-262 -417h362zM678 1575l-68 201q128 114 250 114q70 0 150 -30q82 -31 133 -31q105 0 194 63l43 -200q-112 -129 -254 -129q-62 0 -150 30q-91 31 -147 31q-75 0 -151 -49z" />
    <glyph glyph-name="Adieresis" unicode="&#xc4;" horiz-adv-x="1476" 
d="M-59 0l907 1434h235l351 -1434h-318l-65 266h-590l-168 -266h-352zM887 952l-262 -417h362zM1067 1698q0 68 48 114q50 48 118 48q69 0 120 -48q50 -47 50 -114q0 -66 -50 -111q-49 -45 -120 -45q-70 0 -118 45t-48 111zM557 1698q0 67 47 114q48 48 117 48q71 0 122 -48
q50 -47 50 -114q0 -66 -50 -111q-49 -45 -122 -45q-71 0 -117 45q-47 45 -47 111z" />
    <glyph glyph-name="Aring" unicode="&#xc5;" horiz-adv-x="1476" 
d="M-59 0l907 1434h235l351 -1434h-318l-65 266h-590l-168 -266h-352zM887 952l-262 -417h362zM680 1716q0 124 97 194t255 70q303 0 303 -215q0 -127 -99 -200q-100 -74 -257 -74q-299 0 -299 225zM907 1722q0 -67 84 -67q52 0 83 25q32 26 32 73q0 24 -22 44t-64 20
q-113 0 -113 -95z" />
    <glyph glyph-name="AE" unicode="&#xc6;" horiz-adv-x="2363" 
d="M1116 0l51 266h-557l-260 -266h-401l1358 1434h1183l-57 -297h-778l-51 -267h727l-58 -286h-727l-55 -287h797l-58 -297h-1114zM856 535h365l94 485z" />
    <glyph glyph-name="Ccedilla" unicode="&#xc7;" horiz-adv-x="1425" 
d="M465 -311l125 123q61 -58 153 -58q66 0 66 31t-86 31h-12l32 166q-264 24 -437 188t-173 465q0 349 242 586q241 237 622 237q384 0 551 -278l-229 -183q-124 154 -342 154q-228 0 -371 -142t-143 -350q0 -166 108 -271t287 -105q261 0 414 180l188 -199
q-180 -264 -563 -287l-4 -30q203 -17 203 -164q0 -100 -86 -157q-84 -56 -240 -56q-204 0 -305 119z" />
    <glyph glyph-name="Egrave" unicode="&#xc8;" horiz-adv-x="1329" 
d="M82 0l278 1434h1096l-57 -297h-778l-52 -267h727l-57 -286h-727l-55 -287h796l-57 -297h-1114zM1081 1487l-481 250l152 258l454 -312z" />
    <glyph glyph-name="Eacute" unicode="&#xc9;" horiz-adv-x="1329" 
d="M82 0l278 1434h1096l-57 -297h-778l-52 -267h727l-57 -286h-727l-55 -287h796l-57 -297h-1114zM1356 1716l-502 -209l-88 219l479 269z" />
    <glyph glyph-name="Ecircumflex" unicode="&#xca;" horiz-adv-x="1329" 
d="M82 0l278 1434h1096l-57 -297h-778l-52 -267h727l-57 -286h-727l-55 -287h796l-57 -297h-1114zM1001 1935l345 -252l-140 -161l-231 155l-293 -155l-82 182l393 231h8z" />
    <glyph glyph-name="Edieresis" unicode="&#xcb;" horiz-adv-x="1329" 
d="M82 0l278 1434h1096l-57 -297h-778l-52 -267h727l-57 -286h-727l-55 -287h796l-57 -297h-1114zM1032 1698q0 68 48 114q50 48 118 48q69 0 120 -48q50 -47 50 -114q0 -66 -50 -111t-120 -45t-118 45t-48 111zM522 1698q0 67 47 114q48 48 117 48q71 0 122 -48
q50 -47 50 -114q0 -66 -50 -111t-122 -45q-70 0 -117 45t-47 111z" />
    <glyph glyph-name="Igrave" unicode="&#xcc;" horiz-adv-x="604" 
d="M92 0l279 1434h317l-278 -1434h-318zM635 1487l-481 250l151 258l455 -312z" />
    <glyph glyph-name="Iacute" unicode="&#xcd;" horiz-adv-x="604" 
d="M92 0l279 1434h317l-278 -1434h-318zM971 1716l-502 -209l-88 219l479 269z" />
    <glyph glyph-name="Icircumflex" unicode="&#xce;" horiz-adv-x="604" 
d="M92 0l279 1434h317l-278 -1434h-318zM594 1935l344 -252l-139 -161l-232 155l-293 -155l-81 182l393 231h8z" />
    <glyph glyph-name="Idieresis" unicode="&#xcf;" horiz-adv-x="604" 
d="M92 0l279 1434h317l-278 -1434h-318zM641 1698q0 68 48 114q50 48 118 48q69 0 120 -48q50 -47 50 -114q0 -66 -50 -111q-49 -45 -120 -45q-70 0 -118 45t-48 111zM131 1698q0 67 47 114q48 48 117 48q71 0 122 -48q50 -47 50 -114q0 -66 -50 -111t-122 -45
q-71 0 -117 45q-47 45 -47 111z" />
    <glyph glyph-name="Eth" unicode="&#xd0;" horiz-adv-x="1609" 
d="M102 584l52 264h227l115 586h454q370 0 536 -159q167 -159 167 -427q0 -396 -256 -622t-756 -226h-424l113 584h-228zM887 1137h-133l-56 -289h324l-51 -264h-324l-55 -287h133q309 0 453 144q143 143 143 380q0 169 -102 242q-103 74 -332 74z" />
    <glyph glyph-name="Ntilde" unicode="&#xd1;" horiz-adv-x="1515" 
d="M1331 0h-246l-522 881l-172 -881h-309l278 1434h244l526 -881l170 881h310zM721 1575l-68 201q128 114 250 114q71 0 150 -30q82 -31 133 -31q106 0 194 63l43 -200q-113 -129 -254 -129q-61 0 -150 30q-91 31 -147 31q-75 0 -151 -49z" />
    <glyph glyph-name="Ograve" unicode="&#xd2;" horiz-adv-x="1599" 
d="M135 610q0 109 35 228q35 118 106 228q74 113 171 199q99 87 241 140t303 53q298 0 473 -175q176 -176 176 -458q0 -371 -245 -610q-246 -240 -607 -240q-291 0 -473 180q-180 179 -180 455zM465 637q0 -162 100 -258q101 -96 258 -96q206 0 347 151q141 152 141 361
q0 150 -96 254q-94 102 -259 102q-206 0 -349 -151q-142 -149 -142 -363zM1157 1487l-481 250l151 258l455 -312z" />
    <glyph glyph-name="Oacute" unicode="&#xd3;" horiz-adv-x="1599" 
d="M135 610q0 109 35 228q35 118 106 228q74 113 171 199q99 87 241 140t303 53q298 0 473 -175q176 -176 176 -458q0 -371 -245 -610q-246 -240 -607 -240q-291 0 -473 180q-180 179 -180 455zM465 637q0 -162 100 -258q101 -96 258 -96q206 0 347 151q141 152 141 361
q0 150 -96 254q-94 102 -259 102q-206 0 -349 -151q-142 -149 -142 -363zM1473 1716l-502 -209l-88 219l479 269z" />
    <glyph glyph-name="Ocircumflex" unicode="&#xd4;" horiz-adv-x="1599" 
d="M135 610q0 109 35 228q35 118 106 228q74 113 171 199q99 87 241 140t303 53q298 0 473 -175q176 -176 176 -458q0 -371 -245 -610q-246 -240 -607 -240q-291 0 -473 180q-180 179 -180 455zM465 637q0 -162 100 -258q101 -96 258 -96q206 0 347 151q141 152 141 361
q0 150 -96 254q-94 102 -259 102q-206 0 -349 -151q-142 -149 -142 -363zM1090 1935l344 -252l-140 -161l-231 155l-293 -155l-82 182l393 231h9z" />
    <glyph glyph-name="Otilde" unicode="&#xd5;" horiz-adv-x="1599" 
d="M135 610q0 109 35 228q35 118 106 228q74 113 171 199q99 87 241 140t303 53q298 0 473 -175q176 -176 176 -458q0 -371 -245 -610q-246 -240 -607 -240q-291 0 -473 180q-180 179 -180 455zM465 637q0 -162 100 -258q101 -96 258 -96q206 0 347 151q141 152 141 361
q0 150 -96 254q-94 102 -259 102q-206 0 -349 -151q-142 -149 -142 -363zM766 1575l-68 201q127 114 250 114q70 0 150 -30q82 -31 133 -31q105 0 194 63l43 -200q-112 -129 -254 -129q-62 0 -150 30q-91 31 -146 31q-76 0 -152 -49z" />
    <glyph glyph-name="Odieresis" unicode="&#xd6;" horiz-adv-x="1599" 
d="M135 610q0 109 35 228q35 118 106 228q74 113 171 199q99 87 241 140t303 53q298 0 473 -175q176 -176 176 -458q0 -371 -245 -610q-246 -240 -607 -240q-291 0 -473 180q-180 179 -180 455zM465 637q0 -162 100 -258q101 -96 258 -96q206 0 347 151q141 152 141 361
q0 150 -96 254q-94 102 -259 102q-206 0 -349 -151q-142 -149 -142 -363zM1163 1698q0 68 48 114q50 48 118 48q69 0 120 -48q50 -47 50 -114q0 -66 -50 -111q-49 -45 -120 -45q-70 0 -118 45t-48 111zM653 1698q0 67 47 114q48 48 117 48q71 0 122 -48q50 -47 50 -114
q0 -66 -50 -111q-49 -45 -122 -45q-71 0 -117 45q-47 45 -47 111z" />
    <glyph glyph-name="multiply" unicode="&#xd7;" horiz-adv-x="1239" 
d="M258 987l188 189l252 -254l254 254l189 -189l-254 -254l254 -252l-189 -188l-254 254l-252 -254l-188 188l254 252z" />
    <glyph glyph-name="Oslash" unicode="&#xd8;" horiz-adv-x="1599" 
d="M92 119l129 127q-88 143 -88 348q0 174 75 333t198 273q125 116 287 182q166 68 337 68q187 0 332 -82l125 125l186 -176l-125 -123q92 -140 92 -354q0 -180 -75 -336q-78 -162 -199 -274q-123 -114 -287 -180q-163 -66 -334 -66q-188 0 -333 82l-131 -132zM1305 791
q0 91 -21 143l-620 -619q66 -24 141 -24q204 0 351 140q149 141 149 360zM469 635q0 -87 16 -129l621 612q-69 25 -135 25q-195 0 -349 -143q-153 -142 -153 -365z" />
    <glyph glyph-name="Ugrave" unicode="&#xd9;" horiz-adv-x="1474" 
d="M1589 1434l-159 -820q-60 -294 -237 -461q-178 -167 -464 -167q-252 0 -406 127q-155 128 -155 364q0 81 14 150l158 807h317l-149 -770q-12 -66 -12 -117q0 -264 262 -264q288 0 362 372l152 779h317zM1096 1487l-482 250l152 258l455 -312z" />
    <glyph glyph-name="Uacute" unicode="&#xda;" horiz-adv-x="1474" 
d="M1589 1434l-159 -820q-60 -294 -237 -461q-178 -167 -464 -167q-252 0 -406 127q-155 128 -155 364q0 81 14 150l158 807h317l-149 -770q-12 -66 -12 -117q0 -264 262 -264q288 0 362 372l152 779h317zM1411 1716l-502 -209l-88 219l479 269z" />
    <glyph glyph-name="Ucircumflex" unicode="&#xdb;" horiz-adv-x="1474" 
d="M1589 1434l-159 -820q-60 -294 -237 -461q-178 -167 -464 -167q-252 0 -406 127q-155 128 -155 364q0 81 14 150l158 807h317l-149 -770q-12 -66 -12 -117q0 -264 262 -264q288 0 362 372l152 779h317zM1028 1935l344 -252l-139 -161l-232 155l-292 -155l-82 182l393 231
h8z" />
    <glyph glyph-name="Udieresis" unicode="&#xdc;" horiz-adv-x="1474" 
d="M1589 1434l-159 -820q-60 -294 -237 -461q-178 -167 -464 -167q-252 0 -406 127q-155 128 -155 364q0 81 14 150l158 807h317l-149 -770q-12 -66 -12 -117q0 -264 262 -264q288 0 362 372l152 779h317zM1085 1698q0 67 49 114q50 48 117 48q69 0 120 -48q50 -47 50 -114
q0 -66 -50 -111q-49 -45 -120 -45q-69 0 -117 45q-49 46 -49 111zM575 1698q0 66 48 114t116 48q71 0 122 -48q50 -47 50 -114q0 -66 -50 -111q-49 -45 -122 -45q-69 0 -116 45q-48 46 -48 111z" />
    <glyph glyph-name="Yacute" unicode="&#xdd;" horiz-adv-x="1433" 
d="M1681 1434l-759 -920l-101 -514h-317l100 514l-397 920h356l246 -566l469 566h403zM1401 1716l-502 -209l-88 219l479 269z" />
    <glyph glyph-name="Thorn" unicode="&#xde;" horiz-adv-x="1355" 
d="M399 0h-317l278 1434h318l-39 -205h235q525 0 525 -436q0 -249 -182 -398t-535 -149h-236zM836 932h-256l-74 -389h244q165 0 243 59q80 60 80 160q0 170 -237 170z" />
    <glyph glyph-name="germandbls" unicode="&#xdf;" horiz-adv-x="1161" 
d="M834 1511q226 0 328 -102t102 -272q0 -102 -55 -203q-54 -99 -167 -150q166 -69 166 -280q0 -110 -29 -198q-30 -92 -89 -167t-163 -119q-102 -43 -239 -43q-134 0 -219 56l109 252q62 -31 120 -31q94 0 150 60q55 59 55 157q0 141 -170 141h-100l53 277h29q123 0 181 54
t58 147q0 69 -41 107t-106 38q-87 0 -148 -73q-58 -70 -96 -267l-174 -895h-297l174 893q17 95 42 177q24 80 69 165q46 88 103 143q61 60 150 96q90 37 204 37z" />
    <glyph glyph-name="agrave" unicode="&#xe0;" horiz-adv-x="1179" 
d="M766 0l20 96q-85 -106 -286 -106q-186 0 -297 121t-111 313q0 312 163 487q164 176 421 176q194 0 266 -86l14 64h273l-199 -1065h-264zM592 256q68 0 131 36q64 36 98 93l66 330q-60 106 -199 106q-131 0 -215 -95q-84 -94 -84 -253q0 -103 57 -160t146 -57zM778 1198
l-262 361l252 147l201 -387z" />
    <glyph glyph-name="aacute" unicode="&#xe1;" horiz-adv-x="1179" 
d="M766 0l20 96q-85 -106 -286 -106q-186 0 -297 121t-111 313q0 312 163 487q164 176 421 176q194 0 266 -86l14 64h273l-199 -1065h-264zM592 256q68 0 131 36q64 36 98 93l66 330q-60 106 -199 106q-131 0 -215 -95q-84 -94 -84 -253q0 -103 57 -160t146 -57zM1116 1513
l-303 -305l-188 166l288 332z" />
    <glyph glyph-name="acircumflex" unicode="&#xe2;" horiz-adv-x="1179" 
d="M766 0l20 96q-85 -106 -286 -106q-186 0 -297 121t-111 313q0 312 163 487q164 176 421 176q194 0 266 -86l14 64h273l-199 -1065h-264zM592 256q68 0 131 36q64 36 98 93l66 330q-60 106 -199 106q-131 0 -215 -95q-84 -94 -84 -253q0 -103 57 -160t146 -57zM850 1630
l301 -293l-166 -166l-168 166l-237 -161l-121 184l383 270h8z" />
    <glyph glyph-name="atilde" unicode="&#xe3;" horiz-adv-x="1179" 
d="M766 0l20 96q-85 -106 -286 -106q-186 0 -297 121t-111 313q0 312 163 487q164 176 421 176q194 0 266 -86l14 64h273l-199 -1065h-264zM592 256q68 0 131 36q64 36 98 93l66 330q-60 106 -199 106q-131 0 -215 -95q-84 -94 -84 -253q0 -103 57 -160t146 -57zM549 1227
l-115 137q50 66 122 113q73 47 146 47q57 0 133 -40t115 -40q72 0 137 55l93 -153q-128 -148 -250 -148q-58 0 -135 40t-123 40q-56 0 -123 -51z" />
    <glyph glyph-name="adieresis" unicode="&#xe4;" horiz-adv-x="1179" 
d="M766 0l20 96q-85 -106 -286 -106q-186 0 -297 121t-111 313q0 312 163 487q164 176 421 176q194 0 266 -86l14 64h273l-199 -1065h-264zM592 256q68 0 131 36q64 36 98 93l66 330q-60 106 -199 106q-131 0 -215 -95q-84 -94 -84 -253q0 -103 57 -160t146 -57zM827 1350
q0 61 44 105t110 44q65 0 112 -44q46 -43 46 -105t-46 -104q-47 -42 -112 -42q-66 0 -110 41t-44 105zM426 1350q0 61 44 105t110 44q64 0 111 -44q46 -43 46 -105t-46 -104q-47 -42 -111 -42q-66 0 -110 41t-44 105z" />
    <glyph glyph-name="aring" unicode="&#xe5;" horiz-adv-x="1179" 
d="M766 0l20 96q-85 -106 -286 -106q-186 0 -297 121t-111 313q0 312 163 487q164 176 421 176q194 0 266 -86l14 64h273l-199 -1065h-264zM592 256q68 0 131 36q64 36 98 93l66 330q-60 106 -199 106q-131 0 -215 -95q-84 -94 -84 -253q0 -103 57 -160t146 -57zM535 1409
q0 117 90 204t229 87q120 0 188 -65t68 -167q0 -115 -89 -204q-88 -88 -228 -88q-123 0 -191 63q-67 63 -67 170zM733 1421q0 -71 80 -71q43 0 72 30q28 29 28 78q0 68 -79 68q-43 0 -72 -29t-29 -76z" />
    <glyph glyph-name="ae" unicode="&#xe6;" horiz-adv-x="1697" 
d="M1468 367l168 -160q-151 -223 -493 -223q-242 0 -365 168q-173 -164 -415 -164q-184 0 -266 82q-83 83 -83 219q0 186 157 292q156 105 372 105q113 0 180 -27q8 40 2 72q-15 80 -139 80q-83 0 -146 -21t-153 -81l-127 206q191 172 508 172q194 0 284 -118
q163 118 359 118q193 0 297 -77t104 -236q0 -143 -102 -239q-103 -97 -264 -131t-349 -7q39 -137 199 -137q180 0 272 107zM430 244q68 0 135 35q65 34 103 86l8 49q-55 26 -148 26q-91 0 -152 -32q-63 -33 -65 -89q-1 -42 26 -59q26 -16 93 -16zM1298 811q-83 0 -158 -45
q-76 -46 -116 -127q179 -10 286 20q105 30 105 84q0 68 -117 68z" />
    <glyph glyph-name="ccedilla" unicode="&#xe7;" horiz-adv-x="1087" 
d="M215 -330l117 142q50 -58 155 -58q66 0 66 31t-86 31h-12l32 174q-176 23 -285 145q-110 124 -110 307q0 282 180 464q180 181 449 181q184 0 291 -79q108 -80 137 -197l-217 -133q-73 143 -223 143q-134 0 -227 -95q-93 -94 -93 -247q0 -109 69 -169t165 -60
q182 0 272 135l188 -168q-84 -117 -190 -169q-104 -51 -252 -62l-4 -39q182 -16 182 -154q0 -110 -95 -167q-93 -56 -245 -56q-174 0 -264 100z" />
    <glyph glyph-name="egrave" unicode="&#xe8;" 
d="M905 362l162 -172q-98 -116 -222 -162q-123 -46 -282 -46q-206 0 -339 128q-132 127 -132 332q0 284 182 466q184 184 457 184q191 0 297 -80q105 -79 105 -238q0 -182 -167 -286q-166 -103 -411 -103q-78 0 -158 12q39 -149 219 -149q168 0 289 114zM719 825
q-96 0 -176 -50t-119 -136q38 -2 84 -2q150 0 238 30q90 31 90 76q0 82 -117 82zM801 1198l-262 361l252 147l200 -387z" />
    <glyph glyph-name="eacute" unicode="&#xe9;" 
d="M905 362l162 -172q-98 -116 -222 -162q-123 -46 -282 -46q-206 0 -339 128q-132 127 -132 332q0 284 182 466q184 184 457 184q191 0 297 -80q105 -79 105 -238q0 -182 -167 -286q-166 -103 -411 -103q-78 0 -158 12q39 -149 219 -149q168 0 289 114zM719 825
q-96 0 -176 -50t-119 -136q38 -2 84 -2q150 0 238 30q90 31 90 76q0 82 -117 82zM1143 1513l-303 -305l-189 166l289 332z" />
    <glyph glyph-name="ecircumflex" unicode="&#xea;" 
d="M905 362l162 -172q-98 -116 -222 -162q-123 -46 -282 -46q-206 0 -339 128q-132 127 -132 332q0 284 182 466q184 184 457 184q191 0 297 -80q105 -79 105 -238q0 -182 -167 -286q-166 -103 -411 -103q-78 0 -158 12q39 -149 219 -149q168 0 289 114zM719 825
q-96 0 -176 -50t-119 -136q38 -2 84 -2q150 0 238 30q90 31 90 76q0 82 -117 82zM854 1630l301 -293l-166 -166l-168 166l-237 -161l-121 184l383 270h8z" />
    <glyph glyph-name="edieresis" unicode="&#xeb;" 
d="M905 362l162 -172q-98 -116 -222 -162q-123 -46 -282 -46q-206 0 -339 128q-132 127 -132 332q0 284 182 466q184 184 457 184q191 0 297 -80q105 -79 105 -238q0 -182 -167 -286q-166 -103 -411 -103q-78 0 -158 12q39 -149 219 -149q168 0 289 114zM719 825
q-96 0 -176 -50t-119 -136q38 -2 84 -2q150 0 238 30q90 31 90 76q0 82 -117 82zM791 1350q0 61 44 105t109 44t112 -44q46 -43 46 -105t-46 -104t-112 -42q-65 0 -109 41t-44 105zM389 1350q0 61 44 105t110 44q64 0 111 -44q46 -43 46 -105t-46 -104t-111 -42
q-66 0 -110 41t-44 105z" />
    <glyph glyph-name="igrave" unicode="&#xec;" horiz-adv-x="512" 
d="M70 0l196 1065h283l-197 -1065h-282zM438 1198l-262 361l252 147l201 -387z" />
    <glyph glyph-name="iacute" unicode="&#xed;" horiz-adv-x="512" 
d="M70 0l196 1065h283l-197 -1065h-282zM831 1513l-303 -305l-188 166l289 332z" />
    <glyph glyph-name="icircumflex" unicode="&#xee;" horiz-adv-x="512" 
d="M70 0l196 1065h283l-197 -1065h-282zM500 1630l301 -293l-166 -166l-168 166l-238 -161l-120 184l383 270h8z" />
    <glyph glyph-name="idieresis" unicode="&#xef;" horiz-adv-x="512" 
d="M70 0l198 1065h281l-197 -1065h-282zM489 1350q0 60 45 105q44 44 109 44t112 -44q46 -43 46 -105t-46 -104q-47 -42 -112 -42t-109 41q-45 42 -45 105zM121 1350q0 61 44 105t109 44t112 -44q46 -43 46 -105t-46 -104t-112 -42q-65 0 -109 41t-44 105z" />
    <glyph glyph-name="eth" unicode="&#xf0;" horiz-adv-x="1193" 
d="M756 1597l178 -79l-53 -86q329 -173 329 -586q0 -215 -55 -381q-55 -167 -150 -271t-214 -157q-120 -53 -252 -53q-224 0 -350 128t-126 316q0 154 57 279q58 126 150 201q96 78 209 118q115 41 240 41q115 0 194 -53q-40 128 -170 196l-65 -108l-180 80l55 90
q-38 7 -117 14l113 246q73 -11 147 -31zM360 475q0 -104 59 -160q58 -55 150 -55q150 0 247 124t97 278v18v28v21q-28 41 -83 61q-57 21 -113 21q-146 0 -251 -96q-106 -97 -106 -240z" />
    <glyph glyph-name="ntilde" unicode="&#xf1;" horiz-adv-x="1140" 
d="M49 0l199 1065h282l-10 -68q107 88 260 88q361 0 361 -323q0 -81 -17 -166l-118 -596h-283l117 582q8 43 8 80q1 82 -37 119q-40 38 -123 38q-57 0 -120 -33q-62 -32 -107 -94l-131 -692h-281zM524 1227l-114 137q51 68 121 113q73 47 147 47q56 0 132 -40t116 -40
q72 0 137 55l92 -153q-128 -148 -250 -148q-58 0 -135 40t-123 40q-55 0 -123 -51z" />
    <glyph glyph-name="ograve" unicode="&#xf2;" horiz-adv-x="1202" 
d="M92 432q0 280 186 468q186 187 453 187q222 0 350 -125q129 -126 129 -321q0 -286 -177 -472q-176 -185 -458 -185q-229 0 -356 126t-127 322zM389 485q0 -113 58 -174t171 -61q112 0 203 100q92 101 92 256q0 93 -55 154t-158 61q-118 0 -215 -95q-96 -94 -96 -241z
M827 1198l-262 361l252 147l201 -387z" />
    <glyph glyph-name="oacute" unicode="&#xf3;" horiz-adv-x="1202" 
d="M92 432q0 280 186 468q186 187 453 187q222 0 350 -125q129 -126 129 -321q0 -286 -177 -472q-176 -185 -458 -185q-229 0 -356 126t-127 322zM389 485q0 -113 58 -174t171 -61q112 0 203 100q92 101 92 256q0 93 -55 154t-158 61q-118 0 -215 -95q-96 -94 -96 -241z
M1186 1513l-303 -305l-189 166l289 332z" />
    <glyph glyph-name="ocircumflex" unicode="&#xf4;" horiz-adv-x="1202" 
d="M92 432q0 280 186 468q186 187 453 187q222 0 350 -125q129 -126 129 -321q0 -286 -177 -472q-176 -185 -458 -185q-229 0 -356 126t-127 322zM389 485q0 -113 58 -174t171 -61q112 0 203 100q92 101 92 256q0 93 -55 154t-158 61q-118 0 -215 -95q-96 -94 -96 -241z
M838 1630l301 -293l-166 -166l-168 166l-238 -161l-121 184l383 270h9z" />
    <glyph glyph-name="otilde" unicode="&#xf5;" horiz-adv-x="1202" 
d="M92 432q0 280 186 468q186 187 453 187q222 0 350 -125q129 -126 129 -321q0 -286 -177 -472q-176 -185 -458 -185q-229 0 -356 126t-127 322zM389 485q0 -113 58 -174t171 -61q112 0 203 100q92 101 92 256q0 93 -55 154t-158 61q-118 0 -215 -95q-96 -94 -96 -241z
M555 1227l-115 137q50 66 122 113q73 47 147 47q56 0 132 -40t115 -40q73 0 138 55l92 -153q-128 -148 -250 -148q-56 0 -135 40t-123 40q-56 0 -123 -51z" />
    <glyph glyph-name="odieresis" unicode="&#xf6;" horiz-adv-x="1202" 
d="M92 432q0 280 186 468q186 187 453 187q222 0 350 -125q129 -126 129 -321q0 -286 -177 -472q-176 -185 -458 -185q-229 0 -356 126t-127 322zM389 485q0 -113 58 -174t171 -61q112 0 203 100q92 101 92 256q0 93 -55 154t-158 61q-118 0 -215 -95q-96 -94 -96 -241z
M827 1350q0 61 44 105t110 44q65 0 112 -44q46 -43 46 -105t-46 -104q-47 -42 -112 -42q-66 0 -110 41t-44 105zM426 1350q0 61 44 105t110 44q64 0 111 -44q46 -43 46 -105t-46 -104q-47 -42 -111 -42q-66 0 -110 41t-44 105z" />
    <glyph glyph-name="divide" unicode="&#xf7;" horiz-adv-x="1136" 
d="M494 1112q0 54 47 101t121 47q68 0 117 -47q48 -47 48 -101q0 -59 -47 -104q-46 -45 -118 -45q-75 0 -122 44q-46 43 -46 105zM494 358q0 61 46 104q47 44 122 44q72 0 118 -45q47 -45 47 -103q0 -61 -47 -106q-46 -45 -118 -45q-75 0 -122 44q-46 43 -46 107zM154 606
v258h1013v-258h-1013z" />
    <glyph glyph-name="oslash" unicode="&#xf8;" horiz-adv-x="1236" 
d="M133 440q0 164 74 310q73 145 226 241t351 96q169 0 267 -55l123 121l186 -176l-115 -113q66 -96 66 -235q0 -270 -173 -458q-172 -187 -489 -187q-127 0 -254 51l-133 -137l-186 184l119 123q-62 109 -62 235zM428 471q0 -10 1 -19t1 -18l391 373q-27 14 -78 14
q-131 0 -223 -99q-92 -100 -92 -251zM1016 600q0 11 -1 21t-1 18l-381 -377q33 -12 72 -12q146 0 228 107q83 109 83 243z" />
    <glyph glyph-name="ugrave" unicode="&#xf9;" horiz-adv-x="1126" 
d="M1176 1065l-199 -1065h-283l21 90q-94 -106 -262 -106q-172 0 -263 82q-92 83 -92 225q0 72 19 172l123 602h282l-119 -580q-8 -42 -8 -82q1 -73 33 -114q30 -39 104 -39q156 0 234 141l127 674h283zM801 1198l-262 361l252 147l200 -387z" />
    <glyph glyph-name="uacute" unicode="&#xfa;" horiz-adv-x="1126" 
d="M1176 1065l-199 -1065h-283l21 90q-94 -106 -262 -106q-172 0 -263 82q-92 83 -92 225q0 72 19 172l123 602h282l-119 -580q-8 -42 -8 -82q1 -73 33 -114q30 -39 104 -39q156 0 234 141l127 674h283zM1114 1513l-303 -305l-188 166l288 332z" />
    <glyph glyph-name="ucircumflex" unicode="&#xfb;" horiz-adv-x="1126" 
d="M1176 1065l-199 -1065h-283l21 90q-94 -106 -262 -106q-172 0 -263 82q-92 83 -92 225q0 72 19 172l123 602h282l-119 -580q-8 -42 -8 -82q1 -73 33 -114q30 -39 104 -39q156 0 234 141l127 674h283zM795 1630l301 -293l-166 -166l-168 166l-238 -161l-121 184l383 270h9
z" />
    <glyph glyph-name="udieresis" unicode="&#xfc;" horiz-adv-x="1126" 
d="M1176 1065l-199 -1065h-283l21 90q-94 -106 -262 -106q-172 0 -263 82q-92 83 -92 225q0 72 19 172l123 602h282l-119 -580q-8 -42 -8 -82q1 -73 33 -114q30 -39 104 -39q156 0 234 141l127 674h283zM786 1350q0 61 44 105t110 44q65 0 112 -44q46 -43 46 -105t-46 -104
t-112 -42t-110 41t-44 105zM385 1350q0 61 44 105t110 44q64 0 111 -44q46 -43 46 -105t-46 -104t-111 -42q-66 0 -110 41t-44 105z" />
    <glyph glyph-name="yacute" unicode="&#xfd;" horiz-adv-x="1077" 
d="M8 -379l152 244q22 -17 41 -17q29 0 67 37q39 38 74 101l61 114l-303 965h308l182 -653l352 653h309l-579 -1016q-152 -264 -260 -371q-107 -106 -236 -106q-109 0 -168 49zM1126 1513l-303 -305l-188 166l289 332z" />
    <glyph glyph-name="thorn" unicode="&#xfe;" horiz-adv-x="1138" 
d="M-37 -410l350 1905h279l-90 -485q93 77 239 77q204 0 308 -110t104 -287q0 -322 -177 -514t-421 -192q-160 0 -233 53l-82 -447h-277zM659 811q-135 0 -217 -121l-63 -340q18 -39 61 -64q44 -26 101 -26q126 0 221 92q94 91 94 254q0 205 -197 205z" />
    <glyph glyph-name="ydieresis" unicode="&#xff;" horiz-adv-x="1077" 
d="M8 -379l152 244q22 -17 41 -17q29 0 67 37q39 38 74 101l61 114l-303 965h308l182 -653l352 653h309l-579 -1016q-152 -264 -260 -371q-107 -106 -236 -106q-109 0 -168 49zM752 1350q0 61 44 105t109 44t112 -44q46 -43 46 -105t-46 -104q-47 -42 -112 -42t-109 41
t-44 105zM350 1350q0 61 44 105t110 44q64 0 111 -44q46 -43 46 -105t-46 -104q-47 -42 -111 -42q-66 0 -110 41t-44 105z" />
    <glyph glyph-name="Amacron" unicode="&#x100;" horiz-adv-x="1476" 
d="M-59 0l907 1434h235l351 -1434h-318l-65 266h-590l-168 -266h-352zM887 952l-262 -417h362zM680 1577v246h643v-246h-643z" />
    <glyph glyph-name="amacron" unicode="&#x101;" horiz-adv-x="1179" 
d="M766 0l20 96q-85 -106 -286 -106q-186 0 -297 121t-111 313q0 312 163 487q164 176 421 176q194 0 266 -86l14 64h273l-199 -1065h-264zM592 256q68 0 131 36q64 36 98 93l66 330q-60 106 -199 106q-131 0 -215 -95q-84 -94 -84 -253q0 -103 57 -160t146 -57zM498 1249
v246h602v-246h-602z" />
    <glyph glyph-name="Abreve" unicode="&#x102;" horiz-adv-x="1476" 
d="M-59 0l907 1434h235l351 -1434h-318l-65 266h-590l-168 -266h-352zM887 952l-262 -417h362zM582 1776l155 149q96 -123 269 -123q176 0 311 123l90 -176q-76 -94 -192 -154q-114 -59 -240 -59q-128 0 -230 66q-101 65 -163 174z" />
    <glyph glyph-name="abreve" unicode="&#x103;" horiz-adv-x="1179" 
d="M766 0l20 96q-85 -106 -286 -106q-186 0 -297 121t-111 313q0 312 163 487q164 176 421 176q194 0 266 -86l14 64h273l-199 -1065h-264zM592 256q68 0 131 36q64 36 98 93l66 330q-60 106 -199 106q-131 0 -215 -95q-84 -94 -84 -253q0 -103 57 -160t146 -57zM471 1456
l158 146q74 -107 192 -107q67 0 137 31q68 30 109 71l84 -159q-44 -54 -87 -93q-38 -35 -109 -65q-73 -31 -156 -31q-113 0 -204 63q-92 63 -124 144z" />
    <glyph glyph-name="Aogonek" unicode="&#x104;" horiz-adv-x="1476" 
d="M1317 -143l55 -185q-33 -33 -107 -57q-78 -25 -155 -25q-117 0 -189 42q-73 43 -73 124q0 175 266 252l-63 258h-590l-168 -266h-352l907 1434h235l351 -1434h-31q-91 0 -158 -39t-67 -82t53 -43q37 0 86 21zM887 952l-262 -417h362z" />
    <glyph glyph-name="aogonek" unicode="&#x105;" horiz-adv-x="1179" 
d="M944 -143l55 -185q-33 -33 -107 -57q-78 -25 -155 -25q-118 0 -189 43q-73 44 -73 131q0 193 295 256l16 76q-85 -106 -286 -106q-186 0 -297 121t-111 313q0 312 163 487q164 176 421 176q194 0 266 -86l14 64h273l-191 -1018h2l-10 -47q-90 0 -168 -33t-78 -80
q0 -26 22 -39q21 -12 46 -12q46 0 92 21zM592 256q68 0 131 36q64 36 98 93l66 330q-60 106 -199 106q-131 0 -215 -95q-84 -94 -84 -253q0 -103 57 -160t146 -57z" />
    <glyph glyph-name="Cacute" unicode="&#x106;" horiz-adv-x="1445" 
d="M1272 463l188 -199q-94 -136 -252 -213q-156 -76 -364 -76q-108 0 -212 23q-100 22 -193 74q-90 50 -158 127t-108 187t-40 249q0 349 242 586q241 237 622 237q384 0 551 -278l-229 -183q-124 154 -342 154q-228 0 -371 -142t-143 -350q0 -166 108 -271t287 -105
q261 0 414 180zM1421 1716l-501 -209l-89 219l480 269z" />
    <glyph glyph-name="cacute" unicode="&#x107;" horiz-adv-x="1087" 
d="M895 385l188 -168q-95 -132 -217 -182q-123 -51 -297 -51q-208 0 -342 127q-135 127 -135 331q0 282 180 464q180 181 449 181q184 0 291 -79q108 -80 137 -197l-217 -133q-73 143 -223 143q-134 0 -227 -95q-93 -94 -93 -247q0 -109 69 -169t165 -60q182 0 272 135z
M1188 1513l-303 -305l-189 166l289 332z" />
    <glyph glyph-name="Ccircumflex" unicode="&#x108;" horiz-adv-x="1445" 
d="M1272 463l188 -199q-94 -136 -252 -213q-156 -76 -364 -76q-108 0 -212 23q-100 22 -193 74q-90 50 -158 127t-108 187t-40 249q0 349 242 586q241 237 622 237q384 0 551 -278l-229 -183q-124 154 -342 154q-228 0 -371 -142t-143 -350q0 -166 108 -271t287 -105
q261 0 414 180zM1044 1935l345 -252l-140 -161l-231 155l-293 -155l-82 182l393 231h8z" />
    <glyph glyph-name="ccircumflex" unicode="&#x109;" horiz-adv-x="1087" 
d="M895 385l188 -168q-95 -132 -217 -182q-123 -51 -297 -51q-208 0 -342 127q-135 127 -135 331q0 282 180 464q180 181 449 181q184 0 291 -79q108 -80 137 -197l-217 -133q-73 143 -223 143q-134 0 -227 -95q-93 -94 -93 -247q0 -109 69 -169t165 -60q182 0 272 135z
M809 1630l301 -293l-166 -166l-168 166l-237 -161l-121 184l383 270h8z" />
    <glyph glyph-name="Cdotaccent" unicode="&#x10a;" horiz-adv-x="1445" 
d="M1272 463l188 -199q-94 -136 -252 -213q-156 -76 -364 -76q-108 0 -212 23q-100 22 -193 74q-90 50 -158 127t-108 187t-40 249q0 349 242 586q241 237 622 237q384 0 551 -278l-229 -183q-124 154 -342 154q-228 0 -371 -142t-143 -350q0 -166 108 -271t287 -105
q261 0 414 180zM889 1698q0 67 47 114q48 48 117 48q71 0 122 -48q50 -47 50 -114q0 -66 -50 -111q-49 -45 -122 -45q-71 0 -117 45q-47 45 -47 111z" />
    <glyph glyph-name="cdotaccent" unicode="&#x10b;" horiz-adv-x="1087" 
d="M895 385l188 -168q-95 -132 -217 -182q-123 -51 -297 -51q-208 0 -342 127q-135 127 -135 331q0 282 180 464q180 181 449 181q184 0 291 -79q108 -80 137 -197l-217 -133q-73 143 -223 143q-134 0 -227 -95q-93 -94 -93 -247q0 -109 69 -169t165 -60q182 0 272 135z
M633 1350q0 61 44 105t109 44t112 -44q46 -43 46 -105t-46 -104t-112 -42q-65 0 -109 41t-44 105z" />
    <glyph glyph-name="Ccaron" unicode="&#x10c;" horiz-adv-x="1445" 
d="M1272 463l188 -199q-94 -136 -252 -213q-156 -76 -364 -76q-108 0 -212 23q-100 22 -193 74q-90 50 -158 127t-108 187t-40 249q0 349 242 586q241 237 622 237q384 0 551 -278l-229 -183q-124 154 -342 154q-228 0 -371 -142t-143 -350q0 -166 108 -271t287 -105
q261 0 414 180zM985 1522l-344 252l139 161l232 -155l293 155l81 -182l-393 -231h-8z" />
    <glyph glyph-name="ccaron" unicode="&#x10d;" horiz-adv-x="1087" 
d="M895 385l188 -168q-95 -132 -217 -182q-123 -51 -297 -51q-208 0 -342 127q-135 127 -135 331q0 282 180 464q180 181 449 181q184 0 291 -79q108 -80 137 -197l-217 -133q-73 143 -223 143q-134 0 -227 -95q-93 -94 -93 -247q0 -109 69 -169t165 -60q182 0 272 135z
M766 1225l-301 293l166 165l168 -165l237 161l121 -184l-383 -270h-8z" />
    <glyph glyph-name="Dcaron" unicode="&#x10e;" horiz-adv-x="1474" 
d="M82 0l278 1434h455q368 0 538 -158q169 -157 169 -424q0 -422 -270 -637q-271 -215 -746 -215h-424zM754 1137h-133l-164 -840h133q295 0 449 133q155 134 155 391q0 171 -111 243q-113 73 -329 73zM868 1522l-344 252l140 161l231 -155l293 155l82 -182l-393 -231h-9z
" />
    <glyph glyph-name="dcaron" unicode="&#x10f;" horiz-adv-x="1185" 
d="M774 0l21 96q-85 -106 -283 -106q-192 0 -306 118t-114 308q0 205 93 361q94 158 236 234t302 76q161 0 227 -51l84 459h281l-277 -1495h-264zM610 256q140 0 219 129l68 363q-49 73 -174 73q-148 0 -241 -99t-93 -257q0 -209 221 -209zM1485 1497h305q10 -26 10 -106
q0 -242 -325 -416l-119 123q151 124 151 270q0 89 -22 129z" />
    <glyph glyph-name="Dcroat" unicode="&#x110;" horiz-adv-x="1609" 
d="M102 584l52 264h227l115 586h454q370 0 536 -159q167 -159 167 -427q0 -396 -256 -622t-756 -226h-424l113 584h-228zM887 1137h-133l-56 -289h324l-51 -264h-324l-55 -287h133q309 0 453 144q143 143 143 380q0 169 -102 242q-103 74 -332 74z" />
    <glyph glyph-name="dcroat" unicode="&#x111;" horiz-adv-x="1159" 
d="M1053 1393l20 102h281l-17 -102h93l-52 -267h-92l-209 -1126h-264l21 96q-85 -106 -283 -106q-192 0 -306 118t-114 308q0 205 93 361q94 158 236 234t302 76q161 0 227 -51l12 90h-233l51 267h234zM649 256q139 0 219 129l68 363q-49 73 -174 73q-148 0 -241 -99
t-93 -257q0 -209 221 -209z" />
    <glyph glyph-name="Emacron" unicode="&#x112;" horiz-adv-x="1329" 
d="M82 0l278 1434h1096l-57 -297h-778l-52 -267h727l-57 -286h-727l-55 -287h796l-57 -297h-1114zM625 1577v246h643v-246h-643z" />
    <glyph glyph-name="emacron" unicode="&#x113;" 
d="M905 362l162 -172q-98 -116 -222 -162q-123 -46 -282 -46q-206 0 -339 128q-132 127 -132 332q0 284 182 466q184 184 457 184q191 0 297 -80q105 -79 105 -238q0 -182 -167 -286q-166 -103 -411 -103q-78 0 -158 12q39 -149 219 -149q168 0 289 114zM719 825
q-96 0 -176 -50t-119 -136q38 -2 84 -2q150 0 238 30q90 31 90 76q0 82 -117 82zM494 1249v246h602v-246h-602z" />
    <glyph glyph-name="Edotaccent" unicode="&#x116;" horiz-adv-x="1329" 
d="M82 0l278 1434h1096l-57 -297h-778l-52 -267h727l-57 -286h-727l-55 -287h796l-57 -297h-1114zM786 1698q0 66 48 114t116 48q71 0 122 -48q50 -47 50 -114q0 -66 -50 -111t-122 -45q-70 0 -116 45q-48 46 -48 111z" />
    <glyph glyph-name="edotaccent" unicode="&#x117;" 
d="M905 362l162 -172q-98 -116 -222 -162q-123 -46 -282 -46q-206 0 -339 128q-132 127 -132 332q0 284 182 466q184 184 457 184q191 0 297 -80q105 -79 105 -238q0 -182 -167 -286q-166 -103 -411 -103q-78 0 -158 12q39 -149 219 -149q168 0 289 114zM719 825
q-96 0 -176 -50t-119 -136q38 -2 84 -2q150 0 238 30q90 31 90 76q0 82 -117 82zM657 1350q0 61 44 105t110 44q65 0 112 -44q46 -43 46 -105t-46 -104q-47 -42 -112 -42q-66 0 -110 41t-44 105z" />
    <glyph glyph-name="Eogonek" unicode="&#x118;" horiz-adv-x="1329" 
d="M82 0l278 1434h1096l-57 -297h-778l-52 -267h727l-57 -286h-727l-55 -287h796l-57 -297h-29q-83 -4 -145 -42q-61 -37 -61 -79q0 -43 53 -43q36 0 86 21l55 -185q-33 -33 -107 -57q-78 -25 -155 -25q-118 0 -190 42t-72 124q0 164 237 244h-786z" />
    <glyph glyph-name="eogonek" unicode="&#x119;" 
d="M922 66q-10 -7 -66 -41q-60 -37 -72 -45q-26 -18 -47 -43q-22 -26 -22 -50q0 -27 21 -39t46 -12q46 0 92 21l56 -185q-33 -33 -108 -57q-78 -25 -154 -25q-119 0 -190 43q-72 43 -72 131q0 135 217 220q-30 -2 -60 -2q-206 0 -339 128q-132 127 -132 332q0 284 182 466
q184 184 457 184q191 0 297 -80q105 -79 105 -238q0 -142 -108 -240q-109 -98 -274 -131q-167 -33 -354 -6q39 -149 219 -149q168 0 289 114l162 -172q-55 -63 -145 -124zM719 825q-96 0 -176 -50t-119 -136q183 -10 298 20q114 30 114 84q0 82 -117 82z" />
    <glyph glyph-name="Ecaron" unicode="&#x11a;" horiz-adv-x="1329" 
d="M82 0l278 1434h1096l-57 -297h-778l-52 -267h727l-57 -286h-727l-55 -287h796l-57 -297h-1114zM930 1522l-344 252l139 161l231 -155l293 155l82 -182l-393 -231h-8z" />
    <glyph glyph-name="ecaron" unicode="&#x11b;" 
d="M905 362l162 -172q-98 -116 -222 -162q-123 -46 -282 -46q-206 0 -339 128q-132 127 -132 332q0 284 182 466q184 184 457 184q191 0 297 -80q105 -79 105 -238q0 -182 -167 -286q-166 -103 -411 -103q-78 0 -158 12q39 -149 219 -149q168 0 289 114zM719 825
q-96 0 -176 -50t-119 -136q38 -2 84 -2q150 0 238 30q90 31 90 76q0 82 -117 82zM762 1225l-301 293l166 165l168 -165l237 161l121 -184l-383 -270h-8z" />
    <glyph glyph-name="Gcircumflex" unicode="&#x11c;" horiz-adv-x="1497" 
d="M797 516l55 287h668l-111 -613q-123 -109 -277 -161q-160 -54 -311 -54q-321 0 -505 178q-183 177 -183 459q0 359 244 603q243 243 629 243q376 0 538 -274l-237 -180q-111 147 -320 147q-228 0 -376 -139t-148 -350q0 -166 105 -273q105 -106 276 -106q174 0 284 82
l31 151h-362zM1061 1935l344 -252l-139 -161l-232 155l-293 -155l-82 182l394 231h8z" />
    <glyph glyph-name="gcircumflex" unicode="&#x11d;" horiz-adv-x="1175" 
d="M1225 1065l-181 -973q-50 -261 -197 -390q-148 -130 -380 -130q-170 0 -273 76t-124 190l237 121q57 -121 187 -121q219 0 258 195l10 47q-80 -96 -258 -96q-190 0 -301 127t-111 321q0 294 175 472q176 179 413 179q110 0 163 -18q51 -17 89 -57l10 57h283zM604 250
q63 0 123 39q59 38 88 90l66 340q-39 98 -172 98q-137 0 -228 -99q-92 -100 -92 -241q0 -227 215 -227zM821 1630l301 -293l-166 -166l-168 166l-237 -161l-121 184l383 270h8z" />
    <glyph glyph-name="Gbreve" unicode="&#x11e;" horiz-adv-x="1497" 
d="M797 516l55 287h668l-111 -613q-123 -109 -277 -161q-160 -54 -311 -54q-321 0 -505 178q-183 177 -183 459q0 359 244 603q243 243 629 243q376 0 538 -274l-237 -180q-111 147 -320 147q-228 0 -376 -139t-148 -350q0 -166 105 -273q105 -106 276 -106q174 0 284 82
l31 151h-362zM664 1776l155 149q96 -123 268 -123q177 0 312 123l90 -176q-76 -94 -192 -154q-114 -59 -240 -59q-128 0 -230 66q-101 65 -163 174z" />
    <glyph glyph-name="gbreve" unicode="&#x11f;" horiz-adv-x="1175" 
d="M1225 1065l-181 -973q-50 -261 -197 -390q-148 -130 -380 -130q-170 0 -273 76t-124 190l237 121q57 -121 187 -121q219 0 258 195l10 47q-80 -96 -258 -96q-190 0 -301 127t-111 321q0 294 175 472q176 179 413 179q110 0 163 -18q51 -17 89 -57l10 57h283zM604 250
q63 0 123 39q59 38 88 90l66 340q-39 98 -172 98q-137 0 -228 -99q-92 -100 -92 -241q0 -227 215 -227zM489 1456l158 146q74 -107 193 -107q67 0 137 31q67 30 108 71l84 -159q-44 -54 -87 -93q-39 -35 -108 -65q-73 -31 -157 -31q-113 0 -204 63q-92 63 -124 144z" />
    <glyph glyph-name="Gdotaccent" unicode="&#x120;" horiz-adv-x="1497" 
d="M797 516l55 287h668l-111 -613q-123 -109 -277 -161q-160 -54 -311 -54q-321 0 -505 178q-183 177 -183 459q0 359 244 603q243 243 629 243q376 0 538 -274l-237 -180q-111 147 -320 147q-228 0 -376 -139t-148 -350q0 -166 105 -273q105 -106 276 -106q174 0 284 82
l31 151h-362zM889 1698q0 67 47 114q48 48 117 48q71 0 122 -48q50 -47 50 -114q0 -66 -50 -111q-49 -45 -122 -45q-71 0 -117 45q-47 45 -47 111z" />
    <glyph glyph-name="gdotaccent" unicode="&#x121;" horiz-adv-x="1175" 
d="M1225 1065l-181 -973q-50 -261 -197 -390q-148 -130 -380 -130q-170 0 -273 76t-124 190l237 121q57 -121 187 -121q219 0 258 195l10 47q-80 -96 -258 -96q-190 0 -301 127t-111 321q0 294 175 472q176 179 413 179q110 0 163 -18q51 -17 89 -57l10 57h283zM604 250
q63 0 123 39q59 38 88 90l66 340q-39 98 -172 98q-137 0 -228 -99q-92 -100 -92 -241q0 -227 215 -227zM641 1350q0 61 44 105t110 44q64 0 111 -44q46 -43 46 -105t-46 -104t-111 -42q-66 0 -110 41t-44 105z" />
    <glyph glyph-name="Gcommaaccent" unicode="&#x122;" horiz-adv-x="1497" 
d="M797 516l55 287h668l-111 -613q-123 -109 -277 -161q-160 -54 -311 -54q-321 0 -505 178q-183 177 -183 459q0 359 244 603q243 243 629 243q376 0 538 -274l-237 -180q-111 147 -320 147q-228 0 -376 -139t-148 -350q0 -166 105 -273q105 -106 276 -106q174 0 284 82
l31 151h-362zM571 -215l263 152q73 -63 73 -160q0 -124 -90 -223q-88 -97 -205 -160l-116 125q112 99 112 168q0 43 -37 98z" />
    <glyph glyph-name="gcommaaccent" unicode="&#x123;" horiz-adv-x="1175" 
d="M1061 1278l-279 -141q-73 63 -73 159q0 126 87 225q86 98 199 158l123 -118q-104 -89 -104 -172q0 -49 47 -111zM1225 1065l-181 -973q-50 -261 -197 -390q-148 -130 -380 -130q-170 0 -273 76t-124 190l237 121q57 -121 187 -121q219 0 258 195l10 47q-80 -96 -258 -96
q-190 0 -301 127t-111 321q0 294 175 472q176 179 413 179q110 0 163 -18q51 -17 89 -57l10 57h283zM604 250q63 0 123 39q59 38 88 90l66 340q-39 98 -172 98q-137 0 -228 -99q-92 -100 -92 -241q0 -227 215 -227z" />
    <glyph glyph-name="Hcircumflex" unicode="&#x124;" horiz-adv-x="1538" 
d="M1036 0l111 573h-637l-111 -573h-317l278 1434h318l-109 -564h637l109 564h317l-278 -1434h-318zM1075 1935l344 -252l-139 -161l-231 155l-293 -155l-82 182l393 231h8z" />
    <glyph glyph-name="hcircumflex" unicode="&#x125;" horiz-adv-x="1136" 
d="M49 0l275 1495h282l-90 -498q107 88 260 88q361 0 361 -323q0 -81 -17 -166l-116 -596h-283l115 582q8 43 8 80q1 82 -37 119q-40 38 -123 38q-126 0 -227 -137l-127 -682h-281zM516 1935l344 -252l-139 -161l-232 155l-292 -155l-82 182l393 231h8z" />
    <glyph glyph-name="Hbar" unicode="&#x126;" horiz-adv-x="1538" 
d="M150 1028l47 246h133l30 160h318l-31 -160h637l31 160h317l-30 -160h133l-47 -246h-134l-200 -1028h-318l111 573h-637l-111 -573h-317l201 1028h-133zM569 870h637l31 158h-637z" />
    <glyph glyph-name="hbar" unicode="&#x127;" horiz-adv-x="1193" 
d="M596 1126l-23 -129q107 88 261 88q360 0 360 -323q0 -86 -16 -166l-117 -596h-283l115 582q8 43 8 80q1 82 -37 119q-40 38 -123 38q-126 0 -227 -137l-127 -682h-281l205 1126h-92l51 267h90l21 102h283l-19 -102h234l-52 -267h-231z" />
    <glyph glyph-name="Imacron" unicode="&#x12a;" horiz-adv-x="604" 
d="M92 0l279 1434h317l-278 -1434h-318zM240 1577v246h643v-246h-643z" />
    <glyph glyph-name="imacron" unicode="&#x12b;" horiz-adv-x="512" 
d="M70 0l196 1065h283l-197 -1065h-282zM133 1249v246h602v-246h-602z" />
    <glyph glyph-name="Iogonek" unicode="&#x12e;" horiz-adv-x="604" 
d="M92 0l279 1434h317l-278 -1434h-4q-90 0 -158 -39t-68 -82t53 -43q37 0 86 21l56 -185q-33 -33 -108 -57q-78 -25 -154 -25q-118 0 -190 42q-73 43 -73 124q0 160 244 244h-2z" />
    <glyph glyph-name="iogonek" unicode="&#x12f;" horiz-adv-x="538" 
d="M324 -143l55 -185q-33 -33 -108 -57q-78 -25 -154 -25q-119 0 -190 43q-72 43 -72 131q0 187 280 254l195 1047h282l-196 -1065h-25q-89 -5 -158 -36q-69 -32 -69 -77q0 -27 21 -39t46 -12q47 0 93 21zM360 1350q0 61 44 105t110 44q16 0 37 -4h10q64 0 102 -35
q37 -34 37 -90q0 -74 -57 -124q-58 -50 -139 -50q-69 0 -106 34q-38 35 -38 91v29z" />
    <glyph glyph-name="Idotaccent" unicode="&#x130;" horiz-adv-x="604" 
d="M92 0l279 1434h317l-278 -1434h-318zM412 1698q0 67 47 114q48 48 116 48q71 0 122 -48t51 -114q0 -65 -51 -111q-49 -45 -122 -45q-69 0 -116 45t-47 111z" />
    <glyph glyph-name="dotlessi" unicode="&#x131;" horiz-adv-x="512" 
d="M70 0l196 1065h283l-197 -1065h-282z" />
    <glyph glyph-name="Jcircumflex" unicode="&#x134;" horiz-adv-x="995" 
d="M1100 1434l-191 -985q-95 -474 -510 -474q-319 0 -415 279l239 160q40 -76 84 -109q43 -33 105 -33q78 0 123 59t69 179l180 924h316zM1001 1935l345 -252l-140 -161l-231 155l-293 -155l-82 182l393 231h8z" />
    <glyph glyph-name="jcircumflex" unicode="&#x135;" horiz-adv-x="538" 
d="M606 1065l-194 -1061q-82 -432 -435 -432q-269 0 -319 246l264 100q21 -70 80 -70q99 0 127 162l195 1055h282zM553 1630l301 -293l-166 -166l-168 166l-237 -161l-121 184l383 270h8z" />
    <glyph glyph-name="Kcommaaccent" unicode="&#x136;" horiz-adv-x="1435" 
d="M82 0l278 1434h318l-111 -568l633 568h442l-729 -662l492 -772h-379l-371 580l-168 -138l-88 -442h-317zM449 -215l262 152q73 -63 73 -160q0 -124 -90 -223q-88 -97 -205 -160l-116 125q112 99 112 168q0 45 -36 98z" />
    <glyph glyph-name="kcommaaccent" unicode="&#x137;" horiz-adv-x="1044" 
d="M49 0l275 1495h282l-145 -790l385 360h385l-531 -483l324 -582h-344l-217 426l-64 -49l-69 -377h-281zM295 -205l278 142q74 -63 74 -160q0 -125 -87 -224q-87 -98 -200 -159l-122 119q104 89 104 172q0 48 -47 110z" />
    <glyph glyph-name="Lacute" unicode="&#x139;" horiz-adv-x="1265" 
d="M82 0l278 1434h318l-221 -1137h774l-57 -297h-1092zM1294 1716l-501 -209l-88 219l479 269z" />
    <glyph glyph-name="lacute" unicode="&#x13a;" horiz-adv-x="485" 
d="M57 0l277 1495h282l-276 -1495h-283zM1036 1757l-501 -209l-89 219l480 269z" />
    <glyph glyph-name="Lcommaaccent" unicode="&#x13b;" horiz-adv-x="1265" 
d="M82 0l278 1434h318l-221 -1137h774l-57 -297h-1092zM453 -215l262 152q73 -63 73 -160q0 -124 -90 -223q-89 -98 -204 -160l-117 125q112 99 112 168q0 45 -36 98z" />
    <glyph glyph-name="lcommaaccent" unicode="&#x13c;" horiz-adv-x="485" 
d="M57 0l277 1495h282l-276 -1495h-283zM10 -205l279 142q73 -63 73 -160q0 -125 -87 -224q-87 -100 -199 -159l-123 119q104 89 104 172q0 48 -47 110z" />
    <glyph glyph-name="Lcaron" unicode="&#x13d;" horiz-adv-x="1265" 
d="M82 0l278 1434h318l-221 -1137h774l-57 -297h-1092zM981 1436h305q10 -26 10 -107q0 -242 -325 -416l-119 123q152 125 152 271q0 88 -23 129z" />
    <glyph glyph-name="lcaron" unicode="&#x13e;" horiz-adv-x="778" 
d="M57 0l277 1495h282l-276 -1495h-283zM788 1497h306q10 -26 10 -106q0 -242 -326 -416l-119 123q152 125 152 270q0 88 -23 129z" />
    <glyph glyph-name="Ldot" unicode="&#x13f;" horiz-adv-x="1265" 
d="M82 0l278 1434h318l-221 -1137h774l-57 -297h-1092zM825 815q0 58 51 106q49 46 125 46q70 0 120 -47t50 -105q0 -64 -49 -110q-51 -48 -121 -48q-78 0 -127 46t-49 112z" />
    <glyph glyph-name="ldot" unicode="&#x140;" horiz-adv-x="741" 
d="M57 0l277 1495h282l-276 -1495h-283zM590 707q0 58 50 105q49 46 126 46q70 0 120 -47t50 -104q0 -65 -49 -111q-50 -47 -121 -47q-78 0 -127 46t-49 112z" />
    <glyph glyph-name="Lslash" unicode="&#x141;" horiz-adv-x="1273" 
d="M-8 223l67 346l185 117l145 748h318l-101 -519l426 269l-69 -346l-424 -269l-54 -272h775l-58 -297h-1091l65 340z" />
    <glyph glyph-name="lslash" unicode="&#x142;" horiz-adv-x="688" 
d="M55 276l66 349l219 139l139 731h281l-101 -530l248 157l-67 -348l-242 -153l-113 -621l-286 -2l80 422z" />
    <glyph glyph-name="Nacute" unicode="&#x143;" horiz-adv-x="1515" 
d="M1331 0h-246l-522 881l-172 -881h-309l278 1434h244l526 -881l170 881h310zM1438 1716l-502 -209l-88 219l479 269z" />
    <glyph glyph-name="nacute" unicode="&#x144;" horiz-adv-x="1140" 
d="M49 0l199 1065h282l-10 -68q107 88 260 88q361 0 361 -323q0 -81 -17 -166l-118 -596h-283l117 582q8 43 8 80q1 82 -37 119q-40 38 -123 38q-57 0 -120 -33q-62 -32 -107 -94l-131 -692h-281zM1163 1513l-303 -305l-188 166l289 332z" />
    <glyph glyph-name="Ncommaaccent" unicode="&#x145;" horiz-adv-x="1515" 
d="M1331 0h-246l-522 881l-172 -881h-309l278 1434h244l526 -881l170 881h310zM530 -215l263 152q73 -63 73 -160q0 -124 -90 -223q-88 -97 -205 -160l-116 125q112 99 112 168q0 43 -37 98z" />
    <glyph glyph-name="ncommaaccent" unicode="&#x146;" horiz-adv-x="1140" 
d="M49 0l199 1065h282l-10 -68q107 88 260 88q361 0 361 -323q0 -81 -17 -166l-118 -596h-283l117 582q8 43 8 80q1 82 -37 119q-40 38 -123 38q-57 0 -120 -33q-62 -32 -107 -94l-131 -692h-281zM317 -205l279 142q74 -63 74 -160q0 -125 -87 -224q-87 -98 -200 -159
l-123 119q105 90 105 172q0 47 -48 110z" />
    <glyph glyph-name="Ncaron" unicode="&#x147;" horiz-adv-x="1515" 
d="M1331 0h-246l-522 881l-172 -881h-309l278 1434h244l526 -881l170 881h310zM1004 1522l-345 252l140 161l231 -155l293 155l82 -182l-393 -231h-8z" />
    <glyph glyph-name="ncaron" unicode="&#x148;" horiz-adv-x="1140" 
d="M49 0l199 1065h282l-10 -68q107 88 260 88q361 0 361 -323q0 -81 -17 -166l-118 -596h-283l117 582q8 43 8 80q1 82 -37 119q-40 38 -123 38q-57 0 -120 -33q-62 -32 -107 -94l-131 -692h-281zM799 1225l-301 293l166 165l167 -165l238 161l121 -184l-383 -270h-8z" />
    <glyph glyph-name="Omacron" unicode="&#x14c;" horiz-adv-x="1599" 
d="M135 610q0 109 35 228q35 118 106 228q74 113 171 199q99 87 241 140t303 53q298 0 473 -175q176 -176 176 -458q0 -371 -245 -610q-246 -240 -607 -240q-291 0 -473 180q-180 179 -180 455zM465 637q0 -162 100 -258q101 -96 258 -96q206 0 347 151q141 152 141 361
q0 150 -96 254q-94 102 -259 102q-206 0 -349 -151q-142 -149 -142 -363zM756 1577v246h643v-246h-643z" />
    <glyph glyph-name="omacron" unicode="&#x14d;" horiz-adv-x="1202" 
d="M92 432q0 280 186 468q186 187 453 187q222 0 350 -125q129 -126 129 -321q0 -286 -177 -472q-176 -185 -458 -185q-229 0 -356 126t-127 322zM389 485q0 -113 58 -174t171 -61q112 0 203 100q92 101 92 256q0 93 -55 154t-158 61q-118 0 -215 -95q-96 -94 -96 -241z
M524 1249v246h602v-246h-602z" />
    <glyph glyph-name="Ohungarumlaut" unicode="&#x150;" horiz-adv-x="1599" 
d="M135 610q0 109 35 228q35 118 106 228q74 113 171 199q99 87 241 140t303 53q298 0 473 -175q176 -176 176 -458q0 -371 -245 -610q-246 -240 -607 -240q-291 0 -473 180q-180 179 -180 455zM465 637q0 -162 100 -258q101 -96 258 -96q206 0 347 151q141 152 141 361
q0 150 -96 254q-94 102 -259 102q-206 0 -349 -151q-142 -149 -142 -363zM1659 1675l-432 -202l-117 137l346 272zM1214 1765l-362 -268l-123 127l227 291z" />
    <glyph glyph-name="ohungarumlaut" unicode="&#x151;" horiz-adv-x="1202" 
d="M92 432q0 280 186 468q186 187 453 187q222 0 350 -125q129 -126 129 -321q0 -286 -177 -472q-176 -185 -458 -185q-229 0 -356 126t-127 322zM389 485q0 -113 58 -174t171 -61q112 0 203 100q92 101 92 256q0 93 -55 154t-158 61q-118 0 -215 -95q-96 -94 -96 -241z
M1004 1532l-293 -318l-144 138l262 336zM1372 1495l-319 -289l-131 150l292 309z" />
    <glyph glyph-name="OE" unicode="&#x152;" horiz-adv-x="2314" 
d="M1067 0l10 51q-139 -71 -307 -71q-277 0 -456 176t-179 452q0 111 34 225q36 120 105 228q73 115 170 201q98 88 243 142q144 54 310 54q188 0 334 -92l15 68h1095l-57 -297h-778l-52 -267h727l-55 -286h-727l-57 -287h796l-57 -297h-1114zM807 287q209 0 340 131
l113 573q-44 73 -123 117q-79 43 -172 43q-225 0 -362 -157q-136 -155 -136 -357q0 -158 97 -254q98 -96 243 -96z" />
    <glyph glyph-name="oe" unicode="&#x153;" horiz-adv-x="1812" 
d="M1599 362l162 -172q-98 -116 -222 -162q-123 -46 -282 -46q-195 0 -325 114q-140 -112 -363 -112q-229 0 -356 126t-127 322q0 282 185 468q186 187 454 187q198 0 324 -110q163 115 376 115q191 0 297 -80q105 -79 105 -238q0 -182 -167 -286q-166 -103 -411 -103
q-77 0 -157 12q39 -149 219 -149q167 0 288 114zM612 260q110 0 187 68q-13 60 -13 114q0 166 70 308q-57 61 -162 61q-115 0 -213 -91t-98 -235q0 -109 60 -167q59 -58 169 -58zM1413 825q-96 0 -176 -50t-119 -136q38 -2 84 -2q150 0 239 30t89 76q0 82 -117 82z" />
    <glyph glyph-name="Racute" unicode="&#x154;" horiz-adv-x="1411" 
d="M399 0h-317l278 1434h580q500 0 500 -402q0 -178 -105 -302q-103 -123 -268 -183l293 -547h-369l-256 489h-241zM877 1137h-256l-68 -351h268q130 0 210 56q79 55 79 147q0 78 -53 113t-180 35zM1298 1716l-501 -209l-88 219l479 269z" />
    <glyph glyph-name="racute" unicode="&#x155;" horiz-adv-x="714" 
d="M49 0l197 1065h282l-8 -43q22 25 70 44t98 19q77 0 115 -22q37 -21 65 -70l-190 -209q-27 35 -78 35q-86 0 -141 -121l-127 -698h-283zM944 1513l-303 -305l-188 166l288 332z" />
    <glyph glyph-name="Rcommaaccent" unicode="&#x156;" horiz-adv-x="1411" 
d="M399 0h-317l278 1434h580q500 0 500 -402q0 -178 -105 -302q-103 -123 -268 -183l293 -547h-369l-256 489h-241zM877 1137h-256l-68 -351h268q130 0 210 56q79 55 79 147q0 78 -53 113t-180 35zM428 -215l262 152q74 -63 74 -160q0 -124 -90 -223q-88 -97 -205 -160
l-117 125q113 99 113 168q0 43 -37 98z" />
    <glyph glyph-name="rcommaaccent" unicode="&#x157;" horiz-adv-x="714" 
d="M49 0l197 1065h282l-8 -43q22 25 70 44t98 19q77 0 115 -22q37 -21 65 -70l-190 -209q-27 35 -78 35q-86 0 -141 -121l-127 -698h-283zM117 -205l278 142q74 -63 74 -160q0 -125 -87 -224q-87 -98 -200 -159l-123 119q105 90 105 172q0 48 -47 110z" />
    <glyph glyph-name="Rcaron" unicode="&#x158;" horiz-adv-x="1411" 
d="M399 0h-317l278 1434h580q500 0 500 -402q0 -178 -105 -302q-103 -123 -268 -183l293 -547h-369l-256 489h-241zM877 1137h-256l-68 -351h268q130 0 210 56q79 55 79 147q0 78 -53 113t-180 35zM885 1522l-344 252l139 161l231 -155l293 155l82 -182l-393 -231h-8z" />
    <glyph glyph-name="rcaron" unicode="&#x159;" horiz-adv-x="714" 
d="M49 0l197 1065h282l-8 -43q22 25 70 44t98 19q77 0 115 -22q37 -21 65 -70l-190 -209q-27 35 -78 35q-86 0 -141 -121l-127 -698h-283zM588 1225l-301 293l166 165l168 -165l237 161l121 -184l-383 -270h-8z" />
    <glyph glyph-name="Sacute" unicode="&#x15a;" horiz-adv-x="1267" 
d="M899 414q0 66 -69 109q-74 47 -165 76q-87 28 -195 73q-96 40 -166 125q-68 83 -68 207q0 213 166 337q167 125 415 125q347 0 533 -243l-209 -199q-161 145 -342 145q-234 0 -234 -129q0 -47 49 -84q48 -37 123 -58q77 -22 160 -57q92 -39 160 -79q73 -44 123 -126
q49 -82 49 -194q0 -217 -172 -346q-173 -129 -416 -129q-221 0 -373 96q-151 95 -217 248l234 183q60 -104 155 -167q96 -63 215 -63q126 0 185 43t59 107zM1331 1716l-502 -209l-88 219l480 269z" />
    <glyph glyph-name="sacute" unicode="&#x15b;" horiz-adv-x="899" 
d="M582 317q0 33 -44 60q-43 27 -107 51q-63 24 -125 58q-63 34 -106 100q-44 67 -44 157q0 161 117 254q119 95 282 95q300 0 414 -185l-178 -184q-86 113 -228 113q-110 0 -110 -78q0 -28 44 -52q50 -28 106 -49q57 -22 125 -59q64 -35 107 -102q44 -68 44 -160
q0 -185 -124 -273t-300 -88q-163 0 -287 78t-168 191l223 157q28 -67 94 -113q65 -46 154 -46q56 0 83 21q28 22 28 54zM1049 1513l-304 -305l-188 166l289 332z" />
    <glyph glyph-name="Scircumflex" unicode="&#x15c;" horiz-adv-x="1267" 
d="M899 414q0 66 -69 109q-74 47 -165 76q-87 28 -195 73q-96 40 -166 125q-68 83 -68 207q0 213 166 337q167 125 415 125q347 0 533 -243l-209 -199q-161 145 -342 145q-234 0 -234 -129q0 -47 49 -84q48 -37 123 -58q77 -22 160 -57q92 -39 160 -79q73 -44 123 -126
q49 -82 49 -194q0 -217 -172 -346q-173 -129 -416 -129q-221 0 -373 96q-151 95 -217 248l234 183q60 -104 155 -167q96 -63 215 -63q126 0 185 43t59 107zM911 1935l344 -252l-139 -161l-231 155l-293 -155l-82 182l393 231h8z" />
    <glyph glyph-name="scircumflex" unicode="&#x15d;" horiz-adv-x="899" 
d="M582 317q0 33 -44 60q-43 27 -107 51q-63 24 -125 58q-63 34 -106 100q-44 67 -44 157q0 161 117 254q119 95 282 95q300 0 414 -185l-178 -184q-86 113 -228 113q-110 0 -110 -78q0 -28 44 -52q50 -28 106 -49q57 -22 125 -59q64 -35 107 -102q44 -68 44 -160
q0 -185 -124 -273t-300 -88q-163 0 -287 78t-168 191l223 157q28 -67 94 -113q65 -46 154 -46q56 0 83 21q28 22 28 54zM694 1630l301 -293l-166 -166l-167 166l-238 -161l-121 184l383 270h8z" />
    <glyph glyph-name="Scedilla" unicode="&#x15e;" horiz-adv-x="1267" 
d="M254 -311l125 123q61 -58 153 -58q66 0 66 31t-86 31h-12l30 159q-178 23 -300 114q-122 92 -179 222l234 183q60 -104 155 -167q96 -63 215 -63q126 0 185 43t59 107q0 66 -69 109q-74 47 -165 76q-87 28 -195 73q-96 40 -166 125q-68 83 -68 207q0 213 166 337
q167 125 415 125q347 0 533 -243l-209 -199q-161 145 -342 145q-234 0 -234 -129q0 -47 49 -84q48 -37 123 -58q77 -22 160 -57q92 -39 160 -79q73 -44 123 -126q49 -82 49 -194q0 -205 -158 -333t-387 -140l-2 -22q203 -17 203 -164q0 -100 -86 -157q-84 -56 -240 -56
q-204 0 -305 119z" />
    <glyph glyph-name="scedilla" unicode="&#x15f;" horiz-adv-x="899" 
d="M582 317q0 33 -44 60q-43 27 -107 51q-63 24 -125 58q-63 34 -106 100q-44 67 -44 157q0 161 117 254q119 95 282 95q300 0 414 -185l-178 -184q-86 113 -228 113q-110 0 -110 -78q0 -28 44 -52q50 -28 106 -49q57 -22 125 -59q64 -35 107 -102q44 -68 44 -160
q0 -185 -124 -273t-300 -88q-163 0 -287 78t-168 191l223 157q28 -67 94 -113q65 -46 154 -46q56 0 83 21q28 22 28 54z" />
    <glyph glyph-name="Scaron" unicode="&#x160;" horiz-adv-x="1267" 
d="M899 414q0 66 -69 109q-74 47 -165 76q-87 28 -195 73q-96 40 -166 125q-68 83 -68 207q0 213 166 337q167 125 415 125q347 0 533 -243l-209 -199q-161 145 -342 145q-234 0 -234 -129q0 -47 49 -84q48 -37 123 -58q77 -22 160 -57q92 -39 160 -79q73 -44 123 -126
q49 -82 49 -194q0 -217 -172 -346q-173 -129 -416 -129q-221 0 -373 96q-151 95 -217 248l234 183q60 -104 155 -167q96 -63 215 -63q126 0 185 43t59 107zM856 1522l-344 252l139 161l232 -155l293 155l81 -182l-393 -231h-8z" />
    <glyph glyph-name="scaron" unicode="&#x161;" horiz-adv-x="899" 
d="M582 317q0 33 -44 60q-43 27 -107 51q-63 24 -125 58q-63 34 -106 100q-44 67 -44 157q0 161 117 254q119 95 282 95q300 0 414 -185l-178 -184q-86 113 -228 113q-110 0 -110 -78q0 -28 44 -52q50 -28 106 -49q57 -22 125 -59q64 -35 107 -102q44 -68 44 -160
q0 -185 -124 -273t-300 -88q-163 0 -287 78t-168 191l223 157q28 -67 94 -113q65 -46 154 -46q56 0 83 21q28 22 28 54zM594 1225l-301 293l166 165l168 -165l237 161l121 -184l-383 -270h-8z" />
    <glyph glyph-name="Tcedilla" unicode="&#x162;" horiz-adv-x="1236" 
d="M209 -311l125 123q61 -58 153 -58q66 0 66 31t-86 31h-12l37 184h-84l221 1137h-459l57 297h1237l-57 -297h-461l-221 -1137h-80l-8 -53q203 -17 203 -164q0 -100 -86 -157q-84 -56 -240 -56q-204 0 -305 119z" />
    <glyph glyph-name="tcedilla" unicode="&#x163;" horiz-adv-x="790" 
d="M68 -330l116 142q50 -58 156 -58q66 0 66 31t-87 31h-12l33 182q-86 18 -138 78q-52 59 -52 151q0 61 12 127l90 445h-156l47 266h166l49 207h275l-45 -207h301l-49 -266h-310l-73 -357q-11 -58 -11 -98q-4 -90 76 -90q50 0 135 74l146 -172q-112 -143 -309 -164l-5 -45
q183 -17 183 -154q0 -110 -95 -167q-93 -56 -245 -56q-174 0 -264 100z" />
    <glyph glyph-name="Tcaron" unicode="&#x164;" horiz-adv-x="1236" 
d="M170 1137l57 297h1237l-57 -297h-461l-221 -1137h-317l221 1137h-459zM829 1522l-344 252l140 161l231 -155l293 155l82 -182l-393 -231h-9z" />
    <glyph glyph-name="tcaron" unicode="&#x165;" horiz-adv-x="872" 
d="M868 1436h301q11 -22 11 -97q0 -253 -320 -426l-115 127q148 125 148 267q0 70 -25 129zM715 1272l-176 -830q-11 -58 -11 -98q-4 -90 76 -90q50 0 135 74l146 -172q-129 -168 -381 -168q-114 0 -194 63q-79 63 -79 176q0 55 13 127l90 445h-156l47 266h166l49 207h275z
" />
    <glyph glyph-name="Umacron" unicode="&#x16a;" horiz-adv-x="1474" 
d="M1589 1434l-159 -820q-60 -294 -237 -461q-178 -167 -464 -167q-252 0 -406 127q-155 128 -155 364q0 81 14 150l158 807h317l-149 -770q-12 -66 -12 -117q0 -264 262 -264q288 0 362 372l152 779h317zM672 1577v246h643v-246h-643z" />
    <glyph glyph-name="umacron" unicode="&#x16b;" horiz-adv-x="1126" 
d="M1176 1065l-199 -1065h-283l21 90q-94 -106 -262 -106q-172 0 -263 82q-92 83 -92 225q0 72 19 172l123 602h282l-119 -580q-8 -42 -8 -82q1 -73 33 -114q30 -39 104 -39q156 0 234 141l127 674h283zM469 1249v246h602v-246h-602z" />
    <glyph glyph-name="Ubreve" unicode="&#x16c;" horiz-adv-x="1474" 
d="M1589 1434l-159 -820q-60 -294 -237 -461q-178 -167 -464 -167q-252 0 -406 127q-155 128 -155 364q0 81 14 150l158 807h317l-149 -770q-12 -66 -12 -117q0 -264 262 -264q288 0 362 372l152 779h317zM594 1776l156 149q96 -123 268 -123q176 0 311 123l90 -176
q-77 -95 -191 -154t-241 -59t-229 66q-103 67 -164 174z" />
    <glyph glyph-name="ubreve" unicode="&#x16d;" horiz-adv-x="1126" 
d="M1176 1065l-199 -1065h-283l21 90q-94 -106 -262 -106q-172 0 -263 82q-92 83 -92 225q0 72 19 172l123 602h282l-119 -580q-8 -42 -8 -82q1 -73 33 -114q30 -39 104 -39q156 0 234 141l127 674h283zM426 1456l158 146q74 -107 192 -107q67 0 137 31q68 30 109 71
l84 -159q-44 -54 -87 -93q-38 -35 -109 -65q-73 -31 -156 -31q-112 0 -204 63t-124 144z" />
    <glyph glyph-name="Uring" unicode="&#x16e;" horiz-adv-x="1474" 
d="M1589 1434l-159 -820q-60 -294 -237 -461q-178 -167 -464 -167q-252 0 -406 127q-155 128 -155 364q0 81 14 150l158 807h317l-149 -770q-12 -66 -12 -117q0 -264 262 -264q288 0 362 372l152 779h317zM682 1716q0 124 97 194t255 70q303 0 303 -215q0 -127 -99 -200
q-100 -74 -257 -74q-299 0 -299 225zM909 1722q0 -67 84 -67q52 0 83 25q32 26 32 73q0 24 -22 44t-64 20q-113 0 -113 -95z" />
    <glyph glyph-name="uring" unicode="&#x16f;" horiz-adv-x="1126" 
d="M1176 1065l-199 -1065h-283l21 90q-94 -106 -262 -106q-172 0 -263 82q-92 83 -92 225q0 72 19 172l123 602h282l-119 -580q-8 -42 -8 -82q1 -73 33 -114q30 -39 104 -39q156 0 234 141l127 674h283zM483 1409q0 117 90 204t230 87q120 0 188 -65t68 -167
q0 -115 -89 -204q-88 -88 -229 -88q-123 0 -190 63q-68 63 -68 170zM682 1421q0 -71 80 -71q44 0 72 30q28 29 28 78q0 68 -80 68q-42 0 -71 -29t-29 -76z" />
    <glyph glyph-name="Uhungarumlaut" unicode="&#x170;" horiz-adv-x="1474" 
d="M1589 1434l-159 -820q-60 -294 -237 -461q-178 -167 -464 -167q-252 0 -406 127q-155 128 -155 364q0 81 14 150l158 807h317l-149 -770q-12 -66 -12 -117q0 -264 262 -264q288 0 362 372l152 779h317zM1577 1675l-432 -202l-117 137l346 272zM1133 1765l-363 -268
l-123 127l227 291z" />
    <glyph glyph-name="uhungarumlaut" unicode="&#x171;" horiz-adv-x="1126" 
d="M1176 1065l-199 -1065h-283l21 90q-94 -106 -262 -106q-172 0 -263 82q-92 83 -92 225q0 72 19 172l123 602h282l-119 -580q-8 -42 -8 -82q1 -73 33 -114q30 -39 104 -39q156 0 234 141l127 674h283zM903 1532l-293 -318l-143 138l262 336zM1272 1495l-320 -289l-131 150
l293 309z" />
    <glyph glyph-name="Uogonek" unicode="&#x172;" horiz-adv-x="1474" 
d="M1589 1434l-159 -820q-96 -500 -531 -614q-59 -59 -59 -109q0 -55 49 -55q41 0 86 21l57 -185q-33 -33 -107 -57q-78 -25 -155 -25q-117 0 -189 42q-73 43 -73 124q0 134 190 230q-266 2 -419 170q-154 169 -97 471l158 807h317l-149 -770q-33 -168 27 -275
q60 -106 223 -106q148 0 239 104q94 107 123 268l152 779h317z" />
    <glyph glyph-name="uogonek" unicode="&#x173;" horiz-adv-x="1126" 
d="M1176 1065l-199 -1065q-67 0 -130 -33t-63 -80q0 -26 22 -39q21 -12 46 -12q46 0 92 21l55 -185q-33 -33 -107 -57q-78 -25 -155 -25q-118 0 -189 43q-73 44 -73 131q0 164 219 236l21 90q-94 -106 -262 -106q-172 0 -263 82q-92 83 -92 225q0 72 19 172l123 602h282
l-119 -580q-8 -42 -8 -82q1 -73 33 -114q30 -39 104 -39q156 0 234 141l127 674h283z" />
    <glyph glyph-name="Ydieresis" unicode="&#x178;" horiz-adv-x="1433" 
d="M1681 1434l-759 -920l-101 -514h-317l100 514l-397 920h356l246 -566l469 566h403zM1034 1698q0 68 48 114q50 48 118 48q69 0 120 -48q50 -47 50 -114q0 -66 -50 -111t-120 -45t-118 45t-48 111zM524 1698q0 67 47 114q48 48 117 48q71 0 122 -48q50 -47 50 -114
q0 -66 -50 -111t-122 -45q-70 0 -117 45t-47 111z" />
    <glyph glyph-name="Zacute" unicode="&#x179;" horiz-adv-x="1300" 
d="M225 1137l58 297h1185l-41 -211l-919 -926h758l-58 -297h-1239l41 211l910 926h-695zM1294 1716l-501 -209l-88 219l479 269z" />
    <glyph glyph-name="zacute" unicode="&#x17a;" horiz-adv-x="983" 
d="M158 799l49 266h878v-164l-634 -635h495l-51 -266h-895v180l627 619h-469zM1077 1513l-303 -305l-188 166l288 332z" />
    <glyph glyph-name="Zdotaccent" unicode="&#x17b;" horiz-adv-x="1300" 
d="M225 1137l58 297h1185l-41 -211l-919 -926h758l-58 -297h-1239l41 211l910 926h-695zM758 1698q0 67 47 114q48 48 117 48q70 0 121 -48t51 -114q0 -65 -51 -111q-49 -45 -121 -45q-70 0 -117 45t-47 111z" />
    <glyph glyph-name="zdotaccent" unicode="&#x17c;" horiz-adv-x="983" 
d="M158 799l49 266h878v-164l-634 -635h495l-51 -266h-895v180l627 619h-469zM522 1350q0 61 44 105t110 44q64 0 111 -44t47 -105q0 -62 -47 -104q-46 -42 -111 -42q-66 0 -110 41t-44 105z" />
    <glyph glyph-name="Zcaron" unicode="&#x17d;" horiz-adv-x="1300" 
d="M225 1137l58 297h1185l-41 -211l-919 -926h758l-58 -297h-1239l41 211l910 926h-695zM850 1522l-344 252l139 161l232 -155l292 155l82 -182l-393 -231h-8z" />
    <glyph glyph-name="zcaron" unicode="&#x17e;" horiz-adv-x="983" 
d="M158 799l49 266h878v-164l-634 -635h495l-51 -266h-895v180l627 619h-469zM668 1225l-301 293l165 165l168 -165l238 161l121 -184l-383 -270h-8z" />
    <glyph glyph-name="uni018F" unicode="&#x18f;" horiz-adv-x="1568" 
d="M111 530q0 179 100 351h1077q-12 127 -102 199q-91 73 -250 73q-113 0 -233 -43q-123 -44 -218 -139l-174 205q247 274 633 274q670 0 670 -649q0 -161 -58 -311q-56 -145 -162 -260q-104 -113 -273 -180q-167 -66 -369 -66q-169 0 -298 47t-201 128q-75 84 -108 174
q-34 92 -34 197zM1255 584h-819q-6 -142 76 -223q81 -80 260 -80q170 0 304 83t179 220z" />
    <glyph glyph-name="florin" unicode="&#x192;" horiz-adv-x="1103" 
d="M770 952v-2q0 -1 -1 -3t-1 -3h270v-276h-319l-117 -654q-34 -201 -124 -322q-88 -118 -269 -118q-169 0 -277 119l103 229q69 -72 153 -72q86 0 113 140l125 678h-252v276h301l8 53q69 455 453 455q170 0 272 -84l-108 -238q-74 46 -148 46q-76 0 -116 -51
q-39 -49 -66 -173z" />
    <glyph glyph-name="uni01DD" unicode="&#x1dd;" 
d="M319 711l-161 172q99 117 222 163t282 46q205 0 338 -128t133 -333q0 -283 -183 -466t-456 -183q-193 0 -297 79q-105 79 -105 238q0 141 108 239q108 97 273 130q166 33 352 6q-39 151 -217 151q-168 0 -289 -114zM506 248q96 0 175 49t120 135q-184 12 -298 -18
t-114 -84q0 -82 117 -82z" />
    <glyph glyph-name="Scommaaccent" unicode="&#x218;" horiz-adv-x="1267" 
d="M899 414q0 66 -69 109q-74 47 -165 76q-87 28 -195 73q-96 40 -166 125q-68 83 -68 207q0 213 166 337q167 125 415 125q347 0 533 -243l-209 -199q-161 145 -342 145q-234 0 -234 -129q0 -47 49 -84q48 -37 123 -58q77 -22 160 -57q92 -39 160 -79q73 -44 123 -126
q49 -82 49 -194q0 -217 -172 -346q-173 -129 -416 -129q-221 0 -373 96q-151 95 -217 248l234 183q60 -104 155 -167q96 -63 215 -63q126 0 185 43t59 107zM426 -215l262 152q74 -63 74 -160q0 -124 -90 -223q-88 -97 -205 -160l-117 125q113 99 113 168q0 43 -37 98z" />
    <glyph glyph-name="scommaaccent" unicode="&#x219;" horiz-adv-x="899" 
d="M582 317q0 33 -44 60q-43 27 -107 51q-63 24 -125 58q-63 34 -106 100q-44 67 -44 157q0 161 117 254q119 95 282 95q300 0 414 -185l-178 -184q-86 113 -228 113q-110 0 -110 -78q0 -28 44 -52q50 -28 106 -49q57 -22 125 -59q64 -35 107 -102q44 -68 44 -160
q0 -185 -124 -273t-300 -88q-163 0 -287 78t-168 191l223 157q28 -67 94 -113q65 -46 154 -46q56 0 83 21q28 22 28 54zM266 -205l279 142q74 -63 74 -160q0 -124 -88 -224q-87 -100 -199 -159l-123 119q104 89 104 172q0 48 -47 110z" />
    <glyph glyph-name="Tcommaaccent" unicode="&#x21a;" horiz-adv-x="1236" 
d="M170 1137l57 297h1237l-57 -297h-461l-221 -1137h-317l221 1137h-459zM365 -215l262 152q73 -63 73 -160q0 -124 -90 -223q-89 -98 -204 -160l-117 125q112 99 112 168q0 45 -36 98z" />
    <glyph glyph-name="tcommaaccent" unicode="&#x21b;" horiz-adv-x="790" 
d="M96 799l47 266h166l49 207h275l-45 -207h301l-49 -266h-310l-73 -357q-11 -58 -11 -98q-4 -90 76 -90q50 0 135 74l146 -172q-129 -168 -381 -168q-114 0 -194 63q-78 62 -78 176q0 61 12 127l90 445h-156zM256 -205l279 142q73 -63 73 -160q0 -125 -87 -224
q-87 -100 -199 -159l-123 119q104 89 104 172q0 48 -47 110z" />
    <glyph glyph-name="uni0237" unicode="&#x237;" horiz-adv-x="538" 
d="M606 1065l-194 -1061q-82 -432 -435 -432q-269 0 -319 246l264 100q21 -70 80 -70q99 0 127 162l195 1055h282z" />
    <glyph glyph-name="uni0259" unicode="&#x259;" 
d="M319 711l-161 172q99 117 222 163t282 46q205 0 338 -128t133 -333q0 -283 -183 -466t-456 -183q-193 0 -297 79q-105 79 -105 238q0 141 108 239q108 97 273 130q166 33 352 6q-39 151 -217 151q-168 0 -289 -114zM506 248q96 0 175 49t120 135q-184 12 -298 -18
t-114 -84q0 -82 117 -82z" />
    <glyph glyph-name="afii57929" unicode="&#x2bc;" horiz-adv-x="442" 
d="M367 1364l264 147q74 -112 74 -202q0 -226 -338 -402l-119 125q155 121 155 215q0 51 -36 117z" />
    <glyph glyph-name="circumflex" unicode="&#x2c6;" horiz-adv-x="956" 
d="M922 1630l301 -293l-166 -166l-168 166l-238 -161l-121 184l383 270h9z" />
    <glyph glyph-name="caron" unicode="&#x2c7;" horiz-adv-x="950" 
d="M842 1225l-301 293l166 165l167 -165l238 161l121 -184l-383 -270h-8z" />
    <glyph glyph-name="breve" unicode="&#x2d8;" horiz-adv-x="964" 
d="M573 1456l158 146q74 -107 193 -107q67 0 137 31q67 30 108 71l84 -159q-44 -54 -87 -93q-39 -35 -108 -65q-73 -31 -157 -31q-113 0 -204 63q-92 63 -124 144z" />
    <glyph glyph-name="dotaccent" unicode="&#x2d9;" horiz-adv-x="485" 
d="M272 1350q0 61 44 105t110 44q65 0 112 -44q46 -43 46 -105t-46 -104t-112 -42t-110 41t-44 105z" />
    <glyph glyph-name="ring" unicode="&#x2da;" horiz-adv-x="907" 
d="M616 1409q0 116 91 204q90 87 229 87q120 0 188 -65t68 -167q0 -115 -89 -204q-88 -88 -229 -88q-122 0 -190 63t-68 170zM815 1421q0 -71 80 -71q43 0 72 30q28 29 28 78q0 68 -80 68q-42 0 -71 -29t-29 -76z" />
    <glyph glyph-name="ogonek" unicode="&#x2db;" horiz-adv-x="808" 
d="M690 -143l55 -185q-33 -33 -107 -57q-78 -25 -155 -25q-118 0 -189 43q-73 44 -73 131q0 99 85 165q88 68 208 94q116 26 272 24l-10 -47q-90 0 -168 -33t-78 -80q0 -26 22 -39q21 -12 46 -12q46 0 92 21z" />
    <glyph glyph-name="tilde" unicode="&#x2dc;" horiz-adv-x="962" 
d="M596 1227l-115 137q50 66 122 113q73 47 147 47q56 0 132 -40t115 -40q73 0 138 55l92 -153q-128 -148 -250 -148q-56 0 -135 40t-123 40q-55 0 -123 -51z" />
    <glyph glyph-name="hungarumlaut" unicode="&#x2dd;" horiz-adv-x="1114" 
d="M1036 1532l-293 -318l-143 138l262 336zM1405 1495l-320 -289l-131 150l293 309z" />
    <glyph glyph-name="gravecomb" unicode="&#x300;" horiz-adv-x="0" 
d="M-434 1198l-262 361l252 147l200 -387z" />
    <glyph glyph-name="acutecomb" unicode="&#x301;" horiz-adv-x="0" 
d="M-61 1513l-304 -305l-188 166l289 332z" />
    <glyph glyph-name="uni0394" unicode="&#x394;" horiz-adv-x="1501" 
d="M100 0l621 1448h207l633 -1448h-1461zM825 932l-284 -666h575z" />
    <glyph glyph-name="uni0394" unicode="&#x2206;" horiz-adv-x="1501" 
d="M100 0l621 1448h207l633 -1448h-1461zM825 932l-284 -666h575z" />
    <glyph glyph-name="uni03A9" unicode="&#x3a9;" horiz-adv-x="1697" 
d="M176 0v307h246q-61 27 -130 170q-69 144 -69 322q0 304 202 482q201 177 519 177q323 0 522 -176t199 -483q0 -191 -72 -321q-72 -131 -143 -171h260v-307h-698v307q138 46 232 179q93 132 93 282q0 146 -105 265q-105 118 -288 118q-194 0 -294 -112q-99 -111 -99 -277
q0 -152 93 -283q94 -132 230 -172v-307h-698z" />
    <glyph glyph-name="uni03A9" unicode="&#x2126;" horiz-adv-x="1697" 
d="M176 0v307h246q-61 27 -130 170q-69 144 -69 322q0 304 202 482q201 177 519 177q323 0 522 -176t199 -483q0 -191 -72 -321q-72 -131 -143 -171h260v-307h-698v307q138 46 232 179q93 132 93 282q0 146 -105 265q-105 118 -288 118q-194 0 -294 -112q-99 -111 -99 -277
q0 -152 93 -283q94 -132 230 -172v-307h-698z" />
    <glyph glyph-name="pi" unicode="&#x3c0;" horiz-adv-x="1320" 
d="M176 788v277h1153v-277h-153v-452q0 -88 59 -88q31 0 92 39l72 -215q-122 -101 -281 -101q-120 0 -180 81q-59 80 -59 255v481h-230v-122q0 -280 -48 -430t-148 -207q-102 -58 -287 -58l-27 285q54 2 85 12q34 11 63 46q30 36 45 110q14 71 16 194l2 170h-174z" />
    <glyph glyph-name="afii10023" unicode="&#x401;" horiz-adv-x="1329" 
d="M82 0l278 1434h1096l-57 -297h-778l-52 -267h727l-57 -286h-727l-55 -287h796l-57 -297h-1114zM1020 1698q0 68 48 114q50 48 118 48q69 0 120 -48q50 -47 50 -114q0 -66 -50 -111t-120 -45t-118 45t-48 111zM510 1698q0 67 47 114q48 48 117 48q71 0 122 -48
q50 -47 50 -114q0 -66 -50 -111t-122 -45q-70 0 -117 45t-47 111z" />
    <glyph glyph-name="afii10051" unicode="&#x402;" horiz-adv-x="1570" 
d="M1233 467q0 82 -43 128t-127 46q-150 0 -246 -113l-102 -528h-318l221 1137h-448l57 297h1227l-57 -297h-461l-49 -254q123 55 266 55q195 0 302 -103q108 -103 108 -305q0 -261 -130 -404q-131 -144 -352 -144q-194 0 -278 147l192 195q35 -45 97 -45q59 0 100 53
t41 135z" />
    <glyph glyph-name="afii10052" unicode="&#x403;" horiz-adv-x="1208" 
d="M82 0l278 1434h1076l-58 -297h-757l-222 -1137h-317zM1311 1716l-502 -209l-88 219l479 269z" />
    <glyph glyph-name="afii10053" unicode="&#x404;" horiz-adv-x="1413" 
d="M1272 463l188 -199q-94 -136 -252 -213q-156 -76 -364 -76q-108 0 -212 23q-100 22 -193 74q-90 50 -158 127t-108 187t-40 249q0 349 242 586q241 237 622 237q384 0 551 -278l-229 -183q-124 154 -342 154q-164 0 -290 -73q-123 -71 -185 -199h616l-59 -297h-596
q24 -141 130 -221q103 -78 265 -78q261 0 414 180z" />
    <glyph glyph-name="afii10054" unicode="&#x405;" horiz-adv-x="1267" 
d="M899 414q0 66 -69 109q-74 47 -165 76q-87 28 -195 73q-96 40 -166 125q-68 83 -68 207q0 213 166 337q167 125 415 125q347 0 533 -243l-209 -199q-161 145 -342 145q-234 0 -234 -129q0 -47 49 -84q48 -37 123 -58q77 -22 160 -57q92 -39 160 -79q73 -44 123 -126
q49 -82 49 -194q0 -217 -172 -346q-173 -129 -416 -129q-221 0 -373 96q-151 95 -217 248l234 183q60 -104 155 -167q96 -63 215 -63q126 0 185 43t59 107z" />
    <glyph glyph-name="afii10055" unicode="&#x406;" horiz-adv-x="604" 
d="M92 0l279 1434h317l-278 -1434h-318z" />
    <glyph glyph-name="afii10056" unicode="&#x407;" horiz-adv-x="604" 
d="M92 0l279 1434h317l-278 -1434h-318zM594 1698q0 68 48 114q50 48 118 48q69 0 120 -48q50 -47 50 -114q0 -66 -50 -111t-120 -45t-118 45t-48 111zM207 1698q0 67 47 114q48 48 117 48q71 0 122 -48q50 -47 50 -114q0 -66 -50 -111q-49 -45 -122 -45q-71 0 -117 45
q-47 45 -47 111z" />
    <glyph glyph-name="afii10057" unicode="&#x408;" horiz-adv-x="995" 
d="M1100 1434l-191 -985q-95 -474 -510 -474q-319 0 -415 279l239 160q40 -76 84 -109q43 -33 105 -33q78 0 123 59t69 179l180 924h316z" />
    <glyph glyph-name="afii10058" unicode="&#x409;" horiz-adv-x="2134" 
d="M1604 647h-203l-68 -350h195q311 0 311 209q0 76 -59 108q-60 33 -176 33zM1554 1434l-94 -490h207q262 0 382 -99t120 -292q0 -286 -190 -420q-188 -133 -519 -133h-502l220 1126h-420l-35 -165q-41 -193 -75 -317q-37 -135 -89 -260q-56 -136 -121 -212
q-67 -80 -164 -128q-100 -50 -223 -50q-80 0 -119 6l58 295q117 -15 183 42t138 268q73 214 164 667l33 162h1046z" />
    <glyph glyph-name="afii10059" unicode="&#x40a;" horiz-adv-x="2125" 
d="M1458 909h207q492 0 492 -374q0 -273 -186 -404q-187 -131 -503 -131h-503l118 612h-565l-119 -612h-317l278 1434h318l-103 -525h566l102 525h318zM1606 612h-205l-62 -315h197q125 0 208 44t83 138q0 76 -53 105q-52 28 -168 28z" />
    <glyph glyph-name="afii10060" unicode="&#x40b;" horiz-adv-x="1513" 
d="M170 1137l57 297h1227l-57 -297h-461l-49 -256q108 57 243 57q186 0 278 -89q91 -88 93 -243q0 -96 -14 -160l-86 -446h-316l78 406q8 53 8 106q0 55 -37 92t-106 37q-115 0 -207 -92l-106 -549h-318l221 1137h-448z" />
    <glyph glyph-name="afii10061" unicode="&#x40c;" horiz-adv-x="1435" 
d="M82 0l278 1434h318l-111 -568l633 568h442l-729 -662l492 -772h-379l-371 580l-168 -138l-88 -442h-317zM1395 1716l-502 -209l-88 219l479 269z" />
    <glyph glyph-name="afii10062" unicode="&#x40e;" horiz-adv-x="1490" 
d="M1354 1434h364l-739 -1098q-107 -161 -208 -247q-104 -89 -249 -89q-190 0 -270 162l197 182q23 -47 81 -47q86 0 146 117l-449 1020h361l297 -713zM625 1829h266q6 -105 115 -105q100 0 135 105h266q-35 -165 -147 -250q-113 -86 -271 -86q-178 0 -275 85
q-96 85 -89 251z" />
    <glyph glyph-name="afii10145" unicode="&#x40f;" horiz-adv-x="1525" 
d="M82 0l278 1434h318l-221 -1137h624l222 1137h317l-279 -1434h-477l-55 -281h-307l55 281h-475z" />
    <glyph glyph-name="afii10017" unicode="&#x410;" horiz-adv-x="1476" 
d="M-59 0l907 1434h235l351 -1434h-318l-65 266h-590l-168 -266h-352zM887 952l-262 -417h362z" />
    <glyph glyph-name="afii10018" unicode="&#x411;" horiz-adv-x="1361" 
d="M1440 1434l-58 -297h-761l-46 -234h347q224 0 331 -100q109 -101 109 -279q0 -280 -177 -402q-178 -122 -521 -122h-582l278 1434h1080zM829 606h-311l-61 -309h276q299 0 299 182q0 71 -48 99q-47 28 -155 28z" />
    <glyph glyph-name="afii10019" unicode="&#x412;" horiz-adv-x="1388" 
d="M82 0l278 1434h641q231 0 333 -87t102 -268q0 -106 -60 -190q-61 -85 -149 -129q133 -76 133 -271q0 -489 -653 -489h-625zM805 588h-291l-57 -291h274q154 0 226 42q73 43 73 134q0 66 -57 90q-59 25 -168 25zM911 1137h-290l-52 -263h318q107 0 163 40t56 114
q0 55 -44 82t-151 27z" />
    <glyph glyph-name="afii10020" unicode="&#x413;" horiz-adv-x="1208" 
d="M82 0l278 1434h1076l-58 -297h-757l-222 -1137h-317z" />
    <glyph glyph-name="afii10021" unicode="&#x414;" horiz-adv-x="1538" 
d="M-94 -240l104 537h156q213 315 336 965l33 172h1044l-221 -1137h166l-105 -537h-297l47 240h-919l-47 -240h-297zM791 1137l-19 -80q-124 -548 -270 -760h538l164 840h-413z" />
    <glyph glyph-name="afii10022" unicode="&#x415;" horiz-adv-x="1329" 
d="M82 0l278 1434h1096l-57 -297h-778l-52 -267h727l-57 -286h-727l-55 -287h796l-57 -297h-1114z" />
    <glyph glyph-name="afii10024" unicode="&#x416;" horiz-adv-x="2027" 
d="M659 770l-411 662l360 2l365 -568l110 568h318l-107 -564l545 564h424l-723 -707l416 -727h-352l-326 569l-53 -61l-103 -508h-317l104 522l-41 56l-540 -578h-381z" />
    <glyph glyph-name="afii10025" unicode="&#x417;" horiz-adv-x="1341" 
d="M674 -25q-453 0 -629 314l246 178q124 -195 395 -195q141 0 229 46q89 47 89 128q0 136 -281 136h-225l57 297h213q295 0 295 165q0 117 -232 117q-236 0 -397 -155l-186 194q242 258 620 258q525 0 525 -373q0 -111 -60 -200t-151 -135q151 -72 151 -271
q0 -134 -61 -235q-62 -103 -162 -158q-103 -57 -211 -83q-115 -28 -225 -28z" />
    <glyph glyph-name="afii10026" unicode="&#x418;" horiz-adv-x="1542" 
d="M342 0h-260l278 1434h318l-164 -842l858 842h264l-278 -1434h-318l164 838z" />
    <glyph glyph-name="afii10027" unicode="&#x419;" horiz-adv-x="1542" 
d="M342 0h-260l278 1434h318l-164 -842l858 842h264l-278 -1434h-318l164 838zM698 1829h267q6 -105 114 -105q101 0 135 105h267q-35 -164 -148 -250t-270 -86q-179 0 -276 85q-96 85 -89 251z" />
    <glyph glyph-name="afii10028" unicode="&#x41a;" horiz-adv-x="1435" 
d="M82 0l278 1434h318l-111 -568l633 568h442l-729 -662l492 -772h-379l-371 580l-168 -138l-88 -442h-317z" />
    <glyph glyph-name="afii10029" unicode="&#x41b;" horiz-adv-x="1488" 
d="M987 0l219 1126h-448l-35 -165q-108 -524 -256 -746q-147 -221 -412 -221q-84 0 -123 6l58 295q117 -15 183 42t138 268q73 214 164 667l33 162h1075l-278 -1434h-318z" />
    <glyph glyph-name="afii10030" unicode="&#x41c;" horiz-adv-x="1742" 
d="M82 0l278 1434h271l325 -680l562 680h319l-278 -1434h-318l168 860l-485 -571h-84l-273 577l-168 -866h-317z" />
    <glyph glyph-name="afii10031" unicode="&#x41d;" horiz-adv-x="1538" 
d="M1036 0l111 573h-637l-111 -573h-317l278 1434h318l-109 -564h637l109 564h317l-278 -1434h-318z" />
    <glyph glyph-name="afii10032" unicode="&#x41e;" horiz-adv-x="1599" 
d="M135 610q0 109 35 228q35 118 106 228q74 113 171 199q99 87 241 140t303 53q298 0 473 -175q176 -176 176 -458q0 -371 -245 -610q-246 -240 -607 -240q-291 0 -473 180q-180 179 -180 455zM465 637q0 -162 100 -258q101 -96 258 -96q206 0 347 151q141 152 141 361
q0 150 -96 254q-94 102 -259 102q-206 0 -349 -151q-142 -149 -142 -363z" />
    <glyph glyph-name="afii10033" unicode="&#x41f;" horiz-adv-x="1536" 
d="M1034 0l221 1137h-634l-222 -1137h-317l278 1434h1270l-278 -1434h-318z" />
    <glyph glyph-name="afii10034" unicode="&#x420;" horiz-adv-x="1386" 
d="M399 0h-317l278 1434h594q525 0 525 -433q0 -268 -200 -409q-199 -141 -515 -141h-277zM905 1137h-284l-76 -389h272q168 0 250 61t82 170q0 158 -244 158z" />
    <glyph glyph-name="afii10035" unicode="&#x421;" horiz-adv-x="1445" 
d="M1272 463l188 -199q-94 -136 -252 -213q-156 -76 -364 -76q-108 0 -212 23q-100 22 -193 74q-90 50 -158 127t-108 187t-40 249q0 349 242 586q241 237 622 237q384 0 551 -278l-229 -183q-124 154 -342 154q-228 0 -371 -142t-143 -350q0 -166 108 -271t287 -105
q261 0 414 180z" />
    <glyph glyph-name="afii10036" unicode="&#x422;" horiz-adv-x="1236" 
d="M170 1137l57 297h1237l-57 -297h-461l-221 -1137h-317l221 1137h-459z" />
    <glyph glyph-name="afii10037" unicode="&#x423;" horiz-adv-x="1490" 
d="M1354 1434h364l-739 -1098q-107 -161 -208 -247q-104 -89 -249 -89q-190 0 -270 162l197 182q23 -47 81 -47q86 0 146 117l-449 1020h361l297 -713z" />
    <glyph glyph-name="afii10038" unicode="&#x424;" horiz-adv-x="1841" 
d="M705 -31l32 166h-8q-265 0 -431 132q-167 132 -167 386q0 306 220 496t620 190l24 125h318l-25 -125q282 0 445 -130t163 -386q0 -173 -67 -306t-183 -216q-113 -81 -264 -124q-147 -42 -315 -42h-12l-33 -166h-317zM1235 1042h-4l-119 -610h12q215 0 329 93t114 266
q0 251 -332 251zM461 688q0 -256 327 -256h7l118 610q-219 0 -335 -91q-117 -91 -117 -263z" />
    <glyph glyph-name="afii10039" unicode="&#x425;" horiz-adv-x="1447" 
d="M1663 1434l-668 -732l377 -702h-362l-236 453l-409 -453h-416l672 741l-371 693h362l230 -445l405 445h416z" />
    <glyph glyph-name="afii10040" unicode="&#x426;" horiz-adv-x="1533" 
d="M82 0l278 1434h318l-221 -1137h579l221 1137h318l-221 -1137h166l-105 -537h-295l47 240h-1085z" />
    <glyph glyph-name="afii10041" unicode="&#x427;" horiz-adv-x="1452" 
d="M1546 1434l-278 -1434h-318l105 539q-169 -80 -377 -80q-94 0 -170 20q-81 21 -151 63t-112 118t-42 182q0 40 12 108l94 484h320l-56 -283q-28 -144 -28 -217q-1 -94 58 -136q60 -42 169 -42q191 0 342 86l115 592h317z" />
    <glyph glyph-name="afii10042" unicode="&#x428;" horiz-adv-x="1943" 
d="M82 0l278 1434h318l-221 -1137h362l221 1137h318l-221 -1137h362l221 1137h318l-279 -1434h-1677z" />
    <glyph glyph-name="afii10043" unicode="&#x429;" horiz-adv-x="2000" 
d="M82 0l278 1434h318l-221 -1137h364l221 1137h318l-221 -1137h364l221 1137h318l-221 -1137h166l-105 -537h-297l47 240h-1550z" />
    <glyph glyph-name="afii10044" unicode="&#x42a;" horiz-adv-x="1517" 
d="M170 1137l57 297h631l-92 -476h264q522 0 522 -411q0 -150 -56 -256q-57 -108 -159 -171q-101 -62 -229 -91q-130 -29 -283 -29h-563l221 1137h-313zM969 662h-260l-72 -365h254q173 0 253 48q79 48 79 163q0 154 -254 154z" />
    <glyph glyph-name="afii10045" unicode="&#x42b;" horiz-adv-x="1843" 
d="M1341 0l279 1434h317l-278 -1434h-318zM735 662h-207l-71 -365h202q330 0 330 207q0 158 -254 158zM678 1434l-92 -476h213q259 0 389 -106q131 -107 131 -299q0 -553 -725 -553h-512l278 1434h318z" />
    <glyph glyph-name="afii10046" unicode="&#x42c;" horiz-adv-x="1345" 
d="M797 662h-267l-71 -365h260q172 0 249 47q76 46 76 164q0 154 -247 154zM680 1434l-92 -476h270q258 0 387 -105t129 -304q0 -261 -181 -405t-538 -144h-573l278 1434h320z" />
    <glyph glyph-name="afii10047" unicode="&#x42d;" horiz-adv-x="1447" 
d="M487 584l58 297h620q-22 119 -114 196q-91 76 -256 76q-249 0 -445 -178l-170 205q253 270 635 270q335 0 508 -173q172 -172 172 -443q0 -376 -231 -613t-613 -237q-466 0 -635 319l236 172q127 -194 395 -194q381 0 483 303h-643z" />
    <glyph glyph-name="afii10048" unicode="&#x42e;" horiz-adv-x="2076" 
d="M82 0l278 1434h318l-111 -570h127q92 283 300 434q209 152 495 152q206 0 353 -93q145 -92 212 -232q66 -138 66 -302q0 -159 -57 -309q-57 -151 -158 -268q-102 -118 -264 -191q-158 -71 -351 -71q-284 0 -459 173q-174 173 -174 437h-143l-115 -594h-317zM985 629
q0 -159 94 -253q95 -95 238 -95q213 0 342 153t129 363q0 158 -93 257t-249 99q-183 0 -322 -149t-139 -375z" />
    <glyph glyph-name="afii10049" unicode="&#x42f;" horiz-adv-x="1435" 
d="M934 0l92 473h-233l-461 -473h-383l522 537q-246 111 -246 370q0 252 187 389q188 138 479 138h639l-279 -1434h-317zM770 770h313l72 367h-301q-299 0 -299 -191q0 -86 57 -131t158 -45z" />
    <glyph glyph-name="afii10065" unicode="&#x430;" horiz-adv-x="1179" 
d="M766 0l20 96q-85 -106 -286 -106q-186 0 -297 121t-111 313q0 312 163 487q164 176 421 176q194 0 266 -86l14 64h273l-199 -1065h-264zM592 256q68 0 131 36q64 36 98 93l66 330q-60 106 -199 106q-131 0 -215 -95q-84 -94 -84 -253q0 -103 57 -160t146 -57z" />
    <glyph glyph-name="afii10066" unicode="&#x431;" horiz-adv-x="1181" 
d="M1212 1522v-258q-90 -38 -271 -39q-179 -1 -282 -49q-170 -83 -221 -275q128 164 375 164q160 0 268 -108q109 -109 109 -302q0 -321 -171 -498t-407 -177q-248 0 -384 144q-136 143 -136 374q0 315 122 567q120 248 337 354q118 56 365 74q246 18 296 29zM403 604
q-20 -54 -20 -133q0 -86 67 -156q66 -69 164 -69q113 0 194 99t81 257q0 82 -53 140q-52 57 -150 57q-78 0 -158 -54q-79 -53 -125 -141z" />
    <glyph glyph-name="afii10067" unicode="&#x432;" horiz-adv-x="1112" 
d="M1133 799q0 -152 -146 -248q109 -58 109 -184q0 -149 -146 -271q-145 -121 -366 -121q-231 0 -362 128q-130 127 -130 339q0 283 183 466q184 184 456 184q192 0 296 -76q106 -77 106 -217zM799 369q0 57 -62 75q-138 -36 -342 -53q33 -149 205 -149q93 0 145 34
q54 35 54 93zM719 825q-115 0 -195 -54q-79 -54 -112 -150q184 16 304 57q120 40 120 90q0 22 -29 40q-27 17 -88 17z" />
    <glyph glyph-name="afii10068" unicode="&#x433;" horiz-adv-x="964" 
d="M352 324q0 -33 35 -57q33 -23 100 -23q186 0 338 127l144 -195q-193 -199 -469 -199q-204 0 -325 91q-120 90 -120 229q0 91 36 157q36 65 93 103q51 34 127 60q64 22 141 37q102 20 128 25q57 12 93 30t36 49q0 26 -27 47q-26 20 -80 20q-164 0 -311 -123l-154 183
q80 92 207 149q130 58 285 58q153 0 265 -77t112 -222q0 -126 -68 -208t-163 -112q-94 -30 -191 -48t-164 -39q-68 -21 -68 -62z" />
    <glyph glyph-name="afii10069" unicode="&#x434;" horiz-adv-x="1206" 
d="M92 416q0 294 184 479q185 186 457 186q153 0 209 -63q-27 120 -167 169q-142 50 -316 32l37 239q116 4 218 -9q104 -14 200 -56q98 -43 168 -113q68 -69 112 -187q43 -117 43 -272q0 -237 -72 -425q-72 -187 -226 -304q-155 -117 -370 -117q-209 0 -343 119t-134 322z
M389 455q0 -97 57 -155t146 -58q138 0 239 134t113 337q-63 102 -235 102q-124 0 -222 -98t-98 -262z" />
    <glyph glyph-name="afii10070" unicode="&#x435;" 
d="M905 362l162 -172q-98 -116 -222 -162q-123 -46 -282 -46q-206 0 -339 128q-132 127 -132 332q0 284 182 466q184 184 457 184q191 0 297 -80q105 -79 105 -238q0 -182 -167 -286q-166 -103 -411 -103q-78 0 -158 12q39 -149 219 -149q168 0 289 114zM719 825
q-96 0 -176 -50t-119 -136q38 -2 84 -2q150 0 238 30q90 31 90 76q0 82 -117 82z" />
    <glyph glyph-name="afii10072" unicode="&#x436;" horiz-adv-x="1478" 
d="M438 618l-282 447h315l211 -363l68 363h280l-65 -365l348 365h325l-462 -485l272 -580h-305l-195 438l-37 -30l-75 -408h-283l76 406l-19 34l-344 -440h-327z" />
    <glyph glyph-name="afii10073" unicode="&#x437;" horiz-adv-x="974" 
d="M455 -25q-173 0 -285 76q-114 78 -160 209l217 139q28 -72 95 -115q66 -42 149 -42q91 0 142 29q54 31 55 75q2 35 -29 56q-31 22 -86 22h-211l49 235h201q50 0 81 27q32 27 32 70q0 73 -136 73q-157 0 -284 -133l-164 185q201 215 524 215q176 0 266 -78t90 -199
q0 -75 -37 -143q-38 -70 -108 -117q48 -25 78 -74q31 -51 31 -110q0 -177 -143 -288q-144 -112 -367 -112z" />
    <glyph glyph-name="afii10074" unicode="&#x438;" horiz-adv-x="1126" 
d="M1176 1065l-199 -1065h-283l21 90q-94 -106 -262 -106q-172 0 -263 82q-92 83 -92 225q0 72 19 172l123 602h282l-119 -580q-8 -42 -8 -82q1 -73 33 -114q30 -39 104 -39q156 0 234 141l127 674h283z" />
    <glyph glyph-name="afii10075" unicode="&#x439;" horiz-adv-x="1126" 
d="M1176 1065l-199 -1065h-283l21 90q-94 -106 -262 -106q-172 0 -263 82q-92 83 -92 225q0 72 19 172l123 602h282l-119 -580q-8 -42 -8 -82q1 -73 33 -114q30 -39 104 -39q156 0 234 141l127 674h283zM410 1511h258q-15 -108 82 -108q98 0 114 108h258q-21 -136 -124 -235
q-102 -98 -271 -98q-159 0 -250 83q-89 82 -67 250z" />
    <glyph glyph-name="afii10076" unicode="&#x43a;" horiz-adv-x="1097" 
d="M49 0l201 1065h280l-69 -381l420 381h372l-548 -487l362 -578h-338l-260 432l-66 -63l-73 -369h-281z" />
    <glyph glyph-name="afii10077" unicode="&#x43b;" horiz-adv-x="1136" 
d="M709 0l147 799h-244l-34 -129q-108 -396 -255 -546t-352 -132l31 287q45 -2 78 13q36 16 80 67q44 52 91 172t87 303l53 231h795l-195 -1065h-282z" />
    <glyph glyph-name="afii10078" unicode="&#x43c;" horiz-adv-x="1310" 
d="M49 0l197 1065h237l234 -426l391 426h252l-197 -1065h-280l100 545l-319 -338l-228 362l-104 -569h-283z" />
    <glyph glyph-name="afii10079" unicode="&#x43d;" horiz-adv-x="1148" 
d="M719 0l74 403h-383l-78 -403h-283l197 1065h282l-71 -395h383l75 395h283l-197 -1065h-282z" />
    <glyph glyph-name="afii10080" unicode="&#x43e;" horiz-adv-x="1202" 
d="M92 432q0 280 186 468q186 187 453 187q222 0 350 -125q129 -126 129 -321q0 -286 -177 -472q-176 -185 -458 -185q-229 0 -356 126t-127 322zM389 485q0 -113 58 -174t171 -61q112 0 203 100q92 101 92 256q0 93 -55 154t-158 61q-118 0 -215 -95q-96 -94 -96 -241z" />
    <glyph glyph-name="afii10081" unicode="&#x43f;" horiz-adv-x="1140" 
d="M49 0l199 1065h282l-10 -68q107 88 260 88q361 0 361 -323q0 -81 -17 -166l-118 -596h-283l117 582q8 43 8 80q1 82 -37 119q-40 38 -123 38q-57 0 -120 -33q-62 -32 -107 -94l-131 -692h-281z" />
    <glyph glyph-name="afii10082" unicode="&#x440;" horiz-adv-x="1173" 
d="M-29 -410l271 1475h278l-10 -55q93 77 240 77q217 0 324 -123q108 -124 108 -309q0 -300 -168 -486q-167 -185 -451 -185q-180 0 -233 53l-82 -447h-277zM680 821q-137 0 -221 -119l-76 -364q49 -88 203 -88q128 0 213 96q86 97 86 258q0 95 -54 157q-52 60 -151 60z" />
    <glyph glyph-name="afii10083" unicode="&#x441;" horiz-adv-x="1087" 
d="M895 385l188 -168q-95 -132 -217 -182q-123 -51 -297 -51q-208 0 -342 127q-135 127 -135 331q0 282 180 464q180 181 449 181q184 0 291 -79q108 -80 137 -197l-217 -133q-73 143 -223 143q-134 0 -227 -95q-93 -94 -93 -247q0 -109 69 -169t165 -60q182 0 272 135z" />
    <glyph glyph-name="afii10084" unicode="&#x442;" horiz-adv-x="1622" 
d="M1622 709l-139 -709h-283l123 625q8 53 8 69q5 125 -102 125q-115 0 -193 -129l-129 -690h-282l129 674q10 59 -15 103q-24 42 -80 42q-128 0 -202 -131l-125 -688h-283l197 1065h282l-14 -72q95 92 260 92q158 0 240 -114q74 65 140 89q68 25 177 25q139 0 218 -70
q79 -71 81 -204q0 -49 -8 -102z" />
    <glyph glyph-name="afii10085" unicode="&#x443;" horiz-adv-x="1077" 
d="M8 -379l152 244q22 -17 41 -17q29 0 67 37q39 38 74 101l61 114l-303 965h308l182 -653l352 653h309l-579 -1016q-152 -264 -260 -371q-107 -106 -236 -106q-109 0 -168 49z" />
    <glyph glyph-name="afii10086" unicode="&#x444;" horiz-adv-x="1499" 
d="M483 -410l72 390q-226 0 -344 133q-119 134 -119 331q0 271 184 455t453 184h31l76 412h282l-76 -412q239 0 352 -119t113 -319q0 -299 -193 -482q-194 -183 -464 -183h-12l-72 -390h-283zM389 467q0 -221 215 -221l105 571h-13q-137 0 -222 -97t-85 -253zM991 817
l-104 -571h10q140 0 226 104q87 105 87 273q0 32 -7 59q-8 32 -27 61q-21 33 -68 54q-44 20 -117 20z" />
    <glyph glyph-name="afii10087" unicode="&#x445;" 
d="M1268 1065l-492 -520l301 -545h-313l-178 338l-305 -338h-349l508 561l-284 504h319l164 -307l276 307h353z" />
    <glyph glyph-name="afii10088" unicode="&#x446;" horiz-adv-x="1167" 
d="M1176 1065l-134 -709q-7 -51 7 -65q15 -15 65 -15h66l-93 -505h-264l43 229h-14q-61 0 -90 32t-19 74q-106 -122 -290 -122q-172 0 -263 82q-92 83 -92 225q0 72 19 172l123 602h282l-119 -580q-8 -42 -8 -82q1 -73 33 -114q30 -39 104 -39q156 0 234 141l127 674h283z
" />
    <glyph glyph-name="afii10089" unicode="&#x447;" horiz-adv-x="1087" 
d="M1137 1065l-197 -1065h-283l70 379q-101 -72 -285 -72q-134 0 -223 71q-88 70 -88 216q0 86 12 137l74 334h283l-49 -219q-24 -104 -23 -172q2 -101 131 -101q137 0 217 86l78 406h283z" />
    <glyph glyph-name="afii10090" unicode="&#x448;" horiz-adv-x="1568" 
d="M106 356l140 709h282l-122 -625q-9 -59 -9 -92q-4 -102 82 -102q117 0 180 119l132 700h282l-129 -674q-27 -145 74 -145q119 0 188 125l129 694h283l-197 -1065h-282l14 72q-95 -92 -250 -92q-83 0 -128 26q-46 27 -91 88q-73 -64 -136 -89t-171 -25q-125 0 -200 71
q-78 73 -79 203q0 49 8 102z" />
    <glyph glyph-name="afii10091" unicode="&#x449;" horiz-adv-x="1609" 
d="M1186 106q-113 -126 -283 -126q-83 0 -128 26q-46 27 -91 88q-73 -64 -136 -89t-171 -25q-125 0 -200 71q-78 73 -79 203q0 49 8 102l140 709h282l-122 -625q-9 -59 -9 -92q-4 -102 82 -102q117 0 180 119l132 700h282l-129 -674q-27 -145 74 -145q119 0 188 125l129 694
h283l-133 -709q-8 -51 6 -65q15 -15 65 -15h66l-92 -505h-264l43 229h-15q-61 0 -90 32q-28 31 -18 74z" />
    <glyph glyph-name="afii10092" unicode="&#x44a;" horiz-adv-x="1136" 
d="M86 799l49 266h514l-53 -289h141q209 0 305 -78q97 -79 97 -235q0 -211 -147 -337t-451 -126h-377l153 799h-231zM694 510h-141l-49 -244h143q91 0 143 40t52 102q0 52 -31 77t-117 25z" />
    <glyph glyph-name="afii10093" unicode="&#x44b;" horiz-adv-x="1400" 
d="M49 0l197 1065h282l-57 -293h129q201 0 293 -74t92 -233q0 -213 -141 -339t-398 -126h-397zM537 506h-113l-45 -240h113q92 0 144 39t52 107q0 48 -33 71q-34 23 -118 23zM973 0l196 1065h281l-197 -1065h-280z" />
    <glyph glyph-name="afii10094" unicode="&#x44c;" horiz-adv-x="1017" 
d="M49 0l197 1065h282l-55 -293h133q412 0 412 -307q0 -213 -141 -339t-398 -126h-430zM551 506h-127l-45 -240h145q92 0 145 39q52 39 52 107q0 48 -36 71q-37 23 -134 23z" />
    <glyph glyph-name="afii10095" unicode="&#x44d;" horiz-adv-x="1110" 
d="M369 424l47 240h415q-7 77 -76 117q-68 40 -171 40q-70 0 -150 -33t-141 -106l-178 166q208 239 516 239q238 0 362 -125q125 -127 125 -323q0 -302 -182 -478q-183 -177 -479 -177q-146 0 -269 61q-126 62 -182 188l217 140q78 -123 271 -123q106 0 189 48
q84 49 108 126h-422z" />
    <glyph glyph-name="afii10096" unicode="&#x44e;" horiz-adv-x="1589" 
d="M49 0l197 1065h282l-71 -389h118q67 189 223 301q153 110 341 110q225 0 342 -118q116 -117 116 -310q0 -327 -177 -501t-427 -174q-216 0 -339 116q-124 117 -126 314h-120l-76 -414h-283zM819 457q0 -91 54 -149t151 -58q113 0 195 98q81 97 81 254q0 219 -192 219
q-113 0 -201 -103t-88 -261z" />
    <glyph glyph-name="afii10097" unicode="&#x44f;" horiz-adv-x="1056" 
d="M678 1065h428l-197 -1065h-280l61 332h-110l-279 -332h-334l326 373q-77 35 -114 106q-38 73 -38 156q0 187 129 309q128 121 408 121zM440 678q0 -90 121 -90h174l41 211h-164q-82 0 -127 -33t-45 -88z" />
    <glyph glyph-name="afii10071" unicode="&#x451;" 
d="M905 362l162 -172q-98 -116 -222 -162q-123 -46 -282 -46q-206 0 -339 128q-132 127 -132 332q0 284 182 466q184 184 457 184q191 0 297 -80q105 -79 105 -238q0 -182 -167 -286q-166 -103 -411 -103q-78 0 -158 12q39 -149 219 -149q168 0 289 114zM719 825
q-96 0 -176 -50t-119 -136q38 -2 84 -2q150 0 238 30q90 31 90 76q0 82 -117 82zM791 1350q0 61 44 105t109 44t112 -44q46 -43 46 -105t-46 -104t-112 -42q-65 0 -109 41t-44 105zM389 1350q0 61 44 105t110 44q64 0 111 -44q46 -43 46 -105t-46 -104t-111 -42
q-66 0 -110 41t-44 105z" />
    <glyph glyph-name="afii10099" unicode="&#x452;" horiz-adv-x="1153" 
d="M35 1065l51 266h233l29 164h283l-29 -164h383l-51 -266h-383l-49 -262q113 80 264 80q190 0 276 -97t86 -258q0 -290 -170 -552q-168 -259 -434 -404l-131 201q217 135 324 307q108 174 108 362q0 174 -159 174q-60 0 -121 -34q-62 -35 -103 -97l-88 -485h-282l196 1065
h-233z" />
    <glyph glyph-name="afii10100" unicode="&#x453;" horiz-adv-x="964" 
d="M352 324q0 -33 35 -57q33 -23 100 -23q186 0 338 127l144 -195q-193 -199 -469 -199q-204 0 -325 91q-120 90 -120 229q0 91 36 157q36 65 93 103q51 34 127 60q64 22 141 37q102 20 128 25q57 12 93 30t36 49q0 26 -27 47q-26 20 -80 20q-164 0 -311 -123l-154 183
q80 92 207 149q130 58 285 58q153 0 265 -77t112 -222q0 -126 -68 -208t-163 -112q-94 -30 -191 -48t-164 -39q-68 -21 -68 -62zM1083 1520l-305 -306l-192 162l288 332z" />
    <glyph glyph-name="afii10101" unicode="&#x454;" horiz-adv-x="1087" 
d="M895 385l188 -168q-95 -132 -217 -182q-123 -51 -297 -51q-208 0 -342 127q-135 127 -135 331q0 282 180 464q180 181 449 181q184 0 291 -79q108 -80 137 -197l-217 -133q-73 143 -223 143q-84 0 -157 -41t-116 -114h371l-45 -240h-369q18 -83 82 -130q62 -46 148 -46
q182 0 272 135z" />
    <glyph glyph-name="afii10102" unicode="&#x455;" horiz-adv-x="899" 
d="M582 317q0 33 -44 60q-43 27 -107 51q-63 24 -125 58q-63 34 -106 100q-44 67 -44 157q0 161 117 254q119 95 282 95q300 0 414 -185l-178 -184q-86 113 -228 113q-110 0 -110 -78q0 -28 44 -52q50 -28 106 -49q57 -22 125 -59q64 -35 107 -102q44 -68 44 -160
q0 -185 -124 -273t-300 -88q-163 0 -287 78t-168 191l223 157q28 -67 94 -113q65 -46 154 -46q56 0 83 21q28 22 28 54z" />
    <glyph glyph-name="afii10103" unicode="&#x456;" horiz-adv-x="512" 
d="M70 0l196 1065h283l-197 -1065h-282zM297 1350q0 61 44 105t110 44q64 0 111 -44q46 -43 46 -105t-46 -104t-111 -42q-66 0 -110 41t-44 105z" />
    <glyph glyph-name="afii10104" unicode="&#x457;" horiz-adv-x="538" 
d="M92 0l207 1065h297l-207 -1065h-297zM520 1350q0 61 44 105t110 44q64 0 111 -44q46 -43 46 -105t-46 -104q-47 -42 -111 -42q-66 0 -110 41t-44 105zM152 1350q0 61 44 105t109 44t112 -44q46 -43 46 -105t-46 -104q-47 -42 -112 -42t-109 41t-44 105z" />
    <glyph glyph-name="afii10105" unicode="&#x458;" horiz-adv-x="512" 
d="M547 1065l-195 -1061q-82 -432 -434 -432q-270 0 -319 246l264 100q21 -70 80 -70q99 0 127 162l194 1055h283zM293 1350q0 61 44 105t109 44t112 -44q46 -43 46 -105t-46 -104t-112 -42q-65 0 -109 41t-44 105z" />
    <glyph glyph-name="afii10106" unicode="&#x459;" horiz-adv-x="1603" 
d="M707 0l145 799h-242l-30 -123q-51 -195 -117 -339q-62 -135 -141 -212q-77 -76 -162 -106q-80 -29 -191 -27l31 264q28 0 62 15q33 14 79 59q45 43 91 142q45 96 79 241l86 352h789l-60 -313h95q383 0 383 -267q0 -223 -138 -355q-136 -130 -397 -130h-362zM1155 485h-78
l-41 -219h103q85 0 125 37q41 38 41 94q0 49 -31 69q-29 19 -119 19z" />
    <glyph glyph-name="afii10107" unicode="&#x45a;" horiz-adv-x="1605" 
d="M49 0l197 1065h282l-67 -356h385l65 356h283l-68 -356h93q120 0 202 -20q81 -20 119 -58q39 -39 52 -82q14 -45 14 -107q0 -194 -141 -318q-140 -124 -388 -124h-362l82 442h-383l-82 -442h-283zM1157 442h-78l-35 -176h76q187 0 187 111q0 36 -32 51q-29 14 -118 14z
" />
    <glyph glyph-name="afii10108" unicode="&#x45b;" horiz-adv-x="1177" 
d="M47 1065l47 266h234l32 164h281l-31 -164h383l-47 -266h-385l-51 -289q112 86 274 86q338 0 338 -332q0 -68 -16 -157l-68 -373h-282l67 356q8 61 8 78q5 162 -157 162q-136 0 -225 -141l-82 -455h-283l197 1065h-234z" />
    <glyph glyph-name="afii10109" unicode="&#x45c;" horiz-adv-x="1097" 
d="M49 0l201 1065h280l-69 -381l420 381h372l-548 -487l362 -578h-338l-260 432l-66 -63l-73 -369h-281zM1163 1520l-305 -306l-192 162l288 332z" />
    <glyph glyph-name="afii10110" unicode="&#x45e;" horiz-adv-x="1077" 
d="M8 -379l152 244q22 -17 41 -17q29 0 67 37q39 38 74 101l61 114l-303 965h308l182 -653l352 653h309l-579 -1016q-152 -264 -260 -371q-107 -106 -236 -106q-109 0 -168 49zM387 1511h258q-15 -108 82 -108q99 0 115 108h258q-21 -136 -124 -235q-102 -98 -271 -98
q-159 0 -250 83q-90 83 -68 250z" />
    <glyph glyph-name="afii10193" unicode="&#x45f;" horiz-adv-x="1126" 
d="M369 -102h262l-41 -215h-262zM1176 1065l-199 -1065h-283l21 90q-94 -106 -262 -106q-172 0 -263 82q-92 83 -92 225q0 72 19 172l123 602h282l-119 -580q-8 -42 -8 -82q1 -73 33 -114q30 -39 104 -39q156 0 234 141l127 674h283z" />
    <glyph glyph-name="afii10146" unicode="&#x462;" horiz-adv-x="1447" 
d="M141 993l58 297h235l29 144h317l-28 -144h440l-57 -297h-441l-22 -116h272q276 0 403 -92q126 -91 126 -281q0 -504 -715 -504h-574l193 993h-236zM883 580h-269l-55 -283h262q160 0 238 39t78 125q0 73 -59 96q-60 23 -195 23z" />
    <glyph glyph-name="afii10194" unicode="&#x463;" horiz-adv-x="1599" 
d="M1053 821q0 -15 -1 -26t-1 -23h168q199 0 290 -74q90 -73 90 -233q0 -213 -141 -339t-397 -126h-432l125 674q2 14 2 51q0 94 -97 94q-126 0 -200 -131l-127 -688h-283l197 1065h282l-14 -72q95 92 260 92q279 0 279 -264zM1151 506h-147l-43 -240h147q92 0 143 39
q52 40 52 107q0 48 -33 71q-34 23 -119 23z" />
    <glyph glyph-name="afii10147" unicode="&#x472;" horiz-adv-x="1599" 
d="M135 610q0 109 35 228q35 118 106 228q74 113 171 199q99 87 241 140t303 53q298 0 473 -175q176 -176 176 -458q0 -371 -245 -610q-246 -240 -607 -240q-291 0 -473 180q-180 179 -180 455zM823 283q150 0 268 78q119 79 179 210h-809q21 -136 120 -212q98 -76 242 -76z
M956 1151q-146 0 -267 -77q-119 -76 -181 -206h805q-22 127 -117 205q-94 78 -240 78z" />
    <glyph glyph-name="afii10195" unicode="&#x473;" horiz-adv-x="1202" 
d="M92 432q0 280 186 468q186 187 453 187q222 0 350 -125q129 -126 129 -321q0 -286 -177 -472q-176 -185 -458 -185q-229 0 -356 126t-127 322zM618 250q70 0 138 45q66 44 110 121h-471q34 -166 223 -166zM700 821q-77 0 -148 -43q-74 -45 -116 -116h471q-15 72 -67 115
q-53 44 -140 44z" />
    <glyph glyph-name="afii10148" unicode="&#x474;" horiz-adv-x="1574" 
d="M1475 1014l-652 -1014h-221l-395 1434h332l252 -930l411 655q185 293 430 293q164 0 242 -113l-191 -219q-24 19 -59 19q-43 0 -73 -27t-76 -98z" />
    <glyph glyph-name="afii10196" unicode="&#x475;" horiz-adv-x="1107" 
d="M924 627l-375 -627h-213l-270 1065h299l151 -614l232 397q140 237 348 233q125 -5 192 -88l-160 -225q-17 20 -47 20q-57 0 -157 -161z" />
    <glyph glyph-name="afii10050" unicode="&#x490;" horiz-adv-x="1208" 
d="M82 0l278 1434h779l45 235h297l-103 -532h-757l-222 -1137h-317z" />
    <glyph glyph-name="afii10098" unicode="&#x491;" horiz-adv-x="897" 
d="M49 0l197 1065h528l35 192h262l-84 -458h-508l-147 -799h-283z" />
    <glyph glyph-name="uni1E9E" unicode="&#x1e9e;" horiz-adv-x="1345" 
d="M897 1450q410 0 504 -340l-309 -285q237 -72 237 -342q0 -217 -160 -362q-159 -144 -421 -144q-146 0 -261 62l146 266q48 -31 131 -31q112 0 176 53t64 138q0 127 -193 127h-100l47 239l280 263q-46 59 -166 59q-257 0 -317 -301l-166 -852h-317l174 893q51 269 216 413
t435 144z" />
    <glyph glyph-name="uni2010" unicode="&#x2010;" horiz-adv-x="868" 
d="M160 444v267h622v-267h-622z" />
    <glyph glyph-name="uni2011" unicode="&#x2011;" horiz-adv-x="868" 
d="M160 444v267h622v-267h-622z" />
    <glyph glyph-name="figuredash" unicode="&#x2012;" horiz-adv-x="1261" 
d="M307 616v258h934v-258h-934z" />
    <glyph glyph-name="endash" unicode="&#x2013;" horiz-adv-x="1261" 
d="M221 444v258h934v-258h-934z" />
    <glyph glyph-name="emdash" unicode="&#x2014;" horiz-adv-x="1630" 
d="M221 444v258h1303v-258h-1303z" />
    <glyph glyph-name="quoteleft" unicode="&#x2018;" horiz-adv-x="514" 
d="M563 1055l-264 -148q-74 112 -74 203q0 225 338 401l119 -125q-156 -122 -156 -215q0 -48 37 -116z" />
    <glyph glyph-name="quoteright" unicode="&#x2019;" horiz-adv-x="514" 
d="M315 1364l265 147q73 -110 73 -202q0 -226 -338 -402l-118 125q155 121 155 215q0 49 -37 117z" />
    <glyph glyph-name="quotesinglbase" unicode="&#x201a;" horiz-adv-x="514" 
d="M86 188l264 148q74 -112 74 -203q0 -225 -338 -401l-119 125q156 121 156 215q0 48 -37 116z" />
    <glyph glyph-name="quotedblleft" unicode="&#x201c;" horiz-adv-x="923" 
d="M563 1055l-264 -148q-74 112 -74 203q0 225 338 401l119 -125q-156 -122 -156 -215q0 -48 37 -116zM977 1055l-264 -148q-74 112 -74 203q0 225 338 401l119 -125q-156 -122 -156 -215q0 -48 37 -116z" />
    <glyph glyph-name="quotedblright" unicode="&#x201d;" horiz-adv-x="923" 
d="M315 1364l265 147q73 -110 73 -202q0 -226 -338 -402l-118 125q155 121 155 215q0 49 -37 117zM725 1364l264 147q74 -112 74 -202q0 -226 -338 -402l-119 125q156 122 156 215q0 49 -37 117z" />
    <glyph glyph-name="quotedblbase" unicode="&#x201e;" horiz-adv-x="923" 
d="M86 188l264 148q74 -112 74 -203q0 -225 -338 -401l-119 125q156 121 156 215q0 48 -37 116zM496 188l264 148q74 -112 74 -203q0 -225 -338 -401l-119 125q155 121 155 215q0 50 -36 116z" />
    <glyph glyph-name="dagger" unicode="&#x2020;" horiz-adv-x="944" 
d="M166 768v297h272v369h318v-369h272v-297h-272v-948h-318v948h-272z" />
    <glyph glyph-name="daggerdbl" unicode="&#x2021;" horiz-adv-x="966" 
d="M184 770v297h273v367h299v-367h272v-297h-272v-233h272v-297h-272v-420h-299v420h-273v297h273v233h-273z" />
    <glyph glyph-name="bullet" unicode="&#x2022;" horiz-adv-x="663" 
d="M219 737q0 79 63 135q64 56 148 56q83 0 145 -56t62 -135q0 -76 -62 -133q-61 -57 -145 -57q-86 0 -148 56q-63 57 -63 134z" />
    <glyph glyph-name="ellipsis" unicode="&#x2026;" horiz-adv-x="1585" 
d="M1139 154q0 59 50 106t126 47q71 0 120 -48q50 -48 50 -105q0 -65 -49 -111q-50 -47 -121 -47q-77 0 -127 47q-49 46 -49 111zM602 154q0 60 49 106q50 47 125 47q72 0 121 -48t49 -105q0 -65 -49 -111q-50 -47 -121 -47q-75 0 -125 47q-49 46 -49 111zM63 154
q0 58 51 106q50 47 126 47q70 0 119 -48q51 -49 51 -105q0 -64 -50 -111t-120 -47q-77 0 -127 47t-50 111z" />
    <glyph glyph-name="perthousand" unicode="&#x2030;" horiz-adv-x="2801" 
d="M156 1059q0 168 118 274q119 107 295 107q177 0 296 -107q118 -106 118 -274q0 -167 -118 -273t-296 -106t-295 107q-118 108 -118 272zM455 1059q0 -59 33 -92q35 -35 81 -35q49 0 82 35t33 92q0 58 -34 92q-35 35 -81 35t-81 -35q-33 -33 -33 -92zM424 92l1049 1403
l219 -156l-1049 -1400zM1124 373q0 168 118 273q120 106 296 106t296 -106q118 -105 118 -273q0 -166 -119 -274q-117 -107 -295 -107q-179 0 -296 107q-118 108 -118 274zM1423 373q0 -58 34 -92q35 -35 81 -35t81 35q34 34 34 92t-34 92q-35 35 -81 35t-81 -35
q-34 -34 -34 -92zM2007 373q0 168 118 273q120 106 296 106t296 -106q117 -104 117 -273q0 -167 -117 -274t-296 -107q-178 0 -295 107q-119 108 -119 274zM2306 373q0 -58 34 -92q35 -35 81 -35q49 0 82 35q32 33 32 92t-33 92q-35 35 -81 35t-81 -35q-34 -34 -34 -92z" />
    <glyph glyph-name="guilsinglleft" unicode="&#x2039;" horiz-adv-x="712" 
d="M432 78l-317 475l2 14l444 418l176 -188l-276 -260l190 -287z" />
    <glyph glyph-name="guilsinglright" unicode="&#x203a;" horiz-adv-x="712" 
d="M391 985l314 -461l-3 -14l-450 -432l-174 192l282 265l-190 280z" />
    <glyph glyph-name="fraction" unicode="&#x2044;" horiz-adv-x="733" 
d="M-223 121l1128 1374l219 -176l-1124 -1382z" />
    <glyph glyph-name="uni2070" unicode="&#x2070;" horiz-adv-x="993" 
d="M276 977q0 210 125 358t349 148q188 0 281 -99t93 -270q0 -195 -122 -352q-122 -156 -340 -156q-386 0 -386 371zM553 989q0 -59 33 -93t92 -34q78 0 124 63q46 62 46 177q0 57 -34 91t-91 34q-83 0 -126 -66q-44 -67 -44 -172z" />
    <glyph glyph-name="uni2074" unicode="&#x2074;" horiz-adv-x="919" 
d="M604 614l25 131h-463l37 193l604 537h219l-96 -494h139l-45 -236h-139l-25 -131h-256zM530 981h144l28 149z" />
    <glyph glyph-name="uni2075" unicode="&#x2075;" horiz-adv-x="856" 
d="M299 934l139 541h580l-47 -246h-367l-16 -47q37 6 92 6q131 0 204 -67q72 -66 72 -183q0 -152 -112 -243t-297 -91q-255 0 -354 172l202 142q38 -68 160 -68q125 0 125 65q0 58 -123 58q-107 0 -258 -39z" />
    <glyph glyph-name="uni2076" unicode="&#x2076;" horiz-adv-x="972" 
d="M270 961q0 229 144 376q145 148 399 148q192 0 322 -88l-140 -187q-85 39 -204 39q-196 0 -224 -121q102 78 234 78q142 0 219 -67q78 -67 78 -187q0 -143 -118 -245q-120 -103 -314 -103q-187 0 -291 91q-105 91 -105 266zM565 934q-6 -37 27 -61q32 -23 92 -23
q137 0 137 76q0 55 -116 55q-88 0 -140 -47z" />
    <glyph glyph-name="uni2077" unicode="&#x2077;" horiz-adv-x="813" 
d="M276 1219l52 256h731l-39 -197l-485 -664h-336l456 605h-379z" />
    <glyph glyph-name="uni2078" unicode="&#x2078;" horiz-adv-x="1019" 
d="M717 1157h39q37 0 66 13q30 14 30 38q0 41 -100 41q-109 0 -109 -49q0 -43 74 -43zM713 952h-33q-123 0 -123 -57q0 -55 117 -55q147 0 147 61q0 51 -108 51zM653 604q-168 0 -270 63t-102 193q0 141 141 207q-55 43 -55 119q0 132 117 215q119 84 292 84q168 0 260 -62
t92 -168q0 -124 -118 -196q88 -46 88 -141q0 -154 -128 -234t-317 -80z" />
    <glyph glyph-name="uni2079" unicode="&#x2079;" horiz-adv-x="972" 
d="M1110 1128q0 -241 -140 -382q-141 -142 -401 -142q-181 0 -321 88l139 187q86 -39 205 -39q100 0 156 36q54 35 65 85q-102 -78 -233 -78q-136 0 -216 67q-81 68 -81 187q0 149 124 248q126 100 308 100q184 0 290 -92q105 -91 105 -265zM815 1155q6 36 -27 60t-92 24
q-51 0 -93 -18t-42 -54q0 -59 115 -59q95 0 139 47z" />
    <glyph glyph-name="uni207A" unicode="&#x207a;" horiz-adv-x="899" 
d="M307 932v246h213v211h266v-211h215v-246h-215v-213h-266v213h-213z" />
    <glyph glyph-name="uni207B" unicode="&#x207b;" horiz-adv-x="872" 
d="M307 932v246h668v-246h-668z" />
    <glyph glyph-name="uni207C" unicode="&#x207c;" horiz-adv-x="835" 
d="M303 1096v225h631v-225h-631zM303 791v225h631v-225h-631z" />
    <glyph glyph-name="uni207D" unicode="&#x207d;" horiz-adv-x="604" 
d="M676 532l-187 -143q-102 88 -166 218q-65 132 -65 267q0 198 112 355q110 154 341 307l139 -174q-154 -107 -232 -211q-79 -106 -79 -250q0 -193 137 -369z" />
    <glyph glyph-name="uni207E" unicode="&#x207e;" horiz-adv-x="598" 
d="M299 1393l186 143q104 -90 167 -218q65 -132 65 -267q0 -198 -112 -355q-110 -154 -341 -307l-139 174q152 106 231 211q80 107 80 250q0 193 -137 369z" />
    <glyph glyph-name="uni2080" unicode="&#x2080;" horiz-adv-x="993" 
d="M119 158q0 210 125 358t348 148q188 0 281 -99q94 -100 94 -270q0 -195 -122 -352q-122 -156 -341 -156q-385 0 -385 371zM395 170q0 -58 33 -93q33 -34 92 -34q78 0 124 62t46 178q0 57 -34 91t-91 34q-83 0 -126 -66q-44 -67 -44 -172z" />
    <glyph glyph-name="uni2081" unicode="&#x2081;" horiz-adv-x="675" 
d="M121 518l356 137h203l-168 -860h-276l106 537l-164 -64z" />
    <glyph glyph-name="uni2082" unicode="&#x2082;" horiz-adv-x="870" 
d="M315 305l-180 137q145 222 430 222q145 0 225 -66q78 -65 78 -178q0 -189 -250 -328l-90 -51h289l-47 -246h-719l41 207l176 92q310 163 310 264q0 60 -76 60q-113 0 -187 -113z" />
    <glyph glyph-name="uni2083" unicode="&#x2083;" horiz-adv-x="884" 
d="M295 322l-168 153q61 86 164 138q106 53 244 53q154 0 247 -52q92 -51 92 -157q0 -145 -159 -207q104 -43 104 -158q0 -136 -117 -222q-116 -85 -288 -85q-283 0 -371 229l209 111q40 -94 180 -94q109 0 109 53q0 39 -103 39h-73l34 205h68q115 0 115 55q0 37 -88 37
q-120 0 -199 -98z" />
    <glyph glyph-name="uni2084" unicode="&#x2084;" horiz-adv-x="919" 
d="M444 -205l25 131h-463l37 193l604 536h219l-96 -493h139l-45 -236h-139l-25 -131h-256zM371 162h143l29 149z" />
    <glyph glyph-name="uni2085" unicode="&#x2085;" horiz-adv-x="856" 
d="M139 115l140 540h579l-47 -245h-367l-16 -48q44 7 92 7q131 0 204 -67t73 -183q0 -151 -113 -243q-112 -91 -297 -91q-255 0 -354 172l203 141q37 -67 159 -67q125 0 125 65q0 58 -123 58q-107 0 -258 -39z" />
    <glyph glyph-name="uni2086" unicode="&#x2086;" horiz-adv-x="972" 
d="M111 141q0 231 143 377q145 148 399 148q192 0 322 -88l-139 -187q-86 39 -205 39q-195 0 -223 -121q102 78 233 78q140 0 219 -68q78 -67 78 -186q0 -144 -118 -246t-314 -102q-187 0 -291 91t-104 265zM406 115q-6 -38 26 -61t92 -23q138 0 138 75q0 56 -117 56
q-87 0 -139 -47z" />
    <glyph glyph-name="uni2087" unicode="&#x2087;" horiz-adv-x="813" 
d="M119 399l51 256h731l-39 -196l-485 -664h-336l457 604h-379z" />
    <glyph glyph-name="uni2088" unicode="&#x2088;" horiz-adv-x="1019" 
d="M557 338h39q38 0 67 13t29 38q0 41 -100 41q-109 0 -109 -49q0 -43 74 -43zM553 133h-33q-123 0 -123 -57q0 -56 117 -56q148 0 148 62q0 51 -109 51zM494 -215q-171 0 -271 62q-102 63 -102 194q0 141 141 207q-55 43 -55 119q0 131 118 215q119 84 291 84
q169 0 261 -62t92 -168q0 -124 -119 -196q88 -46 88 -142q0 -153 -128 -233t-316 -80z" />
    <glyph glyph-name="uni2089" unicode="&#x2089;" horiz-adv-x="972" 
d="M950 309q0 -241 -140 -382q-141 -142 -400 -142q-182 0 -322 88l139 186q85 -39 205 -39q100 0 156 36q54 35 65 85q-102 -78 -233 -78q-134 0 -216 68q-81 67 -81 186q0 150 124 249q126 100 308 100q183 0 290 -93q105 -91 105 -264zM655 336q6 37 -26 60
q-33 24 -92 24q-50 0 -94 -19q-42 -18 -42 -53q0 -59 115 -59q95 0 139 47z" />
    <glyph glyph-name="uni208A" unicode="&#x208a;" horiz-adv-x="899" 
d="M150 113v245h212v211h267v-211h215v-245h-215v-213h-267v213h-212z" />
    <glyph glyph-name="uni208B" unicode="&#x208b;" horiz-adv-x="872" 
d="M150 113v245h667v-245h-667z" />
    <glyph glyph-name="uni208C" unicode="&#x208c;" horiz-adv-x="835" 
d="M143 276v226h631v-226h-631zM143 -29v226h631v-226h-631z" />
    <glyph glyph-name="uni208D" unicode="&#x208d;" horiz-adv-x="604" 
d="M518 -287l-186 -143q-104 90 -167 218q-65 132 -65 267q0 198 112 355q110 154 341 307l139 -174q-152 -106 -231 -211q-80 -107 -80 -250q0 -193 137 -369z" />
    <glyph glyph-name="uni208E" unicode="&#x208e;" horiz-adv-x="598" 
d="M141 573l187 144q104 -90 167 -218q64 -129 64 -268q0 -197 -112 -354q-110 -154 -341 -307l-139 174q154 107 232 211q80 107 80 250q0 191 -138 368z" />
    <glyph glyph-name="Euro" unicode="&#x20ac;" horiz-adv-x="1425" 
d="M137 760l152 254h133q252 436 747 436q247 0 377 -127l-145 -213q-99 72 -268 72q-235 0 -371 -168h596l-144 -254h-581l-21 -86h555l-129 -252h-411q60 -172 301 -172q186 0 309 78l41 -244q-58 -41 -167 -71q-106 -29 -212 -29q-246 0 -403 112t-201 326h-217l145 252
h80v6q0 32 16 80h-182z" />
    <glyph glyph-name="uni20B4" unicode="&#x20b4;" horiz-adv-x="1271" 
d="M184 793l47 245h689q28 18 28 52q0 65 -160 65q-185 0 -315 -76l-84 258q182 115 465 115q197 0 305 -73q107 -72 107 -199q0 -75 -41 -142h114l-47 -245h-282q-49 -32 -236 -111h496l-47 -246h-695q-43 -28 -43 -71q0 -86 191 -86q210 0 371 106l98 -225
q-78 -80 -217 -129q-138 -49 -285 -49q-212 0 -343 76q-132 76 -132 225q0 80 41 153h-94l47 246h260q120 49 166 66q81 29 112 45h-516z" />
    <glyph glyph-name="uni20BD" unicode="&#x20bd;" horiz-adv-x="1288" 
d="M123 588l55 276h201l110 570q48 0 118 1t138 1q49 0 85 1t69 1q483 0 483 -377q0 -225 -177 -349q-176 -124 -472 -124h-102l-17 -86h328l-53 -277h-328l-43 -225h-307l43 225h-201l53 277h201l17 86h-201zM856 1161h-113l-57 -297h98q281 0 281 172q0 72 -51 99
q-49 26 -158 26z" />
    <glyph glyph-name="afii61352" unicode="&#x2116;" horiz-adv-x="2316" 
d="M1280 0h-242l-491 897l-172 -897h-303l278 1434h242l487 -897l174 897h306zM1540 938q0 177 125 299q124 121 309 121q170 0 269 -87q98 -86 98 -251t-121 -293q-122 -129 -313 -129q-184 0 -275 94q-92 95 -92 246zM1821 954q0 -46 27 -73t77 -27q61 0 97 42t36 108
q0 44 -28 71t-78 27q-53 0 -92 -42t-39 -106zM1446 248l51 266h707l-52 -266h-706z" />
    <glyph glyph-name="trademark" unicode="&#x2122;" horiz-adv-x="1701" 
d="M926 690v744h237l205 -236l195 236h239v-744h-299v262l-137 -164h-6l-135 166v-264h-299zM203 1174v260h694v-260h-158v-484h-299v484h-237z" />
    <glyph glyph-name="partialdiff" unicode="&#x2202;" horiz-adv-x="1230" 
d="M133 487q0 265 141 421q142 157 385 157q221 0 310 -125q-11 137 -154 200q-142 62 -319 44l45 274q344 0 533 -160q188 -159 188 -477q0 -237 -66 -425t-206 -304q-141 -117 -339 -117q-236 0 -377 149q-141 148 -141 363zM451 498q0 -124 62 -185t149 -61q102 0 174 93
t84 241q-27 102 -94 152t-134 50q-101 0 -171 -77t-70 -213z" />
    <glyph glyph-name="product" unicode="&#x220f;" horiz-adv-x="1812" 
d="M1348 -410v1536h-789v-1536h-328v1844h1444v-1844h-327z" />
    <glyph glyph-name="summation" unicode="&#x2211;" horiz-adv-x="1331" 
d="M678 512l-547 692v230h1167v-308h-710l467 -614l-488 -614h731v-308h-1167v230z" />
    <glyph glyph-name="minus" unicode="&#x2212;" horiz-adv-x="1136" 
d="M152 606v258h1013v-258h-1013z" />
    <glyph glyph-name="uni2215" unicode="&#x2215;" horiz-adv-x="733" 
d="M-215 121l1128 1374l220 -176l-1125 -1382z" />
    <glyph glyph-name="radical" unicode="&#x221a;" horiz-adv-x="1259" 
d="M115 719v266h397l223 -477l193 926h631v-246h-408l-279 -1198h-188l-373 729h-196z" />
    <glyph glyph-name="infinity" unicode="&#x221e;" horiz-adv-x="1398" 
d="M1104 350q-173 0 -309 131q-125 -131 -299 -131q-150 0 -256 99q-107 99 -107 251q0 147 101 249q102 104 266 104q152 0 286 -129q129 129 316 129q154 0 251 -99q97 -98 97 -260q0 -136 -90 -240t-256 -104zM1087 795q-58 0 -124 -86q83 -101 135 -101q30 0 48 27
q17 25 17 59q0 44 -19 72q-20 29 -57 29zM502 608q47 0 116 88q-78 99 -114 99t-61 -28q-23 -26 -23 -67t26 -66q28 -26 56 -26z" />
    <glyph glyph-name="integral" unicode="&#x222b;" horiz-adv-x="712" 
d="M219 1085q0 216 109 322q107 104 278 104q194 0 289 -125l-164 -192q-38 41 -106 41q-109 0 -109 -150v-1087q0 -217 -108 -322q-107 -104 -279 -104q-194 0 -289 125l164 192q38 -41 107 -41q108 0 108 150v1087z" />
    <glyph glyph-name="approxequal" unicode="&#x2248;" horiz-adv-x="1167" 
d="M264 733l-114 201q64 75 143 112q78 37 145 37q85 0 216 -52t204 -52q115 0 223 102l113 -190q-152 -150 -315 -150q-101 0 -231 49q-127 48 -175 48q-85 0 -209 -105zM264 344l-114 201q63 73 143 111q81 38 145 38q85 0 216 -52t204 -52q115 0 223 102l113 -190
q-152 -150 -315 -150q-103 0 -231 48q-130 49 -175 49q-85 0 -209 -105z" />
    <glyph glyph-name="notequal" unicode="&#x2260;" horiz-adv-x="1136" 
d="M172 801v258h449l155 418l271 -86l-123 -332h221v-258h-320l-49 -133h369v-258h-461l-174 -461l-266 100l139 361h-211v258h301l49 133h-350z" />
    <glyph glyph-name="lessequal" unicode="&#x2264;" horiz-adv-x="927" 
d="M162 481v307l805 -499v-314zM967 385l-805 508v125l805 498v-320l-394 -242l394 -247v-322z" />
    <glyph glyph-name="greaterequal" unicode="&#x2265;" horiz-adv-x="927" 
d="M967 788v-307l-805 -506v314zM967 893l-805 -508v322l393 247l-393 242v320l805 -498v-125z" />
    <glyph glyph-name="lozenge" unicode="&#x25ca;" horiz-adv-x="1019" 
d="M434 0l-342 520l344 545h252l342 -522l-344 -543h-252zM401 522l160 -246l160 267l-160 227z" />
    <glyph glyph-name="uniF350" unicode="&#xf350;" horiz-adv-x="1273" 
d="M-61 0l757 1145h226l311 -1145h-305l-51 174h-474l-120 -174h-344zM735 680l-178 -250h256z" />
    <glyph glyph-name="uniF351" unicode="&#xf351;" horiz-adv-x="1163" 
d="M1214 1147l-55 -287h-627l-22 -115h270q377 0 377 -313q0 -432 -545 -432h-555l224 1147h933zM670 459h-215l-35 -172h221q190 0 190 92q0 47 -36 63q-39 17 -125 17z" />
    <glyph glyph-name="uniF352" unicode="&#xf352;" horiz-adv-x="1204" 
d="M57 0l224 1147h567q206 0 295 -69q88 -69 88 -206q0 -169 -160 -264q103 -68 103 -215q0 -195 -149 -294t-400 -99h-568zM692 446h-241l-31 -159h252q99 0 140 17q44 18 44 71q0 45 -40 58q-39 13 -124 13zM764 860h-232l-26 -137h246q141 0 141 74q0 39 -30 51t-99 12z
" />
    <glyph glyph-name="uniF353" unicode="&#xf353;" horiz-adv-x="1038" 
d="M70 0l211 1147h929l-55 -287h-623l-155 -860h-307z" />
    <glyph glyph-name="uniF354" unicode="&#xf354;" horiz-adv-x="1349" 
d="M-90 -205l96 492h133q95 113 149 279q54 165 111 472l21 109h928l-166 -860h157l-96 -492h-287l39 205h-759l-39 -205h-287zM662 860l-7 -31q-84 -415 -184 -542h403l111 573h-323z" />
    <glyph glyph-name="uniF355" unicode="&#xf355;" horiz-adv-x="1134" 
d="M57 0l224 1147h927l-55 -287h-621l-28 -141h577l-53 -277h-577l-31 -155h635l-56 -287h-942z" />
    <glyph glyph-name="uniF356" unicode="&#xf356;" horiz-adv-x="1708" 
d="M492 647l-336 500h346l291 -422l71 422h307l-73 -422l393 422h397l-545 -553l345 -594h-334l-248 440l-68 -55l-67 -385h-307l67 387l-47 53l-379 -440h-362z" />
    <glyph glyph-name="uniF357" unicode="&#xf357;" horiz-adv-x="1144" 
d="M569 -27q-382 0 -542 271l239 166q92 -150 320 -150q223 0 223 102q0 43 -48 61q-45 17 -171 17h-141l55 287h184q174 0 174 90q0 70 -157 70q-202 0 -326 -113l-174 182q185 218 526 218q449 0 449 -312q0 -180 -162 -270q108 -62 108 -197q0 -217 -153 -319
q-155 -103 -404 -103z" />
    <glyph glyph-name="uniF358" unicode="&#xf358;" horiz-adv-x="1318" 
d="M307 0h-250l224 1147h307l-119 -608l659 608h254l-223 -1147h-307l117 602z" />
    <glyph glyph-name="uniF359" unicode="&#xf359;" horiz-adv-x="1318" 
d="M307 0h-250l224 1147h307l-119 -608l659 608h254l-223 -1147h-307l117 602zM545 1573h272q-11 -53 14 -81t70 -28q94 0 123 109h270q-30 -141 -133 -238q-102 -96 -278 -96t-268 83q-91 82 -70 251z" />
    <glyph glyph-name="uniF35A" unicode="&#xf35a;" horiz-adv-x="1245" 
d="M57 0l224 1147h307l-76 -404l463 404h426l-627 -535l422 -612h-377l-297 432l-86 -67l-71 -365h-308z" />
    <glyph glyph-name="uniF35B" unicode="&#xf35b;" horiz-adv-x="1296" 
d="M829 0l168 860h-325l-8 -47q-34 -191 -84 -336q-48 -141 -122 -263q-71 -117 -180 -176q-107 -58 -243 -52q-16 1 -52 7q-30 5 -34 5l57 295q123 -21 212 107t155 468l53 279h934l-223 -1147h-308z" />
    <glyph glyph-name="uniF35C" unicode="&#xf35c;" horiz-adv-x="1490" 
d="M57 0l224 1147h233l295 -436l455 436h290l-223 -1147h-307l121 627l-348 -338h-82l-228 346l-122 -635h-308z" />
    <glyph glyph-name="uniF35D" unicode="&#xf35d;" horiz-adv-x="1310" 
d="M844 0l84 432h-479l-84 -432h-308l224 1147h307l-84 -428h479l84 428h307l-223 -1147h-307z" />
    <glyph glyph-name="uniF35E" unicode="&#xf35e;" horiz-adv-x="1359" 
d="M102 481q0 296 198 491t515 195q259 0 411 -140t152 -359q0 -294 -191 -491t-517 -197q-249 0 -409 137q-159 137 -159 364zM420 522q0 -106 73 -176t195 -70q175 0 275 103q98 101 98 244q0 102 -71 175q-70 72 -197 72q-170 0 -272 -103q-101 -102 -101 -245z" />
    <glyph glyph-name="uniF35F" unicode="&#xf35f;" horiz-adv-x="1310" 
d="M850 0l162 860h-480l-161 -860h-308l218 1147h1093l-217 -1147h-307z" />
    <glyph glyph-name="uniF360" unicode="&#xf360;" horiz-adv-x="1200" 
d="M365 0h-308l224 1147h518q452 0 452 -363q0 -217 -152 -335q-154 -119 -435 -119h-236zM758 860h-226l-47 -244h215q234 0 234 142q0 55 -42 79q-40 23 -134 23z" />
    <glyph glyph-name="uniF361" unicode="&#xf361;" horiz-adv-x="1216" 
d="M1059 428l166 -213q-192 -235 -531 -235q-272 0 -431 140q-161 141 -161 372q0 302 202 489q201 186 515 186q334 0 484 -243l-230 -176q-91 122 -282 122q-169 0 -270 -94t-101 -239q0 -116 84 -188q85 -73 217 -73q111 0 185 37q76 38 153 115z" />
    <glyph glyph-name="uniF362" unicode="&#xf362;" horiz-adv-x="1083" 
d="M123 850l57 297h1067l-57 -297h-381l-158 -850h-307l158 850h-379z" />
    <glyph glyph-name="uniF363" unicode="&#xf363;" horiz-adv-x="1290" 
d="M270 70l166 227q27 -18 49 -18q55 0 95 88l-408 780h352l250 -488l338 488h352l-608 -875q-188 -272 -383 -272q-125 0 -203 70z" />
    <glyph glyph-name="uniF364" unicode="&#xf364;" horiz-adv-x="1638" 
d="M608 -25l25 129h-6q-256 0 -395 110q-138 110 -138 323q0 143 61 251q60 106 166 167q107 61 229 89q129 30 271 31l19 96h311l-18 -96q249 0 395 -102q145 -102 145 -326q0 -261 -195 -402t-526 -141h-8l-24 -129h-312zM1079 786h-2l-76 -393h9q346 0 346 232
q0 92 -73 127q-71 34 -204 34zM412 555q0 -162 274 -162h4l76 393q-354 0 -354 -231z" />
    <glyph glyph-name="uniF365" unicode="&#xf365;" horiz-adv-x="1257" 
d="M1430 1147l-560 -578l336 -569h-350l-190 326l-320 -326h-405l579 592l-332 555h347l186 -311l309 311h400z" />
    <glyph glyph-name="uniF366" unicode="&#xf366;" horiz-adv-x="1327" 
d="M57 0l217 1147h308l-162 -860h430l162 860h307l-162 -860h158l-94 -492h-287l39 205h-916z" />
    <glyph glyph-name="uniF367" unicode="&#xf367;" horiz-adv-x="1249" 
d="M1313 1147l-223 -1147h-308l78 401q-130 -53 -307 -53q-178 0 -288 79q-111 79 -111 235q0 56 12 118l74 367h307l-45 -193q-31 -144 -31 -188q0 -131 180 -131q160 0 267 61l88 451h307z" />
    <glyph glyph-name="uniF368" unicode="&#xf368;" horiz-adv-x="1626" 
d="M57 0l217 1147h308l-162 -860h244l161 860h308l-162 -860h243l162 860h307l-217 -1147h-1409z" />
    <glyph glyph-name="uniF369" unicode="&#xf369;" horiz-adv-x="1671" 
d="M57 0l217 1147h308l-162 -860h244l161 860h308l-162 -860h243l162 860h307l-161 -860h137l-94 -492h-287l39 205h-1260z" />
    <glyph glyph-name="uniF36A" unicode="&#xf36a;" horiz-adv-x="1308" 
d="M117 860l55 287h567l-69 -356h192q229 0 341 -83t112 -262q0 -129 -43 -216q-44 -89 -125 -138t-184 -70q-107 -22 -240 -22h-514l168 860h-260zM803 502h-189l-41 -215h199q125 0 174 26q51 27 51 97q0 50 -45 71t-149 21z" />
    <glyph glyph-name="uniF36B" unicode="&#xf36b;" horiz-adv-x="1591" 
d="M1122 0l224 1147h309l-223 -1147h-310zM614 502h-151l-43 -215h158q128 0 177 25q50 26 50 96q0 52 -46 73q-47 21 -145 21zM588 1147l-70 -356h203q197 0 300 -89q101 -88 101 -256q0 -236 -144 -341t-443 -105h-478l224 1147h307z" />
    <glyph glyph-name="uniF36C" unicode="&#xf36c;" horiz-adv-x="1167" 
d="M668 502h-205l-43 -215h209q127 0 176 25t49 100q0 90 -186 90zM588 1147l-70 -356h250q403 0 403 -347q0 -235 -147 -340q-146 -104 -442 -104h-525l224 1147h307z" />
    <glyph glyph-name="uniF36D" unicode="&#xf36d;" horiz-adv-x="1236" 
d="M461 442l55 287h422q-60 152 -281 152q-204 0 -352 -140l-170 215q207 211 553 211q279 0 426 -138q148 -139 148 -367q0 -304 -190 -494q-188 -188 -527 -188q-375 0 -543 253l215 185q68 -80 150 -116q83 -36 206 -36q125 0 211 50t125 126h-448z" />
    <glyph glyph-name="uniF36E" unicode="&#xf36e;" horiz-adv-x="1798" 
d="M57 0l224 1147h307l-84 -434h100q28 88 79 164q53 79 133 144t201 106q119 40 261 40q261 0 403 -134t142 -353q0 -301 -188 -501q-187 -199 -527 -199q-223 0 -377 117q-156 119 -164 356h-114l-88 -453h-308zM883 516q0 -115 71 -182q73 -68 193 -68q151 0 256 105
q104 104 104 264q0 114 -68 179q-70 67 -184 67q-150 0 -262 -104q-110 -103 -110 -261z" />
    <glyph glyph-name="uniF36F" unicode="&#xf36f;" horiz-adv-x="1230" 
d="M764 0l70 356h-146l-362 -356h-396l426 414q-186 88 -186 309q0 206 157 315t421 109h546l-223 -1147h-307zM659 643h230l43 217h-258q-178 0 -178 -119q0 -105 163 -98z" />
    <glyph glyph-name="uniF371" unicode="&#xf371;" horiz-adv-x="1134" 
d="M57 0l224 1147h927l-55 -287h-621l-28 -141h577l-53 -277h-577l-31 -155h635l-56 -287h-942zM412 1434q0 61 47 102t112 41q62 0 112 -41t50 -102q0 -67 -49 -107q-50 -41 -113 -41q-66 0 -112 40q-47 41 -47 108zM829 1434q0 61 50 102t116 41q65 0 114 -41
q48 -40 48 -102q0 -67 -47 -108q-46 -40 -115 -40q-70 0 -117 40q-49 41 -49 108z" />
    <glyph glyph-name="uniF372" unicode="&#xf372;" horiz-adv-x="1349" 
d="M1012 377q0 104 -127 104q-116 0 -183 -71l-79 -410h-308l168 860h-368l55 287h1057l-56 -287h-380l-27 -133q87 41 231 41q182 0 261 -94t79 -248q0 -198 -108 -320q-107 -120 -297 -120q-160 0 -223 106l165 209q17 -29 52 -29q40 0 64 29q24 28 24 76z" />
    <glyph glyph-name="uniF373" unicode="&#xf373;" horiz-adv-x="1038" 
d="M70 0l211 1147h929l-55 -287h-623l-155 -860h-307zM1106 1554l-303 -303l-187 168l287 328z" />
    <glyph glyph-name="uniF374" unicode="&#xf374;" horiz-adv-x="1216" 
d="M1059 428l166 -213q-192 -235 -531 -235q-272 0 -431 140q-161 141 -161 372q0 302 202 489q201 186 515 186q334 0 484 -243l-230 -176q-91 122 -282 122q-214 0 -314 -143h465l-55 -287h-451q29 -75 107 -119q79 -45 178 -45q111 0 185 37q76 38 153 115z" />
    <glyph glyph-name="uniF375" unicode="&#xf375;" 
d="M760 358q0 36 -43 60q-46 26 -109 37q-70 13 -141 35q-67 21 -141 53q-66 28 -109 91q-43 62 -43 148q0 172 144 279q143 106 384 106q154 0 277 -50q120 -49 188 -138l-178 -193q-128 95 -313 95q-184 0 -184 -88q0 -34 43 -56q46 -24 108 -35q70 -13 141 -35
q68 -21 142 -55q64 -29 108 -93q43 -62 43 -148q0 -191 -141 -291q-140 -100 -369 -100q-184 0 -324 70q-141 70 -204 171l203 193q148 -148 348 -148q170 0 170 92z" />
    <glyph glyph-name="uniF376" unicode="&#xf376;" horiz-adv-x="536" 
d="M70 0l217 1147h307l-217 -1147h-307z" />
    <glyph glyph-name="uniF377" unicode="&#xf377;" horiz-adv-x="536" 
d="M63 0l224 1147h307l-223 -1147h-308zM145 1325q0 59 45 98t109 39q58 0 105 -40q49 -41 49 -97q0 -63 -47 -102t-107 -39q-64 0 -109 39t-45 102zM483 1325q0 59 47 98q46 39 113 39q63 0 109 -40q47 -41 47 -97q0 -63 -45 -102t-111 -39q-67 0 -113 39q-47 39 -47 102z
" />
    <glyph glyph-name="uniF378" unicode="&#xf378;" horiz-adv-x="845" 
d="M920 1147l-146 -780q-76 -387 -420 -387q-126 0 -227 60q-100 60 -145 171l243 162q16 -48 50 -76q37 -31 83 -31q53 0 80 40q26 39 41 122l133 719h308z" />
    <glyph glyph-name="uniF379" unicode="&#xf379;" horiz-adv-x="1802" 
d="M1303 502h-144l-43 -215h150q128 0 177 25q50 26 50 96q0 52 -46 73q-47 21 -144 21zM1223 0h-469l168 860h-250l-8 -47q-34 -191 -84 -336q-48 -141 -122 -263q-71 -117 -180 -176q-107 -58 -243 -52q-16 1 -52 7q-30 5 -34 5l57 295q123 -21 212 107t155 468l53 279
h858l-70 -356h195q197 0 300 -89q101 -88 101 -256q0 -236 -144 -341t-443 -105z" />
    <glyph glyph-name="uniF37A" unicode="&#xf37a;" horiz-adv-x="1824" 
d="M1329 459h-141l-35 -172h152q96 0 144 19q50 20 50 81q0 42 -37 57t-133 15zM791 0l90 459h-426l-90 -459h-308l224 1147h307l-78 -399h426l78 399h307l-78 -399h172q408 0 408 -332q0 -416 -586 -416h-446z" />
    <glyph glyph-name="uniF37B" unicode="&#xf37b;" horiz-adv-x="1290" 
d="M115 860l55 287h1057l-56 -287h-380l-25 -125q102 33 203 33q301 0 303 -276q0 -71 -10 -125l-72 -367h-305l63 330q6 30 6 63q0 41 -27 65q-26 23 -77 23q-83 0 -143 -51l-84 -430h-308l168 860h-368z" />
    <glyph glyph-name="uniF37C" unicode="&#xf37c;" horiz-adv-x="1245" 
d="M57 0l224 1147h307l-76 -404l463 404h426l-627 -535l422 -612h-377l-297 432l-86 -67l-71 -365h-308zM1151 1554l-303 -303l-186 168l286 328z" />
    <glyph glyph-name="uniF37E" unicode="&#xf37e;" horiz-adv-x="1290" 
d="M270 70l166 227q27 -18 49 -18q55 0 95 88l-408 780h352l250 -488l338 488h352l-608 -875q-188 -272 -383 -272q-125 0 -203 70zM504 1573h272q-10 -52 15 -81q25 -28 69 -28q94 0 123 109h270q-30 -141 -133 -238q-102 -96 -278 -96t-268 83q-91 82 -70 251z" />
    <glyph glyph-name="uniF37F" unicode="&#xf37f;" horiz-adv-x="1310" 
d="M57 0l217 1147h308l-162 -860h479l162 860h307l-217 -1147h-397l-41 -215h-299l41 215h-398z" />
    <glyph glyph-name="uniF381" unicode="&#xf381;" horiz-adv-x="1247" 
d="M98 768l56 287h188l18 92h308l-19 -92h363l-56 -287h-362l-12 -66h202q233 0 345 -65q114 -66 114 -231q0 -100 -30 -172q-31 -74 -80 -116q-54 -46 -129 -72q-82 -29 -163 -37q-85 -9 -196 -9h-508l150 768h-189zM731 416h-205l-26 -129h200h37q70 0 87 1q32 2 55 8
q29 8 37 23q10 18 10 48q0 35 -31 43q-30 8 -117 6h-47z" />
    <glyph glyph-name="uniF389" unicode="&#xf389;" horiz-adv-x="1359" 
d="M102 481q0 127 42 244q42 116 127 218t233 162q147 60 340 60q239 0 386 -140q148 -141 148 -359q0 -134 -45 -256q-45 -121 -131 -219q-85 -97 -226 -154t-317 -57q-251 0 -404 141t-153 360zM684 276q226 0 328 156h-580q22 -72 89 -114q66 -42 163 -42zM786 868
q-203 0 -313 -149h578q-60 149 -265 149z" />
    <glyph glyph-name="uniF38A" unicode="&#xf38a;" horiz-adv-x="1339" 
d="M1233 780l-524 -780h-211l-346 1147h311l207 -696l293 452q85 132 176 196t215 64q132 0 205 -61l-164 -258q-18 12 -58 12q-53 -5 -104 -76z" />
    <glyph glyph-name="uniF393" unicode="&#xf393;" horiz-adv-x="1036" 
d="M57 0l224 1147h643l34 180h287l-90 -467h-623l-167 -860h-308z" />
    <glyph glyph-name="uniF3CF" unicode="&#xf3cf;" horiz-adv-x="1955" 
d="M1075 0h-233l-391 629l-121 -629h-295l223 1147h234l393 -631l119 631h294zM1268 717q0 165 99 269t290 104q144 0 226 -74q81 -73 81 -187q0 -177 -110 -275q-109 -97 -273 -97q-144 0 -228 71q-85 72 -85 189zM1540 762q0 -57 62 -57q90 0 90 79q0 56 -64 56
q-39 0 -64 -22q-24 -21 -24 -56zM1182 147l49 256h627l-50 -256h-626z" />
    <glyph glyph-name="uniF3D0" unicode="&#xf3d0;" horiz-adv-x="1062" 
d="M621 1573h272q-11 -53 14 -81t70 -28q94 0 123 109h270q-30 -141 -133 -238q-102 -96 -279 -96q-175 0 -267 83q-91 82 -70 251z" />
    <glyph glyph-name="uniF3E4" unicode="&#xf3e4;" horiz-adv-x="0" 
d="M-164 1554l-303 -303l-186 168l286 328z" />
    <glyph glyph-name="uniF400" unicode="&#xf400;" horiz-adv-x="0" 
d="M-55 1520l-305 -306l-193 162l289 332z" />
    <glyph glyph-name="uniF401" unicode="&#xf401;" horiz-adv-x="0" 
d="M-125 1726l-500 -215l-110 207l477 275z" />
    <glyph glyph-name="uniF406" unicode="&#xf406;" horiz-adv-x="1177" 
d="M705 1776l155 149q96 -123 268 -123q177 0 312 123l90 -176q-76 -94 -192 -154q-114 -59 -240 -59q-128 0 -230 66q-101 65 -163 174z" />
    <glyph glyph-name="uniF407" unicode="&#xf407;" horiz-adv-x="1079" 
d="M408 -311l124 123q61 -58 154 -58q66 0 66 31t-86 31h-13l37 184h154l-8 -53q202 -16 202 -164q0 -100 -86 -157q-84 -56 -239 -56q-204 0 -305 119z" />
    <glyph glyph-name="uniF408" unicode="&#xf408;" horiz-adv-x="1165" 
d="M1149 1935l344 -252l-139 -161l-232 155l-293 -155l-81 182l393 231h8z" />
    <glyph glyph-name="uniF409" unicode="&#xf409;" horiz-adv-x="942" 
d="M561 -215l262 152q74 -63 74 -160q0 -124 -90 -223q-88 -97 -205 -160l-117 125q113 99 113 168q0 43 -37 98z" />
    <glyph glyph-name="uniF40A" unicode="&#xf40a;" horiz-adv-x="442" 
d="M367 1364l264 147q74 -112 74 -202q0 -226 -338 -402l-119 125q155 121 155 215q0 51 -36 117z" />
    <glyph glyph-name="uniF40B" unicode="&#xf40b;" horiz-adv-x="968" 
d="M961 1698q0 67 47 114q48 48 116 48q71 0 122 -48q50 -47 50 -114q0 -66 -50 -111t-122 -45q-70 0 -116 45q-47 45 -47 111z" />
    <glyph glyph-name="uniF40C" unicode="&#xf40c;" horiz-adv-x="1118" 
d="M807 1716q0 124 97 194t255 70q303 0 303 -215q0 -127 -99 -200q-100 -74 -257 -74q-299 0 -299 225zM1034 1722q0 -67 84 -67q52 0 83 25q32 26 32 73q0 24 -22 44t-64 20q-113 0 -113 -95z" />
    <glyph glyph-name="uniF40D" unicode="&#xf40d;" horiz-adv-x="1138" 
d="M772 1575l-67 201q128 114 249 114q70 0 150 -30q82 -31 133 -31q107 0 195 63l43 -200q-113 -129 -254 -129q-63 0 -151 30q-91 31 -146 31q-76 0 -152 -49z" />
    <glyph glyph-name="uniF40E" unicode="&#xf40e;" horiz-adv-x="960" 
d="M874 -143l56 -185q-33 -33 -108 -57q-78 -25 -154 -25q-118 0 -190 42t-72 124q0 75 53 134t138 92q84 32 181 49q93 16 193 16l-10 -47q-91 0 -158 -39q-68 -39 -68 -82t53 -43q36 0 86 21z" />
    <glyph glyph-name="uniF410" unicode="&#xf410;" horiz-adv-x="0" 
d="M-352 1489l-484 248l148 258l461 -307z" />
    <glyph glyph-name="uniF416" unicode="&#xf416;" horiz-adv-x="839" 
d="M442 -205l279 142q74 -63 74 -160q0 -125 -87 -224q-87 -98 -200 -159l-123 119q104 89 104 172q0 48 -47 110z" />
    <glyph glyph-name="uniF418" unicode="&#xf418;" horiz-adv-x="442" 
d="M303 1042l264 148q74 -112 74 -203q0 -225 -338 -401l-119 125q156 121 156 215q0 48 -37 116z" />
    <glyph glyph-name="uniF447" unicode="&#xf447;" horiz-adv-x="1083" 
d="M154 -326l104 131q68 -51 162 -51q65 0 65 31t-86 31h-12l35 184h-78l158 850h-379l57 297h1067l-57 -297h-381l-158 -850h-76l-10 -53q187 -17 187 -154q0 -101 -87 -162q-86 -61 -251 -61q-77 0 -149 29q-71 29 -111 75z" />
    <glyph glyph-name="uniF44E" unicode="&#xf44e;" horiz-adv-x="1339" 
d="M92 457q0 135 66 272h901q-71 143 -285 143q-218 0 -366 -131l-164 199q219 219 559 219q265 0 422 -137q155 -136 155 -358q0 -308 -202 -492t-514 -184q-96 0 -170 14q-86 16 -155 48q-75 34 -129 87t-86 134q-32 82 -32 186zM1020 442h-623q7 -81 83 -125
q74 -43 188 -43q246 0 352 168z" />
    <glyph glyph-name="uniF452" unicode="&#xf452;" horiz-adv-x="1603" 
d="M72 0l209 1147h938l-56 -287h-631l-32 -180h594l-58 -287h-590l-69 -393h-305zM1135 0l217 1147h307l-217 -1147h-307z" />
    <glyph glyph-name="uniF453" unicode="&#xf453;" horiz-adv-x="2146" 
d="M72 0l209 1147h938l-56 -287h-631l-32 -180h594l-58 -287h-590l-69 -393h-305zM1133 0l217 1147h307l-162 -860h637l-55 -287h-944z" />
    <glyph glyph-name="zero.tab" unicode="&#xf4e0;" horiz-adv-x="1269" 
d="M127 532q0 255 76 458q77 205 237 331q161 127 387 127q243 0 367 -151q123 -150 123 -402q0 -179 -42 -338q-43 -162 -124 -289q-83 -130 -219 -206t-311 -76q-251 0 -372 147q-122 148 -122 399zM459 580q0 -287 203 -287q84 0 151 50q63 48 102 134q37 83 55 182
q17 94 17 207q0 132 -52 203q-53 72 -155 72q-109 0 -186 -92q-75 -90 -106 -214q-29 -117 -29 -255z" />
    <glyph glyph-name="one.tab" unicode="&#xf4e1;" horiz-adv-x="1269" 
d="M90 0l57 297h408l147 739l-272 -116l-63 278l516 236h200l-221 -1137h295l-57 -297h-1010z" />
    <glyph glyph-name="two.tab" unicode="&#xf4e2;" horiz-adv-x="1269" 
d="M442 911l-256 105q73 196 231 315q156 117 396 117q247 0 370 -115q122 -114 122 -315q0 -196 -139 -356t-392 -304l-108 -61h510l-58 -297h-1108l45 231l193 119q16 10 64.5 39.5t80.5 49.5q34 21 81 49.5t60 36.5q24 15 120 77q74 48 112 77q45 34 86 73q52 49 70 76
q23 35 39 76t16 83q0 74 -58 114t-143 40q-117 0 -195 -58q-77 -58 -139 -172z" />
    <glyph glyph-name="three.tab" unicode="&#xf4e3;" horiz-adv-x="1269" 
d="M446 967l-241 123q180 362 626 362q241 0 369 -89q127 -88 127 -259q0 -112 -65 -202q-66 -91 -191 -138q182 -63 182 -285q0 -223 -178 -359t-448 -136q-216 0 -372 87q-157 88 -196 294l287 118q12 -89 88 -146q75 -56 199 -56q293 0 293 186q0 123 -211 123h-209
l55 287h168q126 0 198 42t72 115q0 121 -196 121q-251 0 -357 -188z" />
    <glyph glyph-name="four.tab" unicode="&#xf4e4;" horiz-adv-x="1269" 
d="M692 0l49 250h-688l39 205l932 979h254l-176 -908h178l-53 -276h-178l-50 -250h-307zM520 526h275l73 375z" />
    <glyph glyph-name="five.tab" unicode="&#xf4e5;" horiz-adv-x="1269" 
d="M217 709l217 725h938l-57 -297h-668l-69 -222q90 41 208 41q247 0 357 -116t110 -305q0 -230 -167 -391q-166 -160 -455 -160q-220 0 -366 100t-179 281l283 112q21 -85 101 -135q81 -51 198 -51q120 0 188 60t68 161q0 158 -228 158q-61 0 -115 -13t-79 -25
q-36 -17 -94 -50z" />
    <glyph glyph-name="six.tab" unicode="&#xf4e6;" horiz-adv-x="1269" 
d="M123 510q0 180 45 343q45 165 136 300q92 137 249 218q158 81 365 81q292 0 436 -197l-213 -213q-53 58 -112 85q-61 28 -159 28q-150 0 -255 -96q-106 -97 -136 -254q163 180 369 180q223 0 331 -117q107 -116 107 -297q0 -257 -174 -423q-173 -166 -459 -166
q-257 0 -393 136q-137 137 -137 392zM479 512q-16 -95 34 -165q49 -68 179 -68q128 0 195 80t67 180q0 75 -49 117t-141 42q-190 0 -285 -186z" />
    <glyph glyph-name="seven.tab" unicode="&#xf4e7;" horiz-adv-x="1269" 
d="M240 1137l57 297h1126l-39 -199l-860 -1235h-358l795 1137h-721z" />
    <glyph glyph-name="eight.tab" unicode="&#xf4e8;" horiz-adv-x="1269" 
d="M739 868h43q91 0 157 48q67 49 67 131q0 59 -63 88q-62 28 -136 28q-111 0 -175 -43q-65 -44 -65 -121q0 -56 49 -93q50 -38 123 -38zM727 602h-47q-122 0 -195 -55t-73 -133q0 -74 66 -109q67 -35 157 -35q132 0 219 51q84 49 84 140q0 65 -57 103q-58 38 -154 38z
M614 -16q-222 0 -376 98q-156 99 -156 283q0 280 272 391q-54 28 -84 93q-30 66 -30 140q0 212 175 336q176 125 439 125q223 0 349 -98q128 -99 128 -256q0 -102 -53 -196q-52 -92 -170 -148q80 -38 120 -115t40 -164q0 -216 -176 -353q-175 -136 -478 -136z" />
    <glyph glyph-name="nine.tab" unicode="&#xf4e9;" horiz-adv-x="1269" 
d="M1354 918q0 -426 -210 -681t-556 -255q-343 0 -510 227l205 209q62 -65 135 -103q69 -36 190 -36q156 0 256 92q98 91 121 217q-143 -139 -332 -139q-238 0 -368 118q-131 119 -131 310q0 243 184 409t481 166q255 0 395 -150q140 -151 140 -384zM1004 881
q21 113 -40 194q-60 80 -194 80q-120 0 -205 -70q-84 -69 -84 -167q0 -87 62 -135q61 -48 162 -48q105 0 184 40q81 41 115 106z" />
    <glyph glyph-name="dollar.tab" unicode="&#xf4ec;" horiz-adv-x="1269" 
d="M1055 1595l-29 -151q203 -50 332 -221l-209 -199q-161 145 -342 145q-234 0 -234 -129q0 -46 50 -84q49 -37 122 -58q77 -22 160 -57q92 -39 160 -79q73 -44 123 -126q49 -82 49 -194q0 -196 -141 -321q-143 -126 -357 -150l-28 -151h-305l30 174q-271 77 -377 317
l234 183q59 -103 156 -167q96 -63 215 -63q125 0 184 43t59 107q0 66 -68 109q-73 46 -166 76q-87 28 -195 73q-96 40 -166 125q-68 83 -68 207q0 189 134 311q133 121 345 145l27 135h305z" />
    <glyph glyph-name="Euro.tab" unicode="&#xf4ed;" horiz-adv-x="1269" 
d="M96 760l152 254h133q252 436 747 436q216 0 340 -119l-145 -213q-90 64 -231 64q-234 0 -371 -168h559l-143 -254h-545l-21 -86h519l-129 -252h-375q30 -90 110 -131t170 -41q172 0 291 72l41 -244q-157 -94 -360 -94q-233 0 -386 113q-155 114 -198 325h-217l145 252h80
v6q0 29 17 80h-183z" />
    <glyph glyph-name="cent.tab" unicode="&#xf4ee;" horiz-adv-x="1269" 
d="M971 391l186 -164q-140 -198 -377 -227l-80 -410h-317l80 412q-152 45 -236 159t-84 288q0 250 148 422q146 170 379 208l71 355h318l-72 -361q103 -23 175 -92t95 -160l-219 -131q-52 96 -143 123l-104 -543q104 27 180 121zM440 492q0 -164 117 -216l102 529
q-92 -27 -155 -114q-64 -88 -64 -199z" />
    <glyph glyph-name="sterling.tab" unicode="&#xf4ef;" horiz-adv-x="1269" 
d="M162 508l49 254h102q-26 103 -26 194q0 204 138 348t400 144q289 0 465 -201l-196 -217q-134 121 -285 121q-99 0 -150 -55q-51 -56 -51 -146t31 -188h340l-49 -254h-291l-4 -25q-15 -90 -76 -151q44 -1 146 -37q100 -35 149 -35q129 0 219 117l123 -213
q-152 -164 -358 -164q-112 0 -251 43t-212 43q-134 0 -269 -109l-102 230q110 95 248 133q59 62 74 137l6 31h-170z" />
    <glyph glyph-name="yen.tab" unicode="&#xf4fa;" horiz-adv-x="1269" 
d="M236 616l51 258h123l-285 560h369l256 -496l434 496h415l-507 -560h127l-52 -258h-309l-24 -133h309l-51 -258h-310l-43 -225h-317l43 225h-305l51 258h305l25 133h-305z" />
    <glyph glyph-name="florin.tab" unicode="&#xf4fb;" horiz-adv-x="1269" 
d="M881 952v-2q0 -1 -1 -3t-1 -3h270v-276h-320l-116 -654q-34 -201 -124 -322q-88 -118 -270 -118q-168 0 -276 119l102 229q69 -72 154 -72q86 0 113 140l125 678h-252v276h301l8 53q69 455 453 455q170 0 272 -84l-109 -238q-74 46 -147 46q-77 0 -117 -51
q-37 -48 -65 -173z" />
    <glyph glyph-name="uni20B4.tab" unicode="&#xf4fc;" horiz-adv-x="1269" 
d="M184 793l47 245h689q28 18 28 52q0 65 -160 65q-185 0 -315 -76l-84 258q182 115 465 115q197 0 305 -73q107 -72 107 -199q0 -75 -41 -142h114l-47 -245h-282q-49 -32 -236 -111h496l-47 -246h-695q-43 -28 -43 -71q0 -86 191 -86q210 0 371 106l98 -225
q-78 -80 -217 -129q-138 -49 -285 -49q-212 0 -343 76q-132 76 -132 225q0 80 41 153h-94l47 246h260q120 49 166 66q81 29 112 45h-516z" />
    <glyph glyph-name="uni20BD.tab" unicode="&#xf4fd;" horiz-adv-x="1269" 
d="M123 588l55 276h201l110 570q48 0 118 1t138 1q49 0 85 1t69 1q483 0 483 -377q0 -225 -177 -349q-176 -124 -472 -124h-102l-17 -86h328l-53 -277h-328l-43 -225h-307l43 225h-201l53 277h201l17 86h-201zM856 1161h-113l-57 -297h98q281 0 281 172q0 72 -51 99
q-49 26 -158 26z" />
    <glyph glyph-name="zero.denominator" unicode="&#xf655;" horiz-adv-x="993" 
d="M119 362q0 211 125 359q124 147 348 147q189 0 281 -98q94 -100 94 -270q0 -196 -122 -353q-121 -155 -341 -155q-385 0 -385 370zM395 375q0 -59 33 -93t92 -34q78 0 124 62t46 177q0 58 -34 92q-33 33 -91 33q-83 0 -126 -65q-44 -67 -44 -172z" />
    <glyph glyph-name="one.denominator" unicode="&#xf656;" horiz-adv-x="675" 
d="M121 723l356 137h203l-168 -860h-276l106 537l-164 -64z" />
    <glyph glyph-name="two.denominator" unicode="&#xf657;" horiz-adv-x="870" 
d="M315 510l-180 137q144 221 430 221q147 0 225 -65t78 -178q0 -189 -250 -328l-90 -51h289l-47 -246h-719l41 207l176 92q310 163 310 264q0 60 -76 60q-113 0 -187 -113z" />
    <glyph glyph-name="three.denominator" unicode="&#xf658;" horiz-adv-x="884" 
d="M295 526l-168 154q61 86 164 138q104 52 244 52q155 0 247 -51t92 -157q0 -146 -159 -207q104 -43 104 -158q0 -137 -117 -222q-116 -85 -288 -85q-283 0 -371 229l209 111q40 -94 180 -94q109 0 109 53q0 39 -103 39h-73l34 204h68q115 0 115 56q0 37 -88 37
q-120 0 -199 -99z" />
    <glyph glyph-name="four.denominator" unicode="&#xf659;" horiz-adv-x="919" 
d="M444 0l25 131h-463l37 193l604 536h219l-96 -493h139l-45 -236h-139l-25 -131h-256zM371 367h143l29 149z" />
    <glyph glyph-name="five.denominator" unicode="&#xf65a;" horiz-adv-x="856" 
d="M139 319l140 541h579l-47 -246h-367l-16 -47q38 6 92 6q132 0 204 -66q73 -67 73 -183q0 -151 -113 -243q-112 -91 -297 -91q-255 0 -354 172l203 141q37 -67 159 -67q125 0 125 65q0 57 -123 57q-107 0 -258 -39z" />
    <glyph glyph-name="six.denominator" unicode="&#xf65b;" horiz-adv-x="972" 
d="M111 346q0 231 143 377q144 147 399 147q192 0 322 -88l-139 -186q-86 39 -205 39q-195 0 -223 -121q102 78 233 78q140 0 219 -68q78 -68 78 -186q0 -144 -118 -246t-314 -102q-187 0 -291 91t-104 265zM406 319q-6 -37 26 -60t92 -23q138 0 138 75q0 56 -117 56
q-86 0 -139 -48z" />
    <glyph glyph-name="seven.denominator" unicode="&#xf65c;" horiz-adv-x="813" 
d="M119 604l51 256h731l-39 -196l-485 -664h-336l457 604h-379z" />
    <glyph glyph-name="eight.denominator" unicode="&#xf65d;" horiz-adv-x="1019" 
d="M557 543h39q38 0 67 13t29 38q0 41 -100 41q-109 0 -109 -49q0 -43 74 -43zM553 338h-33q-123 0 -123 -57q0 -56 117 -56q148 0 148 62q0 51 -109 51zM494 -10q-171 0 -271 62q-102 63 -102 194q0 141 141 207q-55 43 -55 118q0 131 118 215q119 84 291 84q170 0 261 -61
q92 -62 92 -168q0 -125 -119 -197q88 -46 88 -141q0 -153 -128 -233t-316 -80z" />
    <glyph glyph-name="nine.denominator" unicode="&#xf65e;" horiz-adv-x="972" 
d="M950 514q0 -241 -140 -382q-141 -142 -400 -142q-182 0 -322 88l139 186q85 -39 205 -39q100 0 156 36q54 35 65 85q-102 -78 -233 -78q-134 0 -216 68q-81 68 -81 186q0 150 124 249t308 99t290 -92q105 -92 105 -264zM655 541q6 37 -26 60q-33 24 -92 24q-50 0 -94 -19
q-42 -18 -42 -53q0 -59 115 -59q95 0 139 47z" />
    <glyph glyph-name="zero.numerator" unicode="&#xf661;" horiz-adv-x="993" 
d="M276 977q0 210 125 358t349 148q188 0 281 -99t93 -270q0 -195 -122 -352q-122 -156 -340 -156q-386 0 -386 371zM553 989q0 -59 33 -93t92 -34q78 0 124 63q46 62 46 177q0 57 -34 91t-91 34q-83 0 -126 -66q-44 -67 -44 -172z" />
    <glyph glyph-name="one.numerator" unicode="&#xf662;" horiz-adv-x="675" 
d="M281 1337l356 138h203l-168 -861h-277l107 537l-164 -64z" />
    <glyph glyph-name="two.numerator" unicode="&#xf663;" horiz-adv-x="870" 
d="M473 1124l-180 138q144 221 430 221q145 0 224 -66t79 -178q0 -189 -250 -328l-90 -51h289l-47 -246h-719l41 207l176 92q309 162 309 265q0 59 -76 59q-112 0 -186 -113z" />
    <glyph glyph-name="three.numerator" unicode="&#xf664;" horiz-adv-x="884" 
d="M455 1141l-168 153q62 88 164 139q104 52 243 52q156 0 248 -51t92 -158q0 -145 -160 -207q105 -43 105 -158q0 -137 -117 -222q-116 -85 -289 -85q-281 0 -370 230l209 110q40 -94 180 -94q108 0 108 53q0 39 -102 39h-74l35 205h68q114 0 114 55q0 37 -88 37
q-119 0 -198 -98z" />
    <glyph glyph-name="four.numerator" unicode="&#xf665;" horiz-adv-x="919" 
d="M604 614l25 131h-463l37 193l604 537h219l-96 -494h139l-45 -236h-139l-25 -131h-256zM530 981h144l28 149z" />
    <glyph glyph-name="five.numerator" unicode="&#xf666;" horiz-adv-x="856" 
d="M299 934l139 541h580l-47 -246h-367l-16 -47q37 6 92 6q131 0 204 -67q72 -66 72 -183q0 -152 -112 -243t-297 -91q-255 0 -354 172l202 142q38 -68 160 -68q125 0 125 65q0 58 -123 58q-107 0 -258 -39z" />
    <glyph glyph-name="six.numerator" unicode="&#xf667;" horiz-adv-x="972" 
d="M270 961q0 229 144 376q145 148 399 148q192 0 322 -88l-140 -187q-85 39 -204 39q-196 0 -224 -121q102 78 234 78q142 0 219 -67q78 -67 78 -187q0 -143 -118 -245q-120 -103 -314 -103q-187 0 -291 91q-105 91 -105 266zM565 934q-6 -37 27 -61q32 -23 92 -23
q137 0 137 76q0 55 -116 55q-88 0 -140 -47z" />
    <glyph glyph-name="seven.numerator" unicode="&#xf668;" horiz-adv-x="813" 
d="M276 1219l52 256h731l-39 -197l-485 -664h-336l456 605h-379z" />
    <glyph glyph-name="eight.numerator" unicode="&#xf669;" horiz-adv-x="1019" 
d="M717 1157h39q37 0 66 13q30 14 30 38q0 41 -100 41q-109 0 -109 -49q0 -43 74 -43zM713 952h-33q-123 0 -123 -57q0 -55 117 -55q147 0 147 61q0 51 -108 51zM653 604q-168 0 -270 63t-102 193q0 141 141 207q-55 43 -55 119q0 132 117 215q119 84 292 84q168 0 260 -62
t92 -168q0 -124 -118 -196q88 -46 88 -141q0 -154 -128 -234t-317 -80z" />
    <glyph glyph-name="nine.numerator" unicode="&#xf66a;" horiz-adv-x="972" 
d="M1110 1128q0 -241 -140 -382q-141 -142 -401 -142q-181 0 -321 88l139 187q86 -39 205 -39q100 0 156 36q54 35 65 85q-102 -78 -233 -78q-136 0 -216 67q-81 68 -81 187q0 149 124 248q126 100 308 100q184 0 290 -92q105 -91 105 -265zM815 1155q6 36 -27 60t-92 24
q-51 0 -93 -18t-42 -54q0 -59 115 -59q95 0 139 47z" />
    <glyph glyph-name="uniF66D" unicode="&#xf66d;" horiz-adv-x="1273" 
d="M-61 0l757 1145h226l311 -1145h-305l-51 174h-474l-120 -174h-344zM735 680l-178 -250h256zM496 1454l153 148q74 -107 193 -107q67 0 137 31q67 30 108 71l87 -163q-61 -78 -154 -131q-94 -54 -203 -54q-126 0 -208 63q-83 64 -113 142z" />
    <glyph glyph-name="uniF66E" unicode="&#xf66e;" horiz-adv-x="1273" 
d="M-61 0l757 1145h226l311 -1145h-305l-51 174h-474l-120 -174h-344zM735 680l-178 -250h256zM524 1290v246h602v-246h-602z" />
    <glyph glyph-name="uniF66F" unicode="&#xf66f;" horiz-adv-x="1273" 
d="M1145 -143l55 -185q-33 -33 -107 -57q-78 -25 -155 -25q-117 0 -189 42q-73 43 -73 124q0 176 250 252l-49 166h-474l-120 -174h-344l757 1145h226l311 -1145h-96q-57 -1 -94 -37q-35 -34 -35 -80q0 -47 53 -47q35 0 84 21zM735 680l-178 -250h256z" />
    <glyph glyph-name="uniF671" unicode="&#xf671;" horiz-adv-x="1216" 
d="M1059 428l166 -213q-192 -235 -531 -235q-272 0 -431 140q-161 141 -161 372q0 302 202 489q201 186 515 186q334 0 484 -243l-230 -176q-91 122 -282 122q-169 0 -270 -94t-101 -239q0 -116 84 -188q85 -73 217 -73q111 0 185 37q76 38 153 115zM1171 1554l-303 -303
l-186 168l287 328z" />
    <glyph glyph-name="uniF672" unicode="&#xf672;" horiz-adv-x="1216" 
d="M1059 428l166 -213q-192 -235 -531 -235q-272 0 -431 140q-161 141 -161 372q0 302 202 489q201 186 515 186q334 0 484 -243l-230 -176q-91 122 -282 122q-169 0 -270 -94t-101 -239q0 -116 84 -188q85 -73 217 -73q111 0 185 37q76 38 153 115zM815 1225l-301 295
l160 163l172 -167l252 163l112 -192l-387 -262h-8z" />
    <glyph glyph-name="uniF673" unicode="&#xf673;" horiz-adv-x="1216" 
d="M1059 428l166 -213q-192 -235 -531 -235q-272 0 -431 140q-161 141 -161 372q0 302 202 489q201 186 515 186q334 0 484 -243l-230 -176q-91 122 -282 122q-169 0 -270 -94t-101 -239q0 -116 84 -188q85 -73 217 -73q111 0 185 37q76 38 153 115zM889 1673l301 -295
l-160 -164l-172 168l-252 -163l-112 192l387 262h8z" />
    <glyph glyph-name="uniF674" unicode="&#xf674;" horiz-adv-x="1216" 
d="M1059 428l166 -213q-192 -235 -531 -235q-272 0 -431 140q-161 141 -161 372q0 302 202 489q201 186 515 186q334 0 484 -243l-230 -176q-91 122 -282 122q-169 0 -270 -94t-101 -239q0 -116 84 -188q85 -73 217 -73q111 0 185 37q76 38 153 115zM684 1430q0 63 47 105
t121 42q72 0 119 -42t47 -105q0 -65 -47 -109q-46 -43 -119 -43q-78 0 -123 42t-45 110z" />
    <glyph glyph-name="uniF675" unicode="&#xf675;" horiz-adv-x="1259" 
d="M57 0l224 1147h389q616 0 616 -481q0 -340 -231 -503q-230 -163 -637 -163h-361zM612 860h-80l-112 -573h82q243 0 355 95t112 259q0 123 -90 171t-267 48zM729 1225l-301 295l160 163l172 -167l252 163l112 -192l-387 -262h-8z" />
    <glyph glyph-name="uniF676" unicode="&#xf676;" horiz-adv-x="1378" 
d="M76 446l49 254h186l86 447h391q323 0 469 -127q148 -128 148 -342q0 -678 -866 -678h-363l86 446h-186zM729 860h-80l-31 -160h259l-50 -254h-258l-30 -159h82q243 0 355 95q111 95 111 259q0 121 -90 170q-89 49 -268 49z" />
    <glyph glyph-name="uniF678" unicode="&#xf678;" horiz-adv-x="1134" 
d="M57 0l224 1147h927l-55 -287h-621l-28 -141h577l-53 -277h-577l-31 -155h635l-56 -287h-942zM754 1225l-301 295l159 163l172 -167l252 163l113 -192l-387 -262h-8z" />
    <glyph glyph-name="uniF679" unicode="&#xf679;" horiz-adv-x="1134" 
d="M57 0l224 1147h927l-55 -287h-621l-28 -141h577l-53 -277h-577l-31 -155h635l-56 -287h-942zM600 1430q0 63 47 105t121 42q72 0 119 -42t47 -105q0 -65 -47 -109q-46 -43 -119 -43q-78 0 -123 42t-45 110z" />
    <glyph glyph-name="uniF67A" unicode="&#xf67a;" horiz-adv-x="1134" 
d="M57 0l224 1147h927l-55 -287h-621l-28 -141h577l-53 -277h-577l-31 -155h635l-56 -287h-942zM463 1290v246h602v-246h-602z" />
    <glyph glyph-name="uniF67C" unicode="&#xf67c;" horiz-adv-x="1134" 
d="M57 0l224 1147h927l-55 -287h-621l-28 -141h577l-53 -277h-577l-31 -155h635l-56 -287h-16q-56 -1 -93 -37q-36 -34 -36 -80q0 -47 53 -47q35 0 84 21l56 -185q-33 -33 -108 -57q-78 -25 -155 -25q-117 0 -189 42q-73 43 -73 124q0 166 223 244h-688z" />
    <glyph glyph-name="uniF67D" unicode="&#xf67d;" horiz-adv-x="1261" 
d="M645 393l53 277h594l-90 -490q-82 -86 -216 -144q-130 -56 -300 -56q-261 0 -425 138q-163 138 -163 374q0 282 195 479q195 196 541 196q167 0 288 -67q120 -67 181 -176l-236 -166q-82 112 -256 112q-171 0 -283 -88t-112 -245q0 -134 89 -197q90 -64 216 -64
q119 0 211 50l12 67h-299zM528 1454l154 148q74 -107 192 -107q68 0 138 31q67 30 108 71l86 -163q-62 -79 -153 -131q-94 -54 -203 -54q-126 0 -208 63q-85 65 -114 142z" />
    <glyph glyph-name="uniF67E" unicode="&#xf67e;" horiz-adv-x="1261" 
d="M645 393l53 277h594l-90 -490q-82 -86 -216 -144q-130 -56 -300 -56q-261 0 -425 138q-163 138 -163 374q0 282 195 479q195 196 541 196q167 0 288 -67q120 -67 181 -176l-236 -166q-82 112 -256 112q-171 0 -283 -88t-112 -245q0 -134 89 -197q90 -64 216 -64
q119 0 211 50l12 67h-299zM915 1673l302 -295l-160 -164l-172 168l-252 -163l-113 192l387 262h8z" />
    <glyph glyph-name="uniF67F" unicode="&#xf67f;" horiz-adv-x="1261" 
d="M645 393l53 277h594l-90 -490q-82 -86 -216 -144q-130 -56 -300 -56q-261 0 -425 138q-163 138 -163 374q0 282 195 479q195 196 541 196q167 0 288 -67q120 -67 181 -176l-236 -166q-82 112 -256 112q-171 0 -283 -88t-112 -245q0 -134 89 -197q90 -64 216 -64
q119 0 211 50l12 67h-299zM471 -215l262 152q74 -63 74 -160q0 -124 -90 -223q-88 -97 -205 -160l-117 125q113 99 113 168q0 43 -37 98z" />
    <glyph glyph-name="uniF680" unicode="&#xf680;" horiz-adv-x="1261" 
d="M645 393l53 277h594l-90 -490q-82 -86 -216 -144q-130 -56 -300 -56q-261 0 -425 138q-163 138 -163 374q0 282 195 479q195 196 541 196q167 0 288 -67q120 -67 181 -176l-236 -166q-82 112 -256 112q-171 0 -283 -88t-112 -245q0 -134 89 -197q90 -64 216 -64
q119 0 211 50l12 67h-299zM684 1430q0 63 47 105t121 42q72 0 119 -42t47 -105q0 -65 -47 -109q-46 -43 -119 -43q-78 0 -123 42t-45 110z" />
    <glyph glyph-name="uniF681" unicode="&#xf681;" horiz-adv-x="1308" 
d="M106 811l46 236h108l21 100h307l-21 -100h480l20 100h307l-20 -100h106l-45 -236h-106l-158 -811h-307l84 432h-479l-84 -432h-308l158 811h-109zM504 719h479l18 92h-479z" />
    <glyph glyph-name="uniF682" unicode="&#xf682;" horiz-adv-x="1310" 
d="M844 0l84 432h-479l-84 -432h-308l224 1147h307l-84 -428h479l84 428h307l-223 -1147h-307zM903 1673l301 -295l-160 -164l-172 168l-251 -163l-113 192l387 262h8z" />
    <glyph glyph-name="uniF685" unicode="&#xf685;" horiz-adv-x="536" 
d="M70 0l217 1147h307l-217 -1147h-307zM164 1290v246h602v-246h-602z" />
    <glyph glyph-name="uniF686" unicode="&#xf686;" horiz-adv-x="536" 
d="M70 0l217 1147h307l-217 -1147h-12q-61 0 -102 -35q-40 -34 -40 -82q0 -47 53 -47q34 0 84 21l56 -185q-33 -33 -108 -57q-78 -25 -154 -25q-118 0 -190 42q-73 43 -73 124q0 166 224 244h-45z" />
    <glyph glyph-name="uniF688" unicode="&#xf688;" horiz-adv-x="845" 
d="M920 1147l-146 -780q-76 -387 -420 -387q-126 0 -227 60q-100 60 -145 171l243 162q16 -48 50 -76q37 -31 83 -31q53 0 80 40q26 39 41 122l133 719h308zM844 1673l301 -295l-160 -164l-172 168l-252 -163l-112 192l387 262h8z" />
    <glyph glyph-name="uniF689" unicode="&#xf689;" horiz-adv-x="1245" 
d="M57 0l224 1147h307l-76 -404l463 404h426l-627 -535l422 -612h-377l-297 432l-86 -67l-71 -365h-308zM326 -215l262 152q74 -63 74 -160q0 -123 -91 -223q-89 -98 -204 -160l-117 125q112 99 112 168q0 45 -36 98z" />
    <glyph glyph-name="uniF68A" unicode="&#xf68a;" horiz-adv-x="1071" 
d="M57 0l217 1147h308l-162 -860h637l-56 -287h-944zM1004 1554l-304 -303l-186 168l287 328z" />
    <glyph glyph-name="uniF68B" unicode="&#xf68b;" horiz-adv-x="1071" 
d="M57 0l217 1147h308l-162 -860h637l-56 -287h-944zM844 1147h305q10 -26 10 -107q0 -241 -325 -415l-119 123q151 124 151 270q0 89 -22 129z" />
    <glyph glyph-name="uniF68C" unicode="&#xf68c;" horiz-adv-x="1071" 
d="M57 0l217 1147h308l-162 -860h637l-56 -287h-944zM326 -215l262 152q74 -63 74 -160q0 -123 -91 -223q-89 -98 -204 -160l-117 125q112 99 112 168q0 45 -36 98z" />
    <glyph glyph-name="uniF68D" unicode="&#xf68d;" horiz-adv-x="1071" 
d="M57 0l217 1147h308l-162 -860h637l-56 -287h-944zM668 616q0 68 54 121q56 54 138 54q76 0 133 -55q56 -54 56 -120q0 -69 -56 -123q-57 -55 -133 -55q-82 0 -138 54q-54 53 -54 124z" />
    <glyph glyph-name="uniF68E" unicode="&#xf68e;" horiz-adv-x="1292" 
d="M1133 0h-238l-414 653l-125 -653h-299l224 1147h235l418 -664l123 664h299zM1147 1554l-303 -303l-187 168l287 328z" />
    <glyph glyph-name="uniF68F" unicode="&#xf68f;" horiz-adv-x="1292" 
d="M1133 0h-238l-414 653l-125 -653h-299l224 1147h235l418 -664l123 664h299zM829 1225l-301 295l160 163l172 -167l252 163l113 -192l-387 -262h-9z" />
    <glyph glyph-name="uniF690" unicode="&#xf690;" horiz-adv-x="1292" 
d="M1133 0h-238l-414 653l-125 -653h-299l224 1147h235l418 -664l123 664h299zM387 -215l262 152q74 -63 74 -160q0 -124 -90 -223q-88 -97 -205 -160l-117 125q113 99 113 168q0 43 -37 98z" />
    <glyph glyph-name="uniF692" unicode="&#xf692;" horiz-adv-x="1359" 
d="M102 481q0 296 198 491t515 195q259 0 411 -140t152 -359q0 -294 -191 -491t-517 -197q-249 0 -409 137q-159 137 -159 364zM420 522q0 -106 73 -176t195 -70q175 0 275 103q98 101 98 244q0 102 -71 175q-70 72 -197 72q-170 0 -272 -103q-101 -102 -101 -245z
M1376 1518l-319 -287l-146 131l289 321zM1022 1577l-287 -324l-147 133l256 343z" />
    <glyph glyph-name="uniF693" unicode="&#xf693;" horiz-adv-x="1359" 
d="M102 481q0 296 198 491t515 195q259 0 411 -140t152 -359q0 -294 -191 -491t-517 -197q-249 0 -409 137q-159 137 -159 364zM420 522q0 -106 73 -176t195 -70q175 0 275 103q98 101 98 244q0 102 -71 175q-70 72 -197 72q-170 0 -272 -103q-101 -102 -101 -245zM563 1290
v246h602v-246h-602z" />
    <glyph glyph-name="uniF695" unicode="&#xf695;" horiz-adv-x="1206" 
d="M365 0h-308l224 1147h501q432 0 432 -352q0 -128 -80 -232t-225 -151l242 -412h-342l-207 362h-168zM727 860h-195l-40 -211h204q96 0 149 32q52 31 52 87q0 47 -38 70q-37 22 -132 22zM1065 1554l-303 -303l-187 168l287 328z" />
    <glyph glyph-name="uniF696" unicode="&#xf696;" horiz-adv-x="1206" 
d="M365 0h-308l224 1147h501q432 0 432 -352q0 -128 -80 -232t-225 -151l242 -412h-342l-207 362h-168zM727 860h-195l-40 -211h204q96 0 149 32q52 31 52 87q0 47 -38 70q-37 22 -132 22zM750 1225l-301 295l159 163l172 -167l252 163l113 -192l-387 -262h-8z" />
    <glyph glyph-name="uniF697" unicode="&#xf697;" horiz-adv-x="1206" 
d="M365 0h-308l224 1147h501q432 0 432 -352q0 -128 -80 -232t-225 -151l242 -412h-342l-207 362h-168zM727 860h-195l-40 -211h204q96 0 149 32q52 31 52 87q0 47 -38 70q-37 22 -132 22zM326 -215l262 152q74 -63 74 -160q0 -123 -91 -223q-89 -98 -204 -160l-117 125
q112 99 112 168q0 45 -36 98z" />
    <glyph glyph-name="uniF698" unicode="&#xf698;" 
d="M760 358q0 36 -43 60q-46 26 -109 37q-70 13 -141 35q-67 21 -141 53q-66 28 -109 91q-43 62 -43 148q0 172 144 279q143 106 384 106q154 0 277 -50q120 -49 188 -138l-178 -193q-128 95 -313 95q-184 0 -184 -88q0 -34 43 -56q46 -24 108 -35q70 -13 141 -35
q68 -21 142 -55q64 -29 108 -93q43 -62 43 -148q0 -191 -141 -291q-140 -100 -369 -100q-184 0 -324 70q-141 70 -204 171l203 193q148 -148 348 -148q170 0 170 92zM1065 1554l-303 -303l-187 168l287 328z" />
    <glyph glyph-name="uniF699" unicode="&#xf699;" 
d="M227 -326l105 131q68 -51 162 -51q65 0 65 31t-86 31h-12l31 168q-160 12 -277 79q-119 68 -176 158l203 193q148 -148 348 -148q170 0 170 92q0 36 -43 60q-46 26 -109 37q-70 13 -141 35q-67 21 -141 53q-66 28 -109 91q-43 62 -43 148q0 172 144 279q143 106 384 106
q154 0 277 -50q120 -49 188 -138l-178 -193q-128 95 -313 95q-184 0 -184 -88q0 -34 43 -56q46 -24 108 -35q70 -13 141 -35q68 -21 142 -55q64 -29 108 -93q43 -62 43 -148q0 -174 -118 -273q-117 -97 -314 -114l-6 -37q186 -17 186 -154q0 -101 -87 -162q-86 -61 -251 -61
q-76 0 -148 29t-112 75z" />
    <glyph glyph-name="uniF69A" unicode="&#xf69a;" 
d="M760 358q0 36 -43 60q-46 26 -109 37q-70 13 -141 35q-67 21 -141 53q-66 28 -109 91q-43 62 -43 148q0 172 144 279q143 106 384 106q154 0 277 -50q120 -49 188 -138l-178 -193q-128 95 -313 95q-184 0 -184 -88q0 -34 43 -56q46 -24 108 -35q70 -13 141 -35
q68 -21 142 -55q64 -29 108 -93q43 -62 43 -148q0 -191 -141 -291q-140 -100 -369 -100q-184 0 -324 70q-141 70 -204 171l203 193q148 -148 348 -148q170 0 170 92zM803 1673l301 -295l-160 -164l-172 168l-252 -163l-112 192l387 262h8z" />
    <glyph glyph-name="uniF69B" unicode="&#xf69b;" 
d="M760 358q0 36 -43 60q-46 26 -109 37q-70 13 -141 35q-67 21 -141 53q-66 28 -109 91q-43 62 -43 148q0 172 144 279q143 106 384 106q154 0 277 -50q120 -49 188 -138l-178 -193q-128 95 -313 95q-184 0 -184 -88q0 -34 43 -56q46 -24 108 -35q70 -13 141 -35
q68 -21 142 -55q64 -29 108 -93q43 -62 43 -148q0 -191 -141 -291q-140 -100 -369 -100q-184 0 -324 70q-141 70 -204 171l203 193q148 -148 348 -148q170 0 170 92zM375 -215l262 152q74 -63 74 -160q0 -124 -90 -223q-88 -97 -205 -160l-117 125q113 99 113 168
q0 43 -37 98z" />
    <glyph glyph-name="uniF69D" unicode="&#xf69d;" horiz-adv-x="1083" 
d="M123 850l57 297h1067l-57 -297h-381l-158 -850h-307l158 850h-379zM725 1225l-301 295l160 163l172 -167l252 163l112 -192l-387 -262h-8z" />
    <glyph glyph-name="uniF69E" unicode="&#xf69e;" horiz-adv-x="1083" 
d="M123 850l57 297h1067l-57 -297h-381l-158 -850h-307l158 850h-379zM295 -215l262 152q74 -63 74 -160q0 -124 -90 -223q-88 -97 -205 -160l-117 125q113 99 113 168q0 43 -37 98z" />
    <glyph glyph-name="uniF69F" unicode="&#xf69f;" horiz-adv-x="1273" 
d="M1346 1147l-127 -651q-47 -242 -197 -374t-391 -132q-251 0 -391 135q-140 136 -95 379l125 643h310l-119 -608q-24 -123 23 -192q48 -71 169 -71q111 0 177 74q67 75 88 182l118 615h310zM514 1454l154 148q74 -107 192 -107q67 0 137 31q68 30 109 71l86 -163
q-61 -78 -154 -131q-94 -54 -202 -54q-126 0 -208 63q-85 65 -114 142z" />
    <glyph glyph-name="uniF6A0" unicode="&#xf6a0;" horiz-adv-x="1273" 
d="M1346 1147l-127 -651q-47 -242 -197 -374t-391 -132q-251 0 -391 135q-140 136 -95 379l125 643h310l-119 -608q-24 -123 23 -192q48 -71 169 -71q111 0 177 74q67 75 88 182l118 615h310zM1335 1518l-319 -287l-146 131l289 321zM981 1577l-287 -324l-147 133l256 343z
" />
    <glyph glyph-name="uniF6A1" unicode="&#xf6a1;" horiz-adv-x="1273" 
d="M1346 1147l-127 -651q-47 -242 -197 -374t-391 -132q-251 0 -391 135q-140 136 -95 379l125 643h310l-119 -608q-24 -123 23 -192q48 -71 169 -71q111 0 177 74q67 75 88 182l118 615h310zM555 1290v246h602v-246h-602z" />
    <glyph glyph-name="uniF6A2" unicode="&#xf6a2;" horiz-adv-x="1273" 
d="M1346 1147l-127 -651q-39 -196 -138 -315q-100 -119 -270 -171q-55 -16 -91 -51q-36 -34 -36 -74q0 -20 15 -35q14 -14 38 -14q37 0 86 21l56 -185q-33 -33 -108 -57q-78 -25 -155 -25q-117 0 -189 42q-73 43 -73 124q0 156 209 236q-218 16 -340 147q-121 130 -76 365
l125 643h308l-119 -608q-24 -131 27 -196q53 -67 167 -67q112 0 178 74q66 73 87 182l118 615h308z" />
    <glyph glyph-name="uniF6A3" unicode="&#xf6a3;" horiz-adv-x="1273" 
d="M1346 1147l-127 -651q-47 -242 -197 -374t-391 -132q-251 0 -391 135q-140 136 -95 379l125 643h310l-119 -608q-24 -123 23 -192q48 -71 169 -71q111 0 177 74q67 75 88 182l118 615h310zM590 1470q0 117 90 204t229 87q122 0 189 -64t67 -167q0 -116 -89 -205
q-88 -88 -228 -88q-124 0 -191 63t-67 170zM788 1483q0 -72 80 -72q43 0 72 31t29 78q0 67 -80 67q-44 0 -72 -28q-29 -29 -29 -76z" />
    <glyph glyph-name="uniF6AB" unicode="&#xf6ab;" horiz-adv-x="1107" 
d="M162 860l55 287h1014l-39 -203l-705 -657h590l-55 -287h-1057l39 203l696 657h-538zM1065 1554l-303 -303l-187 168l287 328z" />
    <glyph glyph-name="uniF6AC" unicode="&#xf6ac;" horiz-adv-x="1107" 
d="M162 860l55 287h1014l-39 -203l-705 -657h590l-55 -287h-1057l39 203l696 657h-538zM567 1430q0 63 47 105t121 42q73 0 119 -42q47 -42 47 -105q0 -65 -47 -109q-46 -43 -119 -43q-78 0 -123 42t-45 110z" />
    <glyph glyph-name="uniF6AD" unicode="&#xf6ad;" horiz-adv-x="536" 
d="M70 0l217 1147h307l-217 -1147h-307zM330 1430q0 63 47 105t121 42q72 0 118 -42q48 -43 48 -105q0 -64 -48 -109q-46 -43 -118 -43q-78 0 -123 42t-45 110z" />
    <glyph glyph-name="uniF6BA" unicode="&#xf6ba;" horiz-adv-x="868" 
d="M244 612v267h622v-267h-622z" />
    <glyph glyph-name="uniF6BB" unicode="&#xf6bb;" horiz-adv-x="1261" 
d="M307 616v258h934v-258h-934z" />
    <glyph glyph-name="uniF6BC" unicode="&#xf6bc;" horiz-adv-x="1630" 
d="M307 616v258h1303v-258h-1303z" />
    <glyph glyph-name="uniF6C3" unicode="&#xf6c3;" horiz-adv-x="778" 
d="M381 -205l278 142q74 -63 74 -160q0 -125 -87 -224q-87 -98 -200 -159l-122 119q104 89 104 172q0 48 -47 110z" />
    <glyph glyph-name="uniF6C9" unicode="&#xf6c9;" horiz-adv-x="1222" 
d="M1530 1716l-502 -209l-88 219l479 269z" />
    <glyph glyph-name="uniF6CA" unicode="&#xf6ca;" horiz-adv-x="1161" 
d="M1083 1522l-344 252l140 161l231 -155l293 155l82 -182l-393 -231h-9z" />
    <glyph glyph-name="uniF6CB" unicode="&#xf6cb;" horiz-adv-x="1087" 
d="M1077 1698q0 68 48 114q50 48 118 48q69 0 120 -48q50 -47 50 -114q0 -66 -50 -111q-49 -45 -120 -45q-70 0 -118 45t-48 111zM567 1698q0 67 47 114q48 48 117 48q71 0 122 -48q50 -47 50 -114q0 -66 -50 -111q-49 -45 -122 -45q-71 0 -117 45q-47 45 -47 111z" />
    <glyph glyph-name="uniF6CE" unicode="&#xf6ce;" horiz-adv-x="1015" 
d="M1214 1487l-481 250l152 258l454 -312z" />
    <glyph glyph-name="uniF6CF" unicode="&#xf6cf;" horiz-adv-x="1359" 
d="M1679 1675l-432 -202l-117 137l347 272zM1235 1765l-363 -268l-122 127l227 291z" />
    <glyph glyph-name="uniF6D0" unicode="&#xf6d0;" horiz-adv-x="1093" 
d="M778 1577v246h643v-246h-643z" />
    <glyph glyph-name="uniF6D1" unicode="&#xf6d1;" horiz-adv-x="1212" 
d="M750 1829h266q6 -105 114 -105q102 0 136 105h266q-35 -164 -148 -250t-270 -86q-178 0 -275 85q-96 85 -89 251z" />
    <glyph glyph-name="uniF6D4" unicode="&#xf6d4;" horiz-adv-x="952" 
d="M393 1511h258q-15 -108 82 -108q99 0 115 108h258q-21 -136 -124 -235q-102 -98 -271 -98q-159 0 -250 83q-90 83 -68 250z" />
    </font>
</defs>
</svg>
