<?xml version="1.0" ?><svg id="Layer_1" style="enable-background:new 0 0 1024 1024;" version="1.1" viewBox="0 0 1024 1024" xml:space="preserve" xmlns="http://www.w3.org/2000/svg" xmlns:xlink="http://www.w3.org/1999/xlink" fill="#999"><path d="M749.5,417.3H715V283.8c0-54.4-21.1-105.4-59.4-143.7c-38.4-38.4-89.3-59.5-143.5-59.5  c-54.3,0-105.3,21.1-143.6,59.5c-38.3,38.4-59.5,89.4-59.5,143.7v133.5h-34.5c-41.1,0-74.5,33.4-74.5,74.5v376.5  c0,41.3,33.4,74.9,74.5,74.9h475c41.1,0,74.5-33.6,74.5-74.9V491.8C824,450.8,790.6,417.3,749.5,417.3z M532,742.8v55.5h-40v-55.5  c-23-8.2-39.5-30.2-39.5-56c0-32.8,26.7-59.5,59.5-59.5s59.5,26.7,59.5,59.5C571.5,712.5,555,734.5,532,742.8z M655,417.3H369V283.8  c0-79,64.2-143.2,143.1-143.2c38.2,0,74.1,14.9,101.1,41.9c27,27,41.8,62.9,41.8,101.2V417.3z" id="XMLID_442_"/><g id="XMLID_1_"/><g id="XMLID_2_"/><g id="XMLID_3_"/><g id="XMLID_4_"/><g id="XMLID_5_"/></svg>